<?xml version="1.0" encoding="utf-8"?>
<!-- Generator: Adobe Illustrator 24.0.3, SVG Export Plug-In . SVG Version: 6.00 Build 0)  -->
<svg version="1.1" id="Layer_1" xmlns="http://www.w3.org/2000/svg" xmlns:xlink="http://www.w3.org/1999/xlink" x="0px" y="0px"
	 viewBox="0 0 884 885" enable-background="new 0 0 884 885" xml:space="preserve">
<path fill="none" stroke="#1E193B" stroke-linecap="round" stroke-linejoin="round" stroke-miterlimit="10" d="M520.4,497.7
	c28.7-49.7,11.7-113.3-38.1-142.1c-49.7-28.7-113.3-11.7-142.1,38.1c-28.7,49.7-11.7,113.3,38.1,142.1
	C428,564.5,491.6,547.4,520.4,497.7z"/>
<path fill="#5BB889" stroke="#1E193B" stroke-width="2" stroke-linecap="round" stroke-linejoin="round" stroke-miterlimit="10" d="
	M688,4.2L9.3,186.1c-4.5,1.2-7.2,5.7-5.9,10.3l48.1,179.6l15.1-4l10.6,39.7l-15.1,4L185.2,875c1.2,4.4,5.7,7.2,10.3,5.9l678.7-181.8
	c4.4-1.2,7.2-5.7,5.9-10.3L698.3,10.2C697,5.7,692.4,3,688,4.2z"/>
<path fill="#1E193B" stroke="#1E193B" stroke-width="2" stroke-linecap="round" stroke-linejoin="round" stroke-miterlimit="10" d="
	M403.3,345.1c-55.4,14.9-88.4,71.9-73.5,127.4s71.9,88.4,127.4,73.5c55.4-14.9,88.4-71.9,73.5-127.4
	C515.8,363.2,458.9,330.2,403.3,345.1z M442.7,492.2c-25.8,6.9-52.2-8.4-59.2-34.2c-6.9-25.8,8.4-52.2,34.2-59.2
	c25.8-6.9,52.2,8.4,59.2,34.2C483.8,458.9,468.5,485.3,442.7,492.2z"/>
<path fill="#1E193B" stroke="#1E193B" stroke-width="2" stroke-linecap="round" stroke-linejoin="round" stroke-miterlimit="10" d="
	M471.7,599.9c-13.3,3.6-21.2,17.3-17.7,30.6l27.1,101c3.6,13.3,17.3,21.2,30.6,17.7s21.3-17.3,17.7-30.6l-27.1-101
	C498.7,604.3,485,596.3,471.7,599.9z"/>
<path fill="#FFFFFF" stroke="#1E193B" stroke-width="2" stroke-linecap="round" stroke-linejoin="round" stroke-miterlimit="10" d="
	M294.2,292.8L88,348c-6.2,1.7-12.6-2-14.2-8.2l-30-112c-1.7-6.2,2-12.6,8.2-14.2l206.1-55.2c6.2-1.7,12.6,2,14.2,8.2l30,112
	C304,284.9,300.3,291.1,294.2,292.8z"/>
<path opacity="0.28" fill="none" stroke="#1E193B" stroke-width="2" stroke-linecap="round" stroke-linejoin="round" stroke-miterlimit="10" d="
	M65.6,248.1l190.4-51"/>
<path opacity="0.28" fill="none" stroke="#1E193B" stroke-width="2" stroke-linecap="round" stroke-linejoin="round" stroke-miterlimit="10" d="
	M71.3,269.2l190.4-51"/>
<path opacity="0.28" fill="none" stroke="#1E193B" stroke-width="2" stroke-linecap="round" stroke-linejoin="round" stroke-miterlimit="10" d="
	M76.9,290.3l190.4-51"/>
<path opacity="0.28" fill="none" stroke="#1E193B" stroke-width="2" stroke-linecap="round" stroke-linejoin="round" stroke-miterlimit="10" d="
	M82.6,311.4l190.4-51"/>
<path fill="#1E193B" stroke="#1E193B" stroke-width="2" stroke-linecap="round" stroke-linejoin="round" stroke-miterlimit="10" d="
	M566.8,423.2c7.3-1.9,11.6-9.4,9.6-16.7c-1.9-7.3-9.4-11.6-16.7-9.6s-11.6,9.4-9.6,16.7C552.1,420.8,559.5,425.1,566.8,423.2z"/>
<g id="Layer_2">
</g>
<g id="Layer_3">
</g>
</svg>
