<?xml version="1.0" encoding="utf-8"?>
<!-- Generator: Adobe Illustrator 24.0.3, SVG Export Plug-In . SVG Version: 6.00 Build 0)  -->
<svg version="1.1" id="Layer_1" xmlns="http://www.w3.org/2000/svg" xmlns:xlink="http://www.w3.org/1999/xlink" x="0px" y="0px"
	 viewBox="0 0 1540 1163.1" enable-background="new 0 0 1540 1163.1" xml:space="preserve">
<g>
	
		<path fill="#1E193C" stroke="#1E193C" stroke-width="2" stroke-linecap="round" stroke-linejoin="round" stroke-miterlimit="10" d="
		M46.5,596.9L1269.9,58.3c17.5-7.7,38,0.2,45.7,17.7l207.1,470.3c7.7,17.5-0.2,38-17.7,45.7L281.5,1130.7
		c-17.5,7.7-38-0.2-45.7-17.7l-207-470.4C21,625.1,29,604.6,46.5,596.9z"/>
	
		<path fill="#5BB687" stroke="#1E1B3C" stroke-width="2" stroke-linecap="round" stroke-linejoin="round" stroke-miterlimit="10" d="
		M35.1,571.1L1258.5,32.4c17.5-7.7,38,0.2,45.7,17.7l207.1,470.3c7.7,17.5-0.2,38-17.7,45.7L270.1,1104.8
		c-17.5,7.7-38-0.2-45.7-17.7l-207-470.4C9.7,599.2,17.6,578.8,35.1,571.1z"/>
	
		<rect x="163.5" y="658.6" transform="matrix(0.9152 -0.403 0.403 0.9152 -257.1048 141.8245)" fill="#1E193C" stroke="#1E193C" stroke-width="2" stroke-linecap="round" stroke-linejoin="round" stroke-miterlimit="10" width="89.9" height="46.5"/>
	
		<rect x="259.8" y="616.2" transform="matrix(0.9152 -0.403 0.403 0.9152 -231.8613 177.0368)" fill="#1E193C" stroke="#1E193C" stroke-width="2" stroke-linecap="round" stroke-linejoin="round" stroke-miterlimit="10" width="89.9" height="46.5"/>
	
		<rect x="351.7" y="575.7" transform="matrix(0.9152 -0.403 0.403 0.9152 -207.7415 210.6337)" fill="#1E193C" stroke="#1E193C" stroke-width="2" stroke-linecap="round" stroke-linejoin="round" stroke-miterlimit="10" width="89.9" height="46.5"/>
	
		<rect x="443.5" y="535.3" transform="matrix(0.9152 -0.403 0.403 0.9152 -183.6792 244.2212)" fill="#1E193C" stroke="#1E193C" stroke-width="2" stroke-linecap="round" stroke-linejoin="round" stroke-miterlimit="10" width="89.9" height="46.5"/>
	
		<rect x="535.4" y="494.9" transform="matrix(0.9152 -0.403 0.403 0.9152 -159.5939 277.8182)" fill="#1E193C" stroke="#1E193C" stroke-width="2" stroke-linecap="round" stroke-linejoin="round" stroke-miterlimit="10" width="89.9" height="46.5"/>
	
		<rect x="627.2" y="454.4" transform="matrix(0.9152 -0.403 0.403 0.9152 -135.4981 311.3816)" fill="#1E193C" stroke="#1E193C" stroke-width="2" stroke-linecap="round" stroke-linejoin="round" stroke-miterlimit="10" width="89.9" height="46.5"/>
	
		<rect x="719.1" y="414" transform="matrix(0.9152 -0.403 0.403 0.9152 -111.4243 344.9911)" fill="#1E193C" stroke="#1E193C" stroke-width="2" stroke-linecap="round" stroke-linejoin="round" stroke-miterlimit="10" width="89.9" height="46.5"/>
	
		<rect x="810.9" y="373.6" transform="matrix(0.9152 -0.403 0.403 0.9152 -87.3504 378.566)" fill="#1E193C" stroke="#1E193C" stroke-width="2" stroke-linecap="round" stroke-linejoin="round" stroke-miterlimit="10" width="89.9" height="46.5"/>
	
		<rect x="902.8" y="333.1" transform="matrix(0.9152 -0.403 0.403 0.9152 -63.2307 412.163)" fill="#1E193C" stroke="#1E193C" stroke-width="2" stroke-linecap="round" stroke-linejoin="round" stroke-miterlimit="10" width="89.9" height="46.5"/>
	
		<rect x="994.6" y="292.7" transform="matrix(0.9152 -0.403 0.403 0.9152 -39.1694 445.7264)" fill="#1E193C" stroke="#1E193C" stroke-width="2" stroke-linecap="round" stroke-linejoin="round" stroke-miterlimit="10" width="89.9" height="46.5"/>
	
		<rect x="1086.4" y="252.2" transform="matrix(0.9152 -0.403 0.403 0.9152 -15.0736 479.2899)" fill="#1E193C" stroke="#1E193C" stroke-width="2" stroke-linecap="round" stroke-linejoin="round" stroke-miterlimit="10" width="89.9" height="46.5"/>
	
		<rect x="1178.3" y="211.7" transform="matrix(0.9152 -0.403 0.403 0.9152 9.0462 512.8868)" fill="#1E193C" stroke="#1E193C" stroke-width="2" stroke-linecap="round" stroke-linejoin="round" stroke-miterlimit="10" width="89.9" height="46.5"/>
	
		<polygon fill="#1E193C" stroke="#1E193C" stroke-width="2" stroke-linecap="round" stroke-linejoin="round" stroke-miterlimit="10" points="
		1009.6,621.4 940.6,651.7 871.6,682.1 802.7,712.5 733.7,742.8 664.8,773.2 595.8,803.5 526.9,833.9 457.9,864.3 482.9,921.1 
		551.9,890.7 620.8,860.4 689.8,830 758.8,799.7 827.7,769.3 896.7,738.9 965.6,708.6 1034.6,678.2 1103.5,647.8 1078.5,591 	"/>
	
		<polygon fill="#1E193C" stroke="#1E193C" stroke-width="2" stroke-linecap="round" stroke-linejoin="round" stroke-miterlimit="10" points="
		1289.8,274.8 1162.4,330.9 1187.4,387.8 1223.4,371.9 1264.6,465.4 1356,425.1 1314.9,331.6 1314.9,331.6 	"/>
	
		<rect x="334.4" y="792.6" transform="matrix(0.9152 -0.403 0.403 0.9152 -300.2359 220.4935)" fill="#1E193C" stroke="#1E193C" stroke-width="2" stroke-linecap="round" stroke-linejoin="round" stroke-miterlimit="10" width="78.8" height="62.1"/>
	
		<rect x="425.9" y="752.3" transform="matrix(0.9152 -0.403 0.403 0.9152 -276.2356 253.9364)" fill="#1E193C" stroke="#1E193C" stroke-width="2" stroke-linecap="round" stroke-linejoin="round" stroke-miterlimit="10" width="78.8" height="62.1"/>
	
		<rect x="243" y="832.9" transform="matrix(0.9152 -0.403 0.403 0.9152 -324.2246 187.0727)" fill="#1E193C" stroke="#1E193C" stroke-width="2" stroke-linecap="round" stroke-linejoin="round" stroke-miterlimit="10" width="78.8" height="62.1"/>
	
		<rect x="517.3" y="712" transform="matrix(0.9152 -0.403 0.403 0.9152 -252.2468 287.3571)" fill="#1E193C" stroke="#1E193C" stroke-width="2" stroke-linecap="round" stroke-linejoin="round" stroke-miterlimit="10" width="78.8" height="62.1"/>
	
		<rect x="608.7" y="671.9" transform="matrix(0.9152 -0.403 0.403 0.9152 -228.3261 320.802)" fill="#1E193C" stroke="#1E193C" stroke-width="2" stroke-linecap="round" stroke-linejoin="round" stroke-miterlimit="10" width="78.8" height="62.1"/>
	
		<rect x="700.1" y="631.5" transform="matrix(0.9152 -0.403 0.403 0.9152 -204.3038 354.1988)" fill="#1E193C" stroke="#1E193C" stroke-width="2" stroke-linecap="round" stroke-linejoin="round" stroke-miterlimit="10" width="78.8" height="62.1"/>
	
		<rect x="791.6" y="591.3" transform="matrix(0.9152 -0.403 0.403 0.9152 -180.337 387.6656)" fill="#1E193C" stroke="#1E193C" stroke-width="2" stroke-linecap="round" stroke-linejoin="round" stroke-miterlimit="10" width="78.8" height="62.1"/>
	
		<rect x="883.1" y="551.1" transform="matrix(0.9152 -0.403 0.403 0.9152 -156.3702 421.1324)" fill="#1E193C" stroke="#1E193C" stroke-width="2" stroke-linecap="round" stroke-linejoin="round" stroke-miterlimit="10" width="78.8" height="62.1"/>
	
		<rect x="974.4" y="510.8" transform="matrix(0.9152 -0.403 0.403 0.9152 -132.394 454.5072)" fill="#1E193C" stroke="#1E193C" stroke-width="2" stroke-linecap="round" stroke-linejoin="round" stroke-miterlimit="10" width="78.8" height="62.1"/>
	
		<rect x="1065.9" y="470.6" transform="matrix(0.9152 -0.403 0.403 0.9152 -108.4272 487.9741)" fill="#1E193C" stroke="#1E193C" stroke-width="2" stroke-linecap="round" stroke-linejoin="round" stroke-miterlimit="10" width="78.8" height="62.1"/>
	
		<rect x="1107" y="564" transform="matrix(0.9152 -0.403 0.403 0.9152 -142.5934 512.4638)" fill="#1E193C" stroke="#1E193C" stroke-width="2" stroke-linecap="round" stroke-linejoin="round" stroke-miterlimit="10" width="78.8" height="62.1"/>
	
		<rect x="1198.4" y="523.8" transform="matrix(0.9152 -0.403 0.403 0.9152 -118.6391 545.8846)" fill="#1E193C" stroke="#1E193C" stroke-width="2" stroke-linecap="round" stroke-linejoin="round" stroke-miterlimit="10" width="78.8" height="62.1"/>
	
		<rect x="1157.3" y="430.3" transform="matrix(0.9152 -0.403 0.403 0.9152 -84.4384 521.3948)" fill="#1E193C" stroke="#1E193C" stroke-width="2" stroke-linecap="round" stroke-linejoin="round" stroke-miterlimit="10" width="78.8" height="62.1"/>
	
		<rect x="284.2" y="926.3" transform="matrix(0.9152 -0.403 0.403 0.9152 -358.3668 211.5959)" fill="#1E193C" stroke="#1E193C" stroke-width="2" stroke-linecap="round" stroke-linejoin="round" stroke-miterlimit="10" width="78.8" height="62.1"/>
	
		<rect x="375.6" y="886.1" transform="matrix(0.9152 -0.403 0.403 0.9152 -334.424 245.0293)" fill="#1E193C" stroke="#1E193C" stroke-width="2" stroke-linecap="round" stroke-linejoin="round" stroke-miterlimit="10" width="78.8" height="62.1"/>
	
		<line fill="none" stroke="#1E193C" stroke-width="2" stroke-linecap="round" stroke-linejoin="round" stroke-miterlimit="10" x1="144.5" y1="636" x2="1237.1" y2="155"/>
	
		<line fill="none" stroke="#1E193C" stroke-width="2" stroke-linecap="round" stroke-linejoin="round" stroke-miterlimit="10" x1="133.5" y1="611" x2="1226.1" y2="129.9"/>
	
		<line fill="none" stroke="#1E193C" stroke-width="2" stroke-linecap="round" stroke-linejoin="round" stroke-miterlimit="10" x1="122.5" y1="586" x2="1215" y2="104.9"/>
	
		<rect x="1289" y="479.3" transform="matrix(0.9152 -0.403 0.403 0.9152 -92.1225 582.8802)" fill="#1E193C" stroke="#1E193C" stroke-width="2" stroke-linecap="round" stroke-linejoin="round" stroke-miterlimit="10" width="99.9" height="62.1"/>
	
		<rect x="156.7" y="643.3" transform="matrix(0.9152 -0.403 0.403 0.9152 -251.5116 137.7921)" fill="#FFFFFF" stroke="#1E193C" stroke-width="2" stroke-linecap="round" stroke-linejoin="round" stroke-miterlimit="10" width="89.9" height="46.5"/>
	
		<rect x="253.1" y="600.9" transform="matrix(0.9152 -0.403 0.403 0.9152 -226.2556 173.0503)" fill="#FFFFFF" stroke="#1E193C" stroke-width="2" stroke-linecap="round" stroke-linejoin="round" stroke-miterlimit="10" width="89.9" height="46.5"/>
	
		<rect x="345" y="560.4" transform="matrix(0.9152 -0.403 0.403 0.9152 -202.1358 206.6473)" fill="#FFFFFF" stroke="#1E193C" stroke-width="2" stroke-linecap="round" stroke-linejoin="round" stroke-miterlimit="10" width="89.9" height="46.5"/>
	
		<rect x="436.8" y="520" transform="matrix(0.9152 -0.403 0.403 0.9152 -178.0745 240.2108)" fill="#FFFFFF" stroke="#1E193C" stroke-width="2" stroke-linecap="round" stroke-linejoin="round" stroke-miterlimit="10" width="89.9" height="46.5"/>
	
		<rect x="528.6" y="479.5" transform="matrix(0.9152 -0.403 0.403 0.9152 -153.9787 273.7742)" fill="#FFFFFF" stroke="#1E193C" stroke-width="2" stroke-linecap="round" stroke-linejoin="round" stroke-miterlimit="10" width="89.9" height="46.5"/>
	
		<rect x="620.4" y="439.1" transform="matrix(0.9152 -0.403 0.403 0.9152 -129.9049 307.3492)" fill="#FFFFFF" stroke="#1E193C" stroke-width="2" stroke-linecap="round" stroke-linejoin="round" stroke-miterlimit="10" width="89.9" height="46.5"/>
	
		<rect x="712.3" y="398.7" transform="matrix(0.9152 -0.403 0.403 0.9152 -105.8311 340.9586)" fill="#FFFFFF" stroke="#1E193C" stroke-width="2" stroke-linecap="round" stroke-linejoin="round" stroke-miterlimit="10" width="89.9" height="46.5"/>
	
		<rect x="804.2" y="358.2" transform="matrix(0.9152 -0.403 0.403 0.9152 -81.7113 374.5555)" fill="#FFFFFF" stroke="#1E193C" stroke-width="2" stroke-linecap="round" stroke-linejoin="round" stroke-miterlimit="10" width="89.9" height="46.5"/>
	
		<rect x="896" y="317.8" transform="matrix(0.9152 -0.403 0.403 0.9152 -57.65 408.119)" fill="#FFFFFF" stroke="#1E193C" stroke-width="2" stroke-linecap="round" stroke-linejoin="round" stroke-miterlimit="10" width="89.9" height="46.5"/>
	
		<rect x="987.8" y="277.3" transform="matrix(0.9152 -0.403 0.403 0.9152 -33.5542 441.6825)" fill="#FFFFFF" stroke="#1E193C" stroke-width="2" stroke-linecap="round" stroke-linejoin="round" stroke-miterlimit="10" width="89.9" height="46.5"/>
	
		<rect x="1079.6" y="236.9" transform="matrix(0.9152 -0.403 0.403 0.9152 -9.4804 475.2574)" fill="#FFFFFF" stroke="#1E193C" stroke-width="2" stroke-linecap="round" stroke-linejoin="round" stroke-miterlimit="10" width="89.9" height="46.5"/>
	
		<rect x="1171.5" y="196.5" transform="matrix(0.9152 -0.403 0.403 0.9152 14.5934 508.8669)" fill="#FFFFFF" stroke="#1E193C" stroke-width="2" stroke-linecap="round" stroke-linejoin="round" stroke-miterlimit="10" width="89.9" height="46.5"/>
	<g>
		
			<rect x="344.6" y="676.6" transform="matrix(0.9152 -0.403 0.403 0.9152 -252.6178 214.7643)" fill="#1E193C" stroke="#1E193C" stroke-width="2" stroke-linecap="round" stroke-linejoin="round" stroke-miterlimit="10" width="78.8" height="62.1"/>
		
			<rect x="337.9" y="661.2" transform="matrix(0.9152 -0.403 0.403 0.9152 -246.9786 210.7538)" fill="#FFFFFF" stroke="#1E193C" stroke-width="2" stroke-linecap="round" stroke-linejoin="round" stroke-miterlimit="10" width="78.8" height="62.1"/>
	</g>
	<g>
		
			<rect x="436.6" y="636.1" transform="matrix(0.9152 -0.403 0.403 0.9152 -228.4921 248.3996)" fill="#1E193C" stroke="#1E193C" stroke-width="2" stroke-linecap="round" stroke-linejoin="round" stroke-miterlimit="10" width="78.8" height="62.1"/>
		
			<rect x="429.9" y="620.7" transform="matrix(0.9152 -0.403 0.403 0.9152 -222.8529 244.3891)" fill="#FFFFFF" stroke="#1E193C" stroke-width="2" stroke-linecap="round" stroke-linejoin="round" stroke-miterlimit="10" width="78.8" height="62.1"/>
	</g>
	<g>
		
			<rect x="528.5" y="595.5" transform="matrix(0.9152 -0.403 0.403 0.9152 -204.3444 281.9888)" fill="#1E193C" stroke="#1E193C" stroke-width="2" stroke-linecap="round" stroke-linejoin="round" stroke-miterlimit="10" width="78.8" height="62.1"/>
		
			<rect x="521.7" y="580.3" transform="matrix(0.9152 -0.403 0.403 0.9152 -198.7972 277.9689)" fill="#FFFFFF" stroke="#1E193C" stroke-width="2" stroke-linecap="round" stroke-linejoin="round" stroke-miterlimit="10" width="78.8" height="62.1"/>
	</g>
	<g>
		
			<rect x="620.4" y="555.1" transform="matrix(0.9152 -0.403 0.403 0.9152 -180.2648 315.6021)" fill="#1E193C" stroke="#1E193C" stroke-width="2" stroke-linecap="round" stroke-linejoin="round" stroke-miterlimit="10" width="78.8" height="62.1"/>
		
			<rect x="613.7" y="539.7" transform="matrix(0.9152 -0.403 0.403 0.9152 -174.6256 311.5916)" fill="#FFFFFF" stroke="#1E193C" stroke-width="2" stroke-linecap="round" stroke-linejoin="round" stroke-miterlimit="10" width="78.8" height="62.1"/>
	</g>
	<g>
		
			<rect x="712.4" y="514.6" transform="matrix(0.9152 -0.403 0.403 0.9152 -156.1391 349.2374)" fill="#1E193C" stroke="#1E193C" stroke-width="2" stroke-linecap="round" stroke-linejoin="round" stroke-miterlimit="10" width="78.8" height="62.1"/>
		
			<rect x="705.6" y="499.3" transform="matrix(0.9152 -0.403 0.403 0.9152 -150.5574 345.2174)" fill="#FFFFFF" stroke="#1E193C" stroke-width="2" stroke-linecap="round" stroke-linejoin="round" stroke-miterlimit="10" width="78.8" height="62.1"/>
	</g>
	<g>
		
			<rect x="804.3" y="474.2" transform="matrix(0.9152 -0.403 0.403 0.9152 -132.0708 382.8632)" fill="#1E193C" stroke="#1E193C" stroke-width="2" stroke-linecap="round" stroke-linejoin="round" stroke-miterlimit="10" width="78.8" height="62.1"/>
		
			<rect x="797.5" y="458.8" transform="matrix(0.9152 -0.403 0.403 0.9152 -126.4442 378.8067)" fill="#FFFFFF" stroke="#1E193C" stroke-width="2" stroke-linecap="round" stroke-linejoin="round" stroke-miterlimit="10" width="78.8" height="62.1"/>
	</g>
	<g>
		
			<rect x="896.2" y="433.7" transform="matrix(0.9152 -0.403 0.403 0.9152 -107.9577 416.4525)" fill="#1E193C" stroke="#1E193C" stroke-width="2" stroke-linecap="round" stroke-linejoin="round" stroke-miterlimit="10" width="78.8" height="62.1"/>
		
			<rect x="889.5" y="418.4" transform="matrix(0.9152 -0.403 0.403 0.9152 -102.3519 412.466)" fill="#FFFFFF" stroke="#1E193C" stroke-width="2" stroke-linecap="round" stroke-linejoin="round" stroke-miterlimit="10" width="78.8" height="62.1"/>
	</g>
	<g>
		
			<rect x="988.1" y="393.2" transform="matrix(0.9152 -0.403 0.403 0.9152 -83.8435 450.0658)" fill="#1E193C" stroke="#1E193C" stroke-width="2" stroke-linecap="round" stroke-linejoin="round" stroke-miterlimit="10" width="78.8" height="62.1"/>
		
			<rect x="981.5" y="377.9" transform="matrix(0.9152 -0.403 0.403 0.9152 -78.2263 446.1013)" fill="#FFFFFF" stroke="#1E193C" stroke-width="2" stroke-linecap="round" stroke-linejoin="round" stroke-miterlimit="10" width="78.8" height="62.1"/>
	</g>
	<g>
		
			<rect x="1080.1" y="352.7" transform="matrix(0.9152 -0.403 0.403 0.9152 -59.7178 483.701)" fill="#1E193C" stroke="#1E193C" stroke-width="2" stroke-linecap="round" stroke-linejoin="round" stroke-miterlimit="10" width="78.8" height="62.1"/>
		
			<rect x="1073.3" y="337.4" transform="matrix(0.9152 -0.403 0.403 0.9152 -54.1246 479.6686)" fill="#FFFFFF" stroke="#1E193C" stroke-width="2" stroke-linecap="round" stroke-linejoin="round" stroke-miterlimit="10" width="78.8" height="62.1"/>
	</g>
	
		<polygon fill="#FFFFFF" stroke="#1E193C" stroke-width="2" stroke-linecap="round" stroke-linejoin="round" stroke-miterlimit="10" points="
		1002.8,606 933.9,636.4 864.9,666.8 795.9,697.1 727,727.5 658,757.9 589.1,788.2 520.1,818.6 451.1,848.9 476.2,905.8 
		545.1,875.4 614.1,845.1 683,814.7 752,784.3 821,754 889.9,723.6 958.9,693.2 1027.8,662.9 1096.8,632.5 1071.8,575.7 	"/>
	
		<polygon fill="#FFFFFF" stroke="#1E193C" stroke-width="2" stroke-linecap="round" stroke-linejoin="round" stroke-miterlimit="10" points="
		1283.1,259.5 1155.6,315.6 1180.6,372.4 1216.7,356.6 1257.8,450 1349.3,409.8 1308.1,316.3 1308.1,316.3 	"/>
	
		<rect x="327.8" y="777.3" transform="matrix(0.9152 -0.403 0.403 0.9152 -294.6187 216.529)" fill="#FFFFFF" stroke="#1E193C" stroke-width="2" stroke-linecap="round" stroke-linejoin="round" stroke-miterlimit="10" width="78.8" height="62.1"/>
	
		<rect x="419.1" y="737" transform="matrix(0.9152 -0.403 0.403 0.9152 -270.6424 249.9039)" fill="#FFFFFF" stroke="#1E193C" stroke-width="2" stroke-linecap="round" stroke-linejoin="round" stroke-miterlimit="10" width="78.8" height="62.1"/>
	
		<rect x="236.3" y="817.5" transform="matrix(0.9152 -0.403 0.403 0.9152 -318.5854 183.0622)" fill="#FFFFFF" stroke="#1E193C" stroke-width="2" stroke-linecap="round" stroke-linejoin="round" stroke-miterlimit="10" width="78.8" height="62.1"/>
	
		<rect x="510.6" y="696.8" transform="matrix(0.9152 -0.403 0.403 0.9152 -246.6756 283.3707)" fill="#FFFFFF" stroke="#1E193C" stroke-width="2" stroke-linecap="round" stroke-linejoin="round" stroke-miterlimit="10" width="78.8" height="62.1"/>
	
		<rect x="602" y="656.5" transform="matrix(0.9152 -0.403 0.403 0.9152 -222.6869 316.7915)" fill="#FFFFFF" stroke="#1E193C" stroke-width="2" stroke-linecap="round" stroke-linejoin="round" stroke-miterlimit="10" width="78.8" height="62.1"/>
	
		<rect x="693.4" y="616.2" transform="matrix(0.9152 -0.403 0.403 0.9152 -198.7106 350.2009)" fill="#FFFFFF" stroke="#1E193C" stroke-width="2" stroke-linecap="round" stroke-linejoin="round" stroke-miterlimit="10" width="78.8" height="62.1"/>
	
		<rect x="784.8" y="576" transform="matrix(0.9152 -0.403 0.403 0.9152 -174.7438 383.6331)" fill="#FFFFFF" stroke="#1E193C" stroke-width="2" stroke-linecap="round" stroke-linejoin="round" stroke-miterlimit="10" width="78.8" height="62.1"/>
	
		<rect x="876.2" y="535.7" transform="matrix(0.9152 -0.403 0.403 0.9152 -150.7676 417.0425)" fill="#FFFFFF" stroke="#1E193C" stroke-width="2" stroke-linecap="round" stroke-linejoin="round" stroke-miterlimit="10" width="78.8" height="62.1"/>
	
		<rect x="967.7" y="495.4" transform="matrix(0.9152 -0.403 0.403 0.9152 -126.7548 450.4967)" fill="#FFFFFF" stroke="#1E193C" stroke-width="2" stroke-linecap="round" stroke-linejoin="round" stroke-miterlimit="10" width="78.8" height="62.1"/>
	
		<rect x="1059.1" y="455.2" transform="matrix(0.9152 -0.403 0.403 0.9152 -102.812 483.9301)" fill="#FFFFFF" stroke="#1E193C" stroke-width="2" stroke-linecap="round" stroke-linejoin="round" stroke-miterlimit="10" width="78.8" height="62.1"/>
	
		<rect x="1100.2" y="548.6" transform="matrix(0.9152 -0.403 0.403 0.9152 -136.9667 508.4073)" fill="#FFFFFF" stroke="#1E193C" stroke-width="2" stroke-linecap="round" stroke-linejoin="round" stroke-miterlimit="10" width="78.8" height="62.1"/>
	
		<rect x="1191.7" y="508.4" transform="matrix(0.9152 -0.403 0.403 0.9152 -112.9999 541.8741)" fill="#FFFFFF" stroke="#1E193C" stroke-width="2" stroke-linecap="round" stroke-linejoin="round" stroke-miterlimit="10" width="78.8" height="62.1"/>
	
		<rect x="1150.5" y="415" transform="matrix(0.9152 -0.403 0.403 0.9152 -78.8578 517.351)" fill="#FFFFFF" stroke="#1E193C" stroke-width="2" stroke-linecap="round" stroke-linejoin="round" stroke-miterlimit="10" width="78.8" height="62.1"/>
	<g>
		
			<rect x="199.5" y="728.2" transform="matrix(0.9152 -0.403 0.403 0.9152 -283.367 171.844)" fill="#1E193C" stroke="#1E193C" stroke-width="2" stroke-linecap="round" stroke-linejoin="round" stroke-miterlimit="10" width="134.3" height="62.1"/>
		
			<rect x="192.8" y="712.8" transform="matrix(0.9152 -0.403 0.403 0.9152 -277.7278 167.8335)" fill="#FFFFFF" stroke="#1E193C" stroke-width="2" stroke-linecap="round" stroke-linejoin="round" stroke-miterlimit="10" width="134.3" height="62.1"/>
	</g>
	
		<rect x="277.4" y="910.9" transform="matrix(0.9152 -0.403 0.403 0.9152 -352.7402 207.5395)" fill="#FFFFFF" stroke="#1E193C" stroke-width="2" stroke-linecap="round" stroke-linejoin="round" stroke-miterlimit="10" width="78.8" height="62.1"/>
	
		<rect x="368.8" y="870.7" transform="matrix(0.9152 -0.403 0.403 0.9152 -328.7974 240.9728)" fill="#FFFFFF" stroke="#1E193C" stroke-width="2" stroke-linecap="round" stroke-linejoin="round" stroke-miterlimit="10" width="78.8" height="62.1"/>
	
		<rect x="1282.3" y="463.9" transform="matrix(0.9152 -0.403 0.403 0.9152 -86.4833 578.8698)" fill="#FFFFFF" stroke="#1E193C" stroke-width="2" stroke-linecap="round" stroke-linejoin="round" stroke-miterlimit="10" width="99.9" height="62.1"/>
</g>
</svg>
