<?xml version="1.0" encoding="utf-8"?>
<!-- Generator: Adobe Illustrator 24.0.3, SVG Export Plug-In . SVG Version: 6.00 Build 0)  -->
<svg version="1.1" id="Layer_1" xmlns="http://www.w3.org/2000/svg" xmlns:xlink="http://www.w3.org/1999/xlink" x="0px" y="0px"
	 viewBox="0 0 1477 850" style="enable-background:new 0 0 1477 850;" xml:space="preserve">
<style type="text/css">
	.st0{fill:none;stroke:#1E193B;stroke-width:8;}
	.st1{fill:#5BB889;stroke:#1E193B;stroke-width:2;stroke-linecap:round;stroke-linejoin:round;stroke-miterlimit:10;}
	.st2{fill:#3C9678;stroke:#1E193B;stroke-width:2;stroke-linecap:round;stroke-linejoin:round;stroke-miterlimit:10;}
	.st3{fill:#1E193B;stroke:#1E193B;stroke-width:2;stroke-linecap:round;stroke-linejoin:round;stroke-miterlimit:10;}
</style>
<path class="st0" d="M129.5,395.6c-140.2-236,95.1-241.1,97.5-185.7s-124.6,10.4-98.7-103.8C154.2-8.1,338.7-45.5,396,98.9
	c57.3,144.4,87,371,367,461c103.9,33.4,250.5,2.1,380-80c219.3-139.1,355.3-450.1,355.3-450.1"/>
<path class="st1" d="M210.9,350.6L51.4,447.1c-27.3,16.5-36,51.9-19.5,79.2l157.5,260.6c20.3,33.6,64,44.4,97.6,24.1l136.6-82.6
	c33.6-20.3,44.4-64,24.1-97.6L290.1,370.2C273.6,342.9,238.2,334.1,210.9,350.6z"/>
<path class="st2" d="M232.3,566.2l-54.7,33.1c-16.9,10.2-38.7,4.8-48.9-12L46,450.3l85.1-51.5L232.3,566.2z"/>
<path class="st2" d="M287,533.1l-54.7,33.1L131.1,398.9l85.1-51.5L299,484.2C309.2,501,303.8,522.9,287,533.1z"/>
<path class="st2" d="M136.8,384.4l-19.9,12.1l4.9,8l19.9-12.1L136.8,384.4z"/>
<path class="st3" d="M160.1,426.2L142,437.1c-2.5,1.5-3.3,4.8-1.8,7.3l31.1,51.5c1.5,2.5,4.8,3.3,7.3,1.8l18.1-10.9
	c2.5-1.5,3.3-4.8,1.8-7.3L167.4,428C165.8,425.6,162.6,424.7,160.1,426.2z"/>
<path class="st2" d="M164.1,427.4l-22.9,13.9l3.7,6.2l22.9-13.9L164.1,427.4z"/>
<path class="st2" d="M167.8,433.6l-22.9,13.9l3.7,6.2l22.9-13.9L167.8,433.6z"/>
<path class="st2" d="M171.5,439.8l-22.9,13.9l3.7,6.2l22.9-13.9L171.5,439.8z"/>
<path class="st2" d="M175.3,446l-22.9,13.9l3.7,6.2l22.9-13.9L175.3,446z"/>
<path class="st2" d="M179,452.2L156.1,466l3.7,6.2l22.9-13.9L179,452.2z"/>
<path class="st2" d="M182.8,458.3l-22.9,13.9l3.7,6.2l22.9-13.9L182.8,458.3z"/>
<path class="st2" d="M186.5,464.5l-22.9,13.9l3.7,6.2l22.9-13.9L186.5,464.5z"/>
<path class="st2" d="M190.2,470.6l-22.9,13.9l3.7,6.2l22.9-13.9L190.2,470.6z"/>
<path class="st2" d="M194,476.9L171,490.8l3.7,6.2l22.9-13.9L194,476.9z"/>
</svg>
