<?xml version="1.0" encoding="utf-8"?>
<!-- Generator: Adobe Illustrator 24.0.3, SVG Export Plug-In . SVG Version: 6.00 Build 0)  -->
<svg version="1.1" id="Layer_1" xmlns="http://www.w3.org/2000/svg" xmlns:xlink="http://www.w3.org/1999/xlink" x="0px" y="0px"
	 viewBox="0 0 762 134" enable-background="new 0 0 762 134" xml:space="preserve">
<rect x="20.5" y="16.7" fill="#3C9678" width="721" height="7.7"/>
<circle fill="#FFFFFF" stroke="#1E193B" stroke-width="8" cx="20.4" cy="20.5" r="16.4"/>
<circle fill="#6AA477" stroke="#6AA477" stroke-width="8" cx="20.5" cy="20.5" r="4"/>
<ellipse fill="#FFFFFF" stroke="#1E193B" stroke-width="7.9996" stroke-miterlimit="3.9998" cx="260.4" cy="20.5" rx="16.4" ry="16.4"/>
<circle fill="#FFFFFF" stroke="#1E193B" stroke-width="8" cx="500.6" cy="20.5" r="16.4"/>
<circle fill="#FFFFFF" stroke="#1E193B" stroke-width="8" cx="740.7" cy="20.5" r="16.4"/>
<path fill="#1E193B" d="M211.5,75.6v-2.1h3v-9.4h-0.4c-0.1,0.8-0.5,1.4-1,1.9s-1.1,0.7-1.7,0.8l-0.1-2.2c0.8-0.1,1.5-0.4,2.1-1.1
	c0.6-0.6,1-1.4,1.2-2.4h2.7v12.4h2.7v2.1C220,75.6,211.5,75.6,211.5,75.6z M235.6,73.6c0.3,0,0.6-0.1,0.8-0.3
	c0.3-0.2,0.5-0.5,0.8-0.9v-5.2c-0.3-0.2-0.5-0.4-0.7-0.5s-0.4-0.1-0.7-0.1c-0.4,0-0.8,0.1-1,0.4s-0.3,0.7-0.3,1.3v3.6
	c0,0.6,0.1,1,0.3,1.3C235,73.4,235.2,73.6,235.6,73.6z M236.8,73.9c-0.2,0.6-0.5,1-0.9,1.4c-0.4,0.3-1,0.5-1.6,0.5
	c-0.8,0-1.4-0.3-1.9-1c-0.4-0.7-0.7-1.6-0.7-2.7v-3.8c0-1.2,0.3-2.1,0.9-2.8c0.6-0.7,1.5-1,2.6-1c0.3,0,0.7,0,1,0.1s0.6,0.2,0.9,0.3
	v-4h2.8v14.5h-2.8v-1.7h-0.3V73.9z M251.4,73.1c-0.3,0.8-0.7,1.5-1.5,2c-0.7,0.5-1.6,0.7-2.7,0.7c-1.3,0-2.3-0.3-3-1
	s-1.1-1.6-1.1-2.9v-3.5c0-1.2,0.4-2.2,1.1-2.8c0.7-0.7,1.8-1,3.1-1s2.3,0.4,3,1.1s1.1,1.7,1.1,2.9v2.2H246V72c0,0.8,0.1,1.3,0.3,1.6
	c0.2,0.3,0.6,0.4,1.2,0.4c0.5,0,0.8-0.1,1-0.3c0.2-0.2,0.4-0.6,0.6-1.1L251.4,73.1z M246,68.4v0.7h2.7v-0.6c0-0.8-0.1-1.4-0.3-1.7
	c-0.2-0.3-0.5-0.5-1-0.5s-0.8,0.2-1,0.5C246.1,67.1,246,67.6,246,68.4z M267.1,73.9c0.3,0,0.7-0.1,0.9-0.2c0.3-0.1,0.6-0.4,0.8-0.7
	v-1.9H267c-0.3,0-0.5,0.1-0.7,0.3c-0.2,0.2-0.3,0.6-0.3,1.1s0.1,0.8,0.3,1.1C266.4,73.8,266.7,73.9,267.1,73.9z M266.3,75.7
	c-0.9,0-1.7-0.3-2.2-0.8c-0.5-0.6-0.8-1.3-0.8-2.3s0.3-1.7,0.9-2.3c0.6-0.5,1.4-0.8,2.3-0.8h2.3v-1.6c0-0.5-0.1-0.8-0.3-1.1
	c-0.2-0.3-0.6-0.4-1-0.4c-0.5,0-0.8,0.1-1,0.4c-0.2,0.2-0.4,0.7-0.5,1.4l-2.4-0.5c0.2-1.1,0.7-2,1.4-2.5c0.7-0.5,1.7-0.8,2.8-0.8
	c1.2,0,2.2,0.3,2.9,0.8c0.7,0.5,1,1.4,1,2.5v4.7c0,0.6,0.1,0.9,0.4,1.1c0.3,0.1,0.7,0.2,1.2,0.1v2c-0.8,0.2-1.5,0.2-2.1,0
	s-0.9-0.7-1.1-1.5h-0.4c-0.3,0.5-0.8,0.9-1.3,1.2C267.7,75.6,267,75.7,266.3,75.7z M280.1,75.7c-0.8,0-1.6-0.1-2.3-0.3
	c-0.7-0.2-1.3-0.6-1.8-1V61h2.8v5.2h0.4c0.2-0.6,0.4-1,0.9-1.3c0.4-0.3,0.9-0.4,1.5-0.4c0.9,0,1.5,0.3,2,1c0.5,0.6,0.7,1.5,0.7,2.7
	V72c0,1.2-0.4,2.1-1.1,2.8C282.5,75.4,281.4,75.7,280.1,75.7z M280.2,73.7c0.5,0,0.8-0.1,1-0.4s0.3-0.7,0.3-1.4v-3.6
	c0-0.6-0.1-1-0.3-1.3c-0.2-0.3-0.4-0.4-0.8-0.4c-0.3,0-0.6,0.1-0.8,0.3c-0.3,0.2-0.5,0.5-0.8,0.9v5.5c0.2,0.1,0.4,0.3,0.6,0.3
	C279.6,73.7,279.9,73.7,280.2,73.7z M287.5,75.6V64.7h2.8v1.5h0.4c0.2-0.6,0.5-1,0.9-1.3s0.8-0.4,1.3-0.4c0.8,0,1.3,0.3,1.7,0.8
	c0.4,0.5,0.5,1.2,0.5,2.1v2h-2.5v-1.6c0-0.4-0.1-0.6-0.2-0.8c-0.1-0.2-0.3-0.3-0.6-0.3c-0.3,0-0.5,0.1-0.8,0.4
	c-0.3,0.2-0.5,0.6-0.7,1v7.6L287.5,75.6L287.5,75.6z M298.3,75.6V64.7h2.8v10.9H298.3z M299.7,62.8c-0.5,0-1-0.1-1.3-0.3
	s-0.5-0.5-0.5-0.9v-0.2c0-0.4,0.2-0.8,0.5-0.9c0.3-0.2,0.8-0.3,1.3-0.3s1,0.1,1.3,0.3s0.5,0.5,0.5,0.9v0.2c0,0.4-0.2,0.8-0.5,0.9
	C300.7,62.7,300.3,62.8,299.7,62.8z M309,75.7c-1.1,0-1.9-0.3-2.5-1s-0.9-1.7-0.9-2.9V61h2.8v10.8c0,0.6,0.1,1.1,0.3,1.3
	c0.2,0.3,0.4,0.4,0.8,0.4c0.2,0,0.4,0,0.6-0.1s0.4-0.2,0.6-0.3l0.4,2c-0.3,0.2-0.7,0.3-1.1,0.4C309.8,75.7,309.4,75.7,309,75.7z"/>
<path fill="#1E193B" d="M475.7,73.6c0.3,0,0.6-0.1,0.8-0.3c0.3-0.2,0.5-0.5,0.8-0.9v-5.2c-0.3-0.2-0.5-0.4-0.7-0.5s-0.4-0.1-0.7-0.1
	c-0.4,0-0.8,0.1-1,0.4s-0.3,0.7-0.3,1.3v3.6c0,0.6,0.1,1,0.3,1.3C475.1,73.4,475.3,73.6,475.7,73.6z M476.9,73.9
	c-0.2,0.6-0.5,1-0.9,1.4c-0.4,0.3-1,0.5-1.6,0.5c-0.8,0-1.4-0.3-1.9-1c-0.4-0.7-0.7-1.6-0.7-2.7v-3.8c0-1.2,0.3-2.1,0.9-2.8
	c0.6-0.7,1.5-1,2.6-1c0.3,0,0.7,0,1,0.1s0.6,0.2,0.9,0.3v-4h2.8v14.5h-2.8v-1.7h-0.3V73.9z M491.5,73.1c-0.3,0.8-0.7,1.5-1.5,2
	c-0.7,0.5-1.6,0.7-2.7,0.7c-1.3,0-2.3-0.3-3-1s-1.1-1.6-1.1-2.9v-3.5c0-1.2,0.4-2.2,1.1-2.8c0.7-0.7,1.8-1,3.1-1
	c1.3,0,2.3,0.4,3,1.1s1.1,1.7,1.1,2.9v2.2H486V72c0,0.8,0.1,1.3,0.3,1.6c0.2,0.3,0.6,0.4,1.2,0.4c0.5,0,0.8-0.1,1-0.3
	c0.2-0.2,0.4-0.6,0.6-1.1L491.5,73.1z M486.1,68.4v0.7h2.7v-0.6c0-0.8-0.1-1.4-0.3-1.7c-0.2-0.3-0.5-0.5-1-0.5s-0.8,0.2-1,0.5
	C486.2,67.1,486.1,67.6,486.1,68.4z M507.1,73.9c0.3,0,0.7-0.1,0.9-0.2c0.3-0.1,0.6-0.4,0.8-0.7v-1.9H507c-0.3,0-0.5,0.1-0.7,0.3
	c-0.2,0.2-0.3,0.6-0.3,1.1s0.1,0.8,0.3,1.1C506.5,73.8,506.8,73.9,507.1,73.9z M506.4,75.7c-0.9,0-1.7-0.3-2.2-0.8
	c-0.5-0.6-0.8-1.3-0.8-2.3s0.3-1.7,0.9-2.3c0.6-0.5,1.4-0.8,2.3-0.8h2.3v-1.6c0-0.5-0.1-0.8-0.3-1.1c-0.2-0.3-0.6-0.4-1-0.4
	c-0.5,0-0.8,0.1-1,0.4c-0.2,0.2-0.4,0.7-0.5,1.4l-2.4-0.5c0.2-1.1,0.7-2,1.4-2.5c0.7-0.5,1.7-0.8,2.8-0.8c1.2,0,2.2,0.3,2.9,0.8
	c0.7,0.5,1,1.4,1,2.5v4.7c0,0.6,0.1,0.9,0.4,1.1c0.3,0.1,0.7,0.2,1.2,0.1v2c-0.8,0.2-1.5,0.2-2.1,0s-0.9-0.7-1.1-1.5h-0.4
	c-0.3,0.5-0.8,0.9-1.3,1.2C507.8,75.6,507.1,75.7,506.4,75.7z M520.1,75.7c-0.8,0-1.6-0.1-2.3-0.3c-0.7-0.2-1.3-0.6-1.8-1V61h2.8
	v5.2h0.4c0.2-0.6,0.4-1,0.9-1.3s0.9-0.4,1.5-0.4c0.9,0,1.5,0.3,2,1c0.5,0.6,0.7,1.5,0.7,2.7V72c0,1.2-0.4,2.1-1.1,2.8
	C522.6,75.4,521.5,75.7,520.1,75.7z M520.3,73.7c0.5,0,0.8-0.1,1-0.4s0.3-0.7,0.3-1.4v-3.6c0-0.6-0.1-1-0.3-1.3s-0.4-0.4-0.8-0.4
	c-0.3,0-0.6,0.1-0.8,0.3c-0.3,0.2-0.5,0.5-0.8,0.9v5.5c0.2,0.1,0.4,0.3,0.6,0.3C519.7,73.7,520,73.7,520.3,73.7z M527.6,75.6V64.7
	h2.8v1.5h0.4c0.2-0.6,0.5-1,0.9-1.3s0.8-0.4,1.3-0.4c0.8,0,1.3,0.3,1.7,0.8s0.5,1.2,0.5,2.1v2h-2.5v-1.6c0-0.4-0.1-0.6-0.2-0.8
	c-0.1-0.2-0.3-0.3-0.6-0.3s-0.5,0.1-0.8,0.4c-0.3,0.2-0.5,0.6-0.7,1v7.6L527.6,75.6L527.6,75.6z M538.4,75.6V64.7h2.8v10.9H538.4z
	 M539.8,62.8c-0.5,0-1-0.1-1.3-0.3S538,62,538,61.6v-0.2c0-0.4,0.2-0.8,0.5-0.9c0.3-0.2,0.8-0.3,1.3-0.3s1,0.1,1.3,0.3
	s0.5,0.5,0.5,0.9v0.2c0,0.4-0.2,0.8-0.5,0.9C540.8,62.7,540.3,62.8,539.8,62.8z M549.1,75.7c-1.1,0-1.9-0.3-2.5-1s-0.9-1.7-0.9-2.9
	V61h2.8v10.8c0,0.6,0.1,1.1,0.3,1.3c0.2,0.3,0.4,0.4,0.8,0.4c0.2,0,0.4,0,0.6-0.1c0.2-0.1,0.4-0.2,0.6-0.3l0.4,2
	c-0.3,0.2-0.7,0.3-1.1,0.4C549.9,75.7,549.5,75.7,549.1,75.7z M455.5,75.6c-1.7,0-2.9-0.3-3.7-1c-0.8-0.7-1.2-1.8-1.3-3.2l2.8-0.2
	c0.1,0.9,0.3,1.6,0.5,1.9c0.3,0.3,0.8,0.5,1.6,0.5c0.7,0,1.2-0.2,1.5-0.5s0.5-0.9,0.5-1.6V71c0-0.8-0.1-1.4-0.4-1.7
	c-0.3-0.3-0.8-0.5-1.6-0.5h-1.8v-2.1h1.8c0.6,0,1.1-0.1,1.3-0.3c0.3-0.2,0.4-0.6,0.4-1.3v-0.6c0-0.7-0.2-1.1-0.5-1.4
	c-0.3-0.3-0.8-0.4-1.4-0.4s-1.1,0.2-1.3,0.5c-0.2,0.3-0.4,0.8-0.4,1.6l-2.8-0.2c0.1-1.4,0.4-2.4,1.2-3c0.7-0.6,1.8-0.9,3.4-0.9
	s2.8,0.3,3.5,0.9c0.8,0.6,1.1,1.5,1.1,2.8v0.5c0,0.7-0.2,1.3-0.6,1.8s-0.8,0.8-1.4,0.9v0.5c0.7,0.1,1.2,0.4,1.6,1s0.6,1.3,0.6,2.1
	v0.2c0,1.4-0.4,2.5-1.1,3.1C458.2,75.2,457.1,75.6,455.5,75.6z"/>
<path fill="#1E193B" d="M1.4,105.5V93.9h1.1v10.6h3.9v1H1.4z M11,104.6c0.4,0,0.8-0.1,1.1-0.3c0.4-0.2,0.7-0.5,0.9-1v-1.5h-1.9
	c-0.4,0-0.8,0.1-1,0.3c-0.2,0.2-0.4,0.6-0.4,1.1s0.1,0.8,0.3,1.1C10.2,104.4,10.6,104.6,11,104.6z M10.9,105.6
	c-0.7,0-1.2-0.2-1.6-0.7c-0.4-0.4-0.6-1-0.6-1.8s0.2-1.4,0.6-1.8c0.4-0.4,1-0.7,1.7-0.7h2v-1.5c0-0.4-0.1-0.8-0.4-1.1
	c-0.3-0.3-0.6-0.5-1.1-0.5s-0.9,0.1-1.2,0.4c-0.2,0.2-0.4,0.7-0.6,1.4L8.8,99c0.1-0.8,0.4-1.4,0.8-1.8c0.4-0.4,1-0.6,1.8-0.6
	s1.4,0.2,1.9,0.6s0.8,1,0.8,1.8v4.6c0,0.4,0.1,0.7,0.3,0.9c0.2,0.1,0.5,0.2,1,0v1.1c-0.6,0.1-1.1,0-1.4-0.2
	c-0.3-0.2-0.5-0.6-0.5-1.2h-0.2c-0.2,0.4-0.5,0.8-0.9,1C11.9,105.5,11.4,105.6,10.9,105.6z M18,105.5v-8.7h1.1v1.1h0.3
	c0.2-0.4,0.4-0.7,0.8-0.9c0.4-0.2,0.7-0.4,1.1-0.4c0.6,0,1.1,0.3,1.5,0.8s0.6,1.1,0.6,1.9v6.2h-1.1v-5.9c0-0.6-0.1-1-0.3-1.3
	c-0.2-0.3-0.5-0.5-0.9-0.5s-0.7,0.1-1.1,0.3c-0.3,0.2-0.6,0.6-0.9,1v6.4H18z M31.6,105.5h-5.1v-1.1l3.8-6.6h-3.8v-1.1h5.1v1.1
	l-3.7,6.6h3.7V105.5z M37,104.6c0.4,0,0.8-0.1,1.1-0.3c0.4-0.2,0.7-0.5,0.9-1v-1.5h-1.9c-0.4,0-0.8,0.1-1,0.3
	c-0.2,0.2-0.4,0.6-0.4,1.1s0.1,0.8,0.3,1.1C36.2,104.4,36.6,104.6,37,104.6z M36.9,105.6c-0.7,0-1.2-0.2-1.6-0.7
	c-0.4-0.4-0.6-1-0.6-1.8s0.2-1.4,0.6-1.8c0.4-0.4,1-0.7,1.7-0.7h2v-1.5c0-0.4-0.1-0.8-0.4-1.1c-0.3-0.3-0.6-0.5-1.1-0.5
	s-0.9,0.1-1.2,0.4c-0.2,0.2-0.4,0.7-0.6,1.4L34.8,99c0.1-0.8,0.4-1.4,0.8-1.8c0.4-0.4,1-0.6,1.8-0.6s1.4,0.2,1.9,0.6s0.8,1,0.8,1.8
	v4.6c0,0.4,0.1,0.7,0.3,0.9c0.2,0.1,0.5,0.2,1,0v1.1c-0.6,0.1-1.1,0-1.4-0.2c-0.3-0.2-0.5-0.6-0.5-1.2h-0.2c-0.2,0.4-0.5,0.8-0.9,1
	C37.9,105.5,37.4,105.6,36.9,105.6z M45.2,99v6.5H44v-8.7h1.1v1.1h0.3c0.1-0.4,0.3-0.7,0.6-0.9c0.3-0.2,0.7-0.4,1-0.4
	c0.4,0,0.7,0.1,1,0.3c0.3,0.2,0.5,0.5,0.7,0.9h0.5c0.1-0.4,0.3-0.7,0.6-0.9c0.3-0.2,0.7-0.4,1-0.4c0.5,0,1,0.2,1.3,0.7
	c0.3,0.4,0.5,1,0.5,1.7v6.5h-1.1v-6.2c0-0.5-0.1-0.8-0.2-1.1c-0.2-0.3-0.4-0.4-0.7-0.4c-0.4,0-0.7,0.1-1,0.3
	c-0.3,0.2-0.6,0.5-0.7,0.9v6.5h-1.1v-6.2c0-0.5-0.1-0.8-0.3-1.1c-0.2-0.3-0.4-0.4-0.7-0.4s-0.7,0.1-1,0.3
	C45.6,98.3,45.4,98.6,45.2,99z M56.6,105.5v-8.7h1.1v8.7H56.6z M57.2,95.1c-0.3,0-0.5,0-0.7-0.1s-0.3-0.3-0.3-0.6v-0.1
	c0-0.3,0.1-0.5,0.3-0.6s0.4-0.2,0.7-0.2s0.5,0.1,0.7,0.2s0.3,0.3,0.3,0.6v0.1c0,0.3-0.1,0.5-0.3,0.6C57.7,95,57.4,95.1,57.2,95.1z
	 M67.1,103.6c-0.2,0.7-0.6,1.2-1,1.6c-0.5,0.3-1,0.4-1.8,0.4c-0.9,0-1.6-0.3-2.1-0.8s-0.7-1.3-0.7-2.2v-3c0-1,0.2-1.7,0.7-2.2
	s1.2-0.8,2-0.8c0.9,0,1.5,0.3,2,0.8c0.5,0.6,0.7,1.3,0.7,2.3v1.5h-4.4v1.4c0,0.7,0.1,1.2,0.4,1.5c0.3,0.3,0.7,0.4,1.2,0.4
	c0.5,0,0.9-0.1,1.2-0.3c0.3-0.2,0.4-0.5,0.5-1L67.1,103.6z M62.6,99.7v0.7h3.2v-0.5c0-0.7-0.1-1.2-0.4-1.6s-0.7-0.5-1.2-0.5
	S63.3,98,63,98.3C62.8,98.5,62.6,99,62.6,99.7z M69.8,105.5v-8.7H71v1.1h0.3c0.2-0.4,0.4-0.7,0.8-0.9c0.4-0.2,0.7-0.4,1.1-0.4
	c0.6,0,1.1,0.3,1.5,0.8s0.6,1.1,0.6,1.9v6.2h-1.1v-5.9c0-0.6-0.1-1-0.3-1.3c-0.2-0.3-0.5-0.5-0.9-0.5s-0.7,0.1-1.1,0.3
	c-0.3,0.2-0.6,0.6-0.9,1v6.4H69.8z M81.4,105.6c-0.7,0-1.2-0.2-1.6-0.7s-0.6-1.1-0.6-1.9v-5.1h-1.3v-1.1h1.3v-2.9h1.1v2.9h2.4v1.1
	h-2.4v5.3c0,0.5,0.1,0.8,0.3,1.1c0.2,0.2,0.5,0.3,0.8,0.3c0.2,0,0.3,0,0.5-0.1c0.2,0,0.4-0.1,0.6-0.2l0.2,1
	c-0.2,0.1-0.5,0.2-0.7,0.3C81.9,105.6,81.7,105.6,81.4,105.6z M88.1,105.6c-0.9,0-1.5-0.3-2-0.9s-0.7-1.4-0.7-2.5V100
	c0-1.1,0.2-1.9,0.7-2.5s1.2-0.9,2-0.9c0.9,0,1.6,0.3,2,0.9c0.5,0.6,0.7,1.4,0.7,2.5v2.3c0,1.1-0.2,1.9-0.7,2.5
	C89.7,105.4,89,105.6,88.1,105.6z M88.1,104.6c0.6,0,1-0.2,1.2-0.5c0.3-0.4,0.4-0.9,0.4-1.7V100c0-0.8-0.1-1.4-0.4-1.7
	c-0.3-0.4-0.7-0.6-1.2-0.6c-0.6,0-1,0.2-1.2,0.6c-0.3,0.4-0.4,1-0.4,1.7v2.3c0,0.8,0.1,1.3,0.4,1.7
	C87.1,104.4,87.5,104.6,88.1,104.6z M102.8,104.5c0.4,0,0.8-0.1,1.1-0.4c0.3-0.3,0.6-0.6,0.9-1.1v-4.8c-0.2-0.2-0.4-0.4-0.7-0.5
	c-0.3-0.1-0.5-0.1-0.8-0.1c-0.6,0-1,0.2-1.3,0.5s-0.4,0.8-0.4,1.5v3c0,0.6,0.1,1.1,0.3,1.4C102.1,104.4,102.4,104.5,102.8,104.5z
	 M104.5,104.4c-0.1,0.4-0.4,0.7-0.7,0.9c-0.3,0.2-0.7,0.3-1.2,0.3c-0.7,0-1.2-0.3-1.6-0.8s-0.6-1.3-0.6-2.3v-2.9
	c0-1,0.2-1.7,0.7-2.3c0.5-0.5,1.2-0.8,2.1-0.8c0.2,0,0.5,0,0.8,0.1s0.5,0.2,0.8,0.3v-3.2h1.1v11.6h-1.1v-1.1h-0.3
	C104.5,104.2,104.5,104.4,104.5,104.4z M114.3,103.6c-0.2,0.7-0.6,1.2-1,1.6c-0.5,0.3-1,0.4-1.8,0.4c-0.9,0-1.6-0.3-2.1-0.8
	s-0.7-1.3-0.7-2.2v-3c0-1,0.2-1.7,0.7-2.2s1.2-0.8,2-0.8c0.9,0,1.5,0.3,2,0.8c0.5,0.6,0.7,1.3,0.7,2.3v1.5h-4.4v1.4
	c0,0.7,0.1,1.2,0.4,1.5s0.7,0.4,1.2,0.4s0.9-0.1,1.2-0.3c0.3-0.2,0.4-0.5,0.5-1L114.3,103.6z M109.9,99.7v0.7h3.2v-0.5
	c0-0.7-0.1-1.2-0.4-1.6s-0.7-0.5-1.2-0.5s-0.9,0.2-1.2,0.5C110,98.5,109.9,99,109.9,99.7z M4.3,127.5c-0.8,0-1.3-0.3-1.8-0.8
	c-0.4-0.5-0.6-1.3-0.6-2.2v-8.7H3v8.7c0,0.6,0.1,1.1,0.3,1.4s0.5,0.5,1,0.5c0.1,0,0.2,0,0.4-0.1c0.1,0,0.3-0.1,0.4-0.2l0.2,1
	c-0.1,0.1-0.3,0.1-0.5,0.2C4.7,127.5,4.5,127.5,4.3,127.5z M9.9,126.6c0.4,0,0.8-0.1,1.1-0.3c0.4-0.2,0.7-0.5,0.9-1v-1.5H10
	c-0.4,0-0.8,0.1-1,0.3c-0.2,0.2-0.4,0.6-0.4,1.1s0.1,0.8,0.3,1.1C9.1,126.4,9.5,126.6,9.9,126.6z M9.8,127.6c-0.7,0-1.2-0.2-1.6-0.7
	c-0.4-0.4-0.6-1-0.6-1.8s0.2-1.4,0.6-1.8c0.4-0.4,1-0.7,1.7-0.7H12v-1.5c0-0.4-0.1-0.8-0.4-1.1c-0.3-0.3-0.6-0.5-1.1-0.5
	s-0.9,0.1-1.2,0.4c-0.2,0.2-0.4,0.7-0.6,1.4l-1-0.3c0.1-0.8,0.4-1.4,0.8-1.8c0.4-0.4,1-0.6,1.8-0.6s1.4,0.2,1.9,0.6s0.8,1,0.8,1.8
	v4.6c0,0.4,0.1,0.7,0.3,0.9c0.2,0.1,0.5,0.2,1,0v1.1c-0.6,0.1-1.1,0-1.4-0.2c-0.3-0.2-0.5-0.6-0.5-1.2h-0.2c-0.2,0.4-0.5,0.8-0.9,1
	C10.8,127.5,10.3,127.6,9.8,127.6z M26.6,127.6c-1,0-1.7-0.3-2.2-0.8s-0.7-1.3-0.7-2.2v-3c0-1,0.3-1.8,0.8-2.3s1.2-0.8,2.1-0.8
	s1.5,0.2,1.9,0.7s0.7,1.2,0.8,2.2h-1.1c0-0.7-0.2-1.1-0.4-1.4c-0.3-0.3-0.7-0.5-1.2-0.5c-0.6,0-1.1,0.2-1.3,0.5
	c-0.3,0.3-0.4,0.8-0.4,1.5v3c0,0.6,0.1,1.1,0.4,1.4s0.7,0.5,1.3,0.5c0.5,0,0.9-0.1,1.2-0.4c0.3-0.3,0.4-0.6,0.4-1.2h1.1
	c0,0.9-0.3,1.6-0.7,2C28.1,127.4,27.5,127.6,26.6,127.6z M34.7,127.6c-0.9,0-1.5-0.3-2-0.9s-0.7-1.4-0.7-2.5V122
	c0-1.1,0.2-1.9,0.7-2.5s1.2-0.9,2-0.9c0.9,0,1.6,0.3,2,0.9c0.5,0.6,0.7,1.4,0.7,2.5v2.3c0,1.1-0.2,1.9-0.7,2.5
	C36.3,127.4,35.6,127.6,34.7,127.6z M34.7,126.6c0.6,0,1-0.2,1.2-0.5c0.3-0.4,0.4-0.9,0.4-1.7V122c0-0.8-0.1-1.4-0.4-1.7
	c-0.3-0.4-0.7-0.6-1.2-0.6s-1,0.2-1.2,0.6c-0.3,0.4-0.4,1-0.4,1.7v2.3c0,0.8,0.1,1.3,0.4,1.7C33.8,126.4,34.2,126.6,34.7,126.6z
	 M40.3,127.5v-8.7h1.1v1.1h0.3c0.2-0.4,0.4-0.7,0.8-0.9c0.4-0.2,0.7-0.4,1.1-0.4c0.6,0,1.1,0.3,1.5,0.8s0.6,1.1,0.6,1.9v6.2h-1.1
	v-5.9c0-0.6-0.1-1-0.3-1.3s-0.5-0.5-0.9-0.5s-0.7,0.1-1.1,0.3c-0.3,0.2-0.6,0.6-0.9,1v6.4H40.3z M51.5,127.5h-1.4l-2.3-8.7H49
	l1.8,7.7l1.8-7.7h1.2L51.5,127.5z M58.6,127.6c-0.9,0-1.5-0.3-2-0.9s-0.7-1.4-0.7-2.5V122c0-1.1,0.2-1.9,0.7-2.5s1.2-0.9,2-0.9
	c0.9,0,1.6,0.3,2,0.9c0.5,0.6,0.7,1.4,0.7,2.5v2.3c0,1.1-0.2,1.9-0.7,2.5S59.5,127.6,58.6,127.6z M58.6,126.6c0.6,0,1-0.2,1.2-0.5
	c0.3-0.4,0.4-0.9,0.4-1.7V122c0-0.8-0.1-1.4-0.4-1.7c-0.3-0.4-0.7-0.6-1.2-0.6c-0.6,0-1,0.2-1.2,0.6c-0.3,0.4-0.4,1-0.4,1.7v2.3
	c0,0.8,0.1,1.3,0.4,1.7C57.6,126.4,58,126.6,58.6,126.6z M67,127.6c-1,0-1.7-0.3-2.2-0.8s-0.7-1.3-0.7-2.2v-3c0-1,0.3-1.8,0.8-2.3
	s1.2-0.8,2.1-0.8s1.5,0.2,1.9,0.7s0.7,1.2,0.8,2.2h-1.1c0-0.7-0.2-1.1-0.4-1.4c-0.3-0.3-0.7-0.5-1.2-0.5c-0.6,0-1.1,0.2-1.3,0.5
	c-0.3,0.3-0.4,0.8-0.4,1.5v3c0,0.6,0.1,1.1,0.4,1.4s0.7,0.5,1.3,0.5c0.5,0,0.9-0.1,1.2-0.4c0.3-0.3,0.4-0.6,0.4-1.2h1.1
	c0,0.9-0.3,1.6-0.7,2C68.6,127.4,67.9,127.6,67,127.6z M74.8,126.6c0.4,0,0.8-0.1,1.1-0.3c0.4-0.2,0.7-0.5,0.9-1v-1.5h-1.9
	c-0.4,0-0.8,0.1-1,0.3c-0.2,0.2-0.4,0.6-0.4,1.1s0.1,0.8,0.3,1.1C74.1,126.4,74.4,126.6,74.8,126.6z M74.7,127.6
	c-0.7,0-1.2-0.2-1.6-0.7c-0.4-0.4-0.6-1-0.6-1.8s0.2-1.4,0.6-1.8s1-0.7,1.7-0.7h2.1v-1.5c0-0.4-0.1-0.8-0.4-1.1
	c-0.3-0.3-0.6-0.5-1.1-0.5s-0.9,0.1-1.2,0.4c-0.2,0.2-0.4,0.7-0.6,1.4l-0.9-0.3c0.1-0.8,0.4-1.4,0.8-1.8s1-0.6,1.8-0.6
	s1.4,0.2,1.9,0.6s0.8,1,0.8,1.8v4.6c0,0.4,0.1,0.7,0.3,0.9c0.2,0.1,0.5,0.2,1,0v1.1c-0.6,0.1-1.1,0-1.4-0.2s-0.5-0.6-0.5-1.2h-0.2
	c-0.2,0.4-0.5,0.8-0.9,1C75.7,127.5,75.2,127.6,74.7,127.6z M84.6,127.6c-0.7,0-1.2-0.2-1.6-0.7s-0.6-1.1-0.6-1.9v-5.1h-1.3v-1.1
	h1.3v-2.9h1.1v2.9h2.4v1.1h-2.4v5.3c0,0.5,0.1,0.8,0.3,1.1c0.2,0.2,0.5,0.3,0.8,0.3c0.2,0,0.3,0,0.5-0.1c0.2,0,0.4-0.1,0.6-0.2
	l0.2,1c-0.2,0.1-0.5,0.2-0.7,0.3C85,127.6,84.8,127.6,84.6,127.6z M91.2,127.6c-0.9,0-1.5-0.3-2-0.9s-0.7-1.4-0.7-2.5V122
	c0-1.1,0.2-1.9,0.7-2.5s1.2-0.9,2-0.9s1.6,0.3,2,0.9c0.5,0.6,0.7,1.4,0.7,2.5v2.3c0,1.1-0.2,1.9-0.7,2.5
	C92.8,127.4,92.1,127.6,91.2,127.6z M91.2,126.6c0.6,0,1-0.2,1.2-0.5c0.3-0.4,0.4-0.9,0.4-1.7V122c0-0.8-0.1-1.4-0.4-1.7
	c-0.3-0.4-0.7-0.6-1.2-0.6c-0.6,0-1,0.2-1.2,0.6c-0.3,0.4-0.4,1-0.4,1.7v2.3c0,0.8,0.1,1.3,0.4,1.7
	C90.3,126.4,90.7,126.6,91.2,126.6z M96.8,127.5v-8.7h1.1v1.1h0.3c0.1-0.4,0.4-0.8,0.7-0.9c0.3-0.2,0.7-0.3,1.1-0.3
	c0.5,0,0.9,0.2,1.2,0.5c0.3,0.3,0.5,0.9,0.5,1.5v1.6h-1.1v-1.5c0-0.3-0.1-0.6-0.2-0.8c-0.2-0.2-0.4-0.3-0.6-0.3
	c-0.3,0-0.6,0.1-1,0.4c-0.3,0.3-0.6,0.6-0.8,1v6.4C98,127.5,96.8,127.5,96.8,127.5z M105,127.5v-8.7h1.1v8.7H105z M105.6,117.1
	c-0.3,0-0.5,0-0.7-0.1s-0.3-0.3-0.3-0.6v-0.1c0-0.3,0.1-0.5,0.3-0.6c0.2-0.1,0.4-0.2,0.7-0.2c0.3,0,0.5,0.1,0.7,0.2s0.3,0.3,0.3,0.6
	v0.1c0,0.3-0.1,0.5-0.3,0.6C106.1,117,105.8,117.1,105.6,117.1z M112.3,126.6c0.4,0,0.8-0.1,1.1-0.3c0.4-0.2,0.7-0.5,0.9-1v-1.5
	h-1.9c-0.4,0-0.8,0.1-1,0.3c-0.2,0.2-0.4,0.6-0.4,1.1s0.1,0.8,0.3,1.1C111.5,126.4,111.8,126.6,112.3,126.6z M112.2,127.6
	c-0.7,0-1.2-0.2-1.6-0.7c-0.4-0.4-0.6-1-0.6-1.8s0.2-1.4,0.6-1.8s1-0.7,1.7-0.7h2.1v-1.5c0-0.4-0.1-0.8-0.4-1.1
	c-0.3-0.3-0.6-0.5-1.1-0.5s-0.9,0.1-1.2,0.4c-0.2,0.2-0.4,0.7-0.6,1.4l-0.9-0.3c0.1-0.8,0.4-1.4,0.8-1.8s1-0.6,1.8-0.6
	s1.4,0.2,1.9,0.6s0.8,1,0.8,1.8v4.6c0,0.4,0.1,0.7,0.3,0.9c0.2,0.1,0.5,0.2,1,0v1.1c-0.6,0.1-1.1,0-1.4-0.2s-0.5-0.6-0.5-1.2h-0.2
	c-0.2,0.4-0.5,0.8-0.9,1C113.2,127.5,112.7,127.6,112.2,127.6z M121.9,127.6c-0.4,0-0.7-0.1-0.9-0.3c-0.2-0.2-0.3-0.5-0.3-0.9v-0.2
	c0-0.4,0.1-0.8,0.3-1c0.2-0.2,0.5-0.3,0.9-0.3s0.7,0.1,0.9,0.3s0.3,0.5,0.3,1v0.2c0,0.4-0.1,0.8-0.3,0.9
	C122.6,127.6,122.3,127.6,121.9,127.6z"/>
<path fill="#1E193B" d="M183,105.5V93.9h5.7v1h-4.6v5h3.8v1h-3.8v4.6H183z M196.9,103.6c-0.2,0.7-0.6,1.2-1,1.6
	c-0.5,0.3-1,0.4-1.8,0.4c-0.9,0-1.6-0.3-2.1-0.8s-0.7-1.3-0.7-2.2v-3c0-1,0.2-1.7,0.7-2.2s1.2-0.8,2-0.8c0.9,0,1.5,0.3,2,0.8
	c0.5,0.6,0.7,1.3,0.7,2.3v1.5h-4.4v1.4c0,0.7,0.1,1.2,0.4,1.5c0.3,0.3,0.7,0.4,1.2,0.4s0.9-0.1,1.2-0.3c0.3-0.2,0.4-0.5,0.5-1
	L196.9,103.6z M192.5,99.7v0.7h3.2v-0.5c0-0.7-0.1-1.2-0.4-1.6c-0.3-0.4-0.7-0.5-1.2-0.5s-0.9,0.2-1.2,0.5
	C192.6,98.5,192.5,99,192.5,99.7z M202.6,105.6c-1,0-1.7-0.3-2.2-0.8s-0.7-1.3-0.7-2.2v-3c0-1,0.3-1.8,0.8-2.3s1.2-0.8,2.1-0.8
	c0.9,0,1.5,0.2,1.9,0.7s0.7,1.2,0.8,2.2h-1.1c0-0.7-0.2-1.1-0.4-1.4c-0.3-0.3-0.7-0.5-1.2-0.5c-0.6,0-1.1,0.2-1.3,0.5
	c-0.3,0.3-0.4,0.8-0.4,1.5v3c0,0.6,0.1,1.1,0.4,1.4c0.3,0.3,0.7,0.5,1.3,0.5c0.5,0,0.9-0.1,1.2-0.4s0.4-0.6,0.4-1.2h1.1
	c0,0.9-0.3,1.6-0.7,2C204.1,105.4,203.4,105.6,202.6,105.6z M208,105.5V93.9h1.1v4h0.3c0.2-0.4,0.5-0.7,0.8-0.9
	c0.4-0.2,0.7-0.3,1.1-0.3c0.6,0,1.2,0.2,1.5,0.7c0.4,0.5,0.6,1.1,0.6,1.9v6.2h-1.1v-5.9c0-0.6-0.1-1-0.3-1.3s-0.5-0.5-0.9-0.5
	s-0.7,0.1-1.1,0.3c-0.3,0.2-0.6,0.5-0.9,1v6.4C209.1,105.5,208,105.5,208,105.5z M218.7,104.6c0.4,0,0.8-0.1,1.1-0.3
	c0.4-0.2,0.7-0.5,0.9-1v-1.5h-1.9c-0.4,0-0.8,0.1-1,0.3c-0.2,0.2-0.4,0.6-0.4,1.1s0.1,0.8,0.3,1.1
	C217.9,104.4,218.2,104.6,218.7,104.6z M218.5,105.6c-0.7,0-1.2-0.2-1.6-0.7c-0.4-0.4-0.6-1-0.6-1.8s0.2-1.4,0.6-1.8
	c0.4-0.4,1-0.7,1.7-0.7h2.1v-1.5c0-0.4-0.1-0.8-0.4-1.1c-0.3-0.3-0.6-0.5-1.1-0.5s-0.9,0.1-1.2,0.4c-0.2,0.2-0.4,0.7-0.6,1.4
	l-0.9-0.3c0.1-0.8,0.4-1.4,0.8-1.8c0.4-0.4,1-0.6,1.8-0.6s1.4,0.2,1.9,0.6s0.8,1,0.8,1.8v4.6c0,0.4,0.1,0.7,0.3,0.9
	c0.2,0.1,0.5,0.2,1,0v1.1c-0.6,0.1-1.1,0-1.4-0.2c-0.3-0.2-0.5-0.6-0.5-1.2H221c-0.2,0.4-0.5,0.8-0.9,1
	C219.5,105.5,219.1,105.6,218.5,105.6z M235.3,105.5c-0.8,0-1.3-0.3-1.8-0.8c-0.4-0.5-0.6-1.3-0.6-2.2v-8.7h1.1v8.7
	c0,0.6,0.1,1.1,0.3,1.4s0.5,0.5,1,0.5c0.1,0,0.2,0,0.4-0.1c0.1,0,0.3-0.1,0.4-0.2l0.2,1c-0.1,0.1-0.3,0.1-0.5,0.2
	C235.7,105.5,235.5,105.5,235.3,105.5z M239.5,105.5v-8.7h1.1v8.7H239.5z M238.8,95.3l1.5-2.9h1.7l-2.1,2.9H238.8z M245.6,99v6.5
	h-1.1v-8.7h1.1v1.1h0.3c0.1-0.4,0.3-0.7,0.6-0.9c0.3-0.2,0.7-0.4,1-0.4c0.4,0,0.7,0.1,1,0.3c0.3,0.2,0.5,0.5,0.7,0.9h0.5
	c0.1-0.4,0.3-0.7,0.6-0.9c0.3-0.2,0.7-0.4,1-0.4c0.5,0,1,0.2,1.3,0.7c0.3,0.4,0.5,1,0.5,1.7v6.5H252v-6.2c0-0.5-0.1-0.8-0.2-1.1
	c-0.2-0.3-0.4-0.4-0.7-0.4c-0.4,0-0.7,0.1-1,0.3c-0.3,0.2-0.6,0.5-0.7,0.9v6.5h-1.1v-6.2c0-0.5-0.1-0.8-0.3-1.1
	c-0.2-0.3-0.4-0.4-0.7-0.4s-0.7,0.1-1,0.3C246,98.3,245.8,98.6,245.6,99z M257,105.5v-8.7h1.1v8.7H257z M257.6,95.1
	c-0.3,0-0.5,0-0.7-0.1s-0.3-0.3-0.3-0.6v-0.1c0-0.3,0.1-0.5,0.3-0.6c0.2-0.1,0.4-0.2,0.7-0.2c0.3,0,0.5,0.1,0.7,0.2s0.3,0.3,0.3,0.6
	v0.1c0,0.3-0.1,0.5-0.3,0.6C258.1,95,257.8,95.1,257.6,95.1z M265.2,105.6c-0.7,0-1.2-0.2-1.6-0.7s-0.6-1.1-0.6-1.9v-5.1h-1.3v-1.1
	h1.3v-2.9h1.1v2.9h2.4v1.1h-2.4v5.3c0,0.5,0.1,0.8,0.3,1.1c0.2,0.2,0.5,0.3,0.8,0.3c0.2,0,0.3,0,0.5-0.1c0.2,0,0.4-0.1,0.6-0.2
	l0.2,1c-0.2,0.1-0.5,0.2-0.7,0.3C265.7,105.6,265.4,105.6,265.2,105.6z M274.7,103.6c-0.2,0.7-0.6,1.2-1,1.6c-0.5,0.3-1,0.4-1.8,0.4
	c-0.9,0-1.6-0.3-2.1-0.8s-0.7-1.3-0.7-2.2v-3c0-1,0.2-1.7,0.7-2.2s1.2-0.8,2-0.8s1.5,0.3,2,0.8c0.5,0.6,0.7,1.3,0.7,2.3v1.5h-4.4
	v1.4c0,0.7,0.1,1.2,0.4,1.5s0.7,0.4,1.2,0.4s0.9-0.1,1.2-0.3c0.3-0.2,0.4-0.5,0.5-1L274.7,103.6z M270.3,99.7v0.7h3.2v-0.5
	c0-0.7-0.1-1.2-0.4-1.6s-0.7-0.5-1.2-0.5s-0.9,0.2-1.2,0.5C270.4,98.5,270.3,99,270.3,99.7z M286.9,104.6c0.6,0,1-0.2,1.3-0.5
	s0.4-0.8,0.4-1.6v-3c0-0.7-0.1-1.1-0.3-1.4c-0.2-0.3-0.5-0.4-1-0.4c-0.4,0-0.8,0.1-1.1,0.3c-0.3,0.2-0.6,0.6-0.9,1.1v4.8
	c0.2,0.2,0.4,0.4,0.7,0.5C286.2,104.6,286.5,104.6,286.9,104.6z M286.9,105.7c-0.2,0-0.5,0-0.8-0.1s-0.5-0.2-0.8-0.3v3.2h-1.1V96.8
	h1.1v1.1h0.3c0.1-0.4,0.4-0.7,0.7-0.9c0.3-0.2,0.7-0.3,1.2-0.3c0.7,0,1.2,0.3,1.5,0.8c0.4,0.5,0.6,1.3,0.6,2.2v2.9
	c0,1-0.3,1.7-0.8,2.3S287.7,105.7,286.9,105.7z M294.9,104.6c0.4,0,0.8-0.1,1.1-0.3c0.4-0.2,0.7-0.5,0.9-1v-1.5H295
	c-0.4,0-0.8,0.1-1,0.3c-0.2,0.2-0.4,0.6-0.4,1.1s0.1,0.8,0.3,1.1C294.1,104.4,294.4,104.6,294.9,104.6z M294.8,105.6
	c-0.7,0-1.2-0.2-1.6-0.7c-0.4-0.4-0.6-1-0.6-1.8s0.2-1.4,0.6-1.8s1-0.7,1.7-0.7h2.1v-1.5c0-0.4-0.1-0.8-0.4-1.1
	c-0.3-0.3-0.6-0.5-1.1-0.5s-0.9,0.1-1.2,0.4c-0.2,0.2-0.4,0.7-0.6,1.4l-0.9-0.3c0.1-0.8,0.4-1.4,0.8-1.8s1-0.6,1.8-0.6
	s1.4,0.2,1.9,0.6s0.8,1,0.8,1.8v4.6c0,0.4,0.1,0.7,0.3,0.9c0.2,0.1,0.5,0.2,1,0v1.1c-0.6,0.1-1.1,0-1.4-0.2s-0.5-0.6-0.5-1.2h-0.2
	c-0.2,0.4-0.5,0.8-0.9,1C295.8,105.5,295.3,105.6,294.8,105.6z M301.9,105.5v-8.7h1.1v1.1h0.3c0.1-0.4,0.4-0.8,0.7-0.9
	c0.3-0.2,0.7-0.3,1.1-0.3c0.5,0,0.9,0.2,1.2,0.5c0.3,0.3,0.5,0.9,0.5,1.5v1.6h-1.1v-1.5c0-0.3-0.1-0.6-0.2-0.8
	c-0.2-0.2-0.4-0.3-0.6-0.3c-0.3,0-0.6,0.1-1,0.4c-0.3,0.3-0.6,0.6-0.8,1v6.4C303.1,105.5,301.9,105.5,301.9,105.5z M311.5,104.6
	c0.4,0,0.8-0.1,1.1-0.3c0.4-0.2,0.7-0.5,0.9-1v-1.5h-1.9c-0.4,0-0.8,0.1-1,0.3c-0.2,0.2-0.4,0.6-0.4,1.1s0.1,0.8,0.3,1.1
	C310.7,104.4,311,104.6,311.5,104.6z M311.4,105.6c-0.7,0-1.2-0.2-1.6-0.7c-0.4-0.4-0.6-1-0.6-1.8s0.2-1.4,0.6-1.8s1-0.7,1.7-0.7
	h2.1v-1.5c0-0.4-0.1-0.8-0.4-1.1c-0.3-0.3-0.6-0.5-1.1-0.5s-0.9,0.1-1.2,0.4c-0.2,0.2-0.4,0.7-0.6,1.4l-0.9-0.3
	c0.1-0.8,0.4-1.4,0.8-1.8s1-0.6,1.8-0.6s1.4,0.2,1.9,0.6s0.8,1,0.8,1.8v4.6c0,0.4,0.1,0.7,0.3,0.9c0.2,0.1,0.5,0.2,1,0v1.1
	c-0.6,0.1-1.1,0-1.4-0.2s-0.5-0.6-0.5-1.2h-0.2c-0.2,0.4-0.5,0.8-0.9,1C312.4,105.5,311.9,105.6,311.4,105.6z M328.2,105.5
	c-0.8,0-1.3-0.3-1.8-0.8c-0.4-0.5-0.6-1.3-0.6-2.2v-8.7h1.1v8.7c0,0.6,0.1,1.1,0.3,1.4c0.2,0.3,0.5,0.5,1,0.5c0.1,0,0.2,0,0.4-0.1
	c0.1,0,0.3-0.1,0.4-0.2l0.2,1c-0.1,0.1-0.3,0.1-0.5,0.2C328.5,105.5,328.4,105.5,328.2,105.5z M333.8,104.6c0.4,0,0.8-0.1,1.1-0.3
	c0.4-0.2,0.7-0.5,0.9-1v-1.5h-1.9c-0.4,0-0.8,0.1-1,0.3c-0.2,0.2-0.4,0.6-0.4,1.1s0.1,0.8,0.3,1.1
	C333,104.4,333.3,104.6,333.8,104.6z M333.6,105.6c-0.7,0-1.2-0.2-1.6-0.7c-0.4-0.4-0.6-1-0.6-1.8s0.2-1.4,0.6-1.8s1-0.7,1.7-0.7
	h2.1v-1.5c0-0.4-0.1-0.8-0.4-1.1c-0.3-0.3-0.6-0.5-1.1-0.5s-0.9,0.1-1.2,0.4c-0.2,0.2-0.4,0.7-0.6,1.4l-0.9-0.3
	c0.1-0.8,0.4-1.4,0.8-1.8s1-0.6,1.8-0.6s1.4,0.2,1.9,0.6s0.8,1,0.8,1.8v4.6c0,0.4,0.1,0.7,0.3,0.9c0.2,0.1,0.5,0.2,1,0v1.1
	c-0.6,0.1-1.1,0-1.4-0.2s-0.5-0.6-0.5-1.2H336c-0.2,0.4-0.5,0.8-0.9,1C334.6,105.5,334.2,105.6,333.6,105.6z M166.1,127.5v-8.7h1.1
	v1.1h0.3c0.1-0.4,0.4-0.8,0.7-0.9c0.3-0.2,0.7-0.3,1.1-0.3c0.5,0,0.9,0.2,1.2,0.5s0.4,0.9,0.4,1.5v1.6h-1.1v-1.5
	c0-0.3-0.1-0.6-0.2-0.8c-0.2-0.2-0.4-0.3-0.6-0.3c-0.3,0-0.6,0.1-1,0.4c-0.3,0.3-0.6,0.6-0.8,1v6.4
	C167.2,127.5,166.1,127.5,166.1,127.5z M178.9,125.6c-0.2,0.7-0.6,1.2-1,1.6c-0.5,0.3-1,0.4-1.8,0.4c-0.9,0-1.6-0.3-2.1-0.8
	s-0.7-1.3-0.7-2.2v-3c0-0.9,0.2-1.7,0.7-2.2s1.2-0.8,2-0.8c0.9,0,1.5,0.3,2,0.8c0.5,0.6,0.7,1.3,0.7,2.3v1.5h-4.4v1.4
	c0,0.7,0.1,1.2,0.4,1.5c0.3,0.3,0.7,0.4,1.2,0.4s0.9-0.1,1.2-0.3c0.3-0.2,0.4-0.5,0.5-1L178.9,125.6z M174.5,121.7v0.7h3.2v-0.5
	c0-0.7-0.1-1.2-0.4-1.6c-0.3-0.4-0.7-0.5-1.2-0.5s-0.9,0.2-1.2,0.5C174.6,120.5,174.5,121,174.5,121.7z M184.6,127.6
	c-1,0-1.7-0.3-2.2-0.8s-0.7-1.3-0.7-2.2v-3c0-1,0.3-1.8,0.8-2.3s1.2-0.8,2.1-0.8c0.9,0,1.5,0.2,1.9,0.7s0.7,1.2,0.8,2.2h-1.1
	c0-0.7-0.2-1.1-0.4-1.4c-0.3-0.3-0.7-0.5-1.2-0.5c-0.6,0-1.1,0.2-1.3,0.5c-0.3,0.3-0.4,0.8-0.4,1.5v3c0,0.6,0.1,1.1,0.4,1.4
	c0.3,0.3,0.7,0.5,1.3,0.5c0.5,0,0.9-0.1,1.2-0.4s0.4-0.6,0.4-1.2h1.1c0,0.9-0.3,1.6-0.7,2C186.1,127.4,185.5,127.6,184.6,127.6z
	 M195.5,125.6c-0.2,0.7-0.6,1.2-1,1.6c-0.5,0.3-1,0.4-1.8,0.4c-0.9,0-1.6-0.3-2.1-0.8s-0.7-1.3-0.7-2.2v-3c0-0.9,0.2-1.7,0.7-2.2
	s1.2-0.8,2-0.8c0.9,0,1.5,0.3,2,0.8c0.5,0.6,0.7,1.3,0.7,2.3v1.5h-4.4v1.4c0,0.7,0.1,1.2,0.4,1.5c0.3,0.3,0.7,0.4,1.2,0.4
	s0.9-0.1,1.2-0.3c0.3-0.2,0.4-0.5,0.5-1L195.5,125.6z M191.1,121.7v0.7h3.2v-0.5c0-0.7-0.1-1.2-0.4-1.6c-0.3-0.4-0.7-0.5-1.2-0.5
	s-0.9,0.2-1.2,0.5C191.3,120.5,191.1,121,191.1,121.7z M201,126.6c0.6,0,1-0.2,1.3-0.5s0.4-0.8,0.4-1.6v-3c0-0.7-0.1-1.1-0.3-1.4
	s-0.5-0.4-1-0.4c-0.4,0-0.8,0.1-1.1,0.3c-0.3,0.2-0.6,0.6-0.9,1.1v4.8c0.2,0.2,0.4,0.4,0.7,0.5C200.4,126.6,200.6,126.6,201,126.6z
	 M201,127.7c-0.2,0-0.5,0-0.8-0.1s-0.5-0.2-0.8-0.3v3.2h-1.1v-11.6h1.1v1.1h0.3c0.1-0.4,0.4-0.7,0.7-0.9c0.3-0.2,0.7-0.3,1.2-0.3
	c0.7,0,1.2,0.3,1.5,0.8c0.4,0.5,0.6,1.3,0.6,2.2v2.9c0,1-0.3,1.7-0.8,2.3C202.5,127.4,201.8,127.7,201,127.7z M209.5,127.6
	c-1,0-1.7-0.3-2.2-0.8s-0.7-1.3-0.7-2.2v-3c0-1,0.3-1.8,0.8-2.3s1.2-0.8,2.1-0.8c0.9,0,1.5,0.2,1.9,0.7s0.7,1.2,0.8,2.2h-1.1
	c0-0.7-0.2-1.1-0.4-1.4c-0.3-0.3-0.7-0.5-1.2-0.5c-0.6,0-1.1,0.2-1.3,0.5c-0.3,0.3-0.4,0.8-0.4,1.5v3c0,0.6,0.1,1.1,0.4,1.4
	c0.3,0.3,0.7,0.5,1.3,0.5c0.5,0,0.9-0.1,1.2-0.4s0.4-0.6,0.4-1.2h1.1c0,0.9-0.3,1.6-0.7,2C211.1,127.4,210.4,127.6,209.5,127.6z
	 M215.9,127.5v-8.7h1.1v8.7H215.9z M216.5,117.1c-0.3,0-0.5,0-0.7-0.1s-0.3-0.3-0.3-0.6v-0.1c0-0.3,0.1-0.5,0.3-0.6s0.4-0.2,0.7-0.2
	s0.5,0.1,0.7,0.2s0.3,0.3,0.3,0.6v0.1c0,0.3-0.1,0.5-0.3,0.6C217,117,216.7,117.1,216.5,117.1z M223.5,127.6c-0.9,0-1.5-0.3-2-0.9
	s-0.7-1.4-0.7-2.5V122c0-1.1,0.2-1.9,0.7-2.5s1.2-0.9,2-0.9c0.9,0,1.6,0.3,2,0.9s0.7,1.4,0.7,2.5v2.3c0,1.1-0.2,1.9-0.7,2.5
	C225.1,127.4,224.4,127.6,223.5,127.6z M223.5,126.6c0.6,0,1-0.2,1.2-0.5c0.3-0.4,0.4-0.9,0.4-1.7V122c0-0.8-0.1-1.4-0.4-1.7
	c-0.3-0.4-0.7-0.6-1.2-0.6c-0.6,0-1,0.2-1.2,0.6c-0.3,0.4-0.4,1-0.4,1.7v2.3c0,0.8,0.1,1.3,0.4,1.7
	C222.6,126.4,223,126.6,223.5,126.6z M222.3,117.3l1.5-2.9h1.7l-2.1,2.9H222.3z M229.1,127.5v-8.7h1.1v1.1h0.3
	c0.2-0.4,0.4-0.7,0.8-0.9c0.4-0.2,0.7-0.4,1.1-0.4c0.6,0,1.1,0.3,1.5,0.8s0.6,1.1,0.6,1.9v6.2h-1.1v-5.9c0-0.6-0.1-1-0.3-1.3
	s-0.5-0.5-0.9-0.5s-0.7,0.1-1.1,0.3c-0.3,0.2-0.6,0.6-0.9,1v6.4H229.1z M246.6,126.5c0.4,0,0.8-0.1,1.1-0.4s0.6-0.6,0.9-1.1v-4.8
	c-0.2-0.2-0.4-0.4-0.7-0.5s-0.5-0.1-0.8-0.1c-0.6,0-1,0.2-1.3,0.5s-0.4,0.8-0.4,1.5v3c0,0.6,0.1,1.1,0.3,1.4
	C245.8,126.4,246.2,126.5,246.6,126.5z M248.2,126.4c-0.1,0.4-0.4,0.7-0.7,0.9c-0.3,0.2-0.7,0.3-1.2,0.3c-0.7,0-1.2-0.3-1.6-0.8
	c-0.4-0.5-0.6-1.3-0.6-2.3v-2.9c0-1,0.2-1.7,0.7-2.3c0.5-0.5,1.2-0.8,2.1-0.8c0.2,0,0.5,0,0.8,0.1s0.5,0.2,0.8,0.3v-3.2h1.1v11.6
	h-1.1v-1.1h-0.3V126.4z M258.1,125.6c-0.2,0.7-0.6,1.2-1,1.6c-0.5,0.3-1,0.4-1.8,0.4c-0.9,0-1.6-0.3-2.1-0.8s-0.7-1.3-0.7-2.2v-3
	c0-0.9,0.2-1.7,0.7-2.2s1.2-0.8,2-0.8s1.5,0.3,2,0.8c0.5,0.6,0.7,1.3,0.7,2.3v1.5h-4.4v1.4c0,0.7,0.1,1.2,0.4,1.5
	c0.3,0.3,0.7,0.4,1.2,0.4s0.9-0.1,1.2-0.3c0.3-0.2,0.4-0.5,0.5-1L258.1,125.6z M253.6,121.7v0.7h3.2v-0.5c0-0.7-0.1-1.2-0.4-1.6
	s-0.7-0.5-1.2-0.5s-0.9,0.2-1.2,0.5C253.8,120.5,253.6,121,253.6,121.7z M270.2,126.6c0.6,0,1-0.2,1.3-0.5s0.4-0.8,0.4-1.6v-3
	c0-0.7-0.1-1.1-0.3-1.4c-0.2-0.3-0.5-0.4-1-0.4c-0.4,0-0.8,0.1-1.1,0.3c-0.3,0.2-0.6,0.6-0.9,1.1v4.8c0.2,0.2,0.4,0.4,0.7,0.5
	C269.6,126.6,269.9,126.6,270.2,126.6z M270.2,127.7c-0.2,0-0.5,0-0.8-0.1s-0.5-0.2-0.8-0.3v3.2h-1.1v-11.6h1.1v1.1h0.3
	c0.1-0.4,0.4-0.7,0.7-0.9c0.3-0.2,0.7-0.3,1.2-0.3c0.7,0,1.2,0.3,1.5,0.8c0.4,0.5,0.6,1.3,0.6,2.2v2.9c0,1-0.3,1.7-0.8,2.3
	S271.1,127.7,270.2,127.7z M275.9,127.5v-8.7h1.1v1.1h0.3c0.1-0.4,0.4-0.8,0.7-0.9c0.3-0.2,0.7-0.3,1.1-0.3c0.5,0,0.9,0.2,1.2,0.5
	c0.3,0.3,0.5,0.9,0.5,1.5v1.6h-1.1v-1.5c0-0.3-0.1-0.6-0.2-0.8c-0.2-0.2-0.4-0.3-0.6-0.3c-0.3,0-0.6,0.1-1,0.4
	c-0.3,0.3-0.6,0.6-0.8,1v6.4C277.1,127.5,275.9,127.5,275.9,127.5z M285.8,127.6c-0.9,0-1.5-0.3-2-0.9s-0.7-1.4-0.7-2.5V122
	c0-1.1,0.2-1.9,0.7-2.5s1.2-0.9,2-0.9c0.9,0,1.6,0.3,2,0.9s0.7,1.4,0.7,2.5v2.3c0,1.1-0.2,1.9-0.7,2.5
	C287.4,127.4,286.7,127.6,285.8,127.6z M285.8,126.6c0.6,0,1-0.2,1.2-0.5c0.3-0.4,0.4-0.9,0.4-1.7V122c0-0.8-0.1-1.4-0.4-1.7
	c-0.3-0.4-0.7-0.6-1.2-0.6c-0.6,0-1,0.2-1.2,0.6c-0.3,0.4-0.4,1-0.4,1.7v2.3c0,0.8,0.1,1.3,0.4,1.7
	C284.9,126.4,285.3,126.6,285.8,126.6z M294.1,126.6c0.6,0,1-0.2,1.3-0.5s0.4-0.8,0.4-1.6v-3c0-0.7-0.1-1.1-0.3-1.4
	c-0.2-0.3-0.5-0.4-1-0.4c-0.4,0-0.8,0.1-1.1,0.3c-0.3,0.2-0.6,0.6-0.9,1.1v4.8c0.2,0.2,0.4,0.4,0.7,0.5
	C293.5,126.6,293.7,126.6,294.1,126.6z M294.1,127.7c-0.2,0-0.5,0-0.8-0.1s-0.5-0.2-0.8-0.3v3.2h-1.1v-11.6h1.1v1.1h0.3
	c0.1-0.4,0.4-0.7,0.7-0.9c0.3-0.2,0.7-0.3,1.2-0.3c0.7,0,1.2,0.3,1.5,0.8c0.4,0.5,0.6,1.3,0.6,2.2v2.9c0,1-0.3,1.7-0.8,2.3
	C295.6,127.4,295,127.7,294.1,127.7z M301.8,127.6c-0.6,0-1.1-0.2-1.5-0.7s-0.6-1.1-0.6-1.9v-6.2h1.1v5.9c0,0.6,0.1,1,0.3,1.3
	c0.2,0.3,0.5,0.5,0.9,0.5s0.7-0.1,1.1-0.3c0.3-0.2,0.6-0.6,0.9-1v-6.4h1.1v8.7H304v-1.1h-0.3c-0.1,0.4-0.3,0.7-0.7,0.9
	C302.7,127.5,302.3,127.6,301.8,127.6z M313.6,125.6c-0.2,0.7-0.6,1.2-1,1.6c-0.5,0.3-1,0.4-1.8,0.4c-0.9,0-1.6-0.3-2.1-0.8
	s-0.7-1.3-0.7-2.2v-3c0-0.9,0.2-1.7,0.7-2.2s1.2-0.8,2-0.8s1.5,0.3,2,0.8c0.5,0.6,0.7,1.3,0.7,2.3v1.5H309v1.4
	c0,0.7,0.1,1.2,0.4,1.5s0.7,0.4,1.2,0.4s0.9-0.1,1.2-0.3c0.3-0.2,0.4-0.5,0.5-1L313.6,125.6z M309.2,121.7v0.7h3.2v-0.5
	c0-0.7-0.1-1.2-0.4-1.6s-0.7-0.5-1.2-0.5s-0.9,0.2-1.2,0.5C309.3,120.5,309.2,121,309.2,121.7z M319.2,127.7c-0.5,0-1.1-0.1-1.6-0.3
	c-0.5-0.2-1-0.4-1.4-0.8l0.5-1c0.3,0.3,0.7,0.5,1.2,0.7s0.9,0.2,1.4,0.2s0.9-0.1,1.2-0.3c0.3-0.2,0.4-0.5,0.4-1s-0.1-0.8-0.4-1
	s-0.7-0.4-1.4-0.6c-0.8-0.2-1.5-0.5-1.9-0.9s-0.7-1-0.7-1.8c0-0.7,0.2-1.3,0.7-1.7c0.5-0.4,1.1-0.7,1.8-0.7c0.5,0,1,0.1,1.5,0.3
	c0.5,0.2,0.9,0.5,1.3,0.8l-0.5,1c-0.3-0.2-0.7-0.5-1.1-0.7s-0.8-0.3-1.3-0.3c-0.4,0-0.8,0.1-1,0.3c-0.2,0.2-0.3,0.5-0.3,1
	s0.1,0.8,0.4,1s0.8,0.4,1.5,0.6c0.9,0.2,1.5,0.5,1.9,0.9s0.6,1,0.6,1.7s-0.3,1.3-0.8,1.7C320.6,127.5,320,127.7,319.2,127.7z
	 M327.9,127.6c-0.7,0-1.2-0.2-1.6-0.7s-0.6-1.1-0.6-1.9v-5.1h-1.3v-1.1h1.3v-2.9h1.1v2.9h2.4v1.1h-2.4v5.3c0,0.5,0.1,0.8,0.3,1.1
	c0.2,0.2,0.5,0.3,0.8,0.3c0.2,0,0.3,0,0.5-0.1c0.2,0,0.4-0.1,0.6-0.2l0.2,1c-0.2,0.1-0.5,0.2-0.7,0.3
	C328.4,127.6,328.2,127.6,327.9,127.6z M334.3,126.6c0.4,0,0.8-0.1,1.1-0.3c0.4-0.2,0.7-0.5,0.9-1v-1.5h-1.9c-0.4,0-0.8,0.1-1,0.3
	c-0.2,0.2-0.4,0.6-0.4,1.1s0.1,0.8,0.3,1.1C333.5,126.4,333.8,126.6,334.3,126.6z M334.1,127.6c-0.7,0-1.2-0.2-1.6-0.7
	c-0.4-0.4-0.6-1-0.6-1.8s0.2-1.4,0.6-1.8s1-0.7,1.7-0.7h2.1v-1.5c0-0.4-0.1-0.8-0.4-1.1c-0.3-0.3-0.6-0.5-1.1-0.5s-0.9,0.1-1.2,0.4
	c-0.2,0.2-0.4,0.7-0.6,1.4l-1-0.3c0.1-0.8,0.4-1.4,0.8-1.8s1-0.6,1.8-0.6s1.4,0.2,1.9,0.6s0.8,1,0.8,1.8v4.6c0,0.4,0.1,0.7,0.3,0.9
	c0.2,0.1,0.5,0.2,1,0v1.1c-0.6,0.1-1.1,0-1.4-0.2s-0.5-0.6-0.5-1.2h-0.2c-0.2,0.4-0.5,0.8-0.9,1
	C335.1,127.5,334.7,127.6,334.1,127.6z M344.1,127.7c-0.5,0-1.1-0.1-1.6-0.3c-0.5-0.2-1-0.4-1.4-0.8l0.5-1c0.3,0.3,0.7,0.5,1.2,0.7
	s0.9,0.2,1.4,0.2s0.9-0.1,1.2-0.3c0.3-0.2,0.4-0.5,0.4-1s-0.1-0.8-0.4-1s-0.7-0.4-1.4-0.6c-0.8-0.2-1.5-0.5-1.9-0.9s-0.7-1-0.7-1.8
	c0-0.7,0.2-1.3,0.7-1.7c0.5-0.4,1.1-0.7,1.8-0.7c0.5,0,1,0.1,1.5,0.3c0.5,0.2,0.9,0.5,1.3,0.8l-0.5,1c-0.3-0.2-0.7-0.5-1.1-0.7
	s-0.8-0.3-1.3-0.3c-0.4,0-0.8,0.1-1,0.3c-0.2,0.2-0.3,0.5-0.3,1s0.1,0.8,0.4,1s0.8,0.4,1.5,0.6c0.9,0.2,1.5,0.5,1.9,0.9
	s0.6,1,0.6,1.7s-0.3,1.3-0.8,1.7C345.5,127.5,344.9,127.7,344.1,127.7z M352.2,127.6c-0.4,0-0.7-0.1-0.9-0.3
	c-0.2-0.2-0.3-0.5-0.3-0.9v-0.2c0-0.4,0.1-0.8,0.3-1c0.2-0.2,0.5-0.3,0.9-0.3s0.7,0.1,0.9,0.3s0.3,0.5,0.3,1v0.2
	c0,0.4-0.1,0.8-0.3,0.9C352.9,127.6,352.6,127.6,352.2,127.6z"/>
<path fill="#1E193B" d="M443.5,105.6c-1.1,0-2-0.3-2.5-1c-0.6-0.6-0.9-1.6-0.9-2.9v-4.1c0-1.3,0.3-2.3,0.9-3c0.6-0.6,1.4-1,2.6-1
	c1.1,0,1.9,0.3,2.4,1c0.6,0.6,0.9,1.6,0.9,2.9l-1.1,0.1c-0.1-1-0.3-1.8-0.6-2.3c-0.3-0.5-0.9-0.7-1.6-0.7c-0.8,0-1.4,0.2-1.7,0.7
	c-0.4,0.4-0.5,1.2-0.5,2.2v4.2c0,1,0.2,1.7,0.5,2.2c0.4,0.4,0.9,0.7,1.7,0.7c0.7,0,1.3-0.2,1.6-0.7c0.4-0.5,0.6-1.2,0.6-2.2l1.1,0.1
	c0,1.2-0.4,2.2-0.9,2.8C445.4,105.3,444.6,105.6,443.5,105.6z M452.3,105.6c-0.9,0-1.5-0.3-2-0.9s-0.7-1.4-0.7-2.5V100
	c0-1.1,0.2-1.9,0.7-2.5s1.2-0.9,2-0.9c0.9,0,1.6,0.3,2,0.9c0.5,0.6,0.7,1.4,0.7,2.5v2.3c0,1.1-0.2,1.9-0.7,2.5
	S453.2,105.6,452.3,105.6z M452.3,104.6c0.6,0,1-0.2,1.2-0.5c0.3-0.4,0.4-0.9,0.4-1.7V100c0-0.8-0.1-1.4-0.4-1.7
	c-0.3-0.4-0.7-0.6-1.2-0.6c-0.6,0-1,0.2-1.2,0.6c-0.3,0.4-0.4,1-0.4,1.7v2.3c0,0.8,0.1,1.3,0.4,1.7
	C451.3,104.4,451.7,104.6,452.3,104.6z M459,99v6.5h-1.1v-8.7h1.1v1.1h0.3c0.1-0.4,0.3-0.7,0.6-0.9c0.3-0.2,0.7-0.4,1-0.4
	c0.4,0,0.7,0.1,1,0.3c0.3,0.2,0.5,0.5,0.7,0.9h0.5c0.1-0.4,0.3-0.7,0.6-0.9c0.3-0.2,0.7-0.4,1-0.4c0.5,0,1,0.2,1.3,0.7
	c0.3,0.4,0.5,1,0.5,1.7v6.5h-1.1v-6.2c0-0.5-0.1-0.8-0.2-1.1c-0.2-0.3-0.4-0.4-0.7-0.4c-0.4,0-0.7,0.1-1,0.3
	c-0.3,0.2-0.6,0.5-0.7,0.9v6.5h-1.1v-6.2c0-0.5-0.1-0.8-0.3-1.1c-0.2-0.3-0.4-0.4-0.7-0.4c-0.3,0-0.7,0.1-1,0.3
	C459.4,98.3,459.2,98.6,459,99z M471.5,105.6c-0.6,0-1.1-0.2-1.5-0.7s-0.6-1.1-0.6-1.9v-6.2h1.1v5.9c0,0.6,0.1,1,0.3,1.3
	c0.2,0.3,0.5,0.5,0.9,0.5s0.7-0.1,1.1-0.3c0.3-0.2,0.6-0.6,0.9-1v-6.4h1.1v8.7h-1.1v-1.1h-0.3c-0.1,0.4-0.3,0.7-0.7,0.9
	C472.4,105.5,472,105.6,471.5,105.6z M477.7,105.5v-8.7h1.1v1.1h0.3c0.2-0.4,0.4-0.7,0.8-0.9c0.4-0.2,0.7-0.4,1.1-0.4
	c0.6,0,1.1,0.3,1.5,0.8s0.6,1.1,0.6,1.9v6.2H482v-5.9c0-0.6-0.1-1-0.3-1.3c-0.2-0.3-0.5-0.5-0.9-0.5s-0.7,0.1-1.1,0.3
	c-0.3,0.2-0.6,0.6-0.9,1v6.4H477.7z M487,105.5v-8.7h1.1v8.7H487z M487.6,95.1c-0.3,0-0.5,0-0.7-0.1s-0.3-0.3-0.3-0.6v-0.1
	c0-0.3,0.1-0.5,0.3-0.6c0.2-0.1,0.4-0.2,0.7-0.2c0.3,0,0.5,0.1,0.7,0.2s0.3,0.3,0.3,0.6v0.1c0,0.3-0.1,0.5-0.3,0.6
	C488.1,95,487.9,95.1,487.6,95.1z M494.8,105.6c-1,0-1.7-0.3-2.2-0.8s-0.7-1.3-0.7-2.2v-3c0-1,0.3-1.8,0.8-2.3s1.2-0.8,2.1-0.8
	s1.5,0.2,1.9,0.7s0.7,1.2,0.8,2.2h-1.1c0-0.7-0.2-1.1-0.4-1.4c-0.3-0.3-0.7-0.5-1.2-0.5c-0.6,0-1.1,0.2-1.3,0.5
	c-0.3,0.3-0.4,0.8-0.4,1.5v3c0,0.6,0.1,1.1,0.4,1.4s0.7,0.5,1.3,0.5c0.5,0,0.9-0.1,1.2-0.4c0.3-0.3,0.4-0.6,0.4-1.2h1.1
	c0,0.9-0.3,1.6-0.7,2C496.4,105.4,495.7,105.6,494.8,105.6z M502.6,104.6c0.4,0,0.8-0.1,1.1-0.3c0.4-0.2,0.7-0.5,0.9-1v-1.5h-1.9
	c-0.4,0-0.8,0.1-1,0.3c-0.2,0.2-0.4,0.6-0.4,1.1s0.1,0.8,0.3,1.1C501.8,104.4,502.2,104.6,502.6,104.6z M502.5,105.6
	c-0.7,0-1.2-0.2-1.6-0.7c-0.4-0.4-0.6-1-0.6-1.8s0.2-1.4,0.6-1.8s1-0.7,1.7-0.7h2.1v-1.5c0-0.4-0.1-0.8-0.4-1.1
	c-0.3-0.3-0.6-0.5-1.1-0.5s-0.9,0.1-1.2,0.4c-0.2,0.2-0.4,0.7-0.6,1.4l-0.9-0.3c0.1-0.8,0.4-1.4,0.8-1.8s1-0.6,1.8-0.6
	s1.4,0.2,1.9,0.6s0.8,1,0.8,1.8v4.6c0,0.4,0.1,0.7,0.3,0.9c0.2,0.1,0.5,0.2,1,0v1.1c-0.6,0.1-1.1,0-1.4-0.2s-0.5-0.6-0.5-1.2H505
	c-0.2,0.4-0.5,0.8-0.9,1C503.5,105.5,503,105.6,502.5,105.6z M512.5,105.6c-1,0-1.7-0.3-2.2-0.8s-0.7-1.3-0.7-2.2v-3
	c0-1,0.3-1.8,0.8-2.3s1.2-0.8,2.1-0.8c0.9,0,1.5,0.2,1.9,0.7s0.7,1.2,0.8,2.2h-1.1c0-0.7-0.2-1.1-0.4-1.4c-0.3-0.3-0.7-0.5-1.2-0.5
	c-0.6,0-1.1,0.2-1.3,0.5c-0.3,0.3-0.4,0.8-0.4,1.5v3c0,0.6,0.1,1.1,0.4,1.4s0.7,0.5,1.3,0.5c0.5,0,0.9-0.1,1.2-0.4s0.4-0.6,0.4-1.2
	h1.1c0,0.9-0.3,1.6-0.7,2C514.1,105.4,513.4,105.6,512.5,105.6z M518.9,105.5v-8.7h1.1v8.7H518.9z M519.5,95.1c-0.3,0-0.5,0-0.7-0.1
	s-0.3-0.3-0.3-0.6v-0.1c0-0.3,0.1-0.5,0.3-0.6s0.4-0.2,0.7-0.2s0.5,0.1,0.7,0.2s0.3,0.3,0.3,0.6v0.1c0,0.3-0.1,0.5-0.3,0.6
	C520,95,519.8,95.1,519.5,95.1z M526.6,105.6c-0.9,0-1.5-0.3-2-0.9s-0.7-1.4-0.7-2.5V100c0-1.1,0.2-1.9,0.7-2.5s1.2-0.9,2-0.9
	c0.9,0,1.6,0.3,2,0.9c0.5,0.6,0.7,1.4,0.7,2.5v2.3c0,1.1-0.2,1.9-0.7,2.5S527.5,105.6,526.6,105.6z M526.6,104.6
	c0.6,0,1-0.2,1.2-0.5c0.3-0.4,0.4-0.9,0.4-1.7V100c0-0.8-0.1-1.4-0.4-1.7c-0.3-0.4-0.7-0.6-1.2-0.6c-0.6,0-1,0.2-1.2,0.6
	c-0.3,0.4-0.4,1-0.4,1.7v2.3c0,0.8,0.1,1.3,0.4,1.7C525.6,104.4,526,104.6,526.6,104.6z M525.3,95.3l1.5-2.9h1.7l-2.1,2.9H525.3z
	 M532.2,105.5v-8.7h1.1v1.1h0.3c0.2-0.4,0.4-0.7,0.8-0.9c0.4-0.2,0.7-0.4,1.1-0.4c0.6,0,1.1,0.3,1.5,0.8s0.6,1.1,0.6,1.9v6.2h-1.1
	v-5.9c0-0.6-0.1-1-0.3-1.3s-0.5-0.5-0.9-0.5s-0.7,0.1-1.1,0.3c-0.3,0.2-0.6,0.6-0.9,1v6.4H532.2z M549.6,104.5
	c0.4,0,0.8-0.1,1.1-0.4s0.6-0.6,0.9-1.1v-4.8c-0.2-0.2-0.4-0.4-0.7-0.5s-0.5-0.1-0.8-0.1c-0.6,0-1,0.2-1.3,0.5s-0.4,0.8-0.4,1.5v3
	c0,0.6,0.1,1.1,0.3,1.4C548.9,104.4,549.2,104.5,549.6,104.5z M551.3,104.4c-0.1,0.4-0.4,0.7-0.7,0.9c-0.3,0.2-0.7,0.3-1.2,0.3
	c-0.7,0-1.2-0.3-1.6-0.8c-0.4-0.5-0.6-1.3-0.6-2.3v-2.9c0-1,0.2-1.7,0.7-2.3c0.5-0.5,1.2-0.8,2.1-0.8c0.2,0,0.5,0,0.8,0.1
	s0.5,0.2,0.8,0.3v-3.2h1.1v11.6h-1.1v-1.1h-0.3V104.4z M561.1,103.6c-0.2,0.7-0.6,1.2-1,1.6c-0.5,0.3-1,0.4-1.8,0.4
	c-0.9,0-1.6-0.3-2.1-0.8s-0.7-1.3-0.7-2.2v-3c0-1,0.2-1.7,0.7-2.2s1.2-0.8,2-0.8c0.9,0,1.5,0.3,2,0.8c0.5,0.6,0.7,1.3,0.7,2.3v1.5
	h-4.4v1.4c0,0.7,0.1,1.2,0.4,1.5c0.3,0.3,0.7,0.4,1.2,0.4s0.9-0.1,1.2-0.3c0.3-0.2,0.4-0.5,0.5-1L561.1,103.6z M556.7,99.7v0.7h3.2
	v-0.5c0-0.7-0.1-1.2-0.4-1.6c-0.3-0.4-0.7-0.5-1.2-0.5s-0.9,0.2-1.2,0.5C556.8,98.5,556.7,99,556.7,99.7z M417.7,126.6
	c0.6,0,1-0.2,1.3-0.5s0.4-0.8,0.4-1.6v-3c0-0.7-0.1-1.1-0.3-1.4c-0.2-0.3-0.5-0.4-1-0.4c-0.4,0-0.8,0.1-1.1,0.3
	c-0.3,0.2-0.6,0.6-0.9,1.1v4.8c0.2,0.2,0.4,0.4,0.7,0.5C417.1,126.6,417.4,126.6,417.7,126.6z M417.8,127.7c-0.2,0-0.5,0-0.8-0.1
	s-0.5-0.2-0.8-0.3v3.2h-1.1v-11.6h1.1v1.1h0.3c0.1-0.4,0.4-0.7,0.7-0.9c0.3-0.2,0.7-0.3,1.2-0.3c0.7,0,1.2,0.3,1.5,0.8
	c0.4,0.5,0.6,1.3,0.6,2.2v2.9c0,1-0.3,1.7-0.8,2.3C419.3,127.4,418.6,127.7,417.8,127.7z M423.4,127.5v-8.7h1.1v1.1h0.3
	c0.1-0.4,0.4-0.8,0.7-0.9c0.3-0.2,0.7-0.3,1.1-0.3c0.5,0,0.9,0.2,1.2,0.5c0.3,0.3,0.5,0.9,0.5,1.5v1.6h-1.1v-1.5
	c0-0.3-0.1-0.6-0.2-0.8c-0.2-0.2-0.4-0.3-0.6-0.3c-0.3,0-0.6,0.1-1,0.4c-0.3,0.3-0.6,0.6-0.8,1v6.4
	C424.6,127.5,423.4,127.5,423.4,127.5z M433.4,127.6c-0.9,0-1.5-0.3-2-0.9s-0.7-1.4-0.7-2.5V122c0-1.1,0.2-1.9,0.7-2.5
	s1.2-0.9,2-0.9c0.9,0,1.6,0.3,2,0.9c0.5,0.6,0.7,1.4,0.7,2.5v2.3c0,1.1-0.2,1.9-0.7,2.5S434.2,127.6,433.4,127.6z M433.4,126.6
	c0.6,0,1-0.2,1.2-0.5c0.3-0.4,0.4-0.9,0.4-1.7V122c0-0.8-0.1-1.4-0.4-1.7c-0.3-0.4-0.7-0.6-1.2-0.6c-0.6,0-1,0.2-1.2,0.6
	c-0.3,0.4-0.4,1-0.4,1.7v2.3c0,0.8,0.1,1.3,0.4,1.7C432.4,126.4,432.8,126.6,433.4,126.6z M441.6,126.6c0.6,0,1-0.2,1.3-0.5
	s0.4-0.8,0.4-1.6v-3c0-0.7-0.1-1.1-0.3-1.4c-0.2-0.3-0.5-0.4-1-0.4c-0.4,0-0.8,0.1-1.1,0.3c-0.3,0.2-0.6,0.6-0.9,1.1v4.8
	c0.2,0.2,0.4,0.4,0.7,0.5C441,126.6,441.3,126.6,441.6,126.6z M441.6,127.7c-0.2,0-0.5,0-0.8-0.1s-0.5-0.2-0.8-0.3v3.2h-1.1v-11.6
	h1.1v1.1h0.3c0.1-0.4,0.4-0.7,0.7-0.9c0.3-0.2,0.7-0.3,1.2-0.3c0.7,0,1.2,0.3,1.5,0.8c0.4,0.5,0.6,1.3,0.6,2.2v2.9
	c0,1-0.3,1.7-0.8,2.3S442.5,127.7,441.6,127.7z M449.3,127.6c-0.6,0-1.1-0.2-1.5-0.7s-0.6-1.1-0.6-1.9v-6.2h1.1v5.9
	c0,0.6,0.1,1,0.3,1.3c0.2,0.3,0.5,0.5,0.9,0.5s0.7-0.1,1.1-0.3c0.3-0.2,0.6-0.6,0.9-1v-6.4h1.1v8.7h-1.1v-1.1h-0.3
	c-0.1,0.4-0.4,0.7-0.7,0.9C450.2,127.5,449.8,127.6,449.3,127.6z M461.1,125.6c-0.2,0.7-0.6,1.2-1,1.6c-0.5,0.3-1,0.4-1.8,0.4
	c-0.9,0-1.6-0.3-2.1-0.8s-0.7-1.3-0.7-2.2v-3c0-0.9,0.2-1.7,0.7-2.2s1.2-0.8,2-0.8c0.9,0,1.5,0.3,2,0.8c0.5,0.6,0.7,1.3,0.7,2.3v1.5
	h-4.4v1.4c0,0.7,0.1,1.2,0.4,1.5s0.7,0.4,1.2,0.4s0.9-0.1,1.2-0.3c0.3-0.2,0.4-0.5,0.5-1L461.1,125.6z M456.7,121.7v0.7h3.2v-0.5
	c0-0.7-0.1-1.2-0.4-1.6s-0.7-0.5-1.2-0.5s-0.9,0.2-1.2,0.5C456.8,120.5,456.7,121,456.7,121.7z M466.7,127.7c-0.5,0-1.1-0.1-1.6-0.3
	c-0.5-0.2-1-0.4-1.4-0.8l0.5-1c0.3,0.3,0.7,0.5,1.2,0.7s0.9,0.2,1.4,0.2s0.9-0.1,1.2-0.3c0.3-0.2,0.4-0.5,0.4-1s-0.1-0.8-0.4-1
	s-0.7-0.4-1.4-0.6c-0.8-0.2-1.5-0.5-1.9-0.9s-0.7-1-0.7-1.8c0-0.7,0.2-1.3,0.7-1.7c0.5-0.4,1.1-0.7,1.8-0.7c0.5,0,1,0.1,1.5,0.3
	s0.9,0.5,1.3,0.8l-0.5,1c-0.3-0.2-0.7-0.5-1.1-0.7s-0.8-0.3-1.3-0.3c-0.4,0-0.8,0.1-1,0.3c-0.2,0.2-0.3,0.5-0.3,1s0.1,0.8,0.4,1
	s0.8,0.4,1.5,0.6c0.9,0.2,1.5,0.5,1.9,0.9s0.6,1,0.6,1.7s-0.3,1.3-0.8,1.7C468.1,127.5,467.5,127.7,466.7,127.7z M475.5,127.6
	c-0.7,0-1.2-0.2-1.6-0.7s-0.6-1.1-0.6-1.9v-5.1H472v-1.1h1.3v-2.9h1.1v2.9h2.4v1.1h-2.4v5.3c0,0.5,0.1,0.8,0.3,1.1
	c0.2,0.2,0.5,0.3,0.8,0.3c0.2,0,0.3,0,0.5-0.1c0.2,0,0.4-0.1,0.6-0.2l0.2,1c-0.2,0.1-0.5,0.2-0.7,0.3
	C475.9,127.6,475.7,127.6,475.5,127.6z M481.8,126.6c0.4,0,0.8-0.1,1.1-0.3c0.4-0.2,0.7-0.5,0.9-1v-1.5h-1.9c-0.4,0-0.8,0.1-1,0.3
	c-0.2,0.2-0.4,0.6-0.4,1.1s0.1,0.8,0.3,1.1C481,126.4,481.3,126.6,481.8,126.6z M481.7,127.6c-0.7,0-1.2-0.2-1.6-0.7
	c-0.4-0.4-0.6-1-0.6-1.8s0.2-1.4,0.6-1.8s1-0.7,1.7-0.7h2.1v-1.5c0-0.4-0.1-0.8-0.4-1.1c-0.3-0.3-0.6-0.5-1.1-0.5s-0.9,0.1-1.2,0.4
	c-0.2,0.2-0.4,0.7-0.6,1.4l-0.9-0.3c0.1-0.8,0.4-1.4,0.8-1.8s1-0.6,1.8-0.6s1.4,0.2,1.9,0.6s0.8,1,0.8,1.8v4.6
	c0,0.4,0.1,0.7,0.3,0.9c0.2,0.1,0.5,0.2,1,0v1.1c-0.6,0.1-1.1,0-1.4-0.2s-0.5-0.6-0.5-1.2H484c-0.2,0.4-0.5,0.8-0.9,1
	C482.7,127.5,482.2,127.6,481.7,127.6z M491.6,127.7c-0.5,0-1.1-0.1-1.6-0.3c-0.5-0.2-1-0.4-1.4-0.8l0.5-1c0.3,0.3,0.7,0.5,1.2,0.7
	s0.9,0.2,1.4,0.2s0.9-0.1,1.2-0.3c0.3-0.2,0.4-0.5,0.4-1s-0.1-0.8-0.4-1s-0.7-0.4-1.4-0.6c-0.8-0.2-1.5-0.5-1.9-0.9s-0.7-1-0.7-1.8
	c0-0.7,0.2-1.3,0.7-1.7c0.5-0.4,1.1-0.7,1.8-0.7c0.5,0,1,0.1,1.5,0.3c0.5,0.2,0.9,0.5,1.3,0.8l-0.5,1c-0.3-0.2-0.7-0.5-1.1-0.7
	s-0.8-0.3-1.3-0.3c-0.4,0-0.8,0.1-1,0.3c-0.2,0.2-0.3,0.5-0.3,1s0.1,0.8,0.4,1s0.8,0.4,1.5,0.6c0.9,0.2,1.5,0.5,1.9,0.9
	s0.6,1,0.6,1.7s-0.3,1.3-0.8,1.7C493.1,127.5,492.4,127.7,491.6,127.7z M506.2,126.6c0.4,0,0.8-0.1,1.1-0.3c0.4-0.2,0.7-0.5,0.9-1
	v-1.5h-1.9c-0.4,0-0.8,0.1-1,0.3c-0.2,0.2-0.4,0.6-0.4,1.1s0.1,0.8,0.3,1.1C505.4,126.4,505.8,126.6,506.2,126.6z M506.1,127.6
	c-0.7,0-1.2-0.2-1.6-0.7c-0.4-0.4-0.6-1-0.6-1.8s0.2-1.4,0.6-1.8s1-0.7,1.7-0.7h2.1v-1.5c0-0.4-0.1-0.8-0.4-1.1
	c-0.3-0.3-0.6-0.5-1.1-0.5s-0.9,0.1-1.2,0.4c-0.2,0.2-0.4,0.7-0.6,1.4l-1-0.3c0.1-0.8,0.4-1.4,0.8-1.8s1-0.6,1.8-0.6
	s1.4,0.2,1.9,0.6s0.8,1,0.8,1.8v4.6c0,0.4,0.1,0.7,0.3,0.9c0.2,0.1,0.5,0.2,1,0v1.1c-0.6,0.1-1.1,0-1.4-0.2s-0.5-0.6-0.5-1.2h-0.2
	c-0.2,0.4-0.5,0.8-0.9,1C507.1,127.5,506.6,127.6,506.1,127.6z M516.1,127.6c-1,0-1.7-0.3-2.2-0.8s-0.7-1.3-0.7-2.2v-3
	c0-1,0.3-1.8,0.8-2.3s1.2-0.8,2.1-0.8c0.9,0,1.5,0.2,2,0.7c0.4,0.5,0.7,1.2,0.8,2.2h-1.1c0-0.7-0.2-1.1-0.4-1.4
	c-0.3-0.3-0.7-0.5-1.2-0.5c-0.6,0-1.1,0.2-1.3,0.5c-0.3,0.3-0.4,0.8-0.4,1.5v3c0,0.6,0.1,1.1,0.4,1.4c0.3,0.3,0.7,0.5,1.3,0.5
	c0.5,0,0.9-0.1,1.2-0.4s0.4-0.6,0.4-1.2h1.1c0,0.9-0.3,1.6-0.7,2C517.7,127.4,517,127.6,516.1,127.6z M527.1,125.6
	c-0.2,0.7-0.6,1.2-1,1.6c-0.5,0.3-1,0.4-1.8,0.4c-0.9,0-1.6-0.3-2.1-0.8s-0.7-1.3-0.7-2.2v-3c0-0.9,0.2-1.7,0.7-2.2s1.2-0.8,2-0.8
	c0.9,0,1.5,0.3,2,0.8c0.5,0.6,0.7,1.3,0.7,2.3v1.5h-4.4v1.4c0,0.7,0.1,1.2,0.4,1.5c0.3,0.3,0.7,0.4,1.2,0.4s0.9-0.1,1.2-0.3
	c0.3-0.2,0.4-0.5,0.5-1L527.1,125.6z M522.7,121.7v0.7h3.2v-0.5c0-0.7-0.1-1.2-0.4-1.6c-0.3-0.4-0.7-0.5-1.2-0.5s-0.9,0.2-1.2,0.5
	C522.8,120.5,522.7,121,522.7,121.7z M532.5,126.6c0.6,0,1-0.2,1.3-0.5s0.4-0.8,0.4-1.6v-3c0-0.7-0.1-1.1-0.3-1.4s-0.5-0.4-1-0.4
	c-0.4,0-0.8,0.1-1.1,0.3c-0.3,0.2-0.6,0.6-0.9,1.1v4.8c0.2,0.2,0.4,0.4,0.7,0.5C531.9,126.6,532.2,126.6,532.5,126.6z M532.5,127.7
	c-0.2,0-0.5,0-0.8-0.1s-0.5-0.2-0.8-0.3v3.2h-1.1v-11.6h1.1v1.1h0.3c0.1-0.4,0.4-0.7,0.7-0.9c0.3-0.2,0.7-0.3,1.2-0.3
	c0.7,0,1.2,0.3,1.5,0.8c0.4,0.5,0.6,1.3,0.6,2.2v2.9c0,1-0.3,1.7-0.8,2.3C534.1,127.4,533.4,127.7,532.5,127.7z M541.5,127.6
	c-0.7,0-1.2-0.2-1.6-0.7c-0.4-0.5-0.6-1.1-0.6-1.9v-5.1H538v-1.1h1.3v-2.9h1.1v2.9h2.4v1.1h-2.4v5.3c0,0.5,0.1,0.8,0.3,1.1
	c0.2,0.2,0.5,0.3,0.8,0.3c0.2,0,0.3,0,0.5-0.1c0.2,0,0.4-0.1,0.6-0.2l0.2,1c-0.2,0.1-0.5,0.2-0.7,0.3
	C541.9,127.6,541.7,127.6,541.5,127.6z M547.8,126.6c0.4,0,0.8-0.1,1.1-0.3c0.4-0.2,0.7-0.5,0.9-1v-1.5h-1.9c-0.4,0-0.8,0.1-1,0.3
	c-0.2,0.2-0.4,0.6-0.4,1.1s0.1,0.8,0.3,1.1C547,126.4,547.3,126.6,547.8,126.6z M547.7,127.6c-0.7,0-1.2-0.2-1.6-0.7
	c-0.4-0.4-0.6-1-0.6-1.8s0.2-1.4,0.6-1.8c0.4-0.4,1-0.7,1.7-0.7h2.1v-1.5c0-0.4-0.1-0.8-0.4-1.1c-0.3-0.3-0.6-0.5-1.1-0.5
	s-0.9,0.1-1.2,0.4c-0.2,0.2-0.4,0.7-0.6,1.4l-0.9-0.3c0.1-0.8,0.4-1.4,0.8-1.8c0.4-0.4,1-0.6,1.8-0.6s1.4,0.2,1.9,0.6s0.8,1,0.8,1.8
	v4.6c0,0.4,0.1,0.7,0.3,0.9c0.2,0.1,0.5,0.2,1,0v1.1c-0.6,0.1-1.1,0-1.4-0.2c-0.3-0.2-0.5-0.6-0.5-1.2H550c-0.2,0.4-0.5,0.8-0.9,1
	C548.7,127.5,548.2,127.6,547.7,127.6z M557.2,126.5c0.4,0,0.8-0.1,1.1-0.4s0.6-0.6,0.9-1.1v-4.8c-0.2-0.2-0.4-0.4-0.7-0.5
	s-0.5-0.1-0.8-0.1c-0.6,0-1,0.2-1.3,0.5s-0.4,0.8-0.4,1.5v3c0,0.6,0.1,1.1,0.3,1.4C556.4,126.4,556.8,126.5,557.2,126.5z
	 M558.8,126.4c-0.1,0.4-0.4,0.7-0.7,0.9c-0.3,0.2-0.7,0.3-1.2,0.3c-0.7,0-1.2-0.3-1.6-0.8c-0.4-0.5-0.6-1.3-0.6-2.3v-2.9
	c0-1,0.2-1.7,0.7-2.3c0.5-0.5,1.2-0.8,2.1-0.8c0.2,0,0.5,0,0.8,0.1s0.5,0.2,0.8,0.3v-3.2h1.1v11.6h-1.1v-1.1h-0.3V126.4z
	 M565.5,126.6c0.4,0,0.8-0.1,1.1-0.3c0.4-0.2,0.7-0.5,0.9-1v-1.5h-1.9c-0.4,0-0.8,0.1-1,0.3c-0.2,0.2-0.4,0.6-0.4,1.1
	s0.1,0.8,0.3,1.1C564.7,126.4,565,126.6,565.5,126.6z M565.4,127.6c-0.7,0-1.2-0.2-1.6-0.7c-0.4-0.4-0.6-1-0.6-1.8s0.2-1.4,0.6-1.8
	c0.4-0.4,1-0.7,1.7-0.7h2.1v-1.5c0-0.4-0.1-0.8-0.4-1.1c-0.3-0.3-0.6-0.5-1.1-0.5s-0.9,0.1-1.2,0.4c-0.2,0.2-0.4,0.7-0.6,1.4
	l-0.9-0.3c0.1-0.8,0.4-1.4,0.8-1.8c0.4-0.4,1-0.6,1.8-0.6s1.4,0.2,1.9,0.6s0.8,1,0.8,1.8v4.6c0,0.4,0.1,0.7,0.3,0.9
	c0.2,0.1,0.5,0.2,1,0v1.1c-0.6,0.1-1.1,0-1.4-0.2c-0.3-0.2-0.5-0.6-0.5-1.2h-0.2c-0.2,0.4-0.5,0.8-0.9,1
	C566.4,127.5,565.9,127.6,565.4,127.6z M575.3,127.7c-0.5,0-1.1-0.1-1.6-0.3c-0.5-0.2-1-0.4-1.4-0.8l0.5-1c0.3,0.3,0.7,0.5,1.2,0.7
	s0.9,0.2,1.4,0.2s0.9-0.1,1.2-0.3c0.3-0.2,0.4-0.5,0.4-1s-0.1-0.8-0.4-1c-0.3-0.2-0.7-0.4-1.4-0.6c-0.8-0.2-1.5-0.5-1.9-0.9
	s-0.7-1-0.7-1.8c0-0.7,0.2-1.3,0.7-1.7c0.5-0.4,1.1-0.7,1.8-0.7c0.5,0,1,0.1,1.5,0.3c0.5,0.2,0.9,0.5,1.3,0.8l-0.5,1
	c-0.3-0.2-0.7-0.5-1.1-0.7c-0.4-0.2-0.8-0.3-1.3-0.3c-0.4,0-0.8,0.1-1,0.3c-0.2,0.2-0.3,0.5-0.3,1s0.1,0.8,0.4,1
	c0.3,0.2,0.8,0.4,1.5,0.6c0.9,0.2,1.5,0.5,1.9,0.9s0.6,1,0.6,1.7s-0.3,1.3-0.8,1.7C576.8,127.5,576.1,127.7,575.3,127.7z
	 M583.4,127.6c-0.4,0-0.7-0.1-0.9-0.3c-0.2-0.2-0.3-0.5-0.3-0.9v-0.2c0-0.4,0.1-0.8,0.3-1s0.5-0.3,0.9-0.3s0.7,0.1,0.9,0.3
	c0.2,0.2,0.3,0.5,0.3,1v0.2c0,0.4-0.1,0.8-0.3,0.9C584.1,127.6,583.8,127.6,583.4,127.6z"/>
<path fill="#1E193B" d="M646.4,75.6v-3.1c0-1.3,0.2-2.3,0.6-2.9c0.4-0.7,1.1-1.1,2-1.4l2.7-0.7c0.5-0.1,0.9-0.4,1.1-0.6
	c0.2-0.3,0.3-0.7,0.3-1.2v-0.8c0-0.7-0.1-1.2-0.4-1.5c-0.3-0.3-0.8-0.5-1.4-0.5c-0.7,0-1.2,0.2-1.4,0.6c-0.3,0.4-0.4,1.1-0.5,2.1
	l-2.8-0.2c0.1-1.6,0.5-2.7,1.2-3.5c0.8-0.7,1.9-1.1,3.5-1.1c1.5,0,2.7,0.3,3.5,1s1.2,1.7,1.2,3v1c0,1.1-0.2,1.9-0.6,2.5
	c-0.4,0.6-1,1-1.9,1.2l-2.7,0.7c-0.5,0.1-0.9,0.4-1.1,0.7c-0.2,0.3-0.3,0.8-0.3,1.5v1h6.8v2.1h-9.8L646.4,75.6L646.4,75.6z
	 M664.1,75.7c-1.7,0-2.9-0.4-3.7-1.1s-1.2-1.8-1.2-3.4L662,71c0.1,1,0.3,1.7,0.6,2c0.3,0.4,0.8,0.5,1.6,0.5c0.7,0,1.3-0.2,1.5-0.5
	c0.3-0.3,0.5-0.9,0.5-1.6v-1.1c0-0.8-0.2-1.3-0.5-1.6c-0.3-0.3-0.8-0.5-1.5-0.5h-4.6V61h8.9v2h-6.1v3.2h2.4c1.4,0,2.5,0.3,3.1,1
	c0.7,0.7,1,1.7,1,3v1.4c0,1.3-0.4,2.3-1.2,3C666.9,75.4,665.7,75.7,664.1,75.7z M684.4,73.6c0.3,0,0.6-0.1,0.8-0.3
	c0.3-0.2,0.5-0.5,0.8-0.9v-5.2c-0.3-0.2-0.5-0.4-0.7-0.5s-0.4-0.1-0.7-0.1c-0.4,0-0.8,0.1-1,0.4s-0.3,0.7-0.3,1.3v3.6
	c0,0.6,0.1,1,0.3,1.3C683.8,73.4,684.1,73.6,684.4,73.6z M685.6,73.9c-0.2,0.6-0.5,1-0.9,1.4c-0.4,0.3-1,0.5-1.6,0.5
	c-0.8,0-1.4-0.3-1.9-1c-0.4-0.7-0.7-1.6-0.7-2.7v-3.8c0-1.2,0.3-2.1,0.9-2.8c0.6-0.7,1.5-1,2.6-1c0.3,0,0.7,0,1,0.1s0.6,0.2,0.9,0.3
	v-4h2.8v14.5H686v-1.7h-0.4V73.9z M700.3,73.1c-0.3,0.8-0.7,1.5-1.5,2c-0.7,0.5-1.6,0.7-2.7,0.7c-1.3,0-2.3-0.3-3-1
	s-1.1-1.6-1.1-2.9v-3.5c0-1.2,0.4-2.2,1.1-2.8c0.7-0.7,1.8-1,3.1-1s2.3,0.4,3,1.1s1.1,1.7,1.1,2.9v2.2h-5.5V72
	c0,0.8,0.1,1.3,0.3,1.6c0.2,0.3,0.6,0.4,1.2,0.4c0.5,0,0.8-0.1,1-0.3c0.2-0.2,0.4-0.6,0.6-1.1L700.3,73.1z M694.9,68.4v0.7h2.7v-0.6
	c0-0.8-0.1-1.4-0.3-1.7c-0.2-0.3-0.5-0.5-1-0.5s-0.8,0.2-1,0.5C695,67.1,694.9,67.6,694.9,68.4z M715.9,73.9c0.3,0,0.7-0.1,0.9-0.2
	c0.3-0.1,0.6-0.4,0.8-0.7v-1.9h-1.8c-0.3,0-0.5,0.1-0.7,0.3c-0.2,0.2-0.3,0.6-0.3,1.1s0.1,0.8,0.3,1.1
	C715.3,73.8,715.6,73.9,715.9,73.9z M715.2,75.7c-0.9,0-1.7-0.3-2.2-0.8c-0.5-0.6-0.8-1.3-0.8-2.3s0.3-1.7,0.9-2.3
	c0.6-0.5,1.4-0.8,2.3-0.8h2.3v-1.6c0-0.5-0.1-0.8-0.3-1.1c-0.2-0.3-0.6-0.4-1-0.4c-0.5,0-0.8,0.1-1,0.4c-0.2,0.2-0.4,0.7-0.5,1.4
	l-2.4-0.5c0.2-1.1,0.7-2,1.4-2.5s1.7-0.8,2.8-0.8c1.2,0,2.2,0.3,2.9,0.8s1,1.4,1,2.5v4.7c0,0.6,0.1,0.9,0.4,1.1
	c0.3,0.1,0.7,0.2,1.2,0.1v2c-0.8,0.2-1.5,0.2-2.1,0s-0.9-0.7-1.1-1.5h-0.4c-0.3,0.5-0.8,0.9-1.3,1.2
	C716.5,75.6,715.9,75.7,715.2,75.7z M728.9,75.7c-0.8,0-1.6-0.1-2.3-0.3c-0.7-0.2-1.3-0.6-1.8-1V61h2.8v5.2h0.4
	c0.2-0.6,0.4-1,0.9-1.3s0.9-0.4,1.5-0.4c0.9,0,1.5,0.3,2,1c0.5,0.6,0.7,1.5,0.7,2.7V72c0,1.2-0.4,2.1-1.1,2.8
	C731.3,75.4,730.3,75.7,728.9,75.7z M729.1,73.7c0.5,0,0.8-0.1,1-0.4s0.3-0.7,0.3-1.4v-3.6c0-0.6-0.1-1-0.3-1.3s-0.4-0.4-0.8-0.4
	c-0.3,0-0.6,0.1-0.8,0.3c-0.3,0.2-0.5,0.5-0.8,0.9v5.5c0.2,0.1,0.4,0.3,0.6,0.3C728.5,73.7,728.8,73.7,729.1,73.7z M736.4,75.6V64.7
	h2.8v1.5h0.4c0.2-0.6,0.5-1,0.9-1.3s0.8-0.4,1.3-0.4c0.8,0,1.3,0.3,1.7,0.8s0.5,1.2,0.5,2.1v2h-2.5v-1.6c0-0.4-0.1-0.6-0.2-0.8
	c-0.1-0.2-0.3-0.3-0.6-0.3s-0.5,0.1-0.8,0.4c-0.3,0.2-0.5,0.6-0.7,1v7.6L736.4,75.6L736.4,75.6z M747.2,75.6V64.7h2.8v10.9H747.2z
	 M748.6,62.8c-0.5,0-1-0.1-1.3-0.3s-0.5-0.5-0.5-0.9v-0.2c0-0.4,0.2-0.8,0.5-0.9c0.3-0.2,0.8-0.3,1.3-0.3s1,0.1,1.3,0.3
	s0.5,0.5,0.5,0.9v0.2c0,0.4-0.2,0.8-0.5,0.9C749.5,62.7,749.1,62.8,748.6,62.8z M757.9,75.7c-1.1,0-1.9-0.3-2.5-1s-0.9-1.7-0.9-2.9
	V61h2.8v10.8c0,0.6,0.1,1.1,0.3,1.3c0.2,0.3,0.4,0.4,0.8,0.4c0.2,0,0.4,0,0.6-0.1c0.2-0.1,0.4-0.2,0.6-0.3l0.4,2
	c-0.3,0.2-0.7,0.3-1.1,0.4C758.7,75.7,758.3,75.7,757.9,75.7z"/>
<path fill="#1E193B" d="M635.9,105.5V93.9h2.9c1,0,1.7,0.2,2.2,0.7s0.7,1.2,0.7,2.2v1.4c0,1-0.2,1.8-0.7,2.3s-1.2,0.8-2.2,0.8H637
	v4.3h-1.1V105.5z M637,100.3h1.8c0.6,0,1.1-0.2,1.4-0.5c0.3-0.3,0.4-0.8,0.4-1.5v-1.5c0-0.7-0.1-1.2-0.4-1.5
	c-0.3-0.3-0.7-0.5-1.4-0.5H637V100.3z M647,105.6c-0.9,0-1.5-0.3-2-0.9s-0.7-1.4-0.7-2.5V100c0-1.1,0.2-1.9,0.7-2.5s1.2-0.9,2-0.9
	c0.9,0,1.6,0.3,2,0.9c0.5,0.6,0.7,1.4,0.7,2.5v2.3c0,1.1-0.2,1.9-0.7,2.5S647.9,105.6,647,105.6z M647,104.6c0.6,0,1-0.2,1.2-0.5
	c0.3-0.4,0.4-0.9,0.4-1.7V100c0-0.8-0.1-1.4-0.4-1.7c-0.3-0.4-0.7-0.6-1.2-0.6c-0.6,0-1,0.2-1.2,0.6c-0.3,0.4-0.4,1-0.4,1.7v2.3
	c0,0.8,0.1,1.3,0.4,1.7C646,104.4,646.4,104.6,647,104.6z M658.1,103.6c-0.2,0.7-0.6,1.2-1,1.6c-0.5,0.3-1,0.4-1.8,0.4
	c-0.9,0-1.6-0.3-2.1-0.8s-0.7-1.3-0.7-2.2v-3c0-1,0.2-1.7,0.7-2.2s1.2-0.8,2-0.8c0.9,0,1.5,0.3,2,0.8c0.5,0.6,0.7,1.3,0.7,2.3v1.5
	h-4.4v1.4c0,0.7,0.1,1.2,0.4,1.5c0.3,0.3,0.7,0.4,1.2,0.4s0.9-0.1,1.2-0.3c0.3-0.2,0.4-0.5,0.5-1L658.1,103.6z M653.7,99.7v0.7h3.2
	v-0.5c0-0.7-0.1-1.2-0.4-1.6c-0.3-0.4-0.7-0.5-1.2-0.5s-0.9,0.2-1.2,0.5C653.8,98.5,653.7,99,653.7,99.7z M664.1,105.6
	c-0.7,0-1.2-0.2-1.6-0.7c-0.4-0.5-0.6-1.1-0.6-1.9v-5.1h-1.3v-1.1h1.3v-2.9h1.1v2.9h2.4v1.1H663v5.3c0,0.5,0.1,0.8,0.3,1.1
	c0.2,0.2,0.5,0.3,0.8,0.3c0.2,0,0.3,0,0.5-0.1c0.2,0,0.4-0.1,0.6-0.2l0.2,1c-0.2,0.1-0.5,0.2-0.7,0.3
	C664.6,105.6,664.4,105.6,664.1,105.6z M668.1,105.5v-8.7h1.1v1.1h0.3c0.1-0.4,0.4-0.8,0.7-0.9c0.3-0.2,0.7-0.3,1.1-0.3
	c0.5,0,0.9,0.2,1.2,0.5s0.5,0.9,0.5,1.5v1.6h-1.1v-1.5c0-0.3-0.1-0.6-0.2-0.8c-0.2-0.2-0.4-0.3-0.6-0.3c-0.3,0-0.6,0.1-1,0.4
	c-0.3,0.3-0.6,0.6-0.8,1v6.4C669.3,105.5,668.1,105.5,668.1,105.5z M675.7,108.5c-0.2,0-0.4,0-0.6,0c-0.2,0-0.4-0.1-0.6-0.1l0.2-1.1
	c0.2,0,0.4,0.1,0.5,0.1c0.2,0,0.3,0,0.5,0c0.4,0,0.7-0.1,0.9-0.4c0.2-0.2,0.4-0.6,0.6-1.2v-0.2h-0.5l-2.3-8.9h1.2l1.9,7.8l1.8-7.8
	h1.2l-2.5,9.9c-0.3,0.7-0.6,1.1-1,1.4C676.7,108.3,676.2,108.5,675.7,108.5z M692.6,105.6c-0.6,0-1.3-0.1-1.9-0.4
	c-0.6-0.2-1.1-0.5-1.5-0.9l0.4-0.9c0.4,0.4,0.9,0.7,1.4,0.9c0.5,0.2,1,0.3,1.6,0.3s1.2-0.2,1.5-0.6c0.4-0.4,0.6-0.9,0.6-1.6
	c0-0.5-0.2-0.9-0.5-1.3c-0.3-0.3-1-0.7-2-1.2c-1.1-0.5-1.9-1-2.3-1.5c-0.4-0.5-0.6-1.1-0.6-1.8c0-0.9,0.3-1.6,0.8-2.1
	s1.3-0.7,2.2-0.7c0.6,0,1.1,0.1,1.7,0.4c0.6,0.3,1,0.6,1.4,0.9l-0.4,1c-0.4-0.4-0.9-0.7-1.4-0.9c-0.5-0.2-0.9-0.3-1.4-0.3
	c-0.6,0-1,0.2-1.3,0.5s-0.5,0.7-0.5,1.3c0,0.5,0.2,0.9,0.5,1.2c0.3,0.3,1.1,0.7,2.1,1.2c1,0.4,1.7,0.9,2.1,1.4
	c0.4,0.5,0.6,1.1,0.6,1.8c0,1-0.3,1.9-0.9,2.5C694.4,105.3,693.6,105.6,692.6,105.6z M701.6,105.5c-0.8,0-1.3-0.3-1.8-0.8
	c-0.4-0.5-0.6-1.3-0.6-2.2v-8.7h1.1v8.7c0,0.6,0.1,1.1,0.3,1.4s0.5,0.5,1,0.5c0.1,0,0.2,0,0.4-0.1c0.1,0,0.3-0.1,0.4-0.2l0.2,1
	c-0.1,0.1-0.3,0.1-0.5,0.2C701.9,105.5,701.8,105.5,701.6,105.5z M707.2,104.6c0.4,0,0.8-0.1,1.1-0.3c0.4-0.2,0.7-0.5,0.9-1v-1.5
	h-1.9c-0.4,0-0.8,0.1-1,0.3c-0.2,0.2-0.4,0.6-0.4,1.1s0.1,0.8,0.3,1.1C706.4,104.4,706.7,104.6,707.2,104.6z M707,105.6
	c-0.7,0-1.2-0.2-1.6-0.7c-0.4-0.4-0.6-1-0.6-1.8s0.2-1.4,0.6-1.8c0.4-0.4,1-0.7,1.7-0.7h2.1v-1.5c0-0.4-0.1-0.8-0.4-1.1
	c-0.3-0.3-0.6-0.5-1.1-0.5s-0.9,0.1-1.2,0.4c-0.2,0.2-0.4,0.7-0.6,1.4L705,99c0.1-0.8,0.4-1.4,0.8-1.8c0.4-0.4,1-0.6,1.8-0.6
	s1.4,0.2,1.9,0.6s0.8,1,0.8,1.8v4.6c0,0.4,0.1,0.7,0.3,0.9c0.2,0.1,0.5,0.2,1,0v1.1c-0.6,0.1-1.1,0-1.4-0.2
	c-0.3-0.2-0.5-0.6-0.5-1.2h-0.2c-0.2,0.4-0.5,0.8-0.9,1C708,105.5,707.5,105.6,707,105.6z M717,105.7c-0.5,0-1.1-0.1-1.6-0.3
	c-0.5-0.2-1-0.4-1.4-0.8l0.5-1c0.3,0.3,0.7,0.5,1.2,0.7s0.9,0.2,1.4,0.2s0.9-0.1,1.2-0.3c0.3-0.2,0.4-0.5,0.4-1s-0.1-0.8-0.4-1
	c-0.3-0.2-0.7-0.4-1.4-0.6c-0.8-0.2-1.5-0.5-1.9-0.9s-0.7-1-0.7-1.8c0-0.7,0.2-1.3,0.7-1.7c0.5-0.4,1.1-0.7,1.8-0.7
	c0.5,0,1,0.1,1.5,0.3c0.5,0.2,0.9,0.5,1.3,0.8l-0.5,1c-0.3-0.2-0.7-0.5-1.1-0.7c-0.4-0.2-0.8-0.3-1.3-0.3c-0.4,0-0.8,0.1-1,0.3
	c-0.2,0.2-0.3,0.5-0.3,1s0.1,0.8,0.4,1c0.3,0.2,0.8,0.4,1.5,0.6c0.9,0.2,1.5,0.5,1.9,0.9s0.6,1,0.6,1.7s-0.3,1.3-0.8,1.7
	C718.4,105.5,717.8,105.7,717,105.7z M722.5,105.5V93.9h1.1v4h0.3c0.2-0.4,0.5-0.7,0.8-0.9c0.4-0.2,0.7-0.3,1.1-0.3
	c0.6,0,1.2,0.2,1.5,0.7c0.4,0.5,0.6,1.1,0.6,1.9v6.2h-1.1v-5.9c0-0.6-0.1-1-0.3-1.3s-0.5-0.5-0.9-0.5s-0.7,0.1-1.1,0.3
	c-0.3,0.2-0.6,0.5-0.9,1v6.4C723.6,105.5,722.5,105.5,722.5,105.5z M737.5,105.5v-1h2.2v-9.6h-2.2v-1h5.5v1h-2.2v9.6h2.2v1H737.5z
	 M745.8,105.5v-1h2.2v-9.6h-2.2v-1h5.5v1h-2.2v9.6h2.2v1H745.8z M754.2,105.5v-1h2.2v-9.6h-2.2v-1h5.5v1h-2.2v9.6h2.2v1H754.2z"/>
<g>
	<path fill="#1E193B" d="M23.8,73.6c0.3,0,0.6-0.1,0.8-0.3c0.3-0.2,0.5-0.5,0.8-0.9v-5.2c-0.3-0.2-0.5-0.4-0.7-0.5s-0.4-0.1-0.7-0.1
		c-0.4,0-0.8,0.1-1,0.4s-0.3,0.7-0.3,1.3v3.6c0,0.6,0.1,1,0.3,1.3C23.2,73.4,23.5,73.6,23.8,73.6z M25,73.9c-0.2,0.6-0.5,1-0.9,1.4
		c-0.4,0.3-1,0.5-1.6,0.5c-0.8,0-1.4-0.3-1.9-1c-0.4-0.7-0.7-1.6-0.7-2.7v-3.8c0-1.2,0.3-2.1,0.9-2.8c0.6-0.7,1.5-1,2.6-1
		c0.3,0,0.7,0,1,0.1s0.6,0.2,0.9,0.3v-4h2.8v14.5h-2.8v-1.7H25V73.9z M39.6,73.1c-0.3,0.8-0.7,1.5-1.5,2c-0.7,0.5-1.6,0.7-2.7,0.7
		c-1.3,0-2.3-0.3-3-1s-1.1-1.6-1.1-2.9v-3.5c0-1.2,0.4-2.2,1.1-2.8c0.7-0.7,1.8-1,3.1-1s2.3,0.4,3,1.1s1.1,1.7,1.1,2.9v2.2h-5.5V72
		c0,0.8,0.1,1.3,0.3,1.6c0.2,0.3,0.6,0.4,1.2,0.4c0.5,0,0.8-0.1,1-0.3c0.2-0.2,0.4-0.6,0.6-1.1L39.6,73.1z M34.2,68.4v0.7h2.7v-0.6
		c0-0.8-0.1-1.4-0.3-1.7c-0.2-0.3-0.5-0.5-1-0.5s-0.8,0.2-1,0.5C34.3,67.1,34.2,67.6,34.2,68.4z M54.2,67.8v7.8h-2.8V64.7h2.8v1.5
		h0.4c0.2-0.5,0.5-0.9,0.9-1.2c0.4-0.3,0.9-0.5,1.4-0.5s0.9,0.2,1.2,0.5s0.6,0.7,0.7,1.3h0.6c0.2-0.5,0.4-0.9,0.8-1.2
		c0.4-0.3,0.8-0.5,1.3-0.5c0.7,0,1.2,0.3,1.6,0.9c0.4,0.6,0.6,1.4,0.6,2.4v7.8h-2.8v-7.6c0-0.4-0.1-0.8-0.2-1
		c-0.1-0.2-0.3-0.3-0.6-0.3c-0.2,0-0.5,0.1-0.7,0.3c-0.2,0.2-0.4,0.5-0.6,0.8v7.8H56v-7.6c0-0.4-0.1-0.8-0.2-1
		c-0.1-0.2-0.3-0.3-0.5-0.3c-0.3,0-0.5,0.1-0.7,0.3C54.5,67.1,54.3,67.4,54.2,67.8z M70.9,73.9c0.3,0,0.7-0.1,0.9-0.2
		c0.3-0.1,0.6-0.4,0.8-0.7v-1.9h-1.8c-0.3,0-0.5,0.1-0.7,0.3c-0.2,0.2-0.3,0.6-0.3,1.1s0.1,0.8,0.3,1.1
		C70.2,73.8,70.5,73.9,70.9,73.9z M70.1,75.7c-0.9,0-1.7-0.3-2.2-0.8c-0.5-0.6-0.8-1.3-0.8-2.3s0.3-1.7,0.9-2.3
		c0.6-0.5,1.4-0.8,2.3-0.8h2.3v-1.6c0-0.5-0.1-0.8-0.3-1.1c-0.2-0.3-0.6-0.4-1-0.4c-0.5,0-0.8,0.1-1,0.4c-0.2,0.2-0.4,0.7-0.5,1.4
		l-2.4-0.5c0.2-1.1,0.7-2,1.4-2.5c0.7-0.5,1.7-0.8,2.8-0.8c1.2,0,2.2,0.3,2.9,0.8c0.7,0.5,1,1.4,1,2.5v4.7c0,0.6,0.1,0.9,0.4,1.1
		c0.3,0.1,0.7,0.2,1.2,0.1v2c-0.8,0.2-1.5,0.2-2.1,0s-0.9-0.7-1.1-1.5h-0.4C73,74.6,72.6,75,72,75.3C71.5,75.6,70.9,75.7,70.1,75.7z
		 M79.9,75.6V64.7h2.8v1.5H83c0.2-0.6,0.5-1,0.9-1.3s0.8-0.4,1.3-0.4c0.8,0,1.3,0.3,1.7,0.8c0.4,0.5,0.5,1.2,0.5,2.1v2h-2.5v-1.6
		c0-0.4-0.1-0.6-0.2-0.8c-0.1-0.2-0.3-0.3-0.6-0.3c-0.3,0-0.5,0.1-0.8,0.4c-0.3,0.2-0.5,0.6-0.7,1v7.6L79.9,75.6L79.9,75.6z
		 M98,75.6h-7.7v-2l4.8-6.8h-4.8v-2H98v2l-4.6,6.8H98V75.6z M105.6,75.7c-1.3,0-2.3-0.3-3-1s-1.1-1.7-1.1-2.9v-3.4
		c0-1.2,0.4-2.2,1.1-2.9c0.7-0.7,1.8-1.1,3-1.1c1.3,0,2.3,0.4,3,1.1s1.1,1.7,1.1,2.9v3.4c0,1.2-0.4,2.2-1.1,2.9
		S106.9,75.7,105.6,75.7z M105.6,73.7c0.5,0,0.8-0.2,1-0.5s0.3-0.8,0.3-1.5v-3.3c0-0.7-0.1-1.2-0.3-1.5c-0.2-0.3-0.5-0.5-1-0.5
		s-0.8,0.2-1,0.5s-0.3,0.8-0.3,1.5v3.3c0,0.7,0.1,1.2,0.3,1.5S105.2,73.7,105.6,73.7z"/>
	<path fill="#1E193B" d="M1.5,75.7v-3.1c0-1.3,0.2-2.3,0.6-2.9c0.4-0.7,1.1-1.1,2-1.4l2.7-0.7c0.5-0.1,0.9-0.4,1.1-0.6
		c0.2-0.3,0.3-0.7,0.3-1.2V65c0-0.7-0.1-1.2-0.4-1.5C7.5,63.1,7,63,6.3,63s-1.2,0.2-1.4,0.6c-0.3,0.4-0.4,1.1-0.5,2.1l-2.8-0.2
		c0.1-1.6,0.5-2.7,1.2-3.5c0.8-0.7,1.9-1.1,3.5-1.1c1.5,0,2.7,0.3,3.5,1s1.2,1.7,1.2,3v1c0,1.1-0.2,1.9-0.6,2.5
		c-0.4,0.6-1,1-1.9,1.2l-2.7,0.7c-0.5,0.1-0.9,0.4-1.1,0.7c-0.2,0.3-0.3,0.8-0.3,1.5v1h6.8v2.1H1.5V75.7z"/>
</g>
</svg>
