<?xml version="1.0" encoding="utf-8"?>
<!-- Generator: Adobe Illustrator 24.0.3, SVG Export Plug-In . SVG Version: 6.00 Build 0)  -->
<svg version="1.1" id="Layer_1" xmlns="http://www.w3.org/2000/svg" xmlns:xlink="http://www.w3.org/1999/xlink" x="0px" y="0px"
	 viewBox="0 0 286 411" style="enable-background:new 0 0 286 411;" xml:space="preserve">
<style type="text/css">
	.st0{fill:#3C9678;}
	.st1{fill:#FFFFFF;stroke:#1E193B;stroke-width:8;}
	.st2{fill:#3C9678;stroke:#3C9678;stroke-width:8;}
	.st3{fill:#FFFFFF;stroke:#1E193B;stroke-width:7.9999;stroke-miterlimit:3.9999;}
	.st4{fill:#FFFFFF;stroke:#1E193B;stroke-width:8.0004;stroke-miterlimit:4.0002;}
	.st5{fill:#1E193B;}
</style>
<rect x="17.4" y="21.5" class="st0" width="7.7" height="353.2"/>
<circle class="st1" cx="21.2" cy="21.4" r="16.4"/>
<circle class="st2" cx="21.2" cy="21.5" r="4"/>
<circle class="st1" cx="21.2" cy="141.4" r="16.4"/>
<ellipse class="st3" cx="21.2" cy="257.3" rx="16.4" ry="16.4"/>
<ellipse class="st4" cx="21.2" cy="373.3" rx="16.4" ry="16.4"/>
<path class="st5" d="M66.5,21.2c-1.5,0-2.7-0.5-3.6-1.6c-0.8-1.1-1.3-2.6-1.3-4.6v-2.4c0-2,0.4-3.6,1.3-4.7c0.8-1.1,2-1.6,3.6-1.6
	c1.5,0,2.7,0.5,3.5,1.6s1.3,2.6,1.3,4.7V15c0,2-0.4,3.5-1.3,4.6C69.2,20.6,68,21.2,66.5,21.2z M66.5,19.1c0.7,0,1.3-0.3,1.5-1
	c0.3-0.7,0.5-1.8,0.5-3.5v-1.9c0-1.7-0.2-2.9-0.5-3.5c-0.3-0.7-0.8-1-1.5-1c-0.8,0-1.3,0.3-1.6,1c-0.3,0.7-0.4,1.8-0.4,3.5v1.9
	c0,1.7,0.1,2.8,0.4,3.5C65.2,18.8,65.7,19.1,66.5,19.1z M66.5,15.2c-0.3,0-0.5-0.1-0.7-0.2c-0.2-0.1-0.3-0.4-0.3-0.8v-0.9
	c0-0.4,0.1-0.7,0.3-0.8c0.2-0.2,0.4-0.2,0.7-0.2c0.3,0,0.5,0.1,0.7,0.2c0.2,0.1,0.3,0.4,0.3,0.8v0.9c0,0.4-0.1,0.7-0.3,0.8
	C67,15.1,66.8,15.2,66.5,15.2z M86,24.6l5.5-18.2h2.2l-5.5,18.2H86z M101.4,21.2c-1.5,0-2.7-0.5-3.6-1.6C97,18.5,96.5,17,96.5,15
	v-2.4c0-2,0.4-3.6,1.3-4.7c0.8-1.1,2-1.6,3.6-1.6c1.5,0,2.7,0.5,3.5,1.6s1.3,2.6,1.3,4.7V15c0,2-0.4,3.5-1.3,4.6
	C104.1,20.6,102.9,21.2,101.4,21.2z M101.4,19.1c0.7,0,1.3-0.3,1.5-1c0.3-0.7,0.5-1.8,0.5-3.5v-1.9c0-1.7-0.2-2.9-0.5-3.5
	c-0.3-0.7-0.8-1-1.5-1c-0.8,0-1.3,0.3-1.6,1c-0.3,0.7-0.4,1.8-0.4,3.5v1.9c0,1.7,0.1,2.8,0.4,3.5C100.1,18.8,100.6,19.1,101.4,19.1z
	 M101.4,15.2c-0.3,0-0.5-0.1-0.7-0.2c-0.2-0.1-0.3-0.4-0.3-0.8v-0.9c0-0.4,0.1-0.7,0.3-0.8c0.2-0.2,0.4-0.2,0.7-0.2
	c0.3,0,0.5,0.1,0.7,0.2c0.2,0.1,0.3,0.4,0.3,0.8v0.9c0,0.4-0.1,0.7-0.3,0.8C101.9,15.1,101.6,15.2,101.4,15.2z M114.3,21.2
	c-1.7,0-2.9-0.3-3.7-1c-0.8-0.7-1.2-1.8-1.3-3.2l2.8-0.2c0.1,0.9,0.3,1.6,0.5,1.9c0.3,0.3,0.8,0.5,1.6,0.5c0.7,0,1.2-0.2,1.5-0.5
	s0.5-0.9,0.5-1.6v-0.5c0-0.8-0.1-1.4-0.4-1.7s-0.8-0.5-1.6-0.5h-1.8v-2.1h1.8c0.6,0,1.1-0.1,1.3-0.3c0.3-0.2,0.4-0.6,0.4-1.3v-0.6
	c0-0.7-0.2-1.1-0.5-1.4c-0.3-0.3-0.8-0.4-1.4-0.4s-1.1,0.2-1.3,0.5c-0.2,0.3-0.4,0.8-0.4,1.6l-2.8-0.2c0.1-1.4,0.4-2.4,1.2-3
	c0.7-0.6,1.8-0.9,3.4-0.9s2.8,0.3,3.5,0.9c0.8,0.6,1.1,1.5,1.1,2.8v0.5c0,0.7-0.2,1.3-0.6,1.8s-0.8,0.8-1.4,0.9v0.5
	c0.7,0.1,1.2,0.4,1.6,1s0.6,1.3,0.6,2.1V17c0,1.4-0.4,2.5-1.1,3.1C117.1,20.8,115.9,21.2,114.3,21.2z M74.1,20.9v-3.1
	c0-1.3,0.2-2.3,0.6-2.9c0.4-0.7,1.1-1.1,2-1.4l2.7-0.7c0.5-0.1,0.9-0.4,1.1-0.6c0.2-0.3,0.3-0.7,0.3-1.2v-0.8c0-0.7-0.1-1.2-0.4-1.5
	S79.6,8.2,79,8.2c-0.7,0-1.2,0.2-1.4,0.6C77.2,9.2,77,9.9,77,10.9l-2.8-0.2c0.1-1.6,0.5-2.7,1.2-3.5c0.8-0.7,1.9-1.1,3.5-1.1
	c1.5,0,2.7,0.3,3.5,1s1.2,1.7,1.2,3v1c0,1.1-0.2,1.9-0.6,2.5s-1,1-1.9,1.2l-2.7,0.7c-0.5,0.1-0.9,0.4-1.1,0.7
	C77.1,16.5,77,17,77,17.7v1h6.8v2.1L74.1,20.9L74.1,20.9z"/>
<path class="st5" d="M61.6,52.9V39.8h1.3v11.9h4.4v1.1h-5.7V52.9z M72.5,51.8c0.4,0,0.9-0.1,1.2-0.3c0.4-0.2,0.7-0.6,1-1.2v-1.7
	h-2.2c-0.5,0-0.8,0.1-1.1,0.3c-0.3,0.2-0.4,0.6-0.4,1.2c0,0.5,0.1,0.9,0.3,1.2C71.6,51.7,71.9,51.8,72.5,51.8z M72.3,53.1
	c-0.8,0-1.4-0.2-1.8-0.7s-0.7-1.2-0.7-2s0.2-1.5,0.7-2s1.1-0.8,1.9-0.8h2.4v-1.7c0-0.5-0.1-0.9-0.4-1.3c-0.3-0.3-0.7-0.5-1.3-0.5
	c-0.6,0-1.1,0.1-1.3,0.4c-0.3,0.3-0.5,0.8-0.6,1.5l-1.1-0.4c0.1-0.9,0.5-1.6,0.9-2c0.5-0.5,1.2-0.7,2-0.7c0.9,0,1.6,0.2,2.1,0.7
	c0.6,0.4,0.9,1.1,0.9,2v5.1c0,0.5,0.1,0.8,0.3,1c0.2,0.2,0.6,0.2,1.1,0V53c-0.7,0.1-1.3,0-1.6-0.2c-0.3-0.3-0.5-0.7-0.6-1.3H75
	c-0.2,0.5-0.5,0.9-1,1.2C73.4,52.9,72.9,53.1,72.3,53.1z M80.3,52.9v-9.8h1.3v1.2H82c0.2-0.4,0.5-0.7,0.9-1s0.8-0.4,1.3-0.4
	c0.7,0,1.3,0.3,1.7,0.9c0.5,0.6,0.7,1.3,0.7,2.1v7h-1.3v-6.7c0-0.6-0.1-1.1-0.4-1.5s-0.6-0.5-1-0.5s-0.8,0.1-1.2,0.4
	c-0.4,0.3-0.7,0.6-1,1.1v7.2H80.3z M95.6,52.9h-5.7v-1.2l4.3-7.4h-4.3v-1.2h5.7v1.2l-4.1,7.4h4.1V52.9z M101.7,51.8
	c0.4,0,0.9-0.1,1.2-0.3c0.4-0.2,0.7-0.6,1-1.2v-1.7h-2.2c-0.5,0-0.8,0.1-1.1,0.3c-0.3,0.2-0.4,0.6-0.4,1.2c0,0.5,0.1,0.9,0.3,1.2
	C100.8,51.7,101.2,51.8,101.7,51.8z M101.6,53.1c-0.8,0-1.4-0.2-1.8-0.7s-0.7-1.2-0.7-2s0.2-1.5,0.7-2s1.1-0.8,1.9-0.8h2.4v-1.7
	c0-0.5-0.1-0.9-0.4-1.3c-0.3-0.3-0.7-0.5-1.3-0.5c-0.6,0-1.1,0.1-1.3,0.4c-0.3,0.3-0.5,0.8-0.6,1.5l-1.1-0.4c0.1-0.9,0.5-1.6,0.9-2
	c0.5-0.5,1.2-0.7,2-0.7c0.9,0,1.6,0.2,2.1,0.7c0.6,0.4,0.9,1.1,0.9,2v5.1c0,0.5,0.1,0.8,0.3,1c0.2,0.2,0.6,0.2,1.1,0V53
	c-0.7,0.1-1.3,0-1.6-0.2c-0.3-0.3-0.5-0.7-0.6-1.3h-0.2c-0.2,0.5-0.5,0.9-1,1.2C102.7,52.9,102.2,53.1,101.6,53.1z M110.9,45.6v7.3
	h-1.3v-9.8h1.3v1.2h0.4c0.1-0.4,0.4-0.7,0.7-1c0.4-0.3,0.7-0.4,1.1-0.4s0.8,0.1,1.1,0.4c0.3,0.3,0.6,0.6,0.8,1h0.5
	c0.1-0.4,0.4-0.7,0.7-1c0.4-0.3,0.8-0.4,1.2-0.4c0.6,0,1.1,0.3,1.5,0.8s0.6,1.1,0.6,1.9v7.3h-1.3v-7c0-0.5-0.1-1-0.3-1.3
	c-0.2-0.3-0.4-0.5-0.8-0.5s-0.8,0.1-1.1,0.4c-0.3,0.2-0.6,0.6-0.8,1v7.3h-1.3v-7c0-0.5-0.1-1-0.3-1.3c-0.2-0.3-0.4-0.5-0.8-0.5
	s-0.8,0.1-1.1,0.4C111.4,44.8,111.1,45.1,110.9,45.6z M123.7,52.9v-9.8h1.3v9.8H123.7z M124.4,41.2c-0.3,0-0.6-0.1-0.8-0.2
	c-0.2-0.1-0.3-0.3-0.3-0.7v-0.1c0-0.3,0.1-0.6,0.3-0.7c0.2-0.1,0.5-0.2,0.8-0.2s0.6,0.1,0.8,0.2c0.2,0.1,0.3,0.3,0.3,0.7v0.1
	c0,0.3-0.1,0.6-0.3,0.7C124.9,41.1,124.7,41.2,124.4,41.2z M135.5,50.8c-0.2,0.8-0.6,1.4-1.1,1.8c-0.5,0.3-1.2,0.5-2,0.5
	c-1,0-1.8-0.3-2.3-0.9c-0.5-0.6-0.8-1.4-0.8-2.5v-3.4c0-1.1,0.3-1.9,0.8-2.5s1.3-0.9,2.3-0.9s1.7,0.3,2.3,0.9
	c0.5,0.6,0.8,1.5,0.8,2.6v1.7h-4.9v1.5c0,0.8,0.2,1.3,0.5,1.6s0.8,0.5,1.4,0.5c0.6,0,1-0.1,1.3-0.3s0.5-0.6,0.6-1.1L135.5,50.8z
	 M130.5,46.3v0.8h3.6v-0.6c0-0.8-0.2-1.4-0.5-1.8c-0.3-0.4-0.8-0.6-1.4-0.6c-0.6,0-1.1,0.2-1.4,0.6
	C130.7,45.1,130.5,45.6,130.5,46.3z M138.6,52.9v-9.8h1.3v1.2h0.4c0.2-0.4,0.5-0.7,0.9-1s0.8-0.4,1.3-0.4c0.7,0,1.3,0.3,1.7,0.9
	c0.5,0.6,0.7,1.3,0.7,2.1v7h-1.3v-6.7c0-0.6-0.1-1.1-0.4-1.5c-0.3-0.4-0.6-0.5-1-0.5s-0.8,0.1-1.2,0.4c-0.4,0.3-0.7,0.6-1,1.1v7.2
	H138.6z M151.7,53.1c-0.8,0-1.4-0.3-1.8-0.8c-0.4-0.5-0.6-1.3-0.6-2.2v-5.8h-1.5v-1.2h1.5v-3.3h1.3v3.3h2.7v1.2h-2.7v6
	c0,0.5,0.1,0.9,0.3,1.2s0.5,0.4,0.9,0.4c0.2,0,0.4,0,0.6-0.1c0.2-0.1,0.4-0.1,0.7-0.2l0.2,1.2c-0.3,0.1-0.5,0.2-0.8,0.3
	C152.2,53,151.9,53.1,151.7,53.1z M159.2,53.1c-1,0-1.7-0.3-2.3-1c-0.5-0.7-0.8-1.6-0.8-2.8v-2.6c0-1.2,0.3-2.2,0.8-2.8
	c0.5-0.7,1.3-1,2.3-1s1.8,0.3,2.3,1s0.8,1.6,0.8,2.8v2.6c0,1.2-0.3,2.1-0.8,2.8C160.9,52.8,160.2,53.1,159.2,53.1z M159.2,51.9
	c0.6,0,1.1-0.2,1.4-0.6c0.3-0.4,0.5-1,0.5-1.9v-2.6c0-0.9-0.2-1.5-0.5-2c-0.3-0.4-0.8-0.7-1.4-0.7c-0.6,0-1.1,0.2-1.4,0.7
	c-0.3,0.4-0.4,1.1-0.4,2v2.6c0,0.9,0.1,1.5,0.4,1.9C158.1,51.7,158.5,51.9,159.2,51.9z M175.7,51.8c0.5,0,0.9-0.1,1.2-0.4
	c0.4-0.3,0.7-0.7,1-1.3v-5.4c-0.2-0.2-0.5-0.4-0.8-0.5s-0.6-0.2-0.9-0.2c-0.6,0-1.1,0.2-1.4,0.6c-0.3,0.4-0.5,0.9-0.5,1.7v3.4
	c0,0.7,0.1,1.2,0.3,1.6C174.9,51.7,175.2,51.8,175.7,51.8z M177.6,51.7c-0.2,0.4-0.4,0.8-0.8,1c-0.4,0.2-0.8,0.4-1.4,0.4
	c-0.8,0-1.3-0.3-1.8-0.9c-0.4-0.6-0.6-1.4-0.6-2.5v-3.3c0-1.1,0.3-2,0.8-2.6c0.6-0.6,1.3-0.9,2.4-0.9c0.3,0,0.6,0,0.9,0.1
	c0.3,0.1,0.6,0.2,0.9,0.4v-3.6h1.3v13.1H178v-1.2H177.6z M188.6,50.8c-0.2,0.8-0.6,1.4-1.1,1.8c-0.5,0.3-1.2,0.5-2,0.5
	c-1,0-1.8-0.3-2.3-0.9c-0.5-0.6-0.8-1.4-0.8-2.5v-3.4c0-1.1,0.3-1.9,0.8-2.5s1.3-0.9,2.3-0.9s1.7,0.3,2.3,0.9
	c0.5,0.6,0.8,1.5,0.8,2.6v1.7h-4.9v1.5c0,0.8,0.2,1.3,0.5,1.6s0.8,0.5,1.4,0.5c0.6,0,1-0.1,1.3-0.3s0.5-0.6,0.6-1.1L188.6,50.8z
	 M183.6,46.3v0.8h3.6v-0.6c0-0.8-0.2-1.4-0.5-1.8c-0.3-0.4-0.8-0.6-1.4-0.6c-0.6,0-1.1,0.2-1.4,0.6
	C183.8,45.1,183.6,45.6,183.6,46.3z M64.9,77c-0.9,0-1.5-0.3-2-0.9s-0.7-1.4-0.7-2.5v-9.8h1.3v9.8c0,0.7,0.1,1.2,0.4,1.6
	c0.3,0.3,0.6,0.5,1.1,0.5c0.1,0,0.3,0,0.4-0.1c0.2-0.1,0.3-0.1,0.4-0.2l0.2,1.1c-0.2,0.1-0.3,0.1-0.5,0.2C65.3,76.9,65.1,77,64.9,77
	z M71.2,75.8c0.4,0,0.9-0.1,1.2-0.3c0.4-0.2,0.7-0.6,1-1.2v-1.7h-2.2c-0.5,0-0.8,0.1-1.1,0.3c-0.3,0.2-0.4,0.6-0.4,1.2
	c0,0.5,0.1,0.9,0.3,1.2C70.3,75.7,70.7,75.8,71.2,75.8z M71.1,77.1c-0.8,0-1.4-0.2-1.8-0.7s-0.7-1.2-0.7-2c0-0.9,0.2-1.5,0.7-2
	s1.1-0.8,1.9-0.8h2.4v-1.7c0-0.5-0.1-0.9-0.4-1.3c-0.3-0.3-0.7-0.5-1.3-0.5c-0.6,0-1.1,0.1-1.3,0.4c-0.3,0.3-0.5,0.8-0.6,1.5
	l-1.1-0.4c0.1-0.9,0.5-1.6,0.9-2c0.5-0.5,1.2-0.7,2-0.7c0.9,0,1.6,0.2,2.1,0.7c0.6,0.4,0.9,1.1,0.9,2v5.1c0,0.5,0.1,0.8,0.3,1
	c0.2,0.2,0.6,0.2,1.1,0V77c-0.7,0.1-1.3,0-1.6-0.2C74.2,76.5,74,76,74,75.4h-0.2c-0.2,0.5-0.5,0.9-1,1.2
	C72.2,76.9,71.7,77.1,71.1,77.1z M90,77.1c-1.1,0-1.9-0.3-2.5-0.9c-0.5-0.6-0.8-1.4-0.8-2.5v-3.4c0-1.1,0.3-2,0.9-2.6
	s1.4-0.9,2.4-0.9s1.7,0.3,2.2,0.8s0.8,1.4,0.9,2.5h-1.2c0-0.7-0.2-1.3-0.5-1.6c-0.3-0.3-0.7-0.5-1.3-0.5c-0.7,0-1.2,0.2-1.5,0.5
	C88.1,69,88,69.6,88,70.3v3.4c0,0.7,0.2,1.3,0.5,1.6c0.3,0.3,0.8,0.5,1.5,0.5c0.6,0,1-0.1,1.3-0.4s0.5-0.7,0.5-1.3H93
	c-0.1,1-0.3,1.8-0.8,2.2C91.7,76.9,91,77.1,90,77.1z M99.1,77.1c-1,0-1.7-0.3-2.3-1c-0.5-0.7-0.8-1.6-0.8-2.8v-2.6
	c0-1.2,0.3-2.2,0.8-2.8c0.5-0.7,1.3-1,2.3-1s1.8,0.3,2.3,1s0.8,1.6,0.8,2.8v2.6c0,1.2-0.3,2.1-0.8,2.8S100.1,77.1,99.1,77.1z
	 M99.1,75.9c0.6,0,1.1-0.2,1.4-0.6s0.5-1,0.5-1.9v-2.6c0-0.9-0.2-1.5-0.5-2c-0.3-0.4-0.8-0.7-1.4-0.7s-1.1,0.2-1.4,0.7
	c-0.3,0.4-0.4,1.1-0.4,2v2.6c0,0.9,0.1,1.5,0.4,1.9C98,75.7,98.5,75.9,99.1,75.9z M105.4,76.9v-9.8h1.3v1.2h0.4
	c0.2-0.4,0.5-0.7,0.9-1s0.8-0.4,1.3-0.4c0.7,0,1.3,0.3,1.7,0.9c0.5,0.6,0.7,1.3,0.7,2.1v7h-1.3v-6.7c0-0.6-0.1-1.1-0.4-1.5
	s-0.6-0.5-1-0.5s-0.8,0.1-1.2,0.4c-0.4,0.3-0.7,0.6-1,1.1v7.2C106.8,76.9,105.4,76.9,105.4,76.9z M118,76.9h-1.6l-2.6-9.8h1.4
	l2.1,8.7l2.1-8.7h1.3L118,76.9z M125.9,77.1c-1,0-1.7-0.3-2.3-1c-0.5-0.7-0.8-1.6-0.8-2.8v-2.6c0-1.2,0.3-2.2,0.8-2.8
	c0.5-0.7,1.3-1,2.3-1s1.8,0.3,2.3,1c0.5,0.7,0.8,1.6,0.8,2.8v2.6c0,1.2-0.3,2.1-0.8,2.8S126.9,77.1,125.9,77.1z M125.9,75.9
	c0.6,0,1.1-0.2,1.4-0.6s0.5-1,0.5-1.9v-2.6c0-0.9-0.2-1.5-0.5-2c-0.3-0.4-0.8-0.7-1.4-0.7s-1.1,0.2-1.4,0.7c-0.3,0.4-0.4,1.1-0.4,2
	v2.6c0,0.9,0.1,1.5,0.4,1.9C124.9,75.7,125.3,75.9,125.9,75.9z M135.5,77.1c-1.1,0-1.9-0.3-2.5-0.9c-0.5-0.6-0.8-1.4-0.8-2.5v-3.4
	c0-1.1,0.3-2,0.9-2.6c0.6-0.6,1.4-0.9,2.4-0.9s1.7,0.3,2.2,0.8s0.8,1.4,0.9,2.5h-1.2c0-0.7-0.2-1.3-0.5-1.6
	c-0.3-0.3-0.7-0.5-1.3-0.5c-0.7,0-1.2,0.2-1.5,0.5c-0.3,0.4-0.5,0.9-0.5,1.7v3.4c0,0.7,0.2,1.3,0.5,1.6c0.3,0.3,0.8,0.5,1.5,0.5
	c0.6,0,1-0.1,1.3-0.4s0.5-0.7,0.5-1.3h1.2c-0.1,1-0.3,1.8-0.8,2.2C137.2,76.9,136.5,77.1,135.5,77.1z M144.3,75.8
	c0.4,0,0.9-0.1,1.2-0.3c0.4-0.2,0.7-0.6,1-1.2v-1.7h-2.2c-0.5,0-0.8,0.1-1.1,0.3c-0.3,0.2-0.4,0.6-0.4,1.2c0,0.5,0.1,0.9,0.3,1.2
	C143.4,75.7,143.7,75.8,144.3,75.8z M144.1,77.1c-0.8,0-1.4-0.2-1.8-0.7c-0.4-0.5-0.7-1.2-0.7-2c0-0.9,0.2-1.5,0.7-2
	s1.1-0.8,1.9-0.8h2.4v-1.7c0-0.5-0.1-0.9-0.4-1.3c-0.3-0.3-0.7-0.5-1.3-0.5s-1.1,0.1-1.3,0.4c-0.3,0.3-0.5,0.8-0.6,1.5l-1.1-0.4
	c0.1-0.9,0.5-1.6,0.9-2c0.5-0.5,1.2-0.7,2-0.7c0.9,0,1.6,0.2,2.1,0.7c0.6,0.4,0.9,1.1,0.9,2v5.1c0,0.5,0.1,0.8,0.3,1s0.6,0.2,1.1,0
	V77c-0.7,0.1-1.3,0-1.6-0.2c-0.3-0.3-0.5-0.7-0.6-1.3h-0.2c-0.2,0.5-0.5,0.9-1,1.2C145.2,76.9,144.7,77.1,144.1,77.1z M155.2,77.1
	c-0.8,0-1.4-0.3-1.8-0.8c-0.4-0.5-0.6-1.3-0.6-2.2v-5.8h-1.5v-1.2h1.5v-3.3h1.3v3.3h2.7v1.2H154v6c0,0.5,0.1,0.9,0.3,1.2
	c0.2,0.3,0.5,0.4,0.9,0.4c0.2,0,0.4,0,0.6-0.1c0.2-0.1,0.4-0.1,0.7-0.2l0.2,1.2c-0.3,0.1-0.5,0.2-0.8,0.3
	C155.7,77,155.5,77.1,155.2,77.1z M162.7,77.1c-1,0-1.7-0.3-2.3-1c-0.5-0.7-0.8-1.6-0.8-2.8v-2.6c0-1.2,0.3-2.2,0.8-2.8
	c0.5-0.7,1.3-1,2.3-1s1.8,0.3,2.3,1s0.8,1.6,0.8,2.8v2.6c0,1.2-0.3,2.1-0.8,2.8S163.7,77.1,162.7,77.1z M162.7,75.9
	c0.6,0,1.1-0.2,1.4-0.6c0.3-0.4,0.5-1,0.5-1.9v-2.6c0-0.9-0.2-1.5-0.5-2c-0.3-0.4-0.8-0.7-1.4-0.7c-0.6,0-1.1,0.2-1.4,0.7
	c-0.3,0.4-0.4,1.1-0.4,2v2.6c0,0.9,0.1,1.5,0.4,1.9C161.6,75.7,162.1,75.9,162.7,75.9z M169,76.9v-9.8h1.3v1.2h0.4
	c0.1-0.5,0.4-0.8,0.8-1.1c0.4-0.2,0.8-0.3,1.2-0.3c0.5,0,1,0.2,1.3,0.6s0.5,1,0.5,1.7V71h-1.2v-1.7c0-0.4-0.1-0.7-0.3-0.9
	c-0.2-0.2-0.4-0.3-0.7-0.3s-0.7,0.1-1.1,0.4c-0.4,0.3-0.7,0.6-0.9,1.1v7.2H169V76.9z M178.2,76.9v-9.8h1.3v9.8H178.2z M178.8,65.2
	c-0.3,0-0.6-0.1-0.8-0.2s-0.3-0.3-0.3-0.7v-0.1c0-0.3,0.1-0.6,0.3-0.7c0.2-0.1,0.5-0.2,0.8-0.2s0.6,0.1,0.8,0.2
	c0.2,0.1,0.3,0.3,0.3,0.7v0.1c0,0.3-0.1,0.6-0.3,0.7C179.4,65.1,179.1,65.2,178.8,65.2z M186.4,75.8c0.4,0,0.9-0.1,1.2-0.3
	c0.4-0.2,0.7-0.6,1-1.2v-1.7h-2.2c-0.5,0-0.8,0.1-1.1,0.3c-0.3,0.2-0.4,0.6-0.4,1.2c0,0.5,0.1,0.9,0.3,1.2
	C185.5,75.7,185.9,75.8,186.4,75.8z M186.2,77.1c-0.8,0-1.4-0.2-1.8-0.7c-0.4-0.5-0.7-1.2-0.7-2c0-0.9,0.2-1.5,0.7-2
	s1.1-0.8,1.9-0.8h2.4v-1.7c0-0.5-0.1-0.9-0.4-1.3c-0.3-0.3-0.7-0.5-1.3-0.5s-1.1,0.1-1.3,0.4c-0.3,0.3-0.5,0.8-0.6,1.5l-1.1-0.4
	c0.1-0.9,0.5-1.6,0.9-2c0.5-0.5,1.2-0.7,2-0.7c0.9,0,1.6,0.2,2.1,0.7c0.6,0.4,0.9,1.1,0.9,2v5.1c0,0.5,0.1,0.8,0.3,1s0.6,0.2,1.1,0
	V77c-0.7,0.1-1.3,0-1.6-0.2c-0.3-0.3-0.5-0.7-0.6-1.3h-0.2c-0.2,0.5-0.5,0.9-1,1.2C187.4,76.9,186.8,77.1,186.2,77.1z M197.2,77.1
	c-0.4,0-0.8-0.1-1-0.3c-0.3-0.2-0.4-0.6-0.4-1.1v-0.3c0-0.5,0.1-0.9,0.4-1.1c0.3-0.2,0.6-0.3,1-0.3s0.7,0.1,1,0.3
	c0.3,0.2,0.4,0.6,0.4,1.1v0.3c0,0.5-0.1,0.8-0.4,1.1C198,77,197.6,77.1,197.2,77.1z"/>
<path class="st5" d="M66.5,141.2c-1.5,0-2.7-0.5-3.6-1.6c-0.8-1.1-1.3-2.6-1.3-4.6v-2.4c0-2,0.4-3.6,1.3-4.7c0.8-1.1,2-1.6,3.6-1.6
	c1.5,0,2.7,0.5,3.5,1.6c0.8,1.1,1.3,2.6,1.3,4.7v2.4c0,2-0.4,3.5-1.3,4.6C69.2,140.6,68,141.2,66.5,141.2z M66.5,139.1
	c0.7,0,1.3-0.3,1.5-1c0.3-0.7,0.5-1.8,0.5-3.5v-1.9c0-1.7-0.2-2.9-0.5-3.5c-0.3-0.7-0.8-1-1.5-1c-0.8,0-1.3,0.3-1.6,1
	c-0.3,0.7-0.4,1.8-0.4,3.5v1.9c0,1.7,0.1,2.8,0.4,3.5C65.2,138.8,65.7,139.1,66.5,139.1z M66.5,135.2c-0.3,0-0.5-0.1-0.7-0.2
	c-0.2-0.1-0.3-0.4-0.3-0.8v-0.9c0-0.4,0.1-0.7,0.3-0.8c0.2-0.2,0.4-0.2,0.7-0.2c0.3,0,0.5,0.1,0.7,0.2c0.2,0.1,0.3,0.4,0.3,0.8v0.9
	c0,0.4-0.1,0.7-0.3,0.8C67,135.1,66.8,135.2,66.5,135.2z M75.7,141v-2.1h3v-9.4h-0.4c-0.1,0.8-0.5,1.4-1,1.9s-1.1,0.7-1.7,0.8
	l-0.1-2.2c0.8-0.1,1.5-0.4,2.1-1.1c0.6-0.6,1-1.4,1.2-2.4h2.7v12.4h2.7v2.1H75.7z M87,144.6l5.5-18.2h2.2l-5.5,18.2H87z
	 M102.4,141.2c-1.5,0-2.7-0.5-3.6-1.6c-0.8-1.1-1.3-2.6-1.3-4.6v-2.4c0-2,0.4-3.6,1.3-4.7c0.8-1.1,2-1.6,3.6-1.6
	c1.5,0,2.7,0.5,3.5,1.6c0.8,1.1,1.3,2.6,1.3,4.7v2.4c0,2-0.4,3.5-1.3,4.6C105.1,140.6,103.9,141.2,102.4,141.2z M102.4,139.1
	c0.7,0,1.3-0.3,1.5-1c0.3-0.7,0.5-1.8,0.5-3.5v-1.9c0-1.7-0.2-2.9-0.5-3.5c-0.3-0.7-0.8-1-1.5-1c-0.8,0-1.3,0.3-1.6,1
	c-0.3,0.7-0.4,1.8-0.4,3.5v1.9c0,1.7,0.1,2.8,0.4,3.5C101.1,138.8,101.6,139.1,102.4,139.1z M102.4,135.2c-0.3,0-0.5-0.1-0.7-0.2
	c-0.2-0.1-0.3-0.4-0.3-0.8v-0.9c0-0.4,0.1-0.7,0.3-0.8c0.2-0.2,0.4-0.2,0.7-0.2c0.3,0,0.5,0.1,0.7,0.2c0.2,0.1,0.3,0.4,0.3,0.8v0.9
	c0,0.4-0.1,0.7-0.3,0.8C102.9,135.1,102.6,135.2,102.4,135.2z M112.8,135.2h3.1v-5.4L112.8,135.2z M120.7,137.3h-2.1v3.7h-2.8v-3.7
	h-5.6v-2l5-8.8h3.4v8.8h2.1V137.3z"/>
<path class="st5" d="M61.6,172.9v-13.1H68v1.1h-5.2v5.7h4.3v1.1h-4.3v5.1L61.6,172.9L61.6,172.9z M77.2,170.8
	c-0.2,0.8-0.6,1.4-1.1,1.8c-0.5,0.3-1.2,0.5-2,0.5c-1,0-1.8-0.3-2.3-0.9c-0.5-0.6-0.8-1.4-0.8-2.5v-3.4c0-1.1,0.3-1.9,0.8-2.5
	s1.3-0.9,2.3-0.9s1.7,0.3,2.3,0.9c0.5,0.6,0.8,1.5,0.8,2.6v1.7h-4.9v1.5c0,0.8,0.2,1.3,0.5,1.6s0.8,0.5,1.4,0.5s1-0.1,1.3-0.3
	s0.5-0.6,0.6-1.1L77.2,170.8z M72.3,166.4v0.8h3.6v-0.6c0-0.8-0.2-1.4-0.5-1.8c-0.3-0.4-0.8-0.6-1.4-0.6s-1.1,0.2-1.4,0.6
	C72.4,165.1,72.3,165.6,72.3,166.4z M83.6,173.1c-1.1,0-1.9-0.3-2.5-0.9c-0.5-0.6-0.8-1.4-0.8-2.5v-3.4c0-1.1,0.3-2,0.9-2.6
	s1.4-0.9,2.4-0.9s1.7,0.3,2.2,0.8s0.8,1.4,0.9,2.5h-1.2c0-0.7-0.2-1.3-0.5-1.6s-0.7-0.5-1.3-0.5c-0.7,0-1.2,0.2-1.5,0.5
	c-0.3,0.4-0.5,0.9-0.5,1.7v3.4c0,0.7,0.2,1.3,0.5,1.6s0.8,0.5,1.5,0.5c0.6,0,1-0.1,1.3-0.4c0.3-0.3,0.5-0.7,0.5-1.3h1.2
	c-0.1,1-0.3,1.8-0.8,2.2C85.4,172.9,84.6,173.1,83.6,173.1z M89.7,172.9v-13.1H91v4.5h0.4c0.2-0.4,0.5-0.8,0.9-1
	c0.4-0.3,0.8-0.4,1.2-0.4c0.7,0,1.3,0.3,1.7,0.8c0.4,0.5,0.7,1.3,0.7,2.1v7h-1.3v-6.7c0-0.7-0.1-1.2-0.4-1.5
	c-0.2-0.3-0.6-0.5-1.1-0.5c-0.4,0-0.8,0.1-1.2,0.4c-0.4,0.3-0.7,0.6-1,1.1v7.2L89.7,172.9L89.7,172.9z M101.7,171.8
	c0.4,0,0.9-0.1,1.2-0.3c0.4-0.2,0.7-0.6,1-1.2v-1.7h-2.2c-0.5,0-0.8,0.1-1.1,0.3c-0.3,0.2-0.4,0.6-0.4,1.2c0,0.5,0.1,0.9,0.3,1.2
	C100.8,171.7,101.2,171.8,101.7,171.8z M101.6,173.1c-0.8,0-1.4-0.2-1.8-0.7s-0.7-1.2-0.7-2s0.2-1.5,0.7-2s1.1-0.8,1.9-0.8h2.4v-1.7
	c0-0.5-0.1-0.9-0.4-1.3c-0.3-0.3-0.7-0.5-1.3-0.5c-0.6,0-1.1,0.1-1.3,0.4c-0.3,0.3-0.5,0.8-0.6,1.5l-1.1-0.4c0.1-0.9,0.5-1.6,0.9-2
	c0.5-0.5,1.2-0.7,2-0.7c0.9,0,1.6,0.2,2.1,0.7c0.6,0.4,0.9,1.1,0.9,2v5.1c0,0.5,0.1,0.8,0.3,1c0.2,0.2,0.6,0.2,1.1,0v1.3
	c-0.7,0.1-1.3,0-1.6-0.2c-0.3-0.3-0.5-0.7-0.6-1.3h-0.2c-0.2,0.5-0.5,0.9-1,1.2C102.7,172.9,102.2,173.1,101.6,173.1z M120.5,173
	c-0.8,0-1.5-0.3-2-0.9c-0.5-0.6-0.7-1.4-0.7-2.5v-9.8h1.3v9.8c0,0.7,0.1,1.2,0.4,1.6c0.3,0.3,0.6,0.5,1.1,0.5c0.1,0,0.3,0,0.4-0.1
	c0.2-0.1,0.3-0.1,0.4-0.2l0.2,1.1c-0.2,0.1-0.3,0.1-0.5,0.2C120.9,172.9,120.7,173,120.5,173z M125.2,172.9v-9.8h1.3v9.8H125.2z
	 M124.4,161.5l1.7-3.3h1.9l-2.4,3.3H124.4z M132,165.6v7.3h-1.3v-9.8h1.3v1.2h0.4c0.1-0.4,0.4-0.7,0.7-1c0.4-0.3,0.7-0.4,1.1-0.4
	c0.4,0,0.8,0.1,1.1,0.4c0.3,0.3,0.6,0.6,0.8,1h0.5c0.1-0.4,0.4-0.7,0.7-1c0.4-0.3,0.8-0.4,1.2-0.4c0.6,0,1.1,0.3,1.5,0.8
	s0.6,1.1,0.6,1.9v7.3h-1.3v-7c0-0.5-0.1-1-0.3-1.3s-0.4-0.5-0.8-0.5c-0.4,0-0.8,0.1-1.1,0.4c-0.3,0.2-0.6,0.6-0.8,1v7.3H135v-7
	c0-0.5-0.1-1-0.3-1.3s-0.4-0.5-0.8-0.5c-0.4,0-0.8,0.1-1.1,0.4C132.5,164.8,132.2,165.1,132,165.6z M144.9,172.9v-9.8h1.3v9.8H144.9
	z M145.5,161.2c-0.3,0-0.6-0.1-0.8-0.2c-0.2-0.1-0.3-0.3-0.3-0.7v-0.1c0-0.3,0.1-0.6,0.3-0.7c0.2-0.1,0.5-0.2,0.8-0.2
	s0.6,0.1,0.8,0.2c0.2,0.1,0.3,0.3,0.3,0.7v0.1c0,0.3-0.1,0.6-0.3,0.7C146,161.1,145.8,161.2,145.5,161.2z M154.1,173.1
	c-0.8,0-1.4-0.3-1.8-0.8c-0.4-0.5-0.6-1.3-0.6-2.2v-5.8h-1.5v-1.2h1.5v-3.3h1.3v3.3h2.7v1.2H153v6c0,0.5,0.1,0.9,0.3,1.2
	s0.5,0.4,0.9,0.4c0.2,0,0.4,0,0.6-0.1c0.2-0.1,0.4-0.1,0.7-0.2l0.2,1.2c-0.3,0.1-0.5,0.2-0.8,0.3C154.6,173,154.4,173.1,154.1,173.1
	z M164.8,170.8c-0.2,0.8-0.6,1.4-1.1,1.8c-0.5,0.3-1.2,0.5-2,0.5c-1,0-1.8-0.3-2.3-0.9c-0.5-0.6-0.8-1.4-0.8-2.5v-3.4
	c0-1.1,0.3-1.9,0.8-2.5s1.3-0.9,2.3-0.9s1.7,0.3,2.3,0.9c0.5,0.6,0.8,1.5,0.8,2.6v1.7h-4.9v1.5c0,0.8,0.2,1.3,0.5,1.6
	s0.8,0.5,1.4,0.5c0.6,0,1-0.1,1.3-0.3s0.5-0.6,0.6-1.1L164.8,170.8z M159.8,166.4v0.8h3.6v-0.6c0-0.8-0.2-1.4-0.5-1.8
	c-0.3-0.4-0.8-0.6-1.4-0.6c-0.6,0-1.1,0.2-1.4,0.6C159.9,165.1,159.8,165.6,159.8,166.4z M178.4,171.9c0.7,0,1.2-0.2,1.5-0.5
	c0.3-0.4,0.4-1,0.4-1.8v-3.4c0-0.7-0.1-1.3-0.3-1.6s-0.6-0.5-1.1-0.5s-0.9,0.1-1.2,0.4c-0.3,0.3-0.7,0.7-1,1.3v5.4
	c0.2,0.2,0.5,0.4,0.8,0.5C177.8,171.9,178.1,171.9,178.4,171.9z M178.5,173.1c-0.3,0-0.6,0-0.9-0.1c-0.3-0.1-0.6-0.2-0.9-0.4v3.6
	h-1.3v-13.1h1.3v1.2h0.4c0.2-0.4,0.4-0.8,0.8-1c0.4-0.3,0.8-0.4,1.4-0.4c0.7,0,1.3,0.3,1.7,0.9c0.4,0.6,0.6,1.4,0.6,2.5v3.3
	c0,1.1-0.3,1.9-0.9,2.5C180.2,172.8,179.4,173.1,178.5,173.1z M187.5,171.8c0.4,0,0.9-0.1,1.2-0.3c0.4-0.2,0.7-0.6,1-1.2v-1.7h-2.2
	c-0.5,0-0.8,0.1-1.1,0.3s-0.4,0.6-0.4,1.2c0,0.5,0.1,0.9,0.3,1.2C186.6,171.7,187,171.8,187.5,171.8z M187.3,173.1
	c-0.8,0-1.4-0.2-1.9-0.7c-0.4-0.5-0.7-1.2-0.7-2s0.2-1.5,0.7-2s1.1-0.8,1.9-0.8h2.4v-1.7c0-0.5-0.1-0.9-0.4-1.3
	c-0.3-0.3-0.7-0.5-1.3-0.5s-1.1,0.1-1.3,0.4c-0.3,0.3-0.5,0.8-0.6,1.5l-1.1-0.4c0.1-0.9,0.5-1.6,0.9-2c0.5-0.5,1.2-0.7,2-0.7
	c0.9,0,1.6,0.2,2.1,0.7c0.6,0.4,0.9,1.1,0.9,2v5.1c0,0.5,0.1,0.8,0.3,1s0.6,0.2,1.1,0v1.3c-0.7,0.1-1.3,0-1.6-0.2
	c-0.3-0.3-0.5-0.7-0.6-1.3H190c-0.2,0.5-0.5,0.9-1,1.2C188.5,172.9,187.9,173.1,187.3,173.1z M195.4,172.9v-9.8h1.3v1.2h0.4
	c0.1-0.5,0.4-0.8,0.8-1.1c0.4-0.2,0.8-0.3,1.2-0.3c0.5,0,1,0.2,1.3,0.6c0.3,0.4,0.5,1,0.5,1.7v1.8h-1.2v-1.7c0-0.4-0.1-0.7-0.3-0.9
	s-0.4-0.3-0.7-0.3s-0.7,0.1-1.1,0.4c-0.4,0.3-0.7,0.6-0.9,1.1v7.2h-1.3V172.9z M206.2,171.8c0.4,0,0.9-0.1,1.2-0.3
	c0.4-0.2,0.7-0.6,1-1.2v-1.7h-2.2c-0.5,0-0.8,0.1-1.1,0.3s-0.4,0.6-0.4,1.2c0,0.5,0.1,0.9,0.3,1.2
	C205.3,171.7,205.7,171.8,206.2,171.8z M206,173.1c-0.8,0-1.4-0.2-1.8-0.7c-0.4-0.5-0.7-1.2-0.7-2s0.2-1.5,0.7-2s1.1-0.8,1.9-0.8
	h2.4v-1.7c0-0.5-0.1-0.9-0.4-1.3c-0.3-0.3-0.7-0.5-1.3-0.5s-1.1,0.1-1.3,0.4c-0.3,0.3-0.5,0.8-0.6,1.5l-1.1-0.4
	c0.1-0.9,0.5-1.6,0.9-2c0.5-0.5,1.2-0.7,2-0.7c0.9,0,1.6,0.2,2.1,0.7c0.6,0.4,0.9,1.1,0.9,2v5.1c0,0.5,0.1,0.8,0.3,1s0.6,0.2,1.1,0
	v1.3c-0.7,0.1-1.3,0-1.6-0.2c-0.3-0.3-0.5-0.7-0.6-1.3h-0.2c-0.2,0.5-0.5,0.9-1,1.2C207.2,172.9,206.6,173.1,206,173.1z M224.9,173
	c-0.9,0-1.5-0.3-2-0.9c-0.5-0.6-0.7-1.4-0.7-2.5v-9.8h1.3v9.8c0,0.7,0.1,1.2,0.4,1.6c0.3,0.3,0.6,0.5,1.1,0.5c0.1,0,0.3,0,0.4-0.1
	c0.2-0.1,0.3-0.1,0.4-0.2l0.2,1.1c-0.2,0.1-0.3,0.1-0.5,0.2C225.3,172.9,225.1,173,224.9,173z M231.2,171.8c0.4,0,0.9-0.1,1.2-0.3
	c0.4-0.2,0.7-0.6,1-1.2v-1.7h-2.2c-0.5,0-0.8,0.1-1.1,0.3s-0.4,0.6-0.4,1.2c0,0.5,0.1,0.9,0.3,1.2
	C230.3,171.7,230.7,171.8,231.2,171.8z M231.1,173.1c-0.8,0-1.4-0.2-1.8-0.7c-0.4-0.5-0.7-1.2-0.7-2s0.2-1.5,0.7-2s1.1-0.8,1.9-0.8
	h2.4v-1.7c0-0.5-0.1-0.9-0.4-1.3c-0.3-0.3-0.7-0.5-1.3-0.5s-1.1,0.1-1.3,0.4c-0.3,0.3-0.5,0.8-0.6,1.5l-1.1-0.4
	c0.1-0.9,0.5-1.6,0.9-2c0.5-0.5,1.2-0.7,2-0.7c0.9,0,1.6,0.2,2.1,0.7c0.6,0.4,0.9,1.1,0.9,2v5.1c0,0.5,0.1,0.8,0.3,1s0.6,0.2,1.1,0
	v1.3c-0.7,0.1-1.3,0-1.6-0.2c-0.3-0.3-0.5-0.7-0.6-1.3h-0.2c-0.2,0.5-0.5,0.9-1,1.2C232.2,172.9,231.7,173.1,231.1,173.1z
	 M61.6,196.9v-9.8h1.3v1.2h0.4c0.1-0.5,0.4-0.8,0.8-1.1c0.4-0.2,0.8-0.3,1.2-0.3c0.5,0,1,0.2,1.3,0.6c0.3,0.4,0.5,1,0.5,1.7v1.8
	h-1.2v-1.7c0-0.4-0.1-0.7-0.3-0.9c-0.2-0.2-0.4-0.3-0.7-0.3c-0.3,0-0.7,0.1-1.1,0.4c-0.4,0.3-0.7,0.6-0.9,1.1v7.2h-1.3V196.9z
	 M76,194.8c-0.2,0.8-0.6,1.4-1.1,1.8c-0.5,0.3-1.2,0.5-2,0.5c-1,0-1.8-0.3-2.3-0.9c-0.5-0.6-0.8-1.4-0.8-2.5v-3.4
	c0-1.1,0.3-1.9,0.8-2.5s1.3-0.9,2.3-0.9s1.7,0.3,2.3,0.9c0.5,0.6,0.8,1.5,0.8,2.6v1.7h-5v1.5c0,0.8,0.2,1.3,0.5,1.6s0.8,0.5,1.4,0.5
	s1-0.1,1.3-0.3s0.5-0.6,0.6-1.1L76,194.8z M71,190.4v0.8h3.6v-0.6c0-0.8-0.2-1.4-0.5-1.8c-0.3-0.4-0.8-0.6-1.4-0.6s-1.1,0.2-1.4,0.6
	C71.2,189.1,71,189.6,71,190.4z M82.4,197.1c-1.1,0-1.9-0.3-2.5-0.9c-0.5-0.6-0.8-1.4-0.8-2.5v-3.4c0-1.1,0.3-2,0.9-2.6
	s1.4-0.9,2.4-0.9s1.7,0.3,2.2,0.8s0.8,1.4,0.9,2.5h-1.2c0-0.7-0.2-1.3-0.5-1.6s-0.7-0.5-1.3-0.5c-0.7,0-1.2,0.2-1.5,0.5
	c-0.3,0.4-0.5,0.9-0.5,1.7v3.4c0,0.7,0.2,1.3,0.5,1.6s0.8,0.5,1.5,0.5c0.6,0,1-0.1,1.3-0.4c0.3-0.3,0.5-0.7,0.5-1.3h1.2
	c-0.1,1-0.3,1.8-0.8,2.2C84.1,196.9,83.4,197.1,82.4,197.1z M94.7,194.8c-0.2,0.8-0.6,1.4-1.1,1.8c-0.5,0.3-1.2,0.5-2,0.5
	c-1,0-1.8-0.3-2.3-0.9c-0.5-0.6-0.8-1.4-0.8-2.5v-3.4c0-1.1,0.3-1.9,0.8-2.5s1.3-0.9,2.3-0.9s1.7,0.3,2.3,0.9
	c0.5,0.6,0.8,1.5,0.8,2.6v1.7h-4.9v1.5c0,0.8,0.2,1.3,0.5,1.6s0.8,0.5,1.4,0.5s1-0.1,1.3-0.3s0.5-0.6,0.6-1.1L94.7,194.8z
	 M89.7,190.4v0.8h3.6v-0.6c0-0.8-0.2-1.4-0.5-1.8c-0.3-0.4-0.8-0.6-1.4-0.6s-1.1,0.2-1.4,0.6C89.9,189.1,89.7,189.6,89.7,190.4z
	 M100.8,195.9c0.7,0,1.2-0.2,1.5-0.5c0.3-0.4,0.4-1,0.4-1.8v-3.4c0-0.7-0.1-1.3-0.3-1.6c-0.2-0.3-0.6-0.5-1.1-0.5s-0.9,0.1-1.2,0.4
	c-0.3,0.3-0.7,0.7-1,1.3v5.4c0.2,0.2,0.5,0.4,0.8,0.5C100.1,195.9,100.5,195.9,100.8,195.9z M100.8,197.1c-0.3,0-0.6,0-0.9-0.1
	s-0.6-0.2-0.9-0.4v3.6h-1.3v-13.1H99v1.2h0.4c0.2-0.4,0.4-0.8,0.8-1c0.4-0.3,0.8-0.4,1.4-0.4c0.7,0,1.3,0.3,1.7,0.9
	c0.4,0.6,0.6,1.4,0.6,2.5v3.3c0,1.1-0.3,1.9-0.9,2.5C102.6,196.8,101.8,197.1,100.8,197.1z M110.4,197.1c-1.1,0-1.9-0.3-2.5-0.9
	c-0.5-0.6-0.8-1.4-0.8-2.5v-3.4c0-1.1,0.3-2,0.9-2.6s1.4-0.9,2.4-0.9s1.7,0.3,2.2,0.8s0.8,1.4,0.9,2.5h-1.2c0-0.7-0.2-1.3-0.5-1.6
	s-0.7-0.5-1.3-0.5c-0.7,0-1.2,0.2-1.5,0.5c-0.3,0.4-0.5,0.9-0.5,1.7v3.4c0,0.7,0.2,1.3,0.5,1.6s0.8,0.5,1.5,0.5c0.6,0,1-0.1,1.3-0.4
	c0.3-0.3,0.5-0.7,0.5-1.3h1.2c-0.1,1-0.3,1.8-0.8,2.2C112.2,196.9,111.4,197.1,110.4,197.1z M117.6,196.9v-9.8h1.3v9.8H117.6z
	 M118.3,185.2c-0.3,0-0.6-0.1-0.8-0.2c-0.2-0.1-0.3-0.3-0.3-0.7v-0.1c0-0.3,0.1-0.6,0.3-0.7c0.2-0.1,0.5-0.2,0.8-0.2
	s0.6,0.1,0.8,0.2c0.2,0.1,0.3,0.3,0.3,0.7v0.1c0,0.3-0.1,0.6-0.3,0.7C118.8,185.1,118.6,185.2,118.3,185.2z M126.2,197.1
	c-1,0-1.7-0.3-2.3-1c-0.5-0.7-0.8-1.6-0.8-2.8v-2.6c0-1.2,0.3-2.2,0.8-2.8c0.5-0.7,1.3-1,2.3-1s1.8,0.3,2.3,1s0.8,1.6,0.8,2.8v2.6
	c0,1.2-0.3,2.1-0.8,2.8S127.2,197.1,126.2,197.1z M126.2,195.9c0.6,0,1.1-0.2,1.4-0.6c0.3-0.4,0.5-1,0.5-1.9v-2.6
	c0-0.9-0.2-1.5-0.5-2c-0.3-0.4-0.8-0.7-1.4-0.7s-1.1,0.2-1.4,0.7c-0.3,0.4-0.4,1.1-0.4,2v2.6c0,0.9,0.1,1.5,0.4,1.9
	C125.1,195.7,125.6,195.9,126.2,195.9z M124.8,185.5l1.7-3.3h1.9l-2.4,3.3H124.8z M132.5,196.9v-9.8h1.3v1.2h0.4
	c0.2-0.4,0.5-0.7,0.9-1s0.8-0.4,1.3-0.4c0.7,0,1.3,0.3,1.7,0.9c0.5,0.6,0.7,1.3,0.7,2.1v7h-1.3v-6.7c0-0.6-0.1-1.1-0.4-1.5
	c-0.3-0.4-0.6-0.5-1-0.5s-0.8,0.1-1.2,0.4s-0.7,0.6-1,1.1v7.2H132.5z M152.2,195.8c0.5,0,0.9-0.1,1.2-0.4c0.4-0.3,0.7-0.7,1-1.3
	v-5.4c-0.2-0.2-0.5-0.4-0.8-0.5s-0.6-0.2-0.9-0.2c-0.6,0-1.1,0.2-1.4,0.6c-0.3,0.4-0.5,0.9-0.5,1.7v3.4c0,0.7,0.1,1.2,0.3,1.6
	C151.3,195.7,151.7,195.8,152.2,195.8z M154,195.7c-0.2,0.4-0.4,0.8-0.8,1c-0.4,0.2-0.8,0.4-1.4,0.4c-0.8,0-1.3-0.3-1.8-0.9
	c-0.4-0.6-0.6-1.4-0.6-2.5v-3.3c0-1.1,0.3-2,0.8-2.6c0.6-0.6,1.3-0.9,2.4-0.9c0.3,0,0.6,0,0.9,0.1c0.3,0.1,0.6,0.2,0.9,0.4v-3.6h1.3
	v13.1h-1.3v-1.2H154z M165.1,194.8c-0.2,0.8-0.6,1.4-1.1,1.8c-0.5,0.3-1.2,0.5-2,0.5c-1,0-1.8-0.3-2.3-0.9c-0.5-0.6-0.8-1.4-0.8-2.5
	v-3.4c0-1.1,0.3-1.9,0.8-2.5s1.3-0.9,2.3-0.9s1.7,0.3,2.3,0.9c0.5,0.6,0.8,1.5,0.8,2.6v1.7h-4.9v1.5c0,0.8,0.2,1.3,0.5,1.6
	s0.8,0.5,1.4,0.5c0.6,0,1-0.1,1.3-0.3s0.5-0.6,0.6-1.1L165.1,194.8z M160.1,190.4v0.8h3.6v-0.6c0-0.8-0.2-1.4-0.5-1.8
	c-0.3-0.4-0.8-0.6-1.4-0.6c-0.6,0-1.1,0.2-1.4,0.6C160.2,189.1,160.1,189.6,160.1,190.4z M178.7,195.9c0.7,0,1.2-0.2,1.5-0.5
	c0.3-0.4,0.4-1,0.4-1.8v-3.4c0-0.7-0.1-1.3-0.3-1.6s-0.6-0.5-1.1-0.5s-0.9,0.1-1.2,0.4s-0.7,0.7-1,1.3v5.4c0.2,0.2,0.5,0.4,0.8,0.5
	C178.1,195.9,178.4,195.9,178.7,195.9z M178.8,197.1c-0.3,0-0.6,0-0.9-0.1c-0.3-0.1-0.6-0.2-0.9-0.4v3.6h-1.3v-13.1h1.3v1.2h0.4
	c0.2-0.4,0.4-0.8,0.8-1c0.4-0.3,0.8-0.4,1.4-0.4c0.7,0,1.3,0.3,1.7,0.9c0.4,0.6,0.6,1.4,0.6,2.5v3.3c0,1.1-0.3,1.9-0.9,2.5
	C180.5,196.8,179.7,197.1,178.8,197.1z M185.1,196.9v-9.8h1.3v1.2h0.4c0.1-0.5,0.4-0.8,0.8-1.1c0.4-0.2,0.8-0.3,1.2-0.3
	c0.5,0,1,0.2,1.3,0.6c0.3,0.4,0.5,1,0.5,1.7v1.8h-1.2v-1.7c0-0.4-0.1-0.7-0.3-0.9s-0.4-0.3-0.7-0.3s-0.7,0.1-1.1,0.4
	c-0.4,0.3-0.7,0.6-0.9,1.1v7.2h-1.3V196.9z M196.3,197.1c-1,0-1.7-0.3-2.3-1c-0.5-0.7-0.8-1.6-0.8-2.8v-2.6c0-1.2,0.3-2.2,0.8-2.8
	c0.5-0.7,1.3-1,2.3-1s1.8,0.3,2.3,1s0.8,1.6,0.8,2.8v2.6c0,1.2-0.3,2.1-0.8,2.8S197.3,197.1,196.3,197.1z M196.3,195.9
	c0.6,0,1.1-0.2,1.4-0.6c0.3-0.4,0.5-1,0.5-1.9v-2.6c0-0.9-0.2-1.5-0.5-2c-0.3-0.4-0.8-0.7-1.4-0.7c-0.6,0-1.1,0.2-1.4,0.7
	c-0.3,0.4-0.4,1.1-0.4,2v2.6c0,0.9,0.1,1.5,0.4,1.9C195.2,195.7,195.7,195.9,196.3,195.9z M205.6,195.9c0.7,0,1.2-0.2,1.5-0.5
	s0.4-1,0.4-1.8v-3.4c0-0.7-0.1-1.3-0.3-1.6s-0.6-0.5-1.1-0.5s-0.9,0.1-1.2,0.4c-0.3,0.3-0.7,0.7-1,1.3v5.4c0.2,0.2,0.5,0.4,0.8,0.5
	C204.9,195.9,205.2,195.9,205.6,195.9z M205.6,197.1c-0.3,0-0.6,0-0.9-0.1c-0.3-0.1-0.6-0.2-0.9-0.4v3.6h-1.3v-13.1h1.3v1.2h0.4
	c0.2-0.4,0.4-0.8,0.8-1c0.4-0.3,0.8-0.4,1.4-0.4c0.7,0,1.3,0.3,1.7,0.9c0.4,0.6,0.6,1.4,0.6,2.5v3.3c0,1.1-0.3,1.9-0.9,2.5
	C207.3,196.8,206.6,197.1,205.6,197.1z M214.3,197.1c-0.7,0-1.3-0.3-1.7-0.8c-0.4-0.6-0.7-1.3-0.7-2.2v-7h1.3v6.7
	c0,0.6,0.1,1.1,0.4,1.5c0.3,0.3,0.6,0.5,1.1,0.5c0.4,0,0.8-0.1,1.2-0.4c0.4-0.3,0.7-0.6,1-1.1v-7.2h1.3v9.8h-1.3v-1.2h-0.4
	c-0.1,0.4-0.4,0.7-0.8,1C215.2,196.9,214.8,197.1,214.3,197.1z M227.5,194.8c-0.2,0.8-0.6,1.4-1.1,1.8c-0.5,0.3-1.2,0.5-2,0.5
	c-1,0-1.8-0.3-2.3-0.9c-0.5-0.6-0.8-1.4-0.8-2.5v-3.4c0-1.1,0.3-1.9,0.8-2.5s1.3-0.9,2.3-0.9s1.7,0.3,2.3,0.9
	c0.5,0.6,0.8,1.5,0.8,2.6v1.7h-4.9v1.5c0,0.8,0.2,1.3,0.5,1.6s0.8,0.5,1.4,0.5c0.6,0,1-0.1,1.3-0.3s0.5-0.6,0.6-1.1L227.5,194.8z
	 M222.5,190.4v0.8h3.6v-0.6c0-0.8-0.2-1.4-0.5-1.8c-0.3-0.4-0.8-0.6-1.4-0.6c-0.6,0-1.1,0.2-1.4,0.6
	C222.7,189.1,222.5,189.6,222.5,190.4z M233.8,197.1c-0.6,0-1.2-0.1-1.8-0.3s-1.1-0.5-1.6-0.9l0.5-1.1c0.4,0.3,0.8,0.5,1.3,0.7
	s1,0.3,1.6,0.3s1-0.1,1.3-0.4c0.3-0.3,0.4-0.6,0.4-1.1c0-0.6-0.1-0.9-0.4-1.2c-0.3-0.2-0.8-0.5-1.6-0.7c-0.9-0.2-1.7-0.6-2.2-1
	s-0.7-1.1-0.7-2c0-0.8,0.3-1.4,0.8-1.9s1.2-0.8,2-0.8c0.5,0,1.1,0.1,1.7,0.3c0.6,0.2,1.1,0.5,1.5,0.9l-0.5,1.1
	c-0.3-0.3-0.8-0.5-1.2-0.8c-0.5-0.2-0.9-0.4-1.4-0.4s-0.9,0.1-1.1,0.4c-0.2,0.3-0.4,0.6-0.4,1.1c0,0.6,0.2,0.9,0.5,1.2
	c0.3,0.2,0.9,0.4,1.6,0.7c1,0.3,1.7,0.6,2.1,1c0.5,0.4,0.7,1.1,0.7,2c0,0.8-0.3,1.4-0.9,1.9C235.4,196.9,234.7,197.1,233.8,197.1z
	 M243.7,197.1c-0.8,0-1.4-0.3-1.8-0.8c-0.4-0.5-0.6-1.3-0.6-2.2v-5.8h-1.5v-1.2h1.5v-3.3h1.3v3.3h2.7v1.2h-2.7v6
	c0,0.5,0.1,0.9,0.3,1.2s0.5,0.4,0.9,0.4c0.2,0,0.4,0,0.6-0.1c0.2-0.1,0.4-0.1,0.7-0.2l0.2,1.2c-0.3,0.1-0.5,0.2-0.8,0.3
	C244.2,197,243.9,197.1,243.7,197.1z M250.8,195.8c0.4,0,0.9-0.1,1.2-0.3c0.4-0.2,0.7-0.6,1-1.2v-1.7h-2.2c-0.5,0-0.8,0.1-1.1,0.3
	s-0.4,0.6-0.4,1.2c0,0.5,0.1,0.9,0.3,1.2C249.9,195.7,250.3,195.8,250.8,195.8z M250.6,197.1c-0.8,0-1.4-0.2-1.8-0.7
	c-0.4-0.5-0.7-1.2-0.7-2s0.2-1.5,0.7-2s1.1-0.8,1.9-0.8h2.4v-1.7c0-0.5-0.1-0.9-0.4-1.3c-0.3-0.3-0.7-0.5-1.3-0.5s-1.1,0.1-1.3,0.4
	c-0.3,0.3-0.5,0.8-0.6,1.5l-1.1-0.4c0.1-0.9,0.5-1.6,0.9-2c0.5-0.5,1.2-0.7,2-0.7c0.9,0,1.6,0.2,2.1,0.7c0.6,0.4,0.9,1.1,0.9,2v5.1
	c0,0.5,0.1,0.8,0.3,1s0.6,0.2,1.1,0v1.3c-0.7,0.1-1.3,0-1.6-0.2c-0.3-0.3-0.5-0.7-0.6-1.3h-0.2c-0.2,0.5-0.5,0.9-1,1.2
	C251.8,196.9,251.2,197.1,250.6,197.1z M261.8,197.1c-0.6,0-1.2-0.1-1.8-0.3c-0.6-0.2-1.1-0.5-1.6-0.9l0.5-1.1
	c0.4,0.3,0.8,0.5,1.3,0.7s1,0.3,1.6,0.3s1-0.1,1.3-0.4c0.3-0.3,0.4-0.6,0.4-1.1c0-0.6-0.1-0.9-0.4-1.2c-0.3-0.2-0.8-0.5-1.6-0.7
	c-1-0.2-1.7-0.6-2.2-1s-0.7-1.1-0.7-2c0-0.8,0.3-1.4,0.8-1.9s1.2-0.8,2-0.8c0.5,0,1.1,0.1,1.7,0.3s1.1,0.5,1.5,0.9l-0.5,1.1
	c-0.3-0.3-0.8-0.5-1.2-0.8c-0.5-0.2-0.9-0.4-1.4-0.4s-0.9,0.1-1.1,0.4c-0.3,0.3-0.4,0.6-0.4,1.1c0,0.6,0.2,0.9,0.5,1.2
	c0.3,0.2,0.9,0.4,1.6,0.7c1,0.3,1.7,0.6,2.1,1c0.5,0.4,0.7,1.1,0.7,2c0,0.8-0.3,1.4-0.9,1.9C263.5,196.9,262.7,197.1,261.8,197.1z
	 M271,197.1c-0.4,0-0.8-0.1-1-0.3c-0.3-0.2-0.4-0.6-0.4-1.1v-0.3c0-0.5,0.1-0.9,0.4-1.1c0.3-0.2,0.6-0.3,1-0.3s0.7,0.1,1,0.3
	s0.4,0.6,0.4,1.1v0.3c0,0.5-0.1,0.8-0.4,1.1C271.7,197,271.4,197.1,271,197.1z"/>
<path class="st5" d="M66.5,257.1c-1.5,0-2.7-0.5-3.6-1.6c-0.8-1.1-1.3-2.6-1.3-4.6v-2.4c0-2,0.4-3.6,1.3-4.7c0.8-1.1,2-1.6,3.6-1.6
	c1.5,0,2.7,0.5,3.5,1.6s1.3,2.6,1.3,4.7v2.4c0,2-0.4,3.5-1.3,4.6C69.2,256.6,68,257.1,66.5,257.1z M66.5,255.1c0.7,0,1.3-0.3,1.5-1
	c0.3-0.7,0.5-1.8,0.5-3.5v-1.9c0-1.7-0.2-2.9-0.5-3.5c-0.3-0.7-0.8-1-1.5-1c-0.8,0-1.3,0.3-1.6,1c-0.3,0.7-0.4,1.8-0.4,3.5v1.9
	c0,1.7,0.1,2.8,0.4,3.5C65.2,254.7,65.7,255.1,66.5,255.1z M66.5,251.1c-0.3,0-0.5-0.1-0.7-0.2c-0.2-0.1-0.3-0.4-0.3-0.8v-0.9
	c0-0.4,0.1-0.7,0.3-0.8c0.2-0.2,0.4-0.2,0.7-0.2c0.3,0,0.5,0.1,0.7,0.2c0.2,0.1,0.3,0.4,0.3,0.8v0.9c0,0.4-0.1,0.7-0.3,0.8
	C67,251.1,66.8,251.1,66.5,251.1z M87,260.5l5.5-18.2h2.2l-5.5,18.2H87z M102.4,257.1c-1.5,0-2.7-0.5-3.6-1.6
	c-0.8-1.1-1.3-2.6-1.3-4.6v-2.4c0-2,0.4-3.6,1.3-4.7c0.8-1.1,2-1.6,3.6-1.6c1.5,0,2.7,0.5,3.5,1.6s1.3,2.6,1.3,4.7v2.4
	c0,2-0.4,3.5-1.3,4.6C105.1,256.6,103.9,257.1,102.4,257.1z M102.4,255.1c0.7,0,1.3-0.3,1.5-1c0.3-0.7,0.5-1.8,0.5-3.5v-1.9
	c0-1.7-0.2-2.9-0.5-3.5c-0.3-0.7-0.8-1-1.5-1c-0.8,0-1.3,0.3-1.6,1c-0.3,0.7-0.4,1.8-0.4,3.5v1.9c0,1.7,0.1,2.8,0.4,3.5
	C101.1,254.7,101.6,255.1,102.4,255.1z M102.4,251.1c-0.3,0-0.5-0.1-0.7-0.2c-0.2-0.1-0.3-0.4-0.3-0.8v-0.9c0-0.4,0.1-0.7,0.3-0.8
	c0.2-0.2,0.4-0.2,0.7-0.2c0.3,0,0.5,0.1,0.7,0.2c0.2,0.1,0.3,0.4,0.3,0.8v0.9c0,0.4-0.1,0.7-0.3,0.8
	C102.9,251.1,102.6,251.1,102.4,251.1z M112.8,251.2h3.1v-5.4L112.8,251.2z M120.7,253.2h-2.1v3.7h-2.8v-3.7h-5.6v-2l5-8.8h3.4v8.8
	h2.1V253.2z M79.4,257.1c-1.7,0-2.9-0.3-3.7-1c-0.8-0.7-1.2-1.8-1.3-3.2l2.8-0.2c0.1,0.9,0.3,1.6,0.5,1.9c0.3,0.3,0.8,0.5,1.6,0.5
	c0.7,0,1.2-0.2,1.5-0.5s0.5-0.9,0.5-1.6v-0.5c0-0.8-0.1-1.4-0.4-1.7s-0.8-0.5-1.6-0.5h-1.8v-2.1h1.8c0.6,0,1.1-0.1,1.3-0.3
	c0.3-0.2,0.4-0.6,0.4-1.3V246c0-0.7-0.2-1.1-0.5-1.4s-0.8-0.4-1.4-0.4c-0.6,0-1.1,0.2-1.3,0.5c-0.2,0.3-0.4,0.8-0.4,1.6l-2.8-0.2
	c0.1-1.4,0.4-2.4,1.2-3c0.7-0.6,1.8-0.9,3.4-0.9c1.6,0,2.8,0.3,3.5,0.9c0.8,0.6,1.1,1.5,1.1,2.8v0.5c0,0.7-0.2,1.3-0.6,1.8
	c-0.4,0.5-0.8,0.8-1.4,0.9v0.5c0.7,0.1,1.2,0.4,1.6,1c0.4,0.6,0.6,1.3,0.6,2.1v0.2c0,1.4-0.4,2.5-1.1,3.1
	C82.2,256.7,81,257.1,79.4,257.1z"/>
<path class="st5" d="M65.5,289c-1.3,0-2.2-0.4-2.9-1.1c-0.6-0.7-1-1.8-1-3.3V280c0-1.5,0.3-2.6,1-3.3c0.7-0.7,1.6-1.1,2.9-1.1
	c1.2,0,2.1,0.4,2.7,1.1s1,1.8,1,3.2l-1.2,0.2c-0.1-1.2-0.3-2-0.7-2.6c-0.4-0.5-1-0.8-1.8-0.8c-0.9,0-1.6,0.3-2,0.8s-0.6,1.3-0.6,2.5
	v4.7c0,1.1,0.2,1.9,0.6,2.4c0.4,0.5,1.1,0.7,2,0.7c0.8,0,1.4-0.3,1.8-0.8s0.6-1.4,0.7-2.5l1.2,0.2c-0.1,1.4-0.4,2.5-1.1,3.2
	C67.6,288.7,66.7,289,65.5,289z M75.3,289c-1,0-1.7-0.3-2.3-1c-0.5-0.7-0.8-1.6-0.8-2.8v-2.6c0-1.2,0.3-2.2,0.8-2.8
	c0.5-0.7,1.3-1,2.3-1s1.8,0.3,2.3,1s0.8,1.6,0.8,2.8v2.6c0,1.2-0.3,2.1-0.8,2.8C77.1,288.7,76.3,289,75.3,289z M75.3,287.8
	c0.6,0,1.1-0.2,1.4-0.6s0.5-1,0.5-1.9v-2.6c0-0.9-0.2-1.5-0.5-2c-0.3-0.4-0.8-0.7-1.4-0.7s-1.1,0.2-1.4,0.7c-0.3,0.4-0.4,1.1-0.4,2
	v2.6c0,0.9,0.1,1.5,0.4,1.9C74.2,287.6,74.7,287.8,75.3,287.8z M82.8,281.5v7.3h-1.3V279h1.3v1.2h0.4c0.1-0.4,0.4-0.7,0.7-1
	c0.4-0.3,0.7-0.4,1.1-0.4s0.8,0.1,1.1,0.4c0.3,0.2,0.6,0.6,0.8,1h0.5c0.1-0.4,0.4-0.7,0.7-1c0.4-0.3,0.8-0.4,1.2-0.4
	c0.6,0,1.1,0.3,1.5,0.8s0.6,1.1,0.6,1.9v7.3h-1.3v-7c0-0.5-0.1-1-0.3-1.3c-0.2-0.3-0.4-0.5-0.8-0.5s-0.8,0.1-1.1,0.4
	c-0.3,0.2-0.6,0.6-0.8,1v7.3h-1.3v-7c0-0.5-0.1-1-0.3-1.3c-0.2-0.3-0.4-0.5-0.8-0.5s-0.8,0.1-1.1,0.4
	C83.3,280.7,83,281.1,82.8,281.5z M96.9,289c-0.7,0-1.3-0.3-1.7-0.8c-0.4-0.6-0.7-1.3-0.7-2.2v-7h1.3v6.7c0,0.6,0.1,1.1,0.4,1.5
	c0.3,0.3,0.6,0.5,1.1,0.5c0.4,0,0.8-0.1,1.2-0.4c0.4-0.3,0.7-0.6,1-1.1V279h1.3v9.8h-1.3v-1.2h-0.4c-0.1,0.4-0.4,0.7-0.8,1
	C97.9,288.9,97.4,289,96.9,289z M103.9,288.9V279h1.3v1.2h0.4c0.2-0.4,0.5-0.7,0.9-1s0.8-0.4,1.3-0.4c0.7,0,1.3,0.3,1.7,0.9
	c0.5,0.6,0.7,1.3,0.7,2.1v7h-1.3v-6.7c0-0.6-0.1-1.1-0.4-1.5s-0.6-0.5-1-0.5s-0.8,0.1-1.2,0.4c-0.4,0.3-0.7,0.6-1,1.1v7.2
	L103.9,288.9L103.9,288.9z M114.4,288.9V279h1.3v9.8h-1.3V288.9z M115,277.1c-0.3,0-0.6-0.1-0.8-0.2c-0.2-0.1-0.3-0.3-0.3-0.7v-0.1
	c0-0.3,0.1-0.6,0.3-0.7c0.2-0.1,0.5-0.2,0.8-0.2s0.6,0.1,0.8,0.2c0.2,0.1,0.3,0.3,0.3,0.7v0.1c0,0.3-0.1,0.6-0.3,0.7
	C115.6,277.1,115.3,277.1,115,277.1z M123.2,289c-1.1,0-1.9-0.3-2.5-0.9c-0.5-0.6-0.8-1.4-0.8-2.5v-3.4c0-1.1,0.3-2,0.9-2.6
	s1.4-0.9,2.4-0.9s1.7,0.3,2.2,0.8s0.8,1.4,0.9,2.5h-1.2c0-0.7-0.2-1.3-0.5-1.6c-0.3-0.3-0.7-0.5-1.3-0.5c-0.7,0-1.2,0.2-1.5,0.5
	c-0.3,0.4-0.5,0.9-0.5,1.7v3.4c0,0.7,0.2,1.3,0.5,1.6c0.3,0.3,0.8,0.5,1.5,0.5c0.6,0,1-0.1,1.3-0.4s0.5-0.7,0.5-1.3h1.2
	c-0.1,1-0.3,1.8-0.8,2.2C124.9,288.8,124.2,289,123.2,289z M132,287.8c0.4,0,0.8-0.1,1.2-0.3c0.4-0.2,0.7-0.6,1-1.2v-1.7H132
	c-0.5,0-0.8,0.1-1.1,0.3c-0.3,0.2-0.4,0.6-0.4,1.2c0,0.5,0.1,0.9,0.3,1.2C131.1,287.6,131.4,287.8,132,287.8z M131.8,289
	c-0.8,0-1.4-0.2-1.8-0.7c-0.4-0.5-0.7-1.2-0.7-2c0-0.9,0.2-1.5,0.7-2s1.1-0.8,1.9-0.8h2.4v-1.7c0-0.5-0.1-0.9-0.4-1.3
	c-0.3-0.3-0.7-0.5-1.3-0.5s-1.1,0.1-1.3,0.4c-0.3,0.3-0.5,0.8-0.6,1.5l-1.1-0.4c0.1-0.9,0.5-1.6,0.9-2c0.5-0.5,1.2-0.7,2-0.7
	c0.9,0,1.6,0.2,2.1,0.7c0.6,0.4,0.9,1.1,0.9,2v5.1c0,0.5,0.1,0.8,0.3,1s0.6,0.2,1.1,0v1.3c-0.7,0.1-1.3,0-1.6-0.2
	c-0.3-0.3-0.5-0.7-0.6-1.3h-0.2c-0.2,0.5-0.5,0.9-1,1.2C132.9,288.9,132.4,289,131.8,289z M143.1,289c-1.1,0-1.9-0.3-2.5-0.9
	c-0.5-0.6-0.8-1.4-0.8-2.5v-3.4c0-1.1,0.3-2,0.9-2.6c0.6-0.6,1.4-0.9,2.4-0.9s1.7,0.3,2.2,0.8s0.8,1.4,0.9,2.5H145
	c0-0.7-0.2-1.3-0.5-1.6c-0.3-0.3-0.7-0.5-1.3-0.5c-0.7,0-1.2,0.2-1.5,0.5c-0.3,0.4-0.5,0.9-0.5,1.7v3.4c0,0.7,0.2,1.3,0.5,1.6
	c0.3,0.3,0.8,0.5,1.5,0.5c0.6,0,1-0.1,1.3-0.4s0.5-0.7,0.5-1.3h1.2c-0.1,1-0.3,1.8-0.8,2.2C144.8,288.8,144.1,289,143.1,289z
	 M150.3,288.9V279h1.3v9.8h-1.3V288.9z M150.9,277.1c-0.3,0-0.6-0.1-0.8-0.2s-0.3-0.3-0.3-0.7v-0.1c0-0.3,0.1-0.6,0.3-0.7
	s0.5-0.2,0.8-0.2s0.6,0.1,0.8,0.2s0.3,0.3,0.3,0.7v0.1c0,0.3-0.1,0.6-0.3,0.7C151.5,277.1,151.2,277.1,150.9,277.1z M158.9,289
	c-1,0-1.7-0.3-2.3-1c-0.5-0.7-0.8-1.6-0.8-2.8v-2.6c0-1.2,0.3-2.2,0.8-2.8c0.5-0.7,1.3-1,2.3-1s1.8,0.3,2.3,1s0.8,1.6,0.8,2.8v2.6
	c0,1.2-0.3,2.1-0.8,2.8C160.7,288.7,159.9,289,158.9,289z M158.9,287.8c0.6,0,1.1-0.2,1.4-0.6c0.3-0.4,0.5-1,0.5-1.9v-2.6
	c0-0.9-0.2-1.5-0.5-2c-0.3-0.4-0.8-0.7-1.4-0.7s-1.1,0.2-1.4,0.7c-0.3,0.4-0.4,1.1-0.4,2v2.6c0,0.9,0.1,1.5,0.4,1.9
	C157.8,287.6,158.3,287.8,158.9,287.8z M157.5,277.4l1.7-3.3h1.9l-2.4,3.3H157.5z M165.2,288.9V279h1.3v1.2h0.4
	c0.2-0.4,0.5-0.7,0.9-1s0.8-0.4,1.3-0.4c0.7,0,1.3,0.3,1.7,0.9c0.5,0.6,0.7,1.3,0.7,2.1v7h-1.3v-6.7c0-0.6-0.1-1.1-0.4-1.5
	c-0.3-0.4-0.6-0.5-1-0.5s-0.8,0.1-1.2,0.4s-0.7,0.6-1,1.1v7.2L165.2,288.9L165.2,288.9z M184.8,287.8c0.5,0,0.9-0.1,1.2-0.4
	c0.4-0.3,0.7-0.7,1-1.3v-5.4c-0.2-0.2-0.5-0.4-0.8-0.5s-0.6-0.2-0.9-0.2c-0.6,0-1.1,0.2-1.4,0.6c-0.3,0.4-0.5,0.9-0.5,1.7v3.4
	c0,0.7,0.1,1.2,0.3,1.6C184,287.6,184.3,287.8,184.8,287.8z M186.7,287.6c-0.2,0.4-0.4,0.8-0.8,1c-0.4,0.2-0.8,0.4-1.4,0.4
	c-0.8,0-1.3-0.3-1.8-0.9c-0.4-0.6-0.6-1.4-0.6-2.5v-3.3c0-1.1,0.3-2,0.8-2.6c0.6-0.6,1.3-0.9,2.4-0.9c0.3,0,0.6,0,0.9,0.1
	c0.3,0.1,0.6,0.2,0.9,0.4v-3.6h1.3v13.1H187v-1.2H186.7z M197.7,286.8c-0.2,0.8-0.6,1.4-1.1,1.8c-0.5,0.3-1.2,0.5-2,0.5
	c-1,0-1.8-0.3-2.3-0.9s-0.8-1.4-0.8-2.5v-3.4c0-1.1,0.3-1.9,0.8-2.5s1.3-0.9,2.3-0.9s1.7,0.3,2.3,0.9c0.5,0.6,0.8,1.5,0.8,2.6v1.7
	h-4.9v1.5c0,0.8,0.2,1.3,0.5,1.6c0.3,0.3,0.8,0.5,1.4,0.5c0.6,0,1-0.1,1.3-0.3c0.3-0.2,0.5-0.6,0.6-1.1L197.7,286.8z M192.7,282.3
	v0.8h3.6v-0.6c0-0.8-0.2-1.4-0.5-1.8s-0.8-0.6-1.4-0.6c-0.6,0-1.1,0.2-1.4,0.6C192.9,281,192.7,281.6,192.7,282.3z M64.6,311.9
	c0.7,0,1.2-0.2,1.5-0.5c0.3-0.4,0.4-1,0.4-1.8v-3.4c0-0.7-0.1-1.3-0.3-1.6c-0.2-0.3-0.6-0.5-1.1-0.5s-0.9,0.1-1.2,0.4
	s-0.7,0.7-1,1.3v5.4c0.2,0.2,0.5,0.4,0.8,0.5S64.3,311.9,64.6,311.9z M64.7,313c-0.3,0-0.6,0-0.9-0.1c-0.3-0.1-0.6-0.2-0.9-0.4v3.6
	h-1.3V303h1.3v1.2h0.4c0.2-0.4,0.4-0.8,0.8-1c0.4-0.3,0.8-0.4,1.4-0.4c0.7,0,1.3,0.3,1.7,0.9c0.4,0.6,0.6,1.4,0.6,2.5v3.3
	c0,1.1-0.3,1.9-0.9,2.5S65.6,313,64.7,313z M71,312.9V303h1.3v1.2h0.4c0.1-0.5,0.4-0.8,0.8-1.1c0.4-0.2,0.8-0.3,1.2-0.3
	c0.5,0,1,0.2,1.3,0.6s0.5,1,0.5,1.7v1.8h-1.2v-1.7c0-0.4-0.1-0.7-0.3-0.9c-0.2-0.2-0.4-0.3-0.7-0.3c-0.3,0-0.7,0.1-1.1,0.4
	s-0.7,0.6-0.9,1.1v7.2H71V312.9z M82.2,313c-1,0-1.7-0.3-2.3-1c-0.5-0.7-0.8-1.6-0.8-2.8v-2.6c0-1.2,0.3-2.2,0.8-2.8
	c0.5-0.7,1.3-1,2.3-1s1.8,0.3,2.3,1s0.8,1.6,0.8,2.8v2.6c0,1.2-0.3,2.1-0.8,2.8C84,312.7,83.2,313,82.2,313z M82.2,311.8
	c0.6,0,1.1-0.2,1.4-0.6s0.5-1,0.5-1.9v-2.6c0-0.9-0.2-1.5-0.5-2c-0.3-0.4-0.8-0.7-1.4-0.7s-1.1,0.2-1.4,0.7c-0.3,0.4-0.4,1.1-0.4,2
	v2.6c0,0.9,0.1,1.5,0.4,1.9C81.1,311.6,81.6,311.8,82.2,311.8z M91.5,311.9c0.7,0,1.2-0.2,1.5-0.5c0.3-0.4,0.4-1,0.4-1.8v-3.4
	c0-0.7-0.1-1.3-0.3-1.6c-0.2-0.3-0.6-0.5-1.1-0.5s-0.9,0.1-1.2,0.4c-0.3,0.3-0.7,0.7-1,1.3v5.4c0.2,0.2,0.5,0.4,0.8,0.5
	C90.8,311.8,91.1,311.9,91.5,311.9z M91.5,313c-0.3,0-0.6,0-0.9-0.1s-0.6-0.2-0.9-0.4v3.6h-1.3V303h1.3v1.2h0.4
	c0.2-0.4,0.4-0.8,0.8-1c0.4-0.3,0.8-0.4,1.4-0.4c0.7,0,1.3,0.3,1.7,0.9c0.4,0.6,0.6,1.4,0.6,2.5v3.3c0,1.1-0.3,1.9-0.9,2.5
	C93.2,312.7,92.5,313,91.5,313z M100.2,313c-0.7,0-1.3-0.3-1.7-0.8c-0.4-0.6-0.7-1.3-0.7-2.2v-7h1.3v6.7c0,0.6,0.1,1.1,0.4,1.5
	c0.3,0.3,0.6,0.5,1.1,0.5c0.4,0,0.8-0.1,1.2-0.4c0.4-0.3,0.7-0.6,1-1.1V303h1.3v9.8h-1.3v-1.2h-0.4c-0.1,0.4-0.4,0.7-0.8,1
	C101.1,312.9,100.7,313,100.2,313z M113.4,310.8c-0.2,0.8-0.6,1.4-1.1,1.8c-0.5,0.3-1.2,0.5-2,0.5c-1,0-1.8-0.3-2.3-0.9
	s-0.8-1.4-0.8-2.5v-3.4c0-1.1,0.3-1.9,0.8-2.5s1.3-0.9,2.3-0.9s1.7,0.3,2.3,0.9c0.5,0.6,0.8,1.5,0.8,2.6v1.7h-4.9v1.5
	c0,0.8,0.2,1.3,0.5,1.6c0.3,0.3,0.8,0.5,1.4,0.5s1-0.1,1.3-0.3c0.3-0.2,0.5-0.6,0.6-1.1L113.4,310.8z M108.4,306.3v0.8h3.6v-0.6
	c0-0.8-0.2-1.4-0.5-1.8s-0.8-0.6-1.4-0.6s-1.1,0.2-1.4,0.6C108.6,305,108.4,305.6,108.4,306.3z M119.7,313c-0.6,0-1.2-0.1-1.8-0.3
	c-0.6-0.2-1.1-0.5-1.6-0.9l0.5-1.1c0.4,0.3,0.8,0.5,1.3,0.7s1,0.3,1.6,0.3s1-0.1,1.3-0.4s0.4-0.6,0.4-1.1c0-0.6-0.1-0.9-0.4-1.2
	c-0.3-0.2-0.8-0.5-1.6-0.7c-0.9-0.2-1.7-0.6-2.2-1s-0.7-1.1-0.7-2c0-0.8,0.3-1.4,0.8-1.9s1.2-0.8,2-0.8c0.5,0,1.1,0.1,1.7,0.3
	c0.6,0.2,1.1,0.5,1.5,0.9l-0.5,1.1c-0.3-0.3-0.8-0.5-1.2-0.8c-0.5-0.2-0.9-0.4-1.4-0.4s-0.9,0.1-1.1,0.4c-0.3,0.3-0.4,0.6-0.4,1.1
	c0,0.6,0.2,1,0.5,1.2s0.9,0.4,1.6,0.7c1,0.3,1.7,0.6,2.1,1c0.5,0.4,0.7,1.1,0.7,2c0,0.8-0.3,1.4-0.9,1.9
	C121.3,312.8,120.6,313,119.7,313z M129.6,313c-0.8,0-1.4-0.3-1.8-0.8c-0.4-0.5-0.6-1.3-0.6-2.2v-5.8h-1.5V303h1.5v-3.3h1.3v3.3h2.7
	v1.2h-2.7v6c0,0.5,0.1,0.9,0.3,1.2c0.2,0.3,0.5,0.4,0.9,0.4c0.2,0,0.4,0,0.6-0.1c0.2-0.1,0.4-0.1,0.7-0.2l0.2,1.2
	c-0.3,0.1-0.5,0.2-0.8,0.3C130.1,313,129.8,313,129.6,313z M136.7,311.8c0.4,0,0.9-0.1,1.2-0.3c0.4-0.2,0.7-0.6,1-1.2v-1.7h-2.2
	c-0.5,0-0.8,0.1-1.1,0.3c-0.3,0.2-0.4,0.6-0.4,1.2c0,0.5,0.1,0.9,0.3,1.2C135.8,311.6,136.2,311.8,136.7,311.8z M136.5,313
	c-0.8,0-1.4-0.2-1.8-0.7c-0.4-0.5-0.7-1.2-0.7-2c0-0.9,0.2-1.5,0.7-2s1.1-0.8,1.9-0.8h2.4v-1.7c0-0.5-0.1-0.9-0.4-1.3
	c-0.3-0.3-0.7-0.5-1.3-0.5s-1.1,0.1-1.3,0.4c-0.3,0.3-0.5,0.8-0.6,1.5l-1.1-0.4c0.1-0.9,0.5-1.6,0.9-2c0.5-0.5,1.2-0.7,2-0.7
	c0.9,0,1.6,0.2,2.1,0.7c0.6,0.4,0.9,1.1,0.9,2v5.1c0,0.5,0.1,0.8,0.3,1s0.6,0.2,1.1,0v1.3c-0.7,0.1-1.3,0-1.6-0.2
	c-0.3-0.3-0.5-0.7-0.6-1.3h-0.2c-0.2,0.5-0.5,0.9-1,1.2C137.7,312.9,137.1,313,136.5,313z M147.7,313c-0.6,0-1.2-0.1-1.8-0.3
	c-0.6-0.2-1.1-0.5-1.6-0.9l0.5-1.1c0.4,0.3,0.8,0.5,1.3,0.7s1,0.3,1.6,0.3s1-0.1,1.3-0.4s0.4-0.6,0.4-1.1c0-0.6-0.1-0.9-0.4-1.2
	c-0.3-0.2-0.8-0.5-1.6-0.7c-0.9-0.2-1.7-0.6-2.2-1s-0.7-1.1-0.7-2c0-0.8,0.3-1.4,0.8-1.9s1.2-0.8,2-0.8c0.5,0,1.1,0.1,1.7,0.3
	c0.6,0.2,1.1,0.5,1.5,0.9l-0.5,1.1c-0.3-0.3-0.8-0.5-1.2-0.8c-0.5-0.2-0.9-0.4-1.4-0.4s-0.9,0.1-1.1,0.4c-0.3,0.3-0.4,0.6-0.4,1.1
	c0,0.6,0.2,1,0.5,1.2s0.9,0.4,1.6,0.7c1,0.3,1.7,0.6,2.1,1c0.5,0.4,0.7,1.1,0.7,2c0,0.8-0.3,1.4-0.9,1.9
	C149.4,312.8,148.6,313,147.7,313z M164.2,311.8c0.4,0,0.9-0.1,1.2-0.3c0.4-0.2,0.7-0.6,1-1.2v-1.7h-2.2c-0.5,0-0.8,0.1-1.1,0.3
	c-0.3,0.2-0.4,0.6-0.4,1.2c0,0.5,0.1,0.9,0.3,1.2C163.3,311.6,163.7,311.8,164.2,311.8z M164,313c-0.8,0-1.4-0.2-1.9-0.7
	c-0.4-0.5-0.7-1.2-0.7-2c0-0.9,0.2-1.5,0.7-2s1.1-0.8,1.9-0.8h2.4v-1.7c0-0.5-0.1-0.9-0.4-1.3c-0.3-0.3-0.7-0.5-1.3-0.5
	s-1.1,0.1-1.3,0.4c-0.3,0.3-0.5,0.8-0.6,1.5l-1.1-0.4c0.1-0.9,0.5-1.6,0.9-2c0.5-0.5,1.2-0.7,2-0.7c0.9,0,1.6,0.2,2.1,0.7
	c0.6,0.4,0.9,1.1,0.9,2v5.1c0,0.5,0.1,0.8,0.3,1s0.6,0.2,1.1,0v1.3c-0.7,0.1-1.3,0-1.6-0.2c-0.3-0.3-0.5-0.7-0.6-1.3h-0.2
	c-0.2,0.5-0.5,0.9-1,1.2C165.2,312.9,164.6,313,164,313z M175.3,313c-1.1,0-1.9-0.3-2.5-0.9c-0.5-0.6-0.8-1.4-0.8-2.5v-3.4
	c0-1.1,0.3-2,0.9-2.6c0.6-0.6,1.4-0.9,2.4-0.9s1.7,0.3,2.2,0.8s0.8,1.4,0.9,2.5h-1.2c0-0.7-0.2-1.3-0.5-1.6
	c-0.3-0.3-0.7-0.5-1.3-0.5c-0.7,0-1.2,0.2-1.5,0.5c-0.3,0.4-0.5,0.9-0.5,1.7v3.4c0,0.7,0.2,1.3,0.5,1.6c0.3,0.3,0.8,0.5,1.5,0.5
	c0.6,0,1-0.1,1.3-0.4s0.5-0.7,0.5-1.3h1.2c-0.1,1-0.3,1.8-0.8,2.2C177.1,312.8,176.3,313,175.3,313z M187.7,310.8
	c-0.2,0.8-0.6,1.4-1.1,1.8c-0.5,0.3-1.2,0.5-2,0.5c-1,0-1.8-0.3-2.3-0.9s-0.8-1.4-0.8-2.5v-3.4c0-1.1,0.3-1.9,0.8-2.5
	s1.3-0.9,2.3-0.9s1.7,0.3,2.3,0.9c0.5,0.6,0.8,1.5,0.8,2.6v1.7h-4.9v1.5c0,0.8,0.2,1.3,0.5,1.6c0.3,0.3,0.8,0.5,1.4,0.5
	c0.6,0,1-0.1,1.3-0.3c0.3-0.2,0.5-0.6,0.6-1.1L187.7,310.8z M182.7,306.3v0.8h3.6v-0.6c0-0.8-0.2-1.4-0.5-1.8s-0.8-0.6-1.4-0.6
	c-0.6,0-1.1,0.2-1.4,0.6C182.8,305,182.7,305.6,182.7,306.3z M193.8,311.9c0.7,0,1.2-0.2,1.5-0.5c0.3-0.4,0.4-1,0.4-1.8v-3.4
	c0-0.7-0.1-1.3-0.3-1.6c-0.2-0.3-0.6-0.5-1.1-0.5s-0.9,0.1-1.2,0.4s-0.7,0.7-1,1.3v5.4c0.2,0.2,0.5,0.4,0.8,0.5
	C193.1,311.8,193.4,311.9,193.8,311.9z M193.8,313c-0.3,0-0.6,0-0.9-0.1c-0.3-0.1-0.6-0.2-0.9-0.4v3.6h-1.3V303h1.3v1.2h0.4
	c0.2-0.4,0.4-0.8,0.8-1c0.4-0.3,0.8-0.4,1.4-0.4c0.7,0,1.3,0.3,1.7,0.9s0.6,1.4,0.6,2.5v3.3c0,1.1-0.3,1.9-0.9,2.5
	C195.5,312.7,194.8,313,193.8,313z M203.8,313c-0.8,0-1.4-0.3-1.8-0.8c-0.4-0.5-0.6-1.3-0.6-2.2v-5.8h-1.5V303h1.5v-3.3h1.3v3.3h2.7
	v1.2h-2.7v6c0,0.5,0.1,0.9,0.3,1.2c0.2,0.3,0.5,0.4,0.9,0.4c0.2,0,0.4,0,0.6-0.1c0.2-0.1,0.4-0.1,0.7-0.2l0.2,1.2
	c-0.3,0.1-0.5,0.2-0.8,0.3C204.4,313,204.1,313,203.8,313z M210.9,311.8c0.4,0,0.9-0.1,1.2-0.3c0.4-0.2,0.7-0.6,1-1.2v-1.7H211
	c-0.5,0-0.8,0.1-1.1,0.3c-0.3,0.2-0.4,0.6-0.4,1.2c0,0.5,0.1,0.9,0.3,1.2S210.4,311.8,210.9,311.8z M210.8,313
	c-0.8,0-1.4-0.2-1.8-0.7c-0.4-0.5-0.7-1.2-0.7-2c0-0.9,0.2-1.5,0.7-2s1.1-0.8,1.9-0.8h2.4v-1.7c0-0.5-0.1-0.9-0.4-1.3
	c-0.3-0.3-0.7-0.5-1.3-0.5s-1.1,0.1-1.3,0.4c-0.3,0.3-0.5,0.8-0.6,1.5l-1.1-0.4c0.1-0.9,0.5-1.6,0.9-2c0.5-0.5,1.2-0.7,2-0.7
	c0.9,0,1.6,0.2,2.1,0.7c0.6,0.4,0.9,1.1,0.9,2v5.1c0,0.5,0.1,0.8,0.3,1s0.6,0.2,1.1,0v1.3c-0.7,0.1-1.3,0-1.6-0.2
	c-0.3-0.3-0.5-0.7-0.6-1.3h-0.2c-0.2,0.5-0.5,0.9-1,1.2C211.9,312.9,211.4,313,210.8,313z M221.5,311.8c0.5,0,0.9-0.1,1.2-0.4
	c0.4-0.3,0.7-0.7,1-1.3v-5.4c-0.2-0.2-0.5-0.4-0.8-0.5s-0.6-0.2-0.9-0.2c-0.6,0-1.1,0.2-1.4,0.6c-0.3,0.4-0.5,0.9-0.5,1.7v3.4
	c0,0.7,0.1,1.2,0.3,1.6C220.7,311.6,221,311.8,221.5,311.8z M223.4,311.6c-0.2,0.4-0.4,0.8-0.8,1c-0.4,0.2-0.8,0.4-1.4,0.4
	c-0.8,0-1.3-0.3-1.8-0.9c-0.4-0.6-0.6-1.4-0.6-2.5v-3.3c0-1.1,0.3-2,0.8-2.6c0.6-0.6,1.3-0.9,2.4-0.9c0.3,0,0.6,0,0.9,0.1
	c0.3,0.1,0.6,0.2,0.9,0.4v-3.6h1.3v13.1h-1.3v-1.2H223.4z M230.8,311.8c0.4,0,0.9-0.1,1.2-0.3c0.4-0.2,0.7-0.6,1-1.2v-1.7h-2.2
	c-0.5,0-0.8,0.1-1.1,0.3c-0.3,0.2-0.4,0.6-0.4,1.2c0,0.5,0.1,0.9,0.3,1.2C230,311.6,230.3,311.8,230.8,311.8z M230.7,313
	c-0.8,0-1.4-0.2-1.8-0.7c-0.4-0.5-0.7-1.2-0.7-2c0-0.9,0.2-1.5,0.7-2s1.1-0.8,1.9-0.8h2.4v-1.7c0-0.5-0.1-0.9-0.4-1.3
	c-0.3-0.3-0.7-0.5-1.3-0.5s-1.1,0.1-1.3,0.4c-0.3,0.3-0.5,0.8-0.6,1.5l-1.1-0.4c0.1-0.9,0.5-1.6,0.9-2c0.5-0.5,1.2-0.7,2-0.7
	c0.9,0,1.6,0.2,2.1,0.7c0.6,0.4,0.9,1.1,0.9,2v5.1c0,0.5,0.1,0.8,0.3,1s0.6,0.2,1.1,0v1.3c-0.7,0.1-1.3,0-1.6-0.2
	c-0.3-0.3-0.5-0.7-0.6-1.3h-0.2c-0.2,0.5-0.5,0.9-1,1.2C231.8,312.9,231.3,313,230.7,313z M241.9,313c-0.6,0-1.2-0.1-1.8-0.3
	c-0.6-0.2-1.1-0.5-1.6-0.9l0.5-1.1c0.4,0.3,0.8,0.5,1.3,0.7s1,0.3,1.6,0.3s1-0.1,1.3-0.4s0.4-0.6,0.4-1.1c0-0.6-0.1-0.9-0.4-1.2
	c-0.3-0.2-0.8-0.5-1.6-0.7c-0.9-0.2-1.7-0.6-2.2-1s-0.7-1.1-0.7-2c0-0.8,0.3-1.4,0.8-1.9s1.2-0.8,2-0.8c0.5,0,1.1,0.1,1.7,0.3
	c0.6,0.2,1.1,0.5,1.5,0.9l-0.5,1.1c-0.3-0.3-0.8-0.5-1.2-0.8c-0.5-0.2-0.9-0.4-1.4-0.4s-0.9,0.1-1.1,0.4c-0.3,0.3-0.4,0.6-0.4,1.1
	c0,0.6,0.2,1,0.5,1.2s0.9,0.4,1.6,0.7c1,0.3,1.7,0.6,2.1,1c0.5,0.4,0.7,1.1,0.7,2c0,0.8-0.3,1.4-0.9,1.9
	C243.5,312.8,242.8,313,241.9,313z M251,313c-0.4,0-0.8-0.1-1-0.3c-0.3-0.2-0.4-0.6-0.4-1.1v-0.3c0-0.5,0.1-0.9,0.4-1.1
	c0.3-0.2,0.6-0.3,1-0.3s0.7,0.1,1,0.3c0.3,0.2,0.4,0.6,0.4,1.1v0.3c0,0.5-0.1,0.8-0.4,1.1C251.8,312.9,251.4,313,251,313z"/>
<path class="st5" d="M61.7,372.9v-3.1c0-1.3,0.2-2.3,0.6-2.9c0.4-0.7,1.1-1.1,2-1.4l2.7-0.7c0.5-0.1,0.9-0.4,1.1-0.6
	c0.2-0.3,0.3-0.7,0.3-1.2v-0.8c0-0.7-0.1-1.2-0.4-1.5s-0.8-0.5-1.4-0.5c-0.7,0-1.2,0.2-1.4,0.6c-0.3,0.4-0.4,1.1-0.5,2.1l-2.8-0.2
	c0.1-1.6,0.5-2.7,1.2-3.5c0.8-0.7,1.9-1.1,3.5-1.1c1.5,0,2.7,0.3,3.5,1s1.2,1.7,1.2,3v1c0,1.1-0.2,1.9-0.6,2.5s-1,1-1.9,1.2
	l-2.7,0.7c-0.5,0.1-0.9,0.4-1.1,0.7c-0.2,0.3-0.3,0.8-0.3,1.5v1h6.8v2.1L61.7,372.9L61.7,372.9z M79.4,373c-1.7,0-2.9-0.4-3.7-1.1
	c-0.8-0.7-1.2-1.8-1.2-3.4l2.8-0.2c0.1,1,0.3,1.7,0.6,2c0.3,0.4,0.8,0.5,1.6,0.5c0.7,0,1.3-0.2,1.5-0.5c0.3-0.3,0.5-0.9,0.5-1.6
	v-1.1c0-0.8-0.2-1.3-0.5-1.6c-0.3-0.3-0.8-0.5-1.5-0.5h-4.6v-7.4h8.9v2h-6.1v3.2H80c1.4,0,2.5,0.3,3.1,1c0.7,0.7,1,1.7,1,3v1.4
	c0,1.3-0.4,2.3-1.2,3C82.1,372.7,81,373,79.4,373z M87,376.5l5.5-18.2h2.2l-5.5,18.2H87z M102.4,373c-1.5,0-2.7-0.5-3.6-1.6
	c-0.8-1.1-1.3-2.6-1.3-4.6v-2.4c0-2,0.4-3.6,1.3-4.7c0.8-1.1,2-1.6,3.6-1.6c1.5,0,2.7,0.5,3.5,1.6s1.3,2.6,1.3,4.7v2.4
	c0,2-0.4,3.5-1.3,4.6C105.1,372.5,103.9,373,102.4,373z M102.4,371c0.7,0,1.3-0.3,1.5-1c0.3-0.7,0.5-1.8,0.5-3.5v-1.9
	c0-1.7-0.2-2.9-0.5-3.5c-0.3-0.7-0.8-1-1.5-1c-0.8,0-1.3,0.3-1.6,1c-0.3,0.7-0.4,1.8-0.4,3.5v1.9c0,1.7,0.1,2.8,0.4,3.5
	C101.1,370.7,101.6,371,102.4,371z M102.4,367.1c-0.3,0-0.5-0.1-0.7-0.2s-0.3-0.4-0.3-0.8v-0.9c0-0.4,0.1-0.7,0.3-0.8
	c0.2-0.2,0.4-0.2,0.7-0.2c0.3,0,0.5,0.1,0.7,0.2s0.3,0.4,0.3,0.8v0.9c0,0.4-0.1,0.7-0.3,0.8C102.9,367,102.6,367.1,102.4,367.1z
	 M112.8,367.1h3.1v-5.4L112.8,367.1z M120.7,369.1h-2.1v3.7h-2.8v-3.7h-5.6v-2l5-8.8h3.4v8.8h2.1V369.1z"/>
<path class="st5" d="M61.6,404.8v-13.1h3.3c1.1,0,1.9,0.3,2.5,0.8c0.5,0.6,0.8,1.4,0.8,2.5v1.5c0,1.1-0.3,2-0.8,2.6S66,400,64.9,400
	h-2v4.8L61.6,404.8L61.6,404.8z M62.9,398.9h2c0.7,0,1.2-0.2,1.5-0.5c0.3-0.4,0.5-0.9,0.5-1.7V395c0-0.8-0.2-1.3-0.5-1.7
	s-0.8-0.5-1.5-0.5h-2V398.9z M74.1,405c-1,0-1.7-0.3-2.3-1c-0.5-0.7-0.8-1.6-0.8-2.8v-2.6c0-1.2,0.3-2.2,0.8-2.8
	c0.5-0.7,1.3-1,2.3-1s1.8,0.3,2.3,1s0.8,1.6,0.8,2.8v2.6c0,1.2-0.3,2.1-0.8,2.8C75.8,404.6,75.1,405,74.1,405z M74.1,403.8
	c0.6,0,1.1-0.2,1.4-0.6s0.5-1,0.5-1.9v-2.6c0-0.9-0.2-1.5-0.5-2c-0.3-0.4-0.8-0.7-1.4-0.7s-1.1,0.2-1.4,0.7c-0.3,0.4-0.4,1.1-0.4,2
	v2.6c0,0.8,0.1,1.5,0.4,1.9C73,403.6,73.5,403.8,74.1,403.8z M86.6,402.7c-0.2,0.8-0.6,1.4-1.1,1.8c-0.5,0.3-1.2,0.5-2,0.5
	c-1,0-1.8-0.3-2.3-0.9s-0.8-1.4-0.8-2.5v-3.4c0-1.1,0.3-1.9,0.8-2.5s1.3-0.9,2.3-0.9s1.7,0.3,2.3,0.9c0.5,0.6,0.8,1.5,0.8,2.6v1.7
	h-4.9v1.5c0,0.8,0.2,1.3,0.5,1.6c0.3,0.3,0.8,0.5,1.4,0.5s1-0.1,1.3-0.3c0.3-0.2,0.5-0.6,0.6-1.1L86.6,402.7z M81.6,398.2v0.8h3.6
	v-0.6c0-0.8-0.2-1.4-0.5-1.8s-0.8-0.6-1.4-0.6s-1.1,0.2-1.4,0.6C81.8,396.9,81.6,397.5,81.6,398.2z M93.4,404.9
	c-0.8,0-1.4-0.3-1.8-0.8s-0.6-1.3-0.6-2.2v-5.8h-1.5V395H91v-3.3h1.3v3.3H95v1.2h-2.7v6c0,0.5,0.1,0.9,0.3,1.2
	c0.2,0.3,0.5,0.4,0.9,0.4c0.2,0,0.4,0,0.6-0.1s0.4-0.1,0.7-0.2l0.2,1.2c-0.3,0.1-0.5,0.2-0.8,0.3C93.9,404.9,93.7,404.9,93.4,404.9z
	 M97.8,404.8V395h1.3v1.2h0.4c0.1-0.5,0.4-0.8,0.8-1.1c0.4-0.2,0.8-0.3,1.2-0.3c0.5,0,1,0.2,1.3,0.6s0.5,1,0.5,1.7v1.8H102v-1.7
	c0-0.4-0.1-0.7-0.3-0.9c-0.2-0.2-0.4-0.3-0.7-0.3c-0.3,0-0.7,0.1-1.1,0.4s-0.7,0.6-0.9,1.1v7.2L97.8,404.8L97.8,404.8z M106.4,408.1
	c-0.2,0-0.4,0-0.7,0c-0.2,0-0.4-0.1-0.7-0.1l0.2-1.2c0.2,0.1,0.4,0.1,0.6,0.1s0.4,0,0.5,0c0.5,0,0.8-0.1,1.1-0.4
	c0.3-0.3,0.5-0.7,0.7-1.3V405h-0.6l-2.6-10h1.4l2.1,8.7l2-8.7h1.3l-2.8,11.2c-0.3,0.8-0.7,1.3-1.1,1.5
	C107.5,408,107,408.1,106.4,408.1z M125.5,404.9c-0.7,0-1.4-0.1-2.1-0.4s-1.2-0.6-1.6-1l0.5-1c0.5,0.5,1,0.8,1.6,1s1.2,0.3,1.8,0.3
	c0.7,0,1.3-0.2,1.7-0.6c0.4-0.4,0.6-1,0.6-1.8c0-0.6-0.2-1.1-0.6-1.4c-0.4-0.4-1.1-0.8-2.3-1.3c-1.2-0.6-2.1-1.1-2.6-1.7
	s-0.7-1.2-0.7-2.1c0-1,0.3-1.8,0.9-2.3c0.6-0.6,1.4-0.8,2.5-0.8c0.6,0,1.3,0.1,1.9,0.4s1.2,0.6,1.6,1l-0.4,1.1c-0.5-0.4-1-0.8-1.5-1
	c-0.5-0.3-1.1-0.4-1.6-0.4c-0.6,0-1.1,0.2-1.5,0.5s-0.5,0.8-0.5,1.5c0,0.6,0.2,1,0.6,1.4c0.4,0.3,1.2,0.8,2.4,1.3
	c1.2,0.5,2,1,2.4,1.6c0.4,0.5,0.7,1.2,0.7,2c0,1.2-0.3,2.1-1,2.8C127.5,404.5,126.6,404.9,125.5,404.9z M135.5,404.8
	c-0.9,0-1.5-0.3-2-0.9s-0.7-1.4-0.7-2.5v-9.8h1.3v9.8c0,0.7,0.1,1.2,0.4,1.6c0.3,0.3,0.6,0.5,1.1,0.5c0.1,0,0.3,0,0.4-0.1
	c0.2-0.1,0.3-0.1,0.4-0.2l0.2,1.1c-0.2,0.1-0.3,0.1-0.5,0.2C135.9,404.8,135.7,404.8,135.5,404.8z M141.8,403.7
	c0.4,0,0.9-0.1,1.2-0.3c0.4-0.2,0.7-0.6,1-1.2v-1.7h-2.2c-0.5,0-0.8,0.1-1.1,0.3c-0.3,0.2-0.4,0.6-0.4,1.2c0,0.5,0.1,0.9,0.3,1.2
	C140.9,403.6,141.3,403.7,141.8,403.7z M141.6,405c-0.8,0-1.4-0.2-1.8-0.7c-0.4-0.5-0.7-1.2-0.7-2c0-0.9,0.2-1.5,0.7-2
	s1.1-0.8,1.9-0.8h2.4v-1.7c0-0.5-0.1-0.9-0.4-1.3c-0.3-0.3-0.7-0.5-1.3-0.5s-1.1,0.1-1.3,0.4c-0.3,0.3-0.5,0.8-0.6,1.5l-1.1-0.4
	c0.1-0.9,0.5-1.6,0.9-2c0.5-0.5,1.2-0.7,2-0.7c0.9,0,1.6,0.2,2.1,0.7c0.6,0.4,0.9,1.1,0.9,2v5.1c0,0.5,0.1,0.8,0.3,1s0.6,0.2,1.1,0
	v1.3c-0.7,0.1-1.3,0-1.6-0.2c-0.3-0.3-0.5-0.7-0.6-1.3h-0.2c-0.2,0.5-0.5,0.9-1,1.2C142.8,404.8,142.2,405,141.6,405z M152.9,405
	c-0.6,0-1.2-0.1-1.8-0.3c-0.6-0.2-1.1-0.5-1.6-0.9l0.5-1.1c0.4,0.3,0.8,0.5,1.3,0.7s1,0.3,1.6,0.3s1-0.1,1.3-0.4s0.4-0.6,0.4-1.1
	c0-0.6-0.1-0.9-0.4-1.2c-0.3-0.2-0.8-0.5-1.6-0.7c-0.9-0.2-1.7-0.6-2.2-1s-0.7-1.1-0.7-2c0-0.8,0.3-1.4,0.8-1.9s1.2-0.8,2-0.8
	c0.5,0,1.1,0.1,1.7,0.3c0.6,0.2,1.1,0.5,1.5,0.9l-0.5,1.1c-0.3-0.3-0.8-0.5-1.2-0.8c-0.5-0.2-0.9-0.4-1.4-0.4s-0.9,0.1-1.1,0.4
	c-0.3,0.3-0.4,0.6-0.4,1.1c0,0.6,0.2,0.9,0.5,1.2c0.3,0.2,0.9,0.4,1.6,0.7c1,0.3,1.7,0.6,2.1,1c0.5,0.4,0.7,1.1,0.7,2
	c0,0.8-0.3,1.4-0.9,1.9C154.5,404.7,153.8,405,152.9,405z M159,404.8v-13.1h1.3v4.5h0.4c0.2-0.4,0.5-0.8,0.9-1
	c0.4-0.3,0.8-0.4,1.2-0.4c0.7,0,1.3,0.3,1.7,0.8s0.7,1.3,0.7,2.1v7h-1.3V398c0-0.7-0.1-1.2-0.4-1.5c-0.2-0.3-0.6-0.5-1.1-0.5
	c-0.4,0-0.8,0.1-1.2,0.4s-0.7,0.6-1,1.1v7.2H159V404.8z M176,404.8v-1.1h2.5v-10.8H176v-1.1h6.2v1.1h-2.5v10.8h2.5v1.1H176z
	 M185.3,404.8v-1.1h2.5v-10.8h-2.5v-1.1h6.2v1.1H189v10.8h2.5v1.1H185.3z M194.7,404.8v-1.1h2.5v-10.8h-2.5v-1.1h6.2v1.1h-2.5v10.8
	h2.5v1.1H194.7z"/>
</svg>
