<?xml version="1.0" encoding="utf-8"?>
<!-- Generator: Adobe Illustrator 24.0.3, SVG Export Plug-In . SVG Version: 6.00 Build 0)  -->
<svg version="1.1" id="Layer_1" xmlns="http://www.w3.org/2000/svg" xmlns:xlink="http://www.w3.org/1999/xlink" x="0px" y="0px"
	 viewBox="0 0 286 411" enable-background="new 0 0 286 411" xml:space="preserve">
<rect x="17.4" y="21.5" fill="#3C9678" width="7.7" height="353.2"/>
<circle fill="#FFFFFF" stroke="#1E193B" stroke-width="8" cx="21.2" cy="21.4" r="16.4"/>
<circle fill="#3C9678" stroke="#3C9678" stroke-width="8" cx="21.2" cy="21.5" r="4"/>
<circle fill="#FFFFFF" stroke="#1E193B" stroke-width="8" cx="21.2" cy="141.4" r="16.4"/>
<ellipse fill="#FFFFFF" stroke="#1E193B" stroke-width="7.9999" stroke-miterlimit="3.9999" cx="21.2" cy="257.3" rx="16.4" ry="16.4"/>
<ellipse fill="#FFFFFF" stroke="#1E193B" stroke-width="8.0004" stroke-miterlimit="4.0002" cx="21.2" cy="373.3" rx="16.4" ry="16.4"/>
<path fill="#1E193B" d="M66.5,21.2c-1.5,0-2.7-0.5-3.6-1.6c-0.8-1.1-1.3-2.6-1.3-4.6v-2.4c0-2,0.4-3.6,1.3-4.7
	c0.8-1.1,2-1.6,3.6-1.6c1.5,0,2.7,0.5,3.5,1.6s1.3,2.6,1.3,4.7V15c0,2-0.4,3.5-1.3,4.6C69.2,20.6,68,21.2,66.5,21.2z M66.5,19.1
	c0.7,0,1.3-0.3,1.5-1c0.3-0.7,0.5-1.8,0.5-3.5v-1.9c0-1.7-0.2-2.9-0.5-3.5c-0.3-0.7-0.8-1-1.5-1c-0.8,0-1.3,0.3-1.6,1
	c-0.3,0.7-0.4,1.8-0.4,3.5v1.9c0,1.7,0.1,2.8,0.4,3.5C65.2,18.8,65.7,19.1,66.5,19.1z M66.5,15.2c-0.3,0-0.5-0.1-0.7-0.2
	c-0.2-0.1-0.3-0.4-0.3-0.8v-0.9c0-0.4,0.1-0.7,0.3-0.8c0.2-0.2,0.4-0.2,0.7-0.2c0.3,0,0.5,0.1,0.7,0.2c0.2,0.1,0.3,0.4,0.3,0.8v0.9
	c0,0.4-0.1,0.7-0.3,0.8C67,15.1,66.8,15.2,66.5,15.2z M86,24.6l5.5-18.2h2.2l-5.5,18.2H86z M101.4,21.2c-1.5,0-2.7-0.5-3.6-1.6
	C97,18.5,96.5,17,96.5,15v-2.4c0-2,0.4-3.6,1.3-4.7c0.8-1.1,2-1.6,3.6-1.6c1.5,0,2.7,0.5,3.5,1.6s1.3,2.6,1.3,4.7V15
	c0,2-0.4,3.5-1.3,4.6C104.1,20.6,102.9,21.2,101.4,21.2z M101.4,19.1c0.7,0,1.3-0.3,1.5-1c0.3-0.7,0.5-1.8,0.5-3.5v-1.9
	c0-1.7-0.2-2.9-0.5-3.5c-0.3-0.7-0.8-1-1.5-1c-0.8,0-1.3,0.3-1.6,1c-0.3,0.7-0.4,1.8-0.4,3.5v1.9c0,1.7,0.1,2.8,0.4,3.5
	C100.1,18.8,100.6,19.1,101.4,19.1z M101.4,15.2c-0.3,0-0.5-0.1-0.7-0.2c-0.2-0.1-0.3-0.4-0.3-0.8v-0.9c0-0.4,0.1-0.7,0.3-0.8
	c0.2-0.2,0.4-0.2,0.7-0.2c0.3,0,0.5,0.1,0.7,0.2c0.2,0.1,0.3,0.4,0.3,0.8v0.9c0,0.4-0.1,0.7-0.3,0.8
	C101.9,15.1,101.6,15.2,101.4,15.2z M114.3,21.2c-1.7,0-2.9-0.3-3.7-1c-0.8-0.7-1.2-1.8-1.3-3.2l2.8-0.2c0.1,0.9,0.3,1.6,0.5,1.9
	c0.3,0.3,0.8,0.5,1.6,0.5c0.7,0,1.2-0.2,1.5-0.5s0.5-0.9,0.5-1.6v-0.5c0-0.8-0.1-1.4-0.4-1.7s-0.8-0.5-1.6-0.5h-1.8v-2.1h1.8
	c0.6,0,1.1-0.1,1.3-0.3c0.3-0.2,0.4-0.6,0.4-1.3v-0.6c0-0.7-0.2-1.1-0.5-1.4c-0.3-0.3-0.8-0.4-1.4-0.4s-1.1,0.2-1.3,0.5
	c-0.2,0.3-0.4,0.8-0.4,1.6l-2.8-0.2c0.1-1.4,0.4-2.4,1.2-3c0.7-0.6,1.8-0.9,3.4-0.9s2.8,0.3,3.5,0.9c0.8,0.6,1.1,1.5,1.1,2.8v0.5
	c0,0.7-0.2,1.3-0.6,1.8s-0.8,0.8-1.4,0.9v0.5c0.7,0.1,1.2,0.4,1.6,1s0.6,1.3,0.6,2.1V17c0,1.4-0.4,2.5-1.1,3.1
	C117.1,20.8,115.9,21.2,114.3,21.2z M74.1,20.9v-3.1c0-1.3,0.2-2.3,0.6-2.9c0.4-0.7,1.1-1.1,2-1.4l2.7-0.7c0.5-0.1,0.9-0.4,1.1-0.6
	c0.2-0.3,0.3-0.7,0.3-1.2v-0.8c0-0.7-0.1-1.2-0.4-1.5S79.6,8.2,79,8.2c-0.7,0-1.2,0.2-1.4,0.6C77.2,9.2,77,9.9,77,10.9l-2.8-0.2
	c0.1-1.6,0.5-2.7,1.2-3.5c0.8-0.7,1.9-1.1,3.5-1.1c1.5,0,2.7,0.3,3.5,1s1.2,1.7,1.2,3v1c0,1.1-0.2,1.9-0.6,2.5s-1,1-1.9,1.2
	l-2.7,0.7c-0.5,0.1-0.9,0.4-1.1,0.7C77.1,16.5,77,17,77,17.7v1h6.8v2.1L74.1,20.9L74.1,20.9z"/>
<path fill="#1E193B" d="M66.5,141.2c-1.5,0-2.7-0.5-3.6-1.6c-0.8-1.1-1.3-2.6-1.3-4.6v-2.4c0-2,0.4-3.6,1.3-4.7
	c0.8-1.1,2-1.6,3.6-1.6c1.5,0,2.7,0.5,3.5,1.6c0.8,1.1,1.3,2.6,1.3,4.7v2.4c0,2-0.4,3.5-1.3,4.6C69.2,140.6,68,141.2,66.5,141.2z
	 M66.5,139.1c0.7,0,1.3-0.3,1.5-1c0.3-0.7,0.5-1.8,0.5-3.5v-1.9c0-1.7-0.2-2.9-0.5-3.5c-0.3-0.7-0.8-1-1.5-1c-0.8,0-1.3,0.3-1.6,1
	c-0.3,0.7-0.4,1.8-0.4,3.5v1.9c0,1.7,0.1,2.8,0.4,3.5C65.2,138.8,65.7,139.1,66.5,139.1z M66.5,135.2c-0.3,0-0.5-0.1-0.7-0.2
	c-0.2-0.1-0.3-0.4-0.3-0.8v-0.9c0-0.4,0.1-0.7,0.3-0.8c0.2-0.2,0.4-0.2,0.7-0.2c0.3,0,0.5,0.1,0.7,0.2c0.2,0.1,0.3,0.4,0.3,0.8v0.9
	c0,0.4-0.1,0.7-0.3,0.8C67,135.1,66.8,135.2,66.5,135.2z M75.7,141v-2.1h3v-9.4h-0.4c-0.1,0.8-0.5,1.4-1,1.9s-1.1,0.7-1.7,0.8
	l-0.1-2.2c0.8-0.1,1.5-0.4,2.1-1.1c0.6-0.6,1-1.4,1.2-2.4h2.7v12.4h2.7v2.1H75.7z M87,144.6l5.5-18.2h2.2l-5.5,18.2H87z
	 M102.4,141.2c-1.5,0-2.7-0.5-3.6-1.6c-0.8-1.1-1.3-2.6-1.3-4.6v-2.4c0-2,0.4-3.6,1.3-4.7c0.8-1.1,2-1.6,3.6-1.6
	c1.5,0,2.7,0.5,3.5,1.6c0.8,1.1,1.3,2.6,1.3,4.7v2.4c0,2-0.4,3.5-1.3,4.6C105.1,140.6,103.9,141.2,102.4,141.2z M102.4,139.1
	c0.7,0,1.3-0.3,1.5-1c0.3-0.7,0.5-1.8,0.5-3.5v-1.9c0-1.7-0.2-2.9-0.5-3.5c-0.3-0.7-0.8-1-1.5-1c-0.8,0-1.3,0.3-1.6,1
	c-0.3,0.7-0.4,1.8-0.4,3.5v1.9c0,1.7,0.1,2.8,0.4,3.5C101.1,138.8,101.6,139.1,102.4,139.1z M102.4,135.2c-0.3,0-0.5-0.1-0.7-0.2
	c-0.2-0.1-0.3-0.4-0.3-0.8v-0.9c0-0.4,0.1-0.7,0.3-0.8c0.2-0.2,0.4-0.2,0.7-0.2c0.3,0,0.5,0.1,0.7,0.2c0.2,0.1,0.3,0.4,0.3,0.8v0.9
	c0,0.4-0.1,0.7-0.3,0.8C102.9,135.1,102.6,135.2,102.4,135.2z M112.8,135.2h3.1v-5.4L112.8,135.2z M120.7,137.3h-2.1v3.7h-2.8v-3.7
	h-5.6v-2l5-8.8h3.4v8.8h2.1V137.3z"/>
<path fill="#1E193B" d="M87,260.5l5.5-18.2h2.2l-5.5,18.2H87z M102.4,257.1c-1.5,0-2.7-0.5-3.6-1.6c-0.8-1.1-1.3-2.6-1.3-4.6v-2.4
	c0-2,0.4-3.6,1.3-4.7c0.8-1.1,2-1.6,3.6-1.6c1.5,0,2.7,0.5,3.5,1.6s1.3,2.6,1.3,4.7v2.4c0,2-0.4,3.5-1.3,4.6
	C105.1,256.6,103.9,257.1,102.4,257.1z M102.4,255.1c0.7,0,1.3-0.3,1.5-1c0.3-0.7,0.5-1.8,0.5-3.5v-1.9c0-1.7-0.2-2.9-0.5-3.5
	c-0.3-0.7-0.8-1-1.5-1c-0.8,0-1.3,0.3-1.6,1c-0.3,0.7-0.4,1.8-0.4,3.5v1.9c0,1.7,0.1,2.8,0.4,3.5
	C101.1,254.7,101.6,255.1,102.4,255.1z M102.4,251.1c-0.3,0-0.5-0.1-0.7-0.2c-0.2-0.1-0.3-0.4-0.3-0.8v-0.9c0-0.4,0.1-0.7,0.3-0.8
	c0.2-0.2,0.4-0.2,0.7-0.2c0.3,0,0.5,0.1,0.7,0.2c0.2,0.1,0.3,0.4,0.3,0.8v0.9c0,0.4-0.1,0.7-0.3,0.8
	C102.9,251.1,102.6,251.1,102.4,251.1z M112.8,251.2h3.1v-5.4L112.8,251.2z M120.7,253.2h-2.1v3.7h-2.8v-3.7h-5.6v-2l5-8.8h3.4v8.8
	h2.1V253.2z M66.5,257c-1.5,0-2.7-0.5-3.6-1.6c-0.8-1.1-1.3-2.6-1.3-4.6v-2.4c0-2,0.4-3.6,1.3-4.7c0.8-1.1,2-1.6,3.6-1.6
	c1.5,0,2.7,0.5,3.5,1.6c0.8,1.1,1.3,2.6,1.3,4.7v2.4c0,2-0.4,3.5-1.3,4.6C69.2,256.4,68,257,66.5,257z M66.5,254.9
	c0.7,0,1.3-0.3,1.5-1c0.3-0.7,0.5-1.8,0.5-3.5v-1.9c0-1.7-0.2-2.9-0.5-3.5c-0.3-0.7-0.8-1-1.5-1c-0.8,0-1.3,0.3-1.6,1
	c-0.3,0.7-0.4,1.8-0.4,3.5v1.9c0,1.7,0.1,2.8,0.4,3.5C65.2,254.6,65.7,254.9,66.5,254.9z M66.5,251c-0.3,0-0.5-0.1-0.7-0.2
	c-0.2-0.1-0.3-0.4-0.3-0.8v-0.9c0-0.4,0.1-0.7,0.3-0.8c0.2-0.2,0.4-0.2,0.7-0.2c0.3,0,0.5,0.1,0.7,0.2c0.2,0.1,0.3,0.4,0.3,0.8v0.9
	c0,0.4-0.1,0.7-0.3,0.8C67,250.9,66.7,251,66.5,251z M79.4,257c-1.7,0-2.9-0.3-3.7-1c-0.8-0.7-1.2-1.8-1.3-3.2l2.8-0.2
	c0.1,0.9,0.3,1.6,0.5,1.9c0.3,0.3,0.8,0.5,1.6,0.5c0.7,0,1.2-0.2,1.5-0.5c0.3-0.3,0.5-0.9,0.5-1.6v-0.5c0-0.8-0.1-1.4-0.4-1.7
	s-0.8-0.5-1.6-0.5h-1.8v-2.1h1.8c0.6,0,1.1-0.1,1.3-0.3c0.3-0.2,0.4-0.6,0.4-1.3v-0.6c0-0.7-0.2-1.1-0.5-1.4
	c-0.3-0.3-0.8-0.4-1.4-0.4s-1.1,0.2-1.3,0.5c-0.2,0.3-0.4,0.8-0.4,1.6l-2.8-0.2c0.1-1.4,0.4-2.4,1.2-3c0.7-0.6,1.8-0.9,3.4-0.9
	s2.8,0.3,3.5,0.9c0.8,0.6,1.1,1.5,1.1,2.8v0.5c0,0.7-0.2,1.3-0.6,1.8s-0.8,0.8-1.4,0.9v0.5c0.7,0.1,1.2,0.4,1.6,1
	c0.4,0.6,0.6,1.3,0.6,2.1v0.2c0,1.4-0.4,2.5-1.1,3.1C82.2,256.6,81,257,79.4,257z"/>
<path fill="#1E193B" d="M61.7,372.9v-3.1c0-1.3,0.2-2.3,0.6-2.9c0.4-0.7,1.1-1.1,2-1.4l2.7-0.7c0.5-0.1,0.9-0.4,1.1-0.6
	c0.2-0.3,0.3-0.7,0.3-1.2v-0.8c0-0.7-0.1-1.2-0.4-1.5s-0.8-0.5-1.4-0.5c-0.7,0-1.2,0.2-1.4,0.6c-0.3,0.4-0.4,1.1-0.5,2.1l-2.8-0.2
	c0.1-1.6,0.5-2.7,1.2-3.5c0.8-0.7,1.9-1.1,3.5-1.1c1.5,0,2.7,0.3,3.5,1s1.2,1.7,1.2,3v1c0,1.1-0.2,1.9-0.6,2.5s-1,1-1.9,1.2
	l-2.7,0.7c-0.5,0.1-0.9,0.4-1.1,0.7c-0.2,0.3-0.3,0.8-0.3,1.5v1h6.8v2.1L61.7,372.9L61.7,372.9z M79.4,373c-1.7,0-2.9-0.4-3.7-1.1
	c-0.8-0.7-1.2-1.8-1.2-3.4l2.8-0.2c0.1,1,0.3,1.7,0.6,2c0.3,0.4,0.8,0.5,1.6,0.5c0.7,0,1.3-0.2,1.5-0.5c0.3-0.3,0.5-0.9,0.5-1.6
	v-1.1c0-0.8-0.2-1.3-0.5-1.6c-0.3-0.3-0.8-0.5-1.5-0.5h-4.6v-7.4h8.9v2h-6.1v3.2H80c1.4,0,2.5,0.3,3.1,1c0.7,0.7,1,1.7,1,3v1.4
	c0,1.3-0.4,2.3-1.2,3C82.1,372.7,81,373,79.4,373z M87,376.5l5.5-18.2h2.2l-5.5,18.2H87z M102.4,373c-1.5,0-2.7-0.5-3.6-1.6
	c-0.8-1.1-1.3-2.6-1.3-4.6v-2.4c0-2,0.4-3.6,1.3-4.7c0.8-1.1,2-1.6,3.6-1.6c1.5,0,2.7,0.5,3.5,1.6s1.3,2.6,1.3,4.7v2.4
	c0,2-0.4,3.5-1.3,4.6C105.1,372.5,103.9,373,102.4,373z M102.4,371c0.7,0,1.3-0.3,1.5-1c0.3-0.7,0.5-1.8,0.5-3.5v-1.9
	c0-1.7-0.2-2.9-0.5-3.5c-0.3-0.7-0.8-1-1.5-1c-0.8,0-1.3,0.3-1.6,1c-0.3,0.7-0.4,1.8-0.4,3.5v1.9c0,1.7,0.1,2.8,0.4,3.5
	C101.1,370.7,101.6,371,102.4,371z M102.4,367.1c-0.3,0-0.5-0.1-0.7-0.2s-0.3-0.4-0.3-0.8v-0.9c0-0.4,0.1-0.7,0.3-0.8
	c0.2-0.2,0.4-0.2,0.7-0.2c0.3,0,0.5,0.1,0.7,0.2s0.3,0.4,0.3,0.8v0.9c0,0.4-0.1,0.7-0.3,0.8C102.9,367,102.6,367.1,102.4,367.1z
	 M112.8,367.1h3.1v-5.4L112.8,367.1z M120.7,369.1h-2.1v3.7h-2.8v-3.7h-5.6v-2l5-8.8h3.4v8.8h2.1V369.1z"/>
<path fill="#1E193B" d="M61.6,404.8v-13.1h3.3c1.1,0,1.9,0.3,2.5,0.8c0.5,0.6,0.8,1.4,0.8,2.5v1.5c0,1.1-0.3,2-0.8,2.6
	S66,400,64.9,400h-2v4.8H61.6L61.6,404.8z M62.9,398.9h2c0.7,0,1.2-0.2,1.5-0.5c0.3-0.4,0.5-0.9,0.5-1.7V395c0-0.8-0.2-1.3-0.5-1.7
	s-0.8-0.5-1.5-0.5h-2V398.9z M74.1,405c-1,0-1.7-0.3-2.3-1c-0.5-0.7-0.8-1.6-0.8-2.8v-2.6c0-1.2,0.3-2.2,0.8-2.8
	c0.5-0.7,1.3-1,2.3-1s1.8,0.3,2.3,1s0.8,1.6,0.8,2.8v2.6c0,1.2-0.3,2.1-0.8,2.8C75.8,404.6,75.1,405,74.1,405z M74.1,403.8
	c0.6,0,1.1-0.2,1.4-0.6s0.5-1,0.5-1.9v-2.6c0-0.9-0.2-1.5-0.5-2c-0.3-0.4-0.8-0.7-1.4-0.7s-1.1,0.2-1.4,0.7c-0.3,0.4-0.4,1.1-0.4,2
	v2.6c0,0.8,0.1,1.5,0.4,1.9C73,403.6,73.5,403.8,74.1,403.8z M86.6,402.7c-0.2,0.8-0.6,1.4-1.1,1.8c-0.5,0.3-1.2,0.5-2,0.5
	c-1,0-1.8-0.3-2.3-0.9s-0.8-1.4-0.8-2.5v-3.4c0-1.1,0.3-1.9,0.8-2.5s1.3-0.9,2.3-0.9s1.7,0.3,2.3,0.9c0.5,0.6,0.8,1.5,0.8,2.6v1.7
	h-4.9v1.5c0,0.8,0.2,1.3,0.5,1.6c0.3,0.3,0.8,0.5,1.4,0.5s1-0.1,1.3-0.3c0.3-0.2,0.5-0.6,0.6-1.1L86.6,402.7z M81.6,398.2v0.8h3.6
	v-0.6c0-0.8-0.2-1.4-0.5-1.8s-0.8-0.6-1.4-0.6s-1.1,0.2-1.4,0.6C81.8,396.9,81.6,397.5,81.6,398.2z M93.4,404.9
	c-0.8,0-1.4-0.3-1.8-0.8s-0.6-1.3-0.6-2.2v-5.8h-1.5V395H91v-3.3h1.3v3.3H95v1.2h-2.7v6c0,0.5,0.1,0.9,0.3,1.2
	c0.2,0.3,0.5,0.4,0.9,0.4c0.2,0,0.4,0,0.6-0.1s0.4-0.1,0.7-0.2l0.2,1.2c-0.3,0.1-0.5,0.2-0.8,0.3C93.9,404.9,93.7,404.9,93.4,404.9z
	 M97.8,404.8V395h1.3v1.2h0.4c0.1-0.5,0.4-0.8,0.8-1.1c0.4-0.2,0.8-0.3,1.2-0.3c0.5,0,1,0.2,1.3,0.6s0.5,1,0.5,1.7v1.8H102v-1.7
	c0-0.4-0.1-0.7-0.3-0.9c-0.2-0.2-0.4-0.3-0.7-0.3c-0.3,0-0.7,0.1-1.1,0.4s-0.7,0.6-0.9,1.1v7.2L97.8,404.8L97.8,404.8z M106.4,408.1
	c-0.2,0-0.4,0-0.7,0c-0.2,0-0.4-0.1-0.7-0.1l0.2-1.2c0.2,0.1,0.4,0.1,0.6,0.1s0.4,0,0.5,0c0.5,0,0.8-0.1,1.1-0.4
	c0.3-0.3,0.5-0.7,0.7-1.3V405h-0.6l-2.6-10h1.4l2.1,8.7l2-8.7h1.3l-2.8,11.2c-0.3,0.8-0.7,1.3-1.1,1.5
	C107.5,408,107,408.1,106.4,408.1z M125.5,404.9c-0.7,0-1.4-0.1-2.1-0.4s-1.2-0.6-1.6-1l0.5-1c0.5,0.5,1,0.8,1.6,1s1.2,0.3,1.8,0.3
	c0.7,0,1.3-0.2,1.7-0.6c0.4-0.4,0.6-1,0.6-1.8c0-0.6-0.2-1.1-0.6-1.4c-0.4-0.4-1.1-0.8-2.3-1.3c-1.2-0.6-2.1-1.1-2.6-1.7
	s-0.7-1.2-0.7-2.1c0-1,0.3-1.8,0.9-2.3c0.6-0.6,1.4-0.8,2.5-0.8c0.6,0,1.3,0.1,1.9,0.4s1.2,0.6,1.6,1l-0.4,1.1c-0.5-0.4-1-0.8-1.5-1
	c-0.5-0.3-1.1-0.4-1.6-0.4c-0.6,0-1.1,0.2-1.5,0.5s-0.5,0.8-0.5,1.5c0,0.6,0.2,1,0.6,1.4c0.4,0.3,1.2,0.8,2.4,1.3
	c1.2,0.5,2,1,2.4,1.6c0.4,0.5,0.7,1.2,0.7,2c0,1.2-0.3,2.1-1,2.8C127.5,404.5,126.6,404.9,125.5,404.9z M135.5,404.8
	c-0.9,0-1.5-0.3-2-0.9s-0.7-1.4-0.7-2.5v-9.8h1.3v9.8c0,0.7,0.1,1.2,0.4,1.6c0.3,0.3,0.6,0.5,1.1,0.5c0.1,0,0.3,0,0.4-0.1
	c0.2-0.1,0.3-0.1,0.4-0.2l0.2,1.1c-0.2,0.1-0.3,0.1-0.5,0.2C135.9,404.8,135.7,404.8,135.5,404.8z M141.8,403.7
	c0.4,0,0.9-0.1,1.2-0.3c0.4-0.2,0.7-0.6,1-1.2v-1.7h-2.2c-0.5,0-0.8,0.1-1.1,0.3c-0.3,0.2-0.4,0.6-0.4,1.2c0,0.5,0.1,0.9,0.3,1.2
	C140.9,403.6,141.3,403.7,141.8,403.7z M141.6,405c-0.8,0-1.4-0.2-1.8-0.7c-0.4-0.5-0.7-1.2-0.7-2c0-0.9,0.2-1.5,0.7-2
	s1.1-0.8,1.9-0.8h2.4v-1.7c0-0.5-0.1-0.9-0.4-1.3c-0.3-0.3-0.7-0.5-1.3-0.5s-1.1,0.1-1.3,0.4c-0.3,0.3-0.5,0.8-0.6,1.5l-1.1-0.4
	c0.1-0.9,0.5-1.6,0.9-2c0.5-0.5,1.2-0.7,2-0.7c0.9,0,1.6,0.2,2.1,0.7c0.6,0.4,0.9,1.1,0.9,2v5.1c0,0.5,0.1,0.8,0.3,1s0.6,0.2,1.1,0
	v1.3c-0.7,0.1-1.3,0-1.6-0.2c-0.3-0.3-0.5-0.7-0.6-1.3h-0.2c-0.2,0.5-0.5,0.9-1,1.2C142.8,404.8,142.2,405,141.6,405z M152.9,405
	c-0.6,0-1.2-0.1-1.8-0.3c-0.6-0.2-1.1-0.5-1.6-0.9l0.5-1.1c0.4,0.3,0.8,0.5,1.3,0.7s1,0.3,1.6,0.3s1-0.1,1.3-0.4s0.4-0.6,0.4-1.1
	c0-0.6-0.1-0.9-0.4-1.2c-0.3-0.2-0.8-0.5-1.6-0.7c-0.9-0.2-1.7-0.6-2.2-1s-0.7-1.1-0.7-2c0-0.8,0.3-1.4,0.8-1.9s1.2-0.8,2-0.8
	c0.5,0,1.1,0.1,1.7,0.3c0.6,0.2,1.1,0.5,1.5,0.9l-0.5,1.1c-0.3-0.3-0.8-0.5-1.2-0.8c-0.5-0.2-0.9-0.4-1.4-0.4s-0.9,0.1-1.1,0.4
	c-0.3,0.3-0.4,0.6-0.4,1.1c0,0.6,0.2,0.9,0.5,1.2c0.3,0.2,0.9,0.4,1.6,0.7c1,0.3,1.7,0.6,2.1,1c0.5,0.4,0.7,1.1,0.7,2
	c0,0.8-0.3,1.4-0.9,1.9C154.5,404.7,153.8,405,152.9,405z M159,404.8v-13.1h1.3v4.5h0.4c0.2-0.4,0.5-0.8,0.9-1
	c0.4-0.3,0.8-0.4,1.2-0.4c0.7,0,1.3,0.3,1.7,0.8s0.7,1.3,0.7,2.1v7h-1.3V398c0-0.7-0.1-1.2-0.4-1.5c-0.2-0.3-0.6-0.5-1.1-0.5
	c-0.4,0-0.8,0.1-1.2,0.4s-0.7,0.6-1,1.1v7.2L159,404.8L159,404.8z M176,404.8v-1.1h2.5v-10.8H176v-1.1h6.2v1.1h-2.5v10.8h2.5v1.1
	H176z M185.3,404.8v-1.1h2.5v-10.8h-2.5v-1.1h6.2v1.1H189v10.8h2.5v1.1H185.3z M194.7,404.8v-1.1h2.5v-10.8h-2.5v-1.1h6.2v1.1h-2.5
	v10.8h2.5v1.1H194.7z"/>
<g>
	<g>
		<path fill="#1E193B" d="M65.6,52.7c-1.3,0-2.2-0.4-2.9-1.1c-0.6-0.7-1-1.8-1-3.3v-4.6c0-1.5,0.3-2.6,1-3.3
			c0.6-0.7,1.6-1.1,2.9-1.1c1.2,0,2.1,0.4,2.7,1.1s1,1.8,1,3.2l-1.2,0.2c-0.1-1.2-0.3-2-0.7-2.6c-0.4-0.5-1-0.8-1.8-0.8
			c-0.9,0-1.6,0.3-2,0.8S63,42.5,63,43.7v4.7c0,1.1,0.2,1.9,0.6,2.4c0.4,0.5,1.1,0.7,2,0.7c0.8,0,1.4-0.3,1.8-0.8s0.6-1.4,0.7-2.5
			l1.2,0.2c-0.1,1.4-0.4,2.5-1.1,3.2C67.7,52.4,66.8,52.7,65.6,52.7z"/>
		<path fill="#1E193B" d="M74.9,52.7c-0.8,0-1.4-0.2-1.8-0.7s-0.7-1.2-0.7-2c0-0.9,0.2-1.5,0.7-2s1.1-0.7,1.9-0.7h2.4v-1.7
			c0-0.5-0.1-0.9-0.4-1.3s-0.7-0.5-1.3-0.5c-0.6,0-1.1,0.1-1.3,0.4c-0.3,0.3-0.5,0.8-0.6,1.5l-1.1-0.4c0.1-0.9,0.5-1.6,0.9-2
			c0.5-0.5,1.2-0.7,2-0.7c0.9,0,1.6,0.2,2.1,0.7c0.6,0.4,0.9,1.1,0.9,2v5.1c0,0.5,0.1,0.8,0.3,1s0.6,0.2,1.1,0v1.2
			c-0.7,0.1-1.3,0-1.6-0.2c-0.3-0.3-0.5-0.7-0.6-1.3h-0.2c-0.2,0.5-0.5,0.9-1,1.2S75.5,52.7,74.9,52.7z M75,51.5
			c0.4,0,0.9-0.1,1.3-0.3s0.7-0.6,1-1.2v-1.7h-2.2c-0.5,0-0.8,0.1-1.1,0.3c-0.3,0.2-0.4,0.6-0.4,1.2c0,0.5,0.1,0.9,0.4,1.2
			C74.2,51.4,74.5,51.5,75,51.5z"/>
		<path fill="#1E193B" d="M85.6,52.6c-0.9,0-1.5-0.3-2-0.9s-0.7-1.4-0.7-2.5v-9.8h1.3v9.8c0,0.7,0.1,1.2,0.4,1.6
			c0.2,0.4,0.6,0.5,1.1,0.5c0.1,0,0.3,0,0.4-0.1c0.2,0,0.3-0.1,0.4-0.2l0.2,1.1c-0.2,0.1-0.3,0.1-0.5,0.2
			C86,52.6,85.8,52.6,85.6,52.6z"/>
		<path fill="#1E193B" d="M92.5,52.6c-0.9,0-1.5-0.3-2-0.9s-0.7-1.4-0.7-2.5v-9.8H91v9.8c0,0.7,0.1,1.2,0.4,1.6
			c0.2,0.4,0.6,0.5,1.1,0.5c0.1,0,0.3,0,0.4-0.1c0.2,0,0.3-0.1,0.4-0.2l0.2,1.1c-0.2,0.1-0.3,0.1-0.5,0.2
			C92.9,52.6,92.7,52.6,92.5,52.6z"/>
		<path fill="#1E193B" d="M104.9,52.6V44h-1.5v-1.2h1.5V42c0-0.8,0.2-1.4,0.6-1.8c0.4-0.4,0.9-0.6,1.5-0.6c0.2,0,0.5,0,0.9,0.1
			s0.6,0.2,0.8,0.3l-0.2,1.1c-0.2-0.1-0.4-0.1-0.6-0.2c-0.2-0.1-0.4-0.1-0.6-0.1c-0.3,0-0.6,0.1-0.8,0.3c-0.2,0.2-0.3,0.4-0.3,0.8
			v0.9h2.5V44h-2.5v8.6H104.9z"/>
		<path fill="#1E193B" d="M114.8,52.7c-1,0-1.7-0.3-2.3-1c-0.5-0.6-0.8-1.6-0.8-2.8v-2.6c0-1.2,0.3-2.2,0.8-2.8c0.5-0.7,1.3-1,2.3-1
			s1.8,0.3,2.3,1s0.8,1.6,0.8,2.8V49c0,1.2-0.3,2.1-0.8,2.8C116.6,52.4,115.8,52.7,114.8,52.7z M114.8,51.5c0.6,0,1.1-0.2,1.4-0.6
			c0.3-0.4,0.5-1,0.5-1.9v-2.6c0-0.9-0.1-1.5-0.5-2c-0.3-0.4-0.8-0.6-1.4-0.6s-1.1,0.2-1.4,0.6c-0.3,0.4-0.4,1.1-0.4,2V49
			c0,0.8,0.1,1.5,0.4,1.9S114.2,51.5,114.8,51.5z"/>
		<path fill="#1E193B" d="M121.1,52.6v-9.8h1.3V44h0.4c0.1-0.5,0.4-0.8,0.8-1.1c0.4-0.2,0.8-0.3,1.2-0.3c0.5,0,1,0.2,1.3,0.6
			c0.3,0.4,0.5,1,0.5,1.7v1.8h-1.2V45c0-0.4-0.1-0.7-0.3-0.9c-0.2-0.2-0.4-0.3-0.7-0.3c-0.3,0-0.7,0.1-1.1,0.4
			c-0.4,0.3-0.7,0.7-0.9,1.1v7.2L121.1,52.6L121.1,52.6z"/>
		<path fill="#1E193B" d="M139.8,52.7c-0.3,0-0.6,0-0.9-0.1c-0.3-0.1-0.6-0.2-0.9-0.4v3.6h-1.3V42.7h1.3V44h0.4
			c0.2-0.4,0.4-0.8,0.8-1c0.4-0.2,0.8-0.4,1.4-0.4c0.7,0,1.3,0.3,1.7,0.9s0.6,1.4,0.6,2.5v3.3c0,1.1-0.3,1.9-0.9,2.5
			C141.6,52.4,140.8,52.7,139.8,52.7z M139.8,51.6c0.7,0,1.2-0.2,1.5-0.5c0.3-0.4,0.4-1,0.4-1.8v-3.4c0-0.7-0.1-1.3-0.3-1.6
			s-0.6-0.5-1.1-0.5s-0.9,0.1-1.2,0.4s-0.7,0.7-1,1.3v5.4c0.2,0.2,0.5,0.4,0.8,0.5C139.1,51.5,139.4,51.6,139.8,51.6z"/>
		<path fill="#1E193B" d="M146.2,52.6v-9.8h1.3V44h0.4c0.1-0.5,0.4-0.8,0.8-1.1c0.4-0.2,0.8-0.3,1.2-0.3c0.5,0,1,0.2,1.3,0.6
			c0.3,0.4,0.5,1,0.5,1.7v1.8h-1.2V45c0-0.4-0.1-0.7-0.3-0.9s-0.4-0.3-0.7-0.3s-0.7,0.1-1.1,0.4c-0.4,0.3-0.7,0.7-0.9,1.1v7.2
			L146.2,52.6L146.2,52.6z"/>
		<path fill="#1E193B" d="M157.4,52.7c-1,0-1.7-0.3-2.3-1c-0.5-0.6-0.8-1.6-0.8-2.8v-2.6c0-1.2,0.3-2.2,0.8-2.8c0.5-0.7,1.3-1,2.3-1
			s1.8,0.3,2.3,1s0.8,1.6,0.8,2.8V49c0,1.2-0.3,2.1-0.8,2.8C159.1,52.4,158.4,52.7,157.4,52.7z M157.4,51.5c0.6,0,1.1-0.2,1.4-0.6
			c0.3-0.4,0.5-1,0.5-1.9v-2.6c0-0.9-0.1-1.5-0.5-2c-0.3-0.4-0.8-0.6-1.4-0.6c-0.6,0-1.1,0.2-1.4,0.6c-0.3,0.4-0.4,1.1-0.4,2V49
			c0,0.8,0.1,1.5,0.4,1.9S156.7,51.5,157.4,51.5z"/>
		<path fill="#1E193B" d="M166.6,52.7c-0.3,0-0.6,0-0.9-0.1c-0.3-0.1-0.6-0.2-0.9-0.4v3.6h-1.3V42.7h1.3V44h0.4
			c0.2-0.4,0.4-0.8,0.8-1c0.4-0.2,0.8-0.4,1.4-0.4c0.7,0,1.3,0.3,1.7,0.9s0.6,1.4,0.6,2.5v3.3c0,1.1-0.3,1.9-0.9,2.5
			C168.4,52.4,167.6,52.7,166.6,52.7z M166.6,51.6c0.7,0,1.2-0.2,1.5-0.5c0.3-0.4,0.4-1,0.4-1.8v-3.4c0-0.7-0.1-1.3-0.3-1.6
			s-0.6-0.5-1.1-0.5s-0.9,0.1-1.2,0.4s-0.7,0.7-1,1.3v5.4c0.2,0.2,0.5,0.4,0.8,0.5C165.9,51.5,166.3,51.6,166.6,51.6z"/>
		<path fill="#1E193B" d="M176,52.7c-1,0-1.7-0.3-2.3-1c-0.5-0.6-0.8-1.6-0.8-2.8v-2.6c0-1.2,0.3-2.2,0.8-2.8c0.5-0.7,1.3-1,2.3-1
			s1.8,0.3,2.3,1s0.8,1.6,0.8,2.8V49c0,1.2-0.3,2.1-0.8,2.8C177.8,52.4,177,52.7,176,52.7z M176,51.5c0.6,0,1.1-0.2,1.4-0.6
			c0.3-0.4,0.5-1,0.5-1.9v-2.6c0-0.9-0.1-1.5-0.5-2c-0.3-0.4-0.8-0.6-1.4-0.6c-0.6,0-1.1,0.2-1.4,0.6c-0.3,0.4-0.4,1.1-0.4,2V49
			c0,0.8,0.1,1.5,0.4,1.9S175.4,51.5,176,51.5z"/>
		<path fill="#1E193B" d="M185.5,52.7c-0.6,0-1.2-0.1-1.8-0.3s-1.1-0.5-1.6-0.9l0.5-1.1c0.4,0.3,0.8,0.5,1.3,0.7s1,0.3,1.5,0.3
			c0.6,0,1-0.1,1.3-0.4c0.3-0.2,0.4-0.6,0.4-1.1c0-0.6-0.1-1-0.4-1.2c-0.3-0.2-0.8-0.4-1.6-0.6c-0.9-0.2-1.7-0.6-2.2-1
			s-0.7-1.1-0.7-2c0-0.8,0.3-1.4,0.8-1.9s1.2-0.7,2-0.7c0.5,0,1.1,0.1,1.7,0.3c0.6,0.2,1.1,0.5,1.5,0.9l-0.5,1.1
			c-0.3-0.3-0.8-0.5-1.2-0.8c-0.5-0.2-0.9-0.4-1.4-0.4s-0.9,0.1-1.1,0.4c-0.3,0.3-0.4,0.6-0.4,1.1c0,0.6,0.2,1,0.5,1.2
			s0.9,0.4,1.6,0.7c1,0.3,1.7,0.6,2.2,1s0.7,1.1,0.7,2c0,0.8-0.3,1.4-0.9,1.9C187.1,52.5,186.4,52.7,185.5,52.7z"/>
		<path fill="#1E193B" d="M194.2,52.7c-0.8,0-1.4-0.2-1.8-0.7c-0.4-0.5-0.7-1.2-0.7-2c0-0.9,0.2-1.5,0.7-2s1.1-0.7,1.9-0.7h2.4v-1.7
			c0-0.5-0.1-0.9-0.4-1.3s-0.7-0.5-1.3-0.5s-1.1,0.1-1.3,0.4c-0.3,0.3-0.5,0.8-0.6,1.5l-1.1-0.4c0.1-0.9,0.5-1.6,0.9-2
			c0.5-0.5,1.2-0.7,2-0.7c0.9,0,1.6,0.2,2.1,0.7c0.6,0.4,0.9,1.1,0.9,2v5.1c0,0.5,0.1,0.8,0.3,1s0.6,0.2,1.1,0v1.2
			c-0.7,0.1-1.3,0-1.6-0.2c-0.3-0.3-0.5-0.7-0.6-1.3h-0.2c-0.2,0.5-0.5,0.9-1,1.2S194.8,52.7,194.2,52.7z M194.3,51.5
			c0.4,0,0.9-0.1,1.3-0.3c0.4-0.2,0.7-0.6,1-1.2v-1.7h-2.2c-0.5,0-0.8,0.1-1.1,0.3s-0.4,0.6-0.4,1.2c0,0.5,0.1,0.9,0.4,1.2
			C193.4,51.4,193.8,51.5,194.3,51.5z"/>
		<path fill="#1E193B" d="M204.9,52.6c-0.9,0-1.5-0.3-2-0.9s-0.7-1.4-0.7-2.5v-9.8h1.3v9.8c0,0.7,0.1,1.2,0.4,1.6
			c0.2,0.4,0.6,0.5,1.1,0.5c0.1,0,0.3,0,0.4-0.1c0.2,0,0.3-0.1,0.4-0.2l0.2,1.1c-0.2,0.1-0.3,0.1-0.5,0.2
			C205.3,52.6,205.1,52.6,204.9,52.6z"/>
		<path fill="#1E193B" d="M211.6,52.7c-0.6,0-1.2-0.1-1.8-0.3s-1.1-0.5-1.6-0.9l0.5-1.1c0.4,0.3,0.8,0.5,1.3,0.7s1,0.3,1.5,0.3
			c0.6,0,1-0.1,1.3-0.4c0.3-0.2,0.4-0.6,0.4-1.1c0-0.6-0.1-1-0.4-1.2c-0.3-0.2-0.8-0.4-1.6-0.6c-0.9-0.2-1.7-0.6-2.2-1
			s-0.7-1.1-0.7-2c0-0.8,0.3-1.4,0.8-1.9s1.2-0.7,2-0.7c0.5,0,1.1,0.1,1.7,0.3c0.6,0.2,1.1,0.5,1.5,0.9l-0.5,1.1
			c-0.3-0.3-0.8-0.5-1.2-0.8c-0.5-0.2-0.9-0.4-1.4-0.4s-0.9,0.1-1.1,0.4c-0.3,0.3-0.4,0.6-0.4,1.1c0,0.6,0.2,1,0.5,1.2
			s0.9,0.4,1.6,0.7c1,0.3,1.7,0.6,2.2,1s0.7,1.1,0.7,2c0,0.8-0.3,1.4-0.9,1.9C213.3,52.5,212.5,52.7,211.6,52.7z"/>
		<path fill="#1E193B" d="M65.1,76.6c-0.9,0-1.5-0.3-2-0.9s-0.7-1.4-0.7-2.5v-9.8h1.3v9.8c0,0.7,0.1,1.2,0.4,1.6
			c0.2,0.4,0.6,0.5,1.1,0.5c0.1,0,0.3,0,0.4-0.1c0.2,0,0.3-0.1,0.4-0.2l0.2,1.1c-0.2,0.1-0.3,0.1-0.5,0.2
			C65.5,76.6,65.3,76.6,65.1,76.6z"/>
		<path fill="#1E193B" d="M71.2,76.7c-0.8,0-1.4-0.2-1.8-0.7s-0.7-1.2-0.7-2c0-0.9,0.2-1.5,0.7-2s1.1-0.7,1.9-0.7h2.4v-1.7
			c0-0.5-0.1-0.9-0.4-1.3s-0.7-0.5-1.3-0.5c-0.6,0-1.1,0.1-1.3,0.4c-0.3,0.3-0.5,0.8-0.6,1.5L69,69.3c0.1-0.9,0.5-1.6,0.9-2
			c0.5-0.5,1.2-0.7,2-0.7c0.9,0,1.6,0.2,2.1,0.7c0.6,0.4,0.9,1.1,0.9,2v5.1c0,0.5,0.1,0.8,0.3,1s0.6,0.2,1.1,0v1.2
			c-0.7,0.1-1.3,0-1.6-0.2c-0.3-0.3-0.5-0.7-0.6-1.3h-0.2c-0.2,0.5-0.5,0.9-1,1.2S71.8,76.7,71.2,76.7z M71.4,75.5
			c0.4,0,0.9-0.1,1.3-0.3c0.4-0.2,0.7-0.6,1-1.2v-1.7h-2.2c-0.5,0-0.8,0.1-1.1,0.3c-0.3,0.2-0.4,0.6-0.4,1.2c0,0.5,0.1,0.9,0.4,1.2
			C70.5,75.4,70.8,75.5,71.4,75.5z"/>
		<path fill="#1E193B" d="M81.6,76.7c-0.7,0-1.3-0.3-1.7-0.8c-0.4-0.6-0.7-1.3-0.7-2.2v-7h1.3v6.7c0,0.6,0.1,1.1,0.4,1.5
			c0.2,0.4,0.6,0.5,1.1,0.5c0.4,0,0.8-0.1,1.2-0.4c0.4-0.3,0.7-0.6,1-1.1v-7.2h1.3v9.8h-1.3v-1.2h-0.4c-0.1,0.4-0.4,0.7-0.8,1
			S82.1,76.7,81.6,76.7z"/>
		<path fill="#1E193B" d="M88.6,76.6v-9.8h1.3V68h0.4c0.2-0.4,0.5-0.7,0.9-1s0.8-0.4,1.3-0.4c0.7,0,1.3,0.3,1.7,0.9
			c0.5,0.6,0.7,1.3,0.7,2.1v7h-1.3v-6.7c0-0.6-0.1-1.1-0.4-1.5s-0.6-0.5-1-0.5S91.4,68,91,68.3c-0.4,0.3-0.7,0.6-1,1.1v7.2H88.6z"/>
		<path fill="#1E193B" d="M101.2,76.7c-1.1,0-1.9-0.3-2.5-0.9c-0.5-0.6-0.8-1.4-0.8-2.5V70c0-1.1,0.3-2,0.9-2.6s1.4-0.9,2.4-0.9
			s1.7,0.3,2.2,0.8s0.8,1.4,0.9,2.5h-1.2c0-0.7-0.2-1.3-0.5-1.6c-0.3-0.3-0.8-0.5-1.4-0.5c-0.7,0-1.2,0.2-1.5,0.5
			c-0.3,0.4-0.5,0.9-0.5,1.7v3.4c0,0.7,0.2,1.2,0.5,1.6c0.3,0.3,0.8,0.5,1.5,0.5c0.6,0,1-0.1,1.3-0.4s0.5-0.7,0.5-1.3h1.2
			c-0.1,1.1-0.3,1.8-0.8,2.3C102.9,76.5,102.2,76.7,101.2,76.7z"/>
		<path fill="#1E193B" d="M107.3,76.6V63.5h1.3V68h0.4c0.2-0.4,0.5-0.8,0.9-1c0.4-0.3,0.8-0.4,1.2-0.4c0.7,0,1.3,0.3,1.7,0.8
			s0.7,1.3,0.7,2.2v7h-1.3v-6.7c0-0.7-0.1-1.2-0.4-1.5c-0.2-0.3-0.6-0.5-1.1-0.5c-0.4,0-0.8,0.1-1.2,0.4c-0.4,0.3-0.7,0.6-1,1.1v7.2
			H107.3z"/>
		<path fill="#1E193B" d="M122.9,74.5c-0.2,0.8-0.6,1.4-1.1,1.7c-0.5,0.3-1.2,0.5-2,0.5c-1,0-1.7-0.3-2.3-0.9
			c-0.6-0.6-0.8-1.4-0.8-2.5V70c0-1.1,0.3-1.9,0.8-2.5s1.3-0.9,2.3-0.9s1.7,0.3,2.3,0.9c0.5,0.6,0.8,1.5,0.8,2.6v1.7H118v1.5
			c0,0.8,0.2,1.3,0.5,1.6c0.3,0.3,0.8,0.5,1.4,0.5s1-0.1,1.3-0.4c0.3-0.2,0.5-0.6,0.6-1.1L122.9,74.5z M117.9,70v0.8h3.6v-0.6
			c0-0.8-0.1-1.4-0.5-1.8c-0.3-0.4-0.8-0.6-1.4-0.6s-1.1,0.2-1.4,0.6S117.9,69.3,117.9,70z"/>
		<path fill="#1E193B" d="M130.5,75.3c-0.2,0.4-0.4,0.8-0.8,1s-0.8,0.4-1.4,0.4c-0.8,0-1.3-0.3-1.8-0.9s-0.6-1.4-0.6-2.5V70
			c0-1.1,0.3-2,0.8-2.6c0.6-0.6,1.3-0.9,2.3-0.9c0.3,0,0.6,0,0.9,0.1c0.3,0.1,0.6,0.2,0.9,0.4v-3.6h1.3v13.1h-1.3v-1.2H130.5z
			 M128.7,75.5c0.5,0,0.9-0.1,1.2-0.4c0.4-0.3,0.7-0.7,1-1.3v-5.4c-0.2-0.2-0.5-0.4-0.8-0.5s-0.6-0.2-0.9-0.2
			c-0.6,0-1.1,0.2-1.4,0.6c-0.3,0.4-0.5,1-0.5,1.7v3.4c0,0.7,0.1,1.2,0.3,1.6C127.8,75.3,128.2,75.5,128.7,75.5z"/>
		<path fill="#1E193B" d="M138.3,76.7c-0.4,0-0.8-0.1-1-0.3c-0.3-0.2-0.4-0.6-0.4-1.1V75c0-0.5,0.1-0.9,0.4-1.1
			c0.3-0.2,0.6-0.3,1-0.3s0.7,0.1,1,0.3s0.4,0.6,0.4,1.1v0.3c0,0.5-0.1,0.8-0.4,1.1C139,76.6,138.7,76.7,138.3,76.7z"/>
	</g>
</g>
<g>
	<g>
		<path fill="#1E193B" d="M60.8,172.9v-13.1h3.4c1.3,0,2.3,0.4,3,1.2s1.1,1.8,1.1,3.2v4.5c0,1.3-0.4,2.3-1.1,3.1s-1.7,1.2-3,1.2
			L60.8,172.9L60.8,172.9z M62.1,171.7h2.1c0.9,0,1.6-0.3,2.1-0.8s0.7-1.3,0.7-2.3v-4.5c0-1-0.2-1.8-0.7-2.3
			c-0.5-0.6-1.2-0.9-2.1-0.9h-2.1V171.7z"/>
		<path fill="#1E193B" d="M77.6,170.8c-0.2,0.8-0.6,1.4-1.1,1.7s-1.2,0.5-2,0.5c-1,0-1.7-0.3-2.3-0.9c-0.6-0.6-0.8-1.4-0.8-2.5v-3.4
			c0-1.1,0.3-1.9,0.8-2.5s1.3-0.9,2.3-0.9s1.7,0.3,2.3,0.9c0.5,0.6,0.8,1.5,0.8,2.6v1.7h-4.9v1.5c0,0.8,0.2,1.3,0.5,1.6
			s0.8,0.5,1.4,0.5s1-0.1,1.3-0.4c0.3-0.2,0.5-0.6,0.6-1.1L77.6,170.8z M72.6,166.3v0.8h3.6v-0.6c0-0.8-0.1-1.4-0.5-1.8
			c-0.3-0.4-0.8-0.6-1.4-0.6s-1.1,0.2-1.4,0.6S72.6,165.6,72.6,166.3z"/>
		<path fill="#1E193B" d="M83.2,173c-0.8,0-1.4-0.2-1.8-0.7s-0.7-1.2-0.7-2c0-0.9,0.2-1.5,0.7-2s1.1-0.7,1.9-0.7h2.4v-1.7
			c0-0.5-0.1-0.9-0.4-1.3s-0.7-0.5-1.3-0.5c-0.6,0-1.1,0.1-1.3,0.4c-0.3,0.3-0.5,0.8-0.6,1.5l-1.1-0.4c0.1-0.9,0.5-1.6,0.9-2
			c0.5-0.5,1.2-0.7,2-0.7c0.9,0,1.6,0.2,2.1,0.7c0.6,0.4,0.9,1.1,0.9,2v5.1c0,0.5,0.1,0.8,0.3,1s0.6,0.2,1.1,0v1.2
			c-0.7,0.1-1.3,0-1.6-0.2c-0.3-0.3-0.5-0.7-0.6-1.3h-0.2c-0.2,0.5-0.5,0.9-1,1.2S83.8,173,83.2,173z M83.4,171.8
			c0.4,0,0.9-0.1,1.3-0.3s0.7-0.6,1-1.2v-1.7h-2.2c-0.5,0-0.8,0.1-1.1,0.3c-0.3,0.2-0.4,0.6-0.4,1.2c0,0.5,0.1,0.9,0.4,1.2
			C82.5,171.7,82.9,171.8,83.4,171.8z"/>
		<path fill="#1E193B" d="M95.8,171.6c-0.2,0.4-0.4,0.8-0.8,1s-0.8,0.4-1.4,0.4c-0.8,0-1.3-0.3-1.8-0.9s-0.6-1.4-0.6-2.5v-3.3
			c0-1.1,0.3-2,0.8-2.6c0.6-0.6,1.3-0.9,2.3-0.9c0.3,0,0.6,0,0.9,0.1s0.6,0.2,0.9,0.4v-3.6h1.3v13.1h-1.3v-1.2H95.8z M94,171.8
			c0.5,0,0.9-0.1,1.2-0.4c0.4-0.3,0.7-0.7,1-1.3v-5.4c-0.2-0.2-0.5-0.4-0.8-0.5s-0.6-0.2-0.9-0.2c-0.6,0-1.1,0.2-1.4,0.6
			c-0.3,0.4-0.5,1-0.5,1.7v3.4c0,0.7,0.1,1.2,0.3,1.6C93.1,171.6,93.5,171.8,94,171.8z"/>
		<path fill="#1E193B" d="M103.9,172.9c-0.9,0-1.5-0.3-2-0.9s-0.7-1.4-0.7-2.5v-9.8h1.3v9.8c0,0.7,0.1,1.2,0.4,1.6
			c0.2,0.4,0.6,0.5,1.1,0.5c0.1,0,0.3,0,0.4-0.1c0.2,0,0.3-0.1,0.4-0.2l0.2,1.1c-0.2,0.1-0.3,0.1-0.5,0.2
			C104.3,172.9,104.1,172.9,103.9,172.9z"/>
		<path fill="#1E193B" d="M109.2,161.1c-0.3,0-0.6-0.1-0.8-0.2s-0.3-0.3-0.3-0.7v-0.1c0-0.3,0.1-0.6,0.3-0.7
			c0.2-0.1,0.5-0.2,0.8-0.2s0.6,0.1,0.8,0.2c0.2,0.1,0.3,0.3,0.3,0.7v0.1c0,0.3-0.1,0.5-0.3,0.7
			C109.8,161.1,109.5,161.1,109.2,161.1z M108.6,172.9V163h1.3v9.8L108.6,172.9L108.6,172.9z"/>
		<path fill="#1E193B" d="M114.1,172.9V163h1.3v1.2h0.4c0.2-0.4,0.5-0.7,0.9-1s0.8-0.4,1.3-0.4c0.7,0,1.3,0.3,1.7,0.9
			c0.5,0.6,0.7,1.3,0.7,2.1v7H119v-6.7c0-0.6-0.1-1.1-0.4-1.5s-0.6-0.5-1-0.5s-0.8,0.1-1.2,0.4c-0.4,0.3-0.7,0.6-1,1.1v7.2
			L114.1,172.9L114.1,172.9z"/>
		<path fill="#1E193B" d="M129.7,170.8c-0.2,0.8-0.6,1.4-1.1,1.7s-1.2,0.5-2,0.5c-1,0-1.7-0.3-2.3-0.9c-0.6-0.6-0.8-1.4-0.8-2.5
			v-3.4c0-1.1,0.3-1.9,0.8-2.5s1.3-0.9,2.3-0.9s1.7,0.3,2.3,0.9c0.5,0.6,0.8,1.5,0.8,2.6v1.7h-4.9v1.5c0,0.8,0.2,1.3,0.5,1.6
			s0.8,0.5,1.4,0.5s1-0.1,1.3-0.4c0.3-0.2,0.5-0.6,0.6-1.1L129.7,170.8z M124.8,166.3v0.8h3.6v-0.6c0-0.8-0.1-1.4-0.5-1.8
			c-0.3-0.4-0.8-0.6-1.4-0.6s-1.1,0.2-1.4,0.6S124.8,165.6,124.8,166.3z"/>
		<path fill="#1E193B" d="M141.6,172.9v-8.6h-1.5V163h1.5v-0.8c0-0.8,0.2-1.4,0.6-1.8c0.4-0.4,0.9-0.6,1.5-0.6c0.2,0,0.5,0,0.9,0.1
			s0.6,0.2,0.8,0.3l-0.2,1.1c-0.2-0.1-0.4-0.1-0.6-0.2c-0.2-0.1-0.4-0.1-0.6-0.1c-0.3,0-0.6,0.1-0.8,0.3s-0.3,0.4-0.3,0.8v0.9h2.5
			v1.2h-2.5v8.6L141.6,172.9L141.6,172.9z"/>
		<path fill="#1E193B" d="M151.6,173c-1,0-1.7-0.3-2.3-1c-0.5-0.6-0.8-1.6-0.8-2.8v-2.6c0-1.2,0.3-2.2,0.8-2.8c0.5-0.7,1.3-1,2.3-1
			s1.8,0.3,2.3,1s0.8,1.6,0.8,2.8v2.6c0,1.2-0.3,2.1-0.8,2.8C153.4,172.7,152.6,173,151.6,173z M151.6,171.8c0.6,0,1.1-0.2,1.4-0.6
			c0.3-0.4,0.5-1,0.5-1.9v-2.6c0-0.9-0.1-1.5-0.5-2c-0.3-0.4-0.8-0.6-1.4-0.6c-0.6,0-1.1,0.2-1.4,0.6c-0.3,0.4-0.4,1.1-0.4,2v2.6
			c0,0.8,0.1,1.5,0.4,1.9S151,171.8,151.6,171.8z"/>
		<path fill="#1E193B" d="M157.9,172.9V163h1.3v1.2h0.4c0.1-0.5,0.4-0.8,0.8-1.1c0.4-0.2,0.8-0.3,1.2-0.3c0.5,0,1,0.2,1.3,0.6
			c0.3,0.4,0.5,1,0.5,1.7v1.8h-1.2v-1.7c0-0.4-0.1-0.7-0.3-0.9s-0.4-0.3-0.7-0.3s-0.7,0.1-1.1,0.4c-0.4,0.3-0.7,0.7-0.9,1.1v7.2
			h-1.3V172.9z"/>
		<path fill="#1E193B" d="M176.8,173c-0.6,0-1.2-0.1-1.8-0.3s-1.1-0.5-1.6-0.9l0.5-1.1c0.4,0.3,0.8,0.5,1.3,0.7s1,0.3,1.5,0.3
			c0.6,0,1-0.1,1.3-0.4c0.3-0.2,0.4-0.6,0.4-1.1c0-0.6-0.1-1-0.4-1.2c-0.3-0.2-0.8-0.4-1.6-0.6c-0.9-0.2-1.7-0.6-2.2-1
			s-0.7-1.1-0.7-2c0-0.8,0.3-1.4,0.8-1.9s1.2-0.7,2-0.7c0.5,0,1.1,0.1,1.7,0.3c0.6,0.2,1.1,0.5,1.5,0.9l-0.5,1.1
			c-0.3-0.3-0.8-0.5-1.2-0.8c-0.5-0.2-0.9-0.4-1.4-0.4s-0.9,0.1-1.1,0.4c-0.3,0.3-0.4,0.6-0.4,1.1c0,0.6,0.2,1,0.5,1.2
			s0.9,0.4,1.6,0.7c1,0.3,1.7,0.6,2.2,1s0.7,1.1,0.7,2c0,0.8-0.3,1.4-0.9,1.9C178.4,172.8,177.7,173,176.8,173z"/>
		<path fill="#1E193B" d="M189.2,170.8c-0.2,0.8-0.6,1.4-1.1,1.7s-1.2,0.5-2,0.5c-1,0-1.7-0.3-2.3-0.9c-0.6-0.6-0.8-1.4-0.8-2.5
			v-3.4c0-1.1,0.3-1.9,0.8-2.5s1.3-0.9,2.3-0.9s1.7,0.3,2.3,0.9c0.5,0.6,0.8,1.5,0.8,2.6v1.7h-4.9v1.5c0,0.8,0.2,1.3,0.5,1.6
			s0.8,0.5,1.4,0.5c0.6,0,1-0.1,1.3-0.4c0.3-0.2,0.5-0.6,0.6-1.1L189.2,170.8z M184.2,166.3v0.8h3.6v-0.6c0-0.8-0.1-1.4-0.5-1.8
			c-0.3-0.4-0.8-0.6-1.4-0.6c-0.6,0-1.1,0.2-1.4,0.6S184.2,165.6,184.2,166.3z"/>
		<path fill="#1E193B" d="M192.3,172.9V163h1.3v1.2h0.4c0.2-0.4,0.5-0.7,0.9-1s0.8-0.4,1.3-0.4c0.7,0,1.3,0.3,1.7,0.9
			c0.5,0.6,0.7,1.3,0.7,2.1v7h-1.3v-6.7c0-0.6-0.1-1.1-0.4-1.5c-0.3-0.4-0.6-0.5-1-0.5s-0.8,0.1-1.2,0.4c-0.4,0.3-0.7,0.6-1,1.1v7.2
			L192.3,172.9L192.3,172.9z"/>
		<path fill="#1E193B" d="M206.2,171.6c-0.2,0.4-0.4,0.8-0.8,1s-0.8,0.4-1.4,0.4c-0.8,0-1.3-0.3-1.8-0.9s-0.6-1.4-0.6-2.5v-3.3
			c0-1.1,0.3-2,0.8-2.6c0.6-0.6,1.3-0.9,2.3-0.9c0.3,0,0.6,0,0.9,0.1c0.3,0.1,0.6,0.2,0.9,0.4v-3.6h1.3v13.1h-1.3v-1.2H206.2z
			 M204.3,171.8c0.5,0,0.9-0.1,1.2-0.4c0.4-0.3,0.7-0.7,1-1.3v-5.4c-0.2-0.2-0.5-0.4-0.8-0.5s-0.6-0.2-0.9-0.2
			c-0.6,0-1.1,0.2-1.4,0.6c-0.3,0.4-0.5,1-0.5,1.7v3.4c0,0.7,0.1,1.2,0.3,1.6C203.5,171.6,203.8,171.8,204.3,171.8z"/>
		<path fill="#1E193B" d="M212.7,161.1c-0.3,0-0.6-0.1-0.8-0.2s-0.3-0.3-0.3-0.7v-0.1c0-0.3,0.1-0.6,0.3-0.7
			c0.2-0.1,0.5-0.2,0.8-0.2s0.6,0.1,0.8,0.2c0.2,0.1,0.3,0.3,0.3,0.7v0.1c0,0.3-0.1,0.5-0.3,0.7C213.2,161.1,213,161.1,212.7,161.1z
			 M212.1,172.9V163h1.3v9.8L212.1,172.9L212.1,172.9z"/>
		<path fill="#1E193B" d="M217.6,172.9V163h1.3v1.2h0.4c0.2-0.4,0.5-0.7,0.9-1s0.8-0.4,1.3-0.4c0.7,0,1.3,0.3,1.7,0.9
			c0.5,0.6,0.7,1.3,0.7,2.1v7h-1.3v-6.7c0-0.6-0.1-1.1-0.4-1.5c-0.3-0.4-0.6-0.5-1-0.5s-0.8,0.1-1.2,0.4c-0.4,0.3-0.7,0.6-1,1.1v7.2
			L217.6,172.9L217.6,172.9z"/>
		<path fill="#1E193B" d="M234.3,173.8c0,0.9-0.2,1.5-0.7,1.9s-1.1,0.6-1.8,0.6h-2.3c-0.7,0-1.4-0.2-1.8-0.6c-0.5-0.4-0.7-1-0.7-1.9
			c0-0.5,0.1-0.9,0.3-1.2s0.5-0.5,0.9-0.5v-0.3c-0.3,0-0.5-0.2-0.7-0.4c-0.2-0.3-0.3-0.6-0.3-1.2c0-0.4,0.1-0.8,0.3-1.2
			s0.6-0.6,1.1-0.6V168c-0.4-0.2-0.7-0.5-0.8-0.8s-0.2-0.7-0.2-0.9v-0.6c0-0.8,0.2-1.4,0.7-1.9s1.2-0.8,2.1-0.8h3.6v1.4l-1.9-0.5
			v0.3c0.3,0.1,0.6,0.4,0.8,0.7s0.3,0.7,0.3,1v0.5c0,0.7-0.2,1.3-0.7,1.8c-0.4,0.5-1.2,0.7-2.1,0.7h-1.5c-0.2,0-0.4,0.1-0.5,0.2
			c-0.1,0.2-0.2,0.4-0.2,0.8c0,0.4,0.1,0.6,0.2,0.8c0.2,0.2,0.4,0.3,0.7,0.3h2.8c0.7,0,1.3,0.2,1.7,0.6
			C234.1,172.2,234.3,172.8,234.3,173.8z M229.5,175.1h2.5c0.4,0,0.7-0.1,0.9-0.3s0.3-0.6,0.3-1.1s-0.1-0.8-0.3-1s-0.5-0.3-0.8-0.3
			h-3.9v1.2c0,0.5,0.1,0.9,0.3,1.1C228.7,175,229,175.1,229.5,175.1z M230.4,167.9c0.5,0,0.9-0.1,1.1-0.4c0.3-0.2,0.4-0.7,0.4-1.2
			v-0.5c0-0.6-0.1-1-0.4-1.2c-0.3-0.2-0.6-0.4-1.1-0.4s-0.9,0.1-1.1,0.4c-0.3,0.2-0.4,0.6-0.4,1.2v0.5c0,0.6,0.1,1,0.4,1.2
			C229.5,167.8,229.9,167.9,230.4,167.9z"/>
		<path fill="#1E193B" d="M63.8,197c-0.3,0-0.6,0-0.9-0.1c-0.3-0.1-0.6-0.2-0.9-0.4v3.6h-1.3V187H62v1.2h0.4c0.2-0.4,0.4-0.8,0.8-1
			c0.4-0.2,0.8-0.4,1.4-0.4c0.7,0,1.3,0.3,1.7,0.9s0.6,1.4,0.6,2.5v3.3c0,1.1-0.3,1.9-0.9,2.5C65.6,196.7,64.8,197,63.8,197z
			 M63.8,195.9c0.7,0,1.2-0.2,1.5-0.5c0.3-0.4,0.4-1,0.4-1.8v-3.4c0-0.7-0.1-1.3-0.3-1.6s-0.6-0.5-1.1-0.5s-0.9,0.1-1.2,0.4
			s-0.7,0.7-1,1.3v5.4c0.2,0.2,0.5,0.4,0.8,0.5C63.1,195.8,63.4,195.9,63.8,195.9z"/>
		<path fill="#1E193B" d="M70.1,196.9V187h1.3v1.2h0.4c0.1-0.5,0.4-0.8,0.8-1.1c0.4-0.2,0.8-0.3,1.2-0.3c0.5,0,1,0.2,1.3,0.6
			c0.3,0.4,0.5,1,0.5,1.7v1.8h-1.2v-1.7c0-0.4-0.1-0.7-0.3-0.9c-0.2-0.2-0.4-0.3-0.7-0.3c-0.3,0-0.7,0.1-1.1,0.4
			c-0.4,0.3-0.7,0.7-0.9,1.1v7.2h-1.3V196.9z"/>
		<path fill="#1E193B" d="M81.3,197c-1,0-1.7-0.3-2.3-1c-0.5-0.6-0.8-1.6-0.8-2.8v-2.6c0-1.2,0.3-2.2,0.8-2.8c0.5-0.7,1.3-1,2.3-1
			s1.8,0.3,2.3,1s0.8,1.6,0.8,2.8v2.6c0,1.2-0.3,2.1-0.8,2.8C83.1,196.7,82.3,197,81.3,197z M81.3,195.8c0.6,0,1.1-0.2,1.4-0.6
			c0.3-0.4,0.5-1,0.5-1.9v-2.6c0-0.9-0.1-1.5-0.5-2c-0.3-0.4-0.8-0.6-1.4-0.6s-1.1,0.2-1.4,0.6c-0.3,0.4-0.4,1.1-0.4,2v2.6
			c0,0.8,0.1,1.5,0.4,1.9S80.7,195.8,81.3,195.8z"/>
		<path fill="#1E193B" d="M90.6,197c-0.3,0-0.6,0-0.9-0.1s-0.6-0.2-0.9-0.4v3.6h-1.3V187h1.3v1.2h0.4c0.2-0.4,0.4-0.8,0.8-1
			s0.8-0.4,1.4-0.4c0.7,0,1.3,0.3,1.7,0.9s0.6,1.4,0.6,2.5v3.3c0,1.1-0.3,1.9-0.9,2.5C92.4,196.7,91.6,197,90.6,197z M90.6,195.9
			c0.7,0,1.2-0.2,1.5-0.5c0.3-0.4,0.4-1,0.4-1.8v-3.4c0-0.7-0.1-1.3-0.3-1.6s-0.6-0.5-1.1-0.5s-0.9,0.1-1.2,0.4s-0.7,0.7-1,1.3v5.4
			c0.2,0.2,0.5,0.4,0.8,0.5C89.9,195.8,90.2,195.9,90.6,195.9z"/>
		<path fill="#1E193B" d="M100,197c-1,0-1.7-0.3-2.3-1c-0.5-0.6-0.8-1.6-0.8-2.8v-2.6c0-1.2,0.3-2.2,0.8-2.8c0.5-0.7,1.3-1,2.3-1
			s1.8,0.3,2.3,1s0.8,1.6,0.8,2.8v2.6c0,1.2-0.3,2.1-0.8,2.8S101,197,100,197z M100,195.8c0.6,0,1.1-0.2,1.4-0.6
			c0.3-0.4,0.5-1,0.5-1.9v-2.6c0-0.9-0.1-1.5-0.5-2c-0.3-0.4-0.8-0.6-1.4-0.6s-1.1,0.2-1.4,0.6c-0.3,0.4-0.4,1.1-0.4,2v2.6
			c0,0.8,0.1,1.5,0.4,1.9S99.4,195.8,100,195.8z"/>
		<path fill="#1E193B" d="M109.5,197c-0.6,0-1.2-0.1-1.8-0.3c-0.6-0.2-1.1-0.5-1.6-0.9l0.5-1.1c0.4,0.3,0.8,0.5,1.3,0.7
			s1,0.3,1.5,0.3c0.6,0,1-0.1,1.3-0.4c0.3-0.2,0.4-0.6,0.4-1.1c0-0.6-0.1-1-0.4-1.2s-0.8-0.4-1.6-0.6c-0.9-0.2-1.7-0.6-2.2-1
			s-0.7-1.1-0.7-2c0-0.8,0.3-1.4,0.8-1.9s1.2-0.7,2-0.7c0.5,0,1.1,0.1,1.7,0.3s1.1,0.5,1.5,0.9l-0.5,1.1c-0.3-0.3-0.8-0.5-1.2-0.8
			c-0.5-0.2-0.9-0.4-1.4-0.4s-0.9,0.1-1.1,0.4c-0.3,0.3-0.4,0.6-0.4,1.1c0,0.6,0.2,1,0.5,1.2s0.9,0.4,1.6,0.7c1,0.3,1.7,0.6,2.2,1
			s0.7,1.1,0.7,2c0,0.8-0.3,1.4-0.9,1.9C111.1,196.8,110.4,197,109.5,197z"/>
		<path fill="#1E193B" d="M118.2,197c-0.8,0-1.4-0.2-1.8-0.7s-0.7-1.2-0.7-2c0-0.9,0.2-1.5,0.7-2s1.1-0.7,1.9-0.7h2.4v-1.7
			c0-0.5-0.1-0.9-0.4-1.3s-0.7-0.5-1.3-0.5c-0.6,0-1.1,0.1-1.3,0.4c-0.3,0.3-0.5,0.8-0.6,1.5l-1.1-0.4c0.1-0.9,0.5-1.6,0.9-2
			c0.5-0.5,1.2-0.7,2-0.7c0.9,0,1.6,0.2,2.1,0.7c0.6,0.4,0.9,1.1,0.9,2v5.1c0,0.5,0.1,0.8,0.3,1s0.6,0.2,1.1,0v1.2
			c-0.7,0.1-1.3,0-1.6-0.2c-0.3-0.3-0.5-0.7-0.6-1.3h-0.2c-0.2,0.5-0.5,0.9-1,1.2S118.7,197,118.2,197z M118.3,195.8
			c0.4,0,0.9-0.1,1.3-0.3s0.7-0.6,1-1.2v-1.7h-2.2c-0.5,0-0.8,0.1-1.1,0.3c-0.3,0.2-0.4,0.6-0.4,1.2c0,0.5,0.1,0.9,0.4,1.2
			C117.4,195.7,117.8,195.8,118.3,195.8z"/>
		<path fill="#1E193B" d="M128.8,196.9c-0.9,0-1.5-0.3-2-0.9s-0.7-1.4-0.7-2.5v-9.8h1.3v9.8c0,0.7,0.1,1.2,0.4,1.6
			c0.2,0.4,0.6,0.5,1.1,0.5c0.1,0,0.3,0,0.4-0.1c0.2,0,0.3-0.1,0.4-0.2l0.2,1.1c-0.2,0.1-0.3,0.1-0.5,0.2
			C129.2,196.9,129,196.9,128.8,196.9z"/>
		<path fill="#1E193B" d="M135.6,197c-0.6,0-1.2-0.1-1.8-0.3s-1.1-0.5-1.6-0.9l0.5-1.1c0.4,0.3,0.8,0.5,1.3,0.7s1,0.3,1.5,0.3
			c0.6,0,1-0.1,1.3-0.4c0.3-0.2,0.4-0.6,0.4-1.1c0-0.6-0.1-1-0.4-1.2c-0.3-0.2-0.8-0.4-1.6-0.6c-0.9-0.2-1.7-0.6-2.2-1
			s-0.7-1.1-0.7-2c0-0.8,0.3-1.4,0.8-1.9s1.2-0.7,2-0.7c0.5,0,1.1,0.1,1.7,0.3c0.6,0.2,1.1,0.5,1.5,0.9l-0.5,1.1
			c-0.3-0.3-0.8-0.5-1.2-0.8c-0.5-0.2-0.9-0.4-1.4-0.4s-0.9,0.1-1.1,0.4c-0.3,0.3-0.4,0.6-0.4,1.1c0,0.6,0.2,1,0.5,1.2
			s0.9,0.4,1.6,0.7c1,0.3,1.7,0.6,2.2,1s0.7,1.1,0.7,2c0,0.8-0.3,1.4-0.9,1.9C137.2,196.8,136.5,197,135.6,197z"/>
		<path fill="#1E193B" d="M144.7,197c-0.4,0-0.8-0.1-1-0.3c-0.3-0.2-0.4-0.6-0.4-1.1v-0.3c0-0.5,0.1-0.9,0.4-1.1
			c0.3-0.2,0.6-0.3,1-0.3s0.7,0.1,1,0.3s0.4,0.6,0.4,1.1v0.3c0,0.5-0.1,0.8-0.4,1.1C145.5,196.9,145.1,197,144.7,197z"/>
	</g>
</g>
<g>
	<g>
		<path fill="#1E193B" d="M65.7,288.8c-1.3,0-2.2-0.4-2.9-1.1c-0.6-0.7-1-1.8-1-3.3v-4.6c0-1.5,0.3-2.6,1-3.3
			c0.6-0.7,1.6-1.1,2.9-1.1c1.2,0,2.1,0.4,2.7,1.1s1,1.8,1,3.2l-1.2,0.2c-0.1-1.2-0.3-2-0.7-2.6s-1-0.8-1.8-0.8
			c-0.9,0-1.6,0.3-2,0.8s-0.6,1.3-0.6,2.5v4.7c0,1.1,0.2,1.9,0.6,2.4c0.4,0.5,1.1,0.7,2,0.7c0.8,0,1.4-0.3,1.8-0.8s0.6-1.4,0.7-2.5
			l1.2,0.2c-0.1,1.4-0.4,2.5-1.1,3.2C67.8,288.5,66.9,288.8,65.7,288.8z"/>
		<path fill="#1E193B" d="M75.5,288.8c-1,0-1.7-0.3-2.3-1c-0.5-0.6-0.8-1.6-0.8-2.8v-2.6c0-1.2,0.3-2.2,0.8-2.8c0.5-0.7,1.3-1,2.3-1
			s1.8,0.3,2.3,1s0.8,1.6,0.8,2.8v2.6c0,1.2-0.3,2.1-0.8,2.8C77.3,288.5,76.5,288.8,75.5,288.8z M75.5,287.6c0.6,0,1.1-0.2,1.4-0.6
			s0.5-1,0.5-1.9v-2.6c0-0.9-0.1-1.5-0.5-2c-0.3-0.4-0.8-0.6-1.4-0.6s-1.1,0.2-1.4,0.6s-0.4,1.1-0.4,2v2.6c0,0.8,0.1,1.5,0.4,1.9
			S74.9,287.6,75.5,287.6z"/>
		<path fill="#1E193B" d="M83.1,281.3v7.3h-1.3v-9.8h1.3v1.2h0.4c0.1-0.4,0.4-0.7,0.7-1s0.7-0.4,1.1-0.4s0.8,0.1,1.1,0.4
			c0.3,0.3,0.6,0.6,0.7,1h0.5c0.1-0.4,0.4-0.7,0.7-1c0.4-0.3,0.8-0.4,1.2-0.4c0.6,0,1.1,0.3,1.5,0.8s0.6,1.1,0.6,1.9v7.3h-1.3v-7
			c0-0.5-0.1-1-0.3-1.3c-0.2-0.3-0.4-0.5-0.8-0.5s-0.8,0.1-1.1,0.4c-0.4,0.2-0.6,0.6-0.8,1v7.3H86v-7c0-0.5-0.1-1-0.3-1.3
			c-0.2-0.3-0.5-0.5-0.8-0.5c-0.4,0-0.8,0.1-1.1,0.4C83.6,280.5,83.3,280.9,83.1,281.3z"/>
		<path fill="#1E193B" d="M96.1,281.3v7.3h-1.3v-9.8h1.3v1.2h0.4c0.1-0.4,0.4-0.7,0.7-1s0.7-0.4,1.1-0.4s0.8,0.1,1.1,0.4
			c0.3,0.3,0.6,0.6,0.7,1h0.5c0.1-0.4,0.4-0.7,0.7-1c0.4-0.3,0.8-0.4,1.2-0.4c0.6,0,1.1,0.3,1.5,0.8s0.6,1.1,0.6,1.9v7.3h-1.3v-7
			c0-0.5-0.1-1-0.3-1.3c-0.2-0.3-0.4-0.5-0.8-0.5s-0.8,0.1-1.1,0.4c-0.4,0.2-0.6,0.6-0.8,1v7.3H99v-7c0-0.5-0.1-1-0.3-1.3
			c-0.2-0.3-0.5-0.5-0.8-0.5c-0.4,0-0.8,0.1-1.1,0.4C96.6,280.5,96.3,280.9,96.1,281.3z"/>
		<path fill="#1E193B" d="M110.2,288.8c-0.7,0-1.3-0.3-1.7-0.8c-0.4-0.6-0.7-1.3-0.7-2.2v-7h1.3v6.7c0,0.6,0.1,1.1,0.4,1.5
			c0.2,0.4,0.6,0.5,1.1,0.5c0.4,0,0.8-0.1,1.2-0.4c0.4-0.3,0.7-0.6,1-1.1v-7.2h1.3v9.8h-1.3v-1.2h-0.4c-0.1,0.4-0.4,0.7-0.8,1
			C111.2,288.7,110.7,288.8,110.2,288.8z"/>
		<path fill="#1E193B" d="M117.2,288.7v-9.8h1.3v1.2h0.4c0.2-0.4,0.5-0.7,0.9-1s0.8-0.4,1.3-0.4c0.7,0,1.3,0.3,1.7,0.9
			c0.5,0.6,0.7,1.3,0.7,2.1v7h-1.3V282c0-0.6-0.1-1.1-0.4-1.5s-0.6-0.5-1-0.5s-0.8,0.1-1.2,0.4c-0.4,0.3-0.7,0.6-1,1.1v7.2H117.2z"
			/>
		<path fill="#1E193B" d="M128.3,276.9c-0.3,0-0.6-0.1-0.8-0.2c-0.2-0.1-0.3-0.3-0.3-0.7v0c0-0.3,0.1-0.6,0.3-0.7
			c0.2-0.1,0.5-0.2,0.8-0.2s0.6,0.1,0.8,0.2s0.3,0.3,0.3,0.7v0.1c0,0.3-0.1,0.5-0.3,0.7C128.8,276.9,128.6,276.9,128.3,276.9z
			 M127.6,288.7v-9.8h1.3v9.8H127.6z"/>
		<path fill="#1E193B" d="M136.4,288.8c-1.1,0-1.9-0.3-2.5-0.9c-0.5-0.6-0.8-1.4-0.8-2.5V282c0-1.1,0.3-2,0.9-2.6
			c0.6-0.6,1.4-0.9,2.4-0.9s1.7,0.3,2.2,0.8s0.8,1.4,0.9,2.5h-1.2c0-0.7-0.2-1.3-0.5-1.6c-0.3-0.3-0.8-0.5-1.4-0.5
			c-0.7,0-1.2,0.2-1.5,0.5s-0.5,0.9-0.5,1.7v3.4c0,0.7,0.2,1.2,0.5,1.6s0.8,0.5,1.5,0.5c0.6,0,1-0.1,1.3-0.4s0.5-0.7,0.5-1.3h1.2
			c-0.1,1.1-0.3,1.8-0.8,2.3C138.2,288.6,137.4,288.8,136.4,288.8z"/>
		<path fill="#1E193B" d="M145,288.8c-0.8,0-1.4-0.2-1.8-0.7s-0.7-1.2-0.7-2c0-0.9,0.2-1.5,0.7-2s1.1-0.7,1.9-0.7h2.4v-1.7
			c0-0.5-0.1-0.9-0.4-1.3s-0.7-0.5-1.3-0.5s-1.1,0.1-1.3,0.4c-0.3,0.3-0.5,0.8-0.6,1.5l-1.1-0.4c0.1-0.9,0.5-1.6,0.9-2
			c0.5-0.5,1.2-0.7,2-0.7c0.9,0,1.6,0.2,2.1,0.7c0.6,0.4,0.9,1.1,0.9,2v5.1c0,0.5,0.1,0.8,0.3,1s0.6,0.2,1.1,0v1.2
			c-0.7,0.1-1.3,0-1.6-0.2c-0.3-0.3-0.5-0.7-0.6-1.3h-0.2c-0.2,0.5-0.5,0.9-1,1.2C146.2,288.7,145.6,288.8,145,288.8z M145.2,287.6
			c0.4,0,0.9-0.1,1.3-0.3s0.7-0.6,1-1.2v-1.7h-2.2c-0.5,0-0.8,0.1-1.1,0.3c-0.3,0.2-0.4,0.6-0.4,1.2c0,0.5,0.1,0.9,0.4,1.2
			C144.3,287.5,144.7,287.6,145.2,287.6z"/>
		<path fill="#1E193B" d="M156.1,288.8c-0.8,0-1.4-0.3-1.8-0.8s-0.6-1.3-0.6-2.2V280h-1.5v-1.2h1.5v-3.3h1.3v3.3h2.7v1.2H155v6
			c0,0.5,0.1,0.9,0.4,1.2c0.2,0.3,0.5,0.4,0.9,0.4c0.2,0,0.4,0,0.6-0.1c0.2-0.1,0.4-0.1,0.7-0.2l0.2,1.2c-0.3,0.1-0.5,0.2-0.8,0.3
			C156.7,288.8,156.4,288.8,156.1,288.8z"/>
		<path fill="#1E193B" d="M162.3,276.9c-0.3,0-0.6-0.1-0.8-0.2s-0.3-0.3-0.3-0.7v0c0-0.3,0.1-0.6,0.3-0.7s0.5-0.2,0.8-0.2
			s0.6,0.1,0.8,0.2s0.3,0.3,0.3,0.7v0.1c0,0.3-0.1,0.5-0.3,0.7C162.8,276.9,162.6,276.9,162.3,276.9z M161.6,288.7v-9.8h1.3v9.8
			H161.6z"/>
		<path fill="#1E193B" d="M170.2,288.8c-1,0-1.7-0.3-2.3-1c-0.5-0.6-0.8-1.6-0.8-2.8v-2.6c0-1.2,0.3-2.2,0.8-2.8
			c0.5-0.7,1.3-1,2.3-1s1.8,0.3,2.3,1s0.8,1.6,0.8,2.8v2.6c0,1.2-0.3,2.1-0.8,2.8C172,288.5,171.2,288.8,170.2,288.8z M170.2,287.6
			c0.6,0,1.1-0.2,1.4-0.6c0.3-0.4,0.5-1,0.5-1.9v-2.6c0-0.9-0.1-1.5-0.5-2c-0.3-0.4-0.8-0.6-1.4-0.6c-0.6,0-1.1,0.2-1.4,0.6
			c-0.3,0.4-0.4,1.1-0.4,2v2.6c0,0.8,0.1,1.5,0.4,1.9S169.6,287.6,170.2,287.6z"/>
		<path fill="#1E193B" d="M176.5,288.7v-9.8h1.3v1.2h0.4c0.2-0.4,0.5-0.7,0.9-1s0.8-0.4,1.3-0.4c0.7,0,1.3,0.3,1.7,0.9
			c0.5,0.6,0.7,1.3,0.7,2.1v7h-1.3V282c0-0.6-0.1-1.1-0.4-1.5c-0.3-0.4-0.6-0.5-1-0.5s-0.8,0.1-1.2,0.4s-0.7,0.6-1,1.1v7.2H176.5z"
			/>
		<path fill="#1E193B" d="M196.5,288.8c-1,0-1.7-0.3-2.3-1c-0.5-0.6-0.8-1.6-0.8-2.8v-2.6c0-1.2,0.3-2.2,0.8-2.8
			c0.5-0.7,1.3-1,2.3-1s1.8,0.3,2.3,1s0.8,1.6,0.8,2.8v2.6c0,1.2-0.3,2.1-0.8,2.8C198.3,288.5,197.5,288.8,196.5,288.8z
			 M196.5,287.6c0.6,0,1.1-0.2,1.4-0.6c0.3-0.4,0.5-1,0.5-1.9v-2.6c0-0.9-0.1-1.5-0.5-2c-0.3-0.4-0.8-0.6-1.4-0.6
			c-0.6,0-1.1,0.2-1.4,0.6c-0.3,0.4-0.4,1.1-0.4,2v2.6c0,0.8,0.1,1.5,0.4,1.9S195.9,287.6,196.5,287.6z"/>
		<path fill="#1E193B" d="M204,288.7V280h-1.5v-1.2h1.5V278c0-0.8,0.2-1.4,0.6-1.8c0.4-0.4,0.9-0.6,1.5-0.6c0.2,0,0.5,0,0.9,0.1
			s0.6,0.2,0.8,0.3l-0.2,1.1c-0.2-0.1-0.4-0.1-0.6-0.2c-0.2-0.1-0.4-0.1-0.6-0.1c-0.3,0-0.6,0.1-0.8,0.3c-0.2,0.2-0.3,0.4-0.3,0.8
			v0.9h2.5v1.2h-2.5v8.6H204V288.7z"/>
		<path fill="#1E193B" d="M64.4,312.8c-0.8,0-1.4-0.2-1.8-0.7s-0.7-1.2-0.7-2c0-0.9,0.2-1.5,0.7-2s1.1-0.7,1.9-0.7h2.4v-1.7
			c0-0.5-0.1-0.9-0.4-1.3s-0.7-0.5-1.3-0.5c-0.6,0-1.1,0.1-1.3,0.4c-0.3,0.3-0.5,0.8-0.6,1.5l-1.1-0.4c0.1-0.9,0.5-1.6,0.9-2
			c0.5-0.5,1.2-0.7,2-0.7c0.9,0,1.6,0.2,2.1,0.7c0.6,0.4,0.9,1.1,0.9,2v5.1c0,0.5,0.1,0.8,0.3,1s0.6,0.2,1.1,0v1.2
			c-0.7,0.1-1.3,0-1.6-0.2c-0.3-0.3-0.5-0.7-0.6-1.3h-0.2c-0.2,0.5-0.5,0.9-1,1.2C65.6,312.7,65,312.8,64.4,312.8z M64.6,311.6
			c0.4,0,0.9-0.1,1.3-0.3s0.7-0.6,1-1.2v-1.7h-2.2c-0.5,0-0.8,0.1-1.1,0.3c-0.3,0.2-0.4,0.6-0.4,1.2c0,0.5,0.1,0.9,0.4,1.2
			C63.7,311.5,64.1,311.6,64.6,311.6z"/>
		<path fill="#1E193B" d="M75.7,312.8c-1.1,0-1.9-0.3-2.5-0.9c-0.5-0.6-0.8-1.4-0.8-2.5V306c0-1.1,0.3-2,0.9-2.6s1.4-0.9,2.4-0.9
			s1.7,0.3,2.2,0.8s0.8,1.4,0.9,2.5h-1.2c0-0.7-0.2-1.3-0.5-1.6c-0.3-0.3-0.8-0.5-1.4-0.5c-0.7,0-1.2,0.2-1.5,0.5s-0.5,0.9-0.5,1.7
			v3.4c0,0.7,0.2,1.2,0.5,1.6s0.8,0.5,1.5,0.5c0.6,0,1-0.1,1.3-0.4s0.5-0.7,0.5-1.3h1.2c-0.1,1.1-0.3,1.8-0.8,2.3
			C77.5,312.6,76.7,312.8,75.7,312.8z"/>
		<path fill="#1E193B" d="M85.1,312.8c-1.1,0-1.9-0.3-2.5-0.9c-0.5-0.6-0.8-1.4-0.8-2.5V306c0-1.1,0.3-2,0.9-2.6s1.4-0.9,2.4-0.9
			s1.7,0.3,2.2,0.8s0.8,1.4,0.9,2.5H87c0-0.7-0.2-1.3-0.5-1.6c-0.3-0.3-0.8-0.5-1.4-0.5c-0.7,0-1.2,0.2-1.5,0.5s-0.5,0.9-0.5,1.7
			v3.4c0,0.7,0.2,1.2,0.5,1.6s0.8,0.5,1.5,0.5c0.6,0,1-0.1,1.3-0.4s0.5-0.7,0.5-1.3h1.2c-0.1,1.1-0.3,1.8-0.8,2.3
			C86.8,312.6,86.1,312.8,85.1,312.8z"/>
		<path fill="#1E193B" d="M97.4,310.6c-0.2,0.8-0.6,1.4-1.1,1.7c-0.5,0.3-1.2,0.5-2,0.5c-1,0-1.7-0.3-2.3-0.9
			c-0.6-0.6-0.8-1.4-0.8-2.5V306c0-1.1,0.3-1.9,0.8-2.5s1.3-0.9,2.3-0.9s1.7,0.3,2.3,0.9c0.5,0.6,0.8,1.5,0.8,2.6v1.7h-4.9v1.5
			c0,0.8,0.2,1.3,0.5,1.6c0.3,0.3,0.8,0.5,1.4,0.5s1-0.1,1.3-0.4c0.3-0.2,0.5-0.6,0.6-1.1L97.4,310.6z M92.4,306.1v0.8H96v-0.6
			c0-0.8-0.1-1.4-0.5-1.8c-0.3-0.4-0.8-0.6-1.4-0.6s-1.1,0.2-1.4,0.6C92.6,304.8,92.4,305.4,92.4,306.1z"/>
		<path fill="#1E193B" d="M103.5,312.8c-0.3,0-0.6,0-0.9-0.1s-0.6-0.2-0.9-0.4v3.6h-1.3v-13.1h1.3v1.2h0.4c0.2-0.4,0.4-0.8,0.8-1
			s0.8-0.4,1.4-0.4c0.7,0,1.3,0.3,1.7,0.9s0.6,1.4,0.6,2.5v3.3c0,1.1-0.3,1.9-0.9,2.5C105.3,312.5,104.5,312.8,103.5,312.8z
			 M103.5,311.7c0.7,0,1.2-0.2,1.5-0.5c0.3-0.4,0.4-1,0.4-1.8V306c0-0.7-0.1-1.3-0.3-1.6s-0.6-0.5-1.1-0.5s-0.9,0.1-1.2,0.4
			s-0.7,0.7-1,1.3v5.4c0.2,0.2,0.5,0.4,0.8,0.5S103.1,311.7,103.5,311.7z"/>
		<path fill="#1E193B" d="M113.5,312.8c-0.8,0-1.4-0.3-1.8-0.8s-0.6-1.3-0.6-2.2V304h-1.5v-1.2h1.5v-3.3h1.3v3.3h2.7v1.2h-2.7v6
			c0,0.5,0.1,0.9,0.4,1.2c0.2,0.3,0.5,0.4,0.9,0.4c0.2,0,0.4,0,0.6-0.1s0.4-0.1,0.7-0.2l0.2,1.2c-0.3,0.1-0.5,0.2-0.8,0.3
			C114.1,312.8,113.8,312.8,113.5,312.8z"/>
		<path fill="#1E193B" d="M124.2,310.6c-0.2,0.8-0.6,1.4-1.1,1.7c-0.5,0.3-1.2,0.5-2,0.5c-1,0-1.7-0.3-2.3-0.9
			c-0.6-0.6-0.8-1.4-0.8-2.5V306c0-1.1,0.3-1.9,0.8-2.5s1.3-0.9,2.3-0.9s1.7,0.3,2.3,0.9c0.5,0.6,0.8,1.5,0.8,2.6v1.7h-4.9v1.5
			c0,0.8,0.2,1.3,0.5,1.6c0.3,0.3,0.8,0.5,1.4,0.5s1-0.1,1.3-0.4c0.3-0.2,0.5-0.6,0.6-1.1L124.2,310.6z M119.2,306.1v0.8h3.6v-0.6
			c0-0.8-0.1-1.4-0.5-1.8c-0.3-0.4-0.8-0.6-1.4-0.6s-1.1,0.2-1.4,0.6C119.4,304.8,119.2,305.4,119.2,306.1z"/>
		<path fill="#1E193B" d="M131.8,311.4c-0.2,0.4-0.4,0.8-0.8,1c-0.4,0.2-0.8,0.4-1.4,0.4c-0.8,0-1.3-0.3-1.8-0.9
			c-0.4-0.6-0.6-1.4-0.6-2.5v-3.3c0-1.1,0.3-2,0.8-2.6c0.6-0.6,1.3-0.9,2.3-0.9c0.3,0,0.6,0,0.9,0.1c0.3,0.1,0.6,0.2,0.9,0.4v-3.6
			h1.3v13.1h-1.3v-1.2H131.8z M130,311.6c0.5,0,0.9-0.1,1.2-0.4c0.4-0.3,0.7-0.7,1-1.3v-5.4c-0.2-0.2-0.5-0.4-0.8-0.5
			s-0.6-0.2-0.9-0.2c-0.6,0-1.1,0.2-1.4,0.6c-0.3,0.4-0.5,1-0.5,1.7v3.4c0,0.7,0.1,1.2,0.3,1.6C129.1,311.4,129.5,311.6,130,311.6z"
			/>
		<path fill="#1E193B" d="M147.2,312.8c-0.3,0-0.6,0-0.9-0.1c-0.3-0.1-0.6-0.2-0.9-0.4v3.6h-1.3v-13.1h1.3v1.2h0.4
			c0.2-0.4,0.4-0.8,0.8-1c0.4-0.2,0.8-0.4,1.4-0.4c0.7,0,1.3,0.3,1.7,0.9s0.6,1.4,0.6,2.5v3.3c0,1.1-0.3,1.9-0.9,2.5
			C149,312.5,148.2,312.8,147.2,312.8z M147.2,311.7c0.7,0,1.2-0.2,1.5-0.5c0.3-0.4,0.4-1,0.4-1.8V306c0-0.7-0.1-1.3-0.3-1.6
			s-0.6-0.5-1.1-0.5s-0.9,0.1-1.2,0.4s-0.7,0.7-1,1.3v5.4c0.2,0.2,0.5,0.4,0.8,0.5S146.9,311.7,147.2,311.7z"/>
		<path fill="#1E193B" d="M153.6,312.7v-9.8h1.3v1.2h0.4c0.1-0.5,0.4-0.8,0.8-1.1s0.8-0.3,1.2-0.3c0.5,0,1,0.2,1.3,0.6
			s0.5,1,0.5,1.7v1.8h-1.2v-1.7c0-0.4-0.1-0.7-0.3-0.9c-0.2-0.2-0.4-0.3-0.7-0.3s-0.7,0.1-1.1,0.4c-0.4,0.3-0.7,0.7-0.9,1.1v7.2
			L153.6,312.7L153.6,312.7z"/>
		<path fill="#1E193B" d="M164.8,312.8c-1,0-1.7-0.3-2.3-1c-0.5-0.6-0.8-1.6-0.8-2.8v-2.6c0-1.2,0.3-2.2,0.8-2.8
			c0.5-0.7,1.3-1,2.3-1s1.8,0.3,2.3,1s0.8,1.6,0.8,2.8v2.6c0,1.2-0.3,2.1-0.8,2.8C166.5,312.5,165.8,312.8,164.8,312.8z
			 M164.8,311.6c0.6,0,1.1-0.2,1.4-0.6c0.3-0.4,0.5-1,0.5-1.9v-2.6c0-0.9-0.1-1.5-0.5-2c-0.3-0.4-0.8-0.6-1.4-0.6
			c-0.6,0-1.1,0.2-1.4,0.6c-0.3,0.4-0.4,1.1-0.4,2v2.6c0,0.8,0.1,1.5,0.4,1.9S164.1,311.6,164.8,311.6z"/>
		<path fill="#1E193B" d="M174,312.8c-0.3,0-0.6,0-0.9-0.1c-0.3-0.1-0.6-0.2-0.9-0.4v3.6H171v-13.1h1.3v1.2h0.4
			c0.2-0.4,0.4-0.8,0.8-1c0.4-0.2,0.8-0.4,1.4-0.4c0.7,0,1.3,0.3,1.7,0.9s0.6,1.4,0.6,2.5v3.3c0,1.1-0.3,1.9-0.9,2.5
			C175.8,312.5,175,312.8,174,312.8z M174,311.7c0.7,0,1.2-0.2,1.5-0.5c0.3-0.4,0.4-1,0.4-1.8V306c0-0.7-0.1-1.3-0.3-1.6
			s-0.6-0.5-1.1-0.5s-0.9,0.1-1.2,0.4s-0.7,0.7-1,1.3v5.4c0.2,0.2,0.5,0.4,0.8,0.5S173.7,311.7,174,311.7z"/>
		<path fill="#1E193B" d="M183.5,312.8c-1,0-1.7-0.3-2.3-1c-0.5-0.6-0.8-1.6-0.8-2.8v-2.6c0-1.2,0.3-2.2,0.8-2.8
			c0.5-0.7,1.3-1,2.3-1s1.8,0.3,2.3,1s0.8,1.6,0.8,2.8v2.6c0,1.2-0.3,2.1-0.8,2.8C185.2,312.5,184.5,312.8,183.5,312.8z
			 M183.5,311.6c0.6,0,1.1-0.2,1.4-0.6c0.3-0.4,0.5-1,0.5-1.9v-2.6c0-0.9-0.1-1.5-0.5-2c-0.3-0.4-0.8-0.6-1.4-0.6
			c-0.6,0-1.1,0.2-1.4,0.6c-0.3,0.4-0.4,1.1-0.4,2v2.6c0,0.8,0.1,1.5,0.4,1.9S182.8,311.6,183.5,311.6z"/>
		<path fill="#1E193B" d="M192.9,312.8c-0.6,0-1.2-0.1-1.8-0.3c-0.6-0.2-1.1-0.5-1.6-0.9l0.5-1.1c0.4,0.3,0.8,0.5,1.3,0.7
			s1,0.3,1.5,0.3c0.6,0,1-0.1,1.3-0.4c0.3-0.2,0.4-0.6,0.4-1.1c0-0.6-0.1-1-0.4-1.2c-0.3-0.2-0.8-0.5-1.6-0.6
			c-0.9-0.2-1.7-0.6-2.2-1s-0.7-1.1-0.7-2c0-0.8,0.3-1.4,0.8-1.9s1.2-0.7,2-0.7c0.5,0,1.1,0.1,1.7,0.3c0.6,0.2,1.1,0.5,1.5,0.9
			l-0.5,1.1c-0.3-0.3-0.8-0.5-1.2-0.8c-0.5-0.2-0.9-0.4-1.4-0.4s-0.9,0.1-1.1,0.4c-0.3,0.3-0.4,0.6-0.4,1.1c0,0.6,0.2,1,0.5,1.2
			s0.9,0.4,1.6,0.7c1,0.3,1.7,0.6,2.2,1s0.7,1.1,0.7,2c0,0.8-0.3,1.4-0.9,1.9C194.5,312.6,193.8,312.8,192.9,312.8z"/>
		<path fill="#1E193B" d="M201.6,312.8c-0.8,0-1.4-0.2-1.8-0.7s-0.7-1.2-0.7-2c0-0.9,0.2-1.5,0.7-2s1.1-0.7,1.9-0.7h2.4v-1.7
			c0-0.5-0.1-0.9-0.4-1.3s-0.7-0.5-1.3-0.5s-1.1,0.1-1.3,0.4c-0.3,0.3-0.5,0.8-0.6,1.5l-1.1-0.4c0.1-0.9,0.5-1.6,0.9-2
			c0.5-0.5,1.2-0.7,2-0.7c0.9,0,1.6,0.2,2.1,0.7c0.6,0.4,0.9,1.1,0.9,2v5.1c0,0.5,0.1,0.8,0.3,1s0.6,0.2,1.1,0v1.2
			c-0.7,0.1-1.3,0-1.6-0.2c-0.3-0.3-0.5-0.7-0.6-1.3h-0.2c-0.2,0.5-0.5,0.9-1,1.2C202.7,312.7,202.2,312.8,201.6,312.8z
			 M201.7,311.6c0.4,0,0.9-0.1,1.3-0.3s0.7-0.6,1-1.2v-1.7h-2.2c-0.5,0-0.8,0.1-1.1,0.3c-0.3,0.2-0.4,0.6-0.4,1.2
			c0,0.5,0.1,0.9,0.4,1.2C200.9,311.5,201.2,311.6,201.7,311.6z"/>
		<path fill="#1E193B" d="M212.3,312.7c-0.9,0-1.5-0.3-2-0.9s-0.7-1.4-0.7-2.5v-9.8h1.3v9.8c0,0.7,0.1,1.2,0.4,1.6
			c0.2,0.4,0.6,0.5,1.1,0.5c0.1,0,0.3,0,0.4-0.1c0.2,0,0.3-0.1,0.4-0.2l0.2,1.1c-0.2,0.1-0.3,0.1-0.5,0.2
			C212.7,312.7,212.5,312.7,212.3,312.7z"/>
		<path fill="#1E193B" d="M219,312.8c-0.6,0-1.2-0.1-1.8-0.3c-0.6-0.2-1.1-0.5-1.6-0.9l0.5-1.1c0.4,0.3,0.8,0.5,1.3,0.7
			s1,0.3,1.5,0.3c0.6,0,1-0.1,1.3-0.4c0.3-0.2,0.4-0.6,0.4-1.1c0-0.6-0.1-1-0.4-1.2c-0.3-0.2-0.8-0.5-1.6-0.6
			c-0.9-0.2-1.7-0.6-2.2-1s-0.7-1.1-0.7-2c0-0.8,0.3-1.4,0.8-1.9s1.2-0.7,2-0.7c0.5,0,1.1,0.1,1.7,0.3c0.6,0.2,1.1,0.5,1.5,0.9
			l-0.5,1.1c-0.3-0.3-0.8-0.5-1.2-0.8c-0.5-0.2-0.9-0.4-1.4-0.4s-0.9,0.1-1.1,0.4c-0.3,0.3-0.4,0.6-0.4,1.1c0,0.6,0.2,1,0.5,1.2
			s0.9,0.4,1.6,0.7c1,0.3,1.7,0.6,2.2,1s0.7,1.1,0.7,2c0,0.8-0.3,1.4-0.9,1.9C220.7,312.6,219.9,312.8,219,312.8z"/>
		<path fill="#1E193B" d="M228.2,312.8c-0.4,0-0.8-0.1-1-0.3c-0.3-0.2-0.4-0.6-0.4-1.1v-0.3c0-0.5,0.1-0.9,0.4-1.1
			c0.3-0.2,0.6-0.3,1-0.3s0.7,0.1,1,0.3c0.3,0.2,0.4,0.6,0.4,1.1v0.3c0,0.5-0.1,0.8-0.4,1.1C228.9,312.7,228.6,312.8,228.2,312.8z"
			/>
	</g>
</g>
</svg>
