<?xml version="1.0" encoding="utf-8"?>
<!-- Generator: Adobe Illustrator 21.0.0, SVG Export Plug-In . SVG Version: 6.00 Build 0)  -->
<svg version="1.1" id="Layer_1" xmlns="http://www.w3.org/2000/svg" xmlns:xlink="http://www.w3.org/1999/xlink" x="0px" y="0px"
	 viewBox="0 0 762 134" style="enable-background:new 0 0 762 134;" xml:space="preserve">
<style type="text/css">
	.st0{fill:#3C9678;}
	.st1{fill:#FFFFFF;stroke:#1E193B;stroke-width:8;}
	.st2{fill:#6AA477;stroke:#6AA477;stroke-width:8;}
	.st3{fill:#FFFFFF;stroke:#1E193B;stroke-width:7.9996;stroke-miterlimit:3.9998;}
	.st4{fill:#1E193B;}
	.st5{enable-background:new    ;}
</style>
<rect x="20.5" y="16.7" class="st0" width="721" height="7.7"/>
<circle class="st1" cx="20.4" cy="20.5" r="16.4"/>
<circle class="st2" cx="20.5" cy="20.5" r="4"/>
<ellipse class="st3" cx="260.4" cy="20.6" rx="16.4" ry="16.4"/>
<circle class="st1" cx="500.6" cy="20.5" r="16.4"/>
<circle class="st1" cx="740.7" cy="20.5" r="16.4"/>
<path class="st4" d="M635.9,105.5V93.9h2.9c1,0,1.7,0.2,2.2,0.7s0.7,1.2,0.7,2.2v1.4c0,1-0.2,1.8-0.7,2.3s-1.2,0.8-2.2,0.8H637v4.3
	h-1.1V105.5z M637,100.3h1.8c0.6,0,1.1-0.2,1.4-0.5c0.3-0.3,0.4-0.8,0.4-1.5v-1.5c0-0.7-0.1-1.2-0.4-1.5c-0.3-0.3-0.7-0.5-1.4-0.5
	H637V100.3z M647,105.6c-0.9,0-1.5-0.3-2-0.9s-0.7-1.4-0.7-2.5V100c0-1.1,0.2-1.9,0.7-2.5s1.2-0.9,2-0.9c0.9,0,1.6,0.3,2,0.9
	c0.5,0.6,0.7,1.4,0.7,2.5v2.3c0,1.1-0.2,1.9-0.7,2.5S647.9,105.6,647,105.6z M647,104.6c0.6,0,1-0.2,1.2-0.5
	c0.3-0.4,0.4-0.9,0.4-1.7V100c0-0.8-0.1-1.4-0.4-1.7c-0.3-0.4-0.7-0.6-1.2-0.6c-0.6,0-1,0.2-1.2,0.6c-0.3,0.4-0.4,1-0.4,1.7v2.3
	c0,0.8,0.1,1.3,0.4,1.7C646,104.4,646.4,104.6,647,104.6z M658.1,103.6c-0.2,0.7-0.6,1.2-1,1.6c-0.5,0.3-1,0.4-1.8,0.4
	c-0.9,0-1.6-0.3-2.1-0.8s-0.7-1.3-0.7-2.2v-3c0-1,0.2-1.7,0.7-2.2s1.2-0.8,2-0.8c0.9,0,1.5,0.3,2,0.8c0.5,0.6,0.7,1.3,0.7,2.3v1.5
	h-4.4v1.4c0,0.7,0.1,1.2,0.4,1.5c0.3,0.3,0.7,0.4,1.2,0.4s0.9-0.1,1.2-0.3c0.3-0.2,0.4-0.5,0.5-1L658.1,103.6z M653.7,99.7v0.7h3.2
	v-0.5c0-0.7-0.1-1.2-0.4-1.6c-0.3-0.4-0.7-0.5-1.2-0.5s-0.9,0.2-1.2,0.5C653.8,98.5,653.7,99,653.7,99.7z M664.1,105.6
	c-0.7,0-1.2-0.2-1.6-0.7c-0.4-0.5-0.6-1.1-0.6-1.9v-5.1h-1.3v-1.1h1.3v-2.9h1.1v2.9h2.4v1.1H663v5.3c0,0.5,0.1,0.8,0.3,1.1
	c0.2,0.2,0.5,0.3,0.8,0.3c0.2,0,0.3,0,0.5-0.1c0.2,0,0.4-0.1,0.6-0.2l0.2,1c-0.2,0.1-0.5,0.2-0.7,0.3
	C664.6,105.6,664.4,105.6,664.1,105.6z M668.1,105.5v-8.7h1.1v1.1h0.3c0.1-0.4,0.4-0.8,0.7-0.9c0.3-0.2,0.7-0.3,1.1-0.3
	c0.5,0,0.9,0.2,1.2,0.5s0.5,0.9,0.5,1.5v1.6h-1.1v-1.5c0-0.3-0.1-0.6-0.2-0.8c-0.2-0.2-0.4-0.3-0.6-0.3c-0.3,0-0.6,0.1-1,0.4
	c-0.3,0.3-0.6,0.6-0.8,1v6.4C669.3,105.5,668.1,105.5,668.1,105.5z M675.7,108.5c-0.2,0-0.4,0-0.6,0c-0.2,0-0.4-0.1-0.6-0.1l0.2-1.1
	c0.2,0,0.4,0.1,0.5,0.1c0.2,0,0.3,0,0.5,0c0.4,0,0.7-0.1,0.9-0.4c0.2-0.2,0.4-0.6,0.6-1.2v-0.2h-0.5l-2.3-8.9h1.2l1.9,7.8l1.8-7.8
	h1.2l-2.5,9.9c-0.3,0.7-0.6,1.1-1,1.4C676.7,108.3,676.2,108.5,675.7,108.5z M692.6,105.6c-0.6,0-1.3-0.1-1.9-0.4
	c-0.6-0.2-1.1-0.5-1.5-0.9l0.4-0.9c0.4,0.4,0.9,0.7,1.4,0.9c0.5,0.2,1,0.3,1.6,0.3s1.2-0.2,1.5-0.6c0.4-0.4,0.6-0.9,0.6-1.6
	c0-0.5-0.2-0.9-0.5-1.3c-0.3-0.3-1-0.7-2-1.2c-1.1-0.5-1.9-1-2.3-1.5c-0.4-0.5-0.6-1.1-0.6-1.8c0-0.9,0.3-1.6,0.8-2.1
	s1.3-0.7,2.2-0.7c0.6,0,1.1,0.1,1.7,0.4c0.6,0.3,1,0.6,1.4,0.9l-0.4,1c-0.4-0.4-0.9-0.7-1.4-0.9c-0.5-0.2-0.9-0.3-1.4-0.3
	c-0.6,0-1,0.2-1.3,0.5s-0.5,0.7-0.5,1.3c0,0.5,0.2,0.9,0.5,1.2c0.3,0.3,1.1,0.7,2.1,1.2c1,0.4,1.7,0.9,2.1,1.4
	c0.4,0.5,0.6,1.1,0.6,1.8c0,1-0.3,1.9-0.9,2.5C694.4,105.3,693.6,105.6,692.6,105.6z M701.6,105.5c-0.8,0-1.3-0.3-1.8-0.8
	c-0.4-0.5-0.6-1.3-0.6-2.2v-8.7h1.1v8.7c0,0.6,0.1,1.1,0.3,1.4s0.5,0.5,1,0.5c0.1,0,0.2,0,0.4-0.1c0.1,0,0.3-0.1,0.4-0.2l0.2,1
	c-0.1,0.1-0.3,0.1-0.5,0.2C701.9,105.5,701.8,105.5,701.6,105.5z M707.2,104.6c0.4,0,0.8-0.1,1.1-0.3c0.4-0.2,0.7-0.5,0.9-1v-1.5
	h-1.9c-0.4,0-0.8,0.1-1,0.3c-0.2,0.2-0.4,0.6-0.4,1.1s0.1,0.8,0.3,1.1C706.4,104.4,706.7,104.6,707.2,104.6z M707,105.6
	c-0.7,0-1.2-0.2-1.6-0.7c-0.4-0.4-0.6-1-0.6-1.8s0.2-1.4,0.6-1.8c0.4-0.4,1-0.7,1.7-0.7h2.1v-1.5c0-0.4-0.1-0.8-0.4-1.1
	c-0.3-0.3-0.6-0.5-1.1-0.5s-0.9,0.1-1.2,0.4c-0.2,0.2-0.4,0.7-0.6,1.4L705,99c0.1-0.8,0.4-1.4,0.8-1.8c0.4-0.4,1-0.6,1.8-0.6
	s1.4,0.2,1.9,0.6s0.8,1,0.8,1.8v4.6c0,0.4,0.1,0.7,0.3,0.9c0.2,0.1,0.5,0.2,1,0v1.1c-0.6,0.1-1.1,0-1.4-0.2
	c-0.3-0.2-0.5-0.6-0.5-1.2h-0.2c-0.2,0.4-0.5,0.8-0.9,1C708,105.5,707.5,105.6,707,105.6z M717,105.7c-0.5,0-1.1-0.1-1.6-0.3
	c-0.5-0.2-1-0.4-1.4-0.8l0.5-1c0.3,0.3,0.7,0.5,1.2,0.7s0.9,0.2,1.4,0.2s0.9-0.1,1.2-0.3c0.3-0.2,0.4-0.5,0.4-1s-0.1-0.8-0.4-1
	c-0.3-0.2-0.7-0.4-1.4-0.6c-0.8-0.2-1.5-0.5-1.9-0.9s-0.7-1-0.7-1.8c0-0.7,0.2-1.3,0.7-1.7c0.5-0.4,1.1-0.7,1.8-0.7
	c0.5,0,1,0.1,1.5,0.3c0.5,0.2,0.9,0.5,1.3,0.8l-0.5,1c-0.3-0.2-0.7-0.5-1.1-0.7c-0.4-0.2-0.8-0.3-1.3-0.3c-0.4,0-0.8,0.1-1,0.3
	c-0.2,0.2-0.3,0.5-0.3,1s0.1,0.8,0.4,1c0.3,0.2,0.8,0.4,1.5,0.6c0.9,0.2,1.5,0.5,1.9,0.9s0.6,1,0.6,1.7s-0.3,1.3-0.8,1.7
	C718.4,105.5,717.8,105.7,717,105.7z M722.5,105.5V93.9h1.1v4h0.3c0.2-0.4,0.5-0.7,0.8-0.9c0.4-0.2,0.7-0.3,1.1-0.3
	c0.6,0,1.2,0.2,1.5,0.7c0.4,0.5,0.6,1.1,0.6,1.9v6.2h-1.1v-5.9c0-0.6-0.1-1-0.3-1.3s-0.5-0.5-0.9-0.5s-0.7,0.1-1.1,0.3
	c-0.3,0.2-0.6,0.5-0.9,1v6.4C723.6,105.5,722.5,105.5,722.5,105.5z M737.5,105.5v-1h2.2v-9.6h-2.2v-1h5.5v1h-2.2v9.6h2.2v1H737.5z
	 M745.8,105.5v-1h2.2v-9.6h-2.2v-1h5.5v1h-2.2v9.6h2.2v1H745.8z M754.2,105.5v-1h2.2v-9.6h-2.2v-1h5.5v1h-2.2v9.6h2.2v1H754.2z"/>
<g>
	<path class="st4" d="M4.5,105.4c-1.1,0-2-0.3-2.5-1c-0.6-0.6-0.9-1.6-0.9-2.9v-4.1c0-1.3,0.3-2.3,0.9-3c0.6-0.6,1.4-1,2.6-1
		c1.1,0,1.9,0.3,2.4,1s0.9,1.6,0.9,2.9l-1.1,0.1c-0.1-1-0.3-1.8-0.6-2.3c-0.4-0.5-0.9-0.7-1.6-0.7c-0.8,0-1.4,0.2-1.7,0.7
		c-0.4,0.5-0.5,1.2-0.5,2.2v4.2c0,1,0.2,1.7,0.5,2.1c0.4,0.4,0.9,0.7,1.7,0.7c0.7,0,1.3-0.2,1.6-0.7c0.4-0.5,0.6-1.2,0.6-2.2
		l1.1,0.1c0,1.2-0.4,2.2-0.9,2.8C6.4,105.1,5.6,105.4,4.5,105.4z"/>
	<path class="st4" d="M12.8,105.4c-0.7,0-1.2-0.2-1.6-0.7c-0.4-0.4-0.6-1-0.6-1.8s0.2-1.4,0.6-1.8c0.4-0.4,1-0.7,1.7-0.7H15V99
		c0-0.4-0.1-0.8-0.4-1.1c-0.3-0.3-0.6-0.5-1.1-0.5s-0.9,0.1-1.2,0.4s-0.4,0.7-0.6,1.4l-0.9-0.3c0.1-0.8,0.4-1.4,0.8-1.8
		c0.4-0.4,1-0.6,1.8-0.6s1.4,0.2,1.9,0.6s0.8,1,0.8,1.8v4.6c0,0.4,0.1,0.7,0.3,0.9c0.2,0.1,0.5,0.2,1,0v1.1c-0.6,0.1-1.1,0-1.4-0.2
		c-0.3-0.2-0.5-0.6-0.5-1.2h-0.2c-0.2,0.4-0.5,0.8-0.9,1C13.8,105.2,13.3,105.4,12.8,105.4z M12.9,104.3c0.4,0,0.8-0.1,1.1-0.3
		c0.4-0.2,0.6-0.5,0.9-1v-1.5H13c-0.4,0-0.7,0.1-1,0.3c-0.2,0.2-0.4,0.6-0.4,1.1s0.1,0.8,0.3,1.1C12.1,104.2,12.4,104.3,12.9,104.3z
		"/>
	<path class="st4" d="M22.2,105.3c-0.8,0-1.3-0.3-1.8-0.8s-0.6-1.3-0.6-2.2v-8.7H21v8.7c0,0.6,0.1,1.1,0.3,1.4
		c0.2,0.3,0.5,0.5,1,0.5c0.1,0,0.2,0,0.4-0.1c0.1,0,0.3-0.1,0.4-0.2l0.2,1c-0.1,0.1-0.3,0.1-0.5,0.2
		C22.6,105.3,22.4,105.3,22.2,105.3z"/>
	<path class="st4" d="M28.4,105.3c-0.8,0-1.3-0.3-1.8-0.8s-0.6-1.3-0.6-2.2v-8.7h1.1v8.7c0,0.6,0.1,1.1,0.3,1.4
		c0.2,0.3,0.5,0.5,1,0.5c0.1,0,0.2,0,0.4-0.1c0.1,0,0.3-0.1,0.4-0.2l0.2,1c-0.1,0.1-0.3,0.1-0.5,0.2
		C28.7,105.3,28.6,105.3,28.4,105.3z"/>
	<path class="st4" d="M39.4,105.2v-7.7h-1.3v-1.1h1.3v-0.7c0-0.7,0.2-1.2,0.6-1.6c0.4-0.4,0.8-0.6,1.3-0.6c0.2,0,0.5,0,0.8,0.1
		s0.6,0.2,0.7,0.3l-0.2,1c-0.2-0.1-0.3-0.1-0.5-0.2s-0.4-0.1-0.6-0.1c-0.3,0-0.5,0.1-0.7,0.2s-0.3,0.4-0.3,0.7v0.8h2.2v1.1h-2.2v7.7
		L39.4,105.2L39.4,105.2z"/>
	<path class="st4" d="M48.3,105.4c-0.9,0-1.5-0.3-2-0.9s-0.7-1.4-0.7-2.5v-2.3c0-1.1,0.2-1.9,0.7-2.5s1.2-0.9,2-0.9
		c0.9,0,1.6,0.3,2,0.9c0.5,0.6,0.7,1.4,0.7,2.5v2.3c0,1.1-0.2,1.9-0.7,2.5S49.2,105.4,48.3,105.4z M48.3,104.3c0.6,0,1-0.2,1.2-0.5
		c0.3-0.4,0.4-0.9,0.4-1.7v-2.3c0-0.8-0.1-1.4-0.4-1.7c-0.3-0.4-0.7-0.6-1.2-0.6s-1,0.2-1.2,0.6c-0.3,0.4-0.4,1-0.4,1.7v2.3
		c0,0.8,0.1,1.3,0.4,1.7S47.7,104.3,48.3,104.3z"/>
	<path class="st4" d="M53.8,105.2v-8.7H55v1.1h0.3c0.1-0.4,0.4-0.8,0.7-1s0.7-0.3,1.1-0.3c0.5,0,0.9,0.2,1.2,0.5
		c0.3,0.4,0.4,0.9,0.4,1.5v1.6h-1.1v-1.5c0-0.3-0.1-0.6-0.2-0.8s-0.4-0.3-0.6-0.3c-0.3,0-0.6,0.1-1,0.4c-0.3,0.3-0.6,0.6-0.8,1v6.4
		h-1.2C53.8,105.1,53.8,105.2,53.8,105.2z"/>
	<path class="st4" d="M70.5,105.4c-0.2,0-0.5,0-0.8-0.1s-0.5-0.2-0.8-0.3v3.2h-1.1V96.5h1.1v1.1h0.3c0.1-0.4,0.4-0.7,0.7-0.9
		c0.3-0.2,0.7-0.3,1.2-0.3c0.7,0,1.2,0.3,1.5,0.8c0.4,0.5,0.6,1.3,0.6,2.2v2.9c0,1-0.3,1.7-0.8,2.3C72,105.1,71.3,105.4,70.5,105.4z
		 M70.5,104.4c0.6,0,1-0.2,1.3-0.5s0.4-0.8,0.4-1.6v-3c0-0.7-0.1-1.1-0.3-1.4c-0.2-0.3-0.5-0.4-1-0.4c-0.4,0-0.8,0.1-1.1,0.3
		s-0.6,0.6-0.9,1.1v4.8c0.2,0.2,0.4,0.4,0.7,0.5C69.9,104.3,70.1,104.4,70.5,104.4z"/>
	<path class="st4" d="M76.1,105.2v-8.7h1.1v1.1h0.3c0.1-0.4,0.4-0.8,0.7-1c0.3-0.2,0.7-0.3,1.1-0.3c0.5,0,0.9,0.2,1.2,0.5
		c0.3,0.4,0.4,0.9,0.4,1.5v1.6h-1.1v-1.5c0-0.3-0.1-0.6-0.2-0.8s-0.4-0.3-0.6-0.3c-0.3,0-0.6,0.1-1,0.4c-0.3,0.3-0.6,0.6-0.8,1v6.4
		h-1.1V105.2z"/>
	<path class="st4" d="M86.1,105.4c-0.9,0-1.5-0.3-2-0.9s-0.7-1.4-0.7-2.5v-2.3c0-1.1,0.2-1.9,0.7-2.5s1.2-0.9,2-0.9
		c0.9,0,1.6,0.3,2,0.9c0.5,0.6,0.7,1.4,0.7,2.5v2.3c0,1.1-0.2,1.9-0.7,2.5S86.9,105.4,86.1,105.4z M86.1,104.3c0.6,0,1-0.2,1.2-0.5
		c0.3-0.4,0.4-0.9,0.4-1.7v-2.3c0-0.8-0.1-1.4-0.4-1.7c-0.3-0.4-0.7-0.6-1.2-0.6s-1,0.2-1.2,0.6c-0.3,0.4-0.4,1-0.4,1.7v2.3
		c0,0.8,0.1,1.3,0.4,1.7S85.5,104.3,86.1,104.3z"/>
	<path class="st4" d="M94.3,105.4c-0.2,0-0.5,0-0.8-0.1s-0.5-0.2-0.8-0.3v3.2h-1.1V96.5h1.1v1.1H93c0.1-0.4,0.4-0.7,0.7-0.9
		c0.3-0.2,0.7-0.3,1.2-0.3c0.7,0,1.2,0.3,1.5,0.8c0.4,0.5,0.6,1.3,0.6,2.2v2.9c0,1-0.3,1.7-0.8,2.3
		C95.9,105.1,95.2,105.4,94.3,105.4z M94.3,104.4c0.6,0,1-0.2,1.3-0.5s0.4-0.8,0.4-1.6v-3c0-0.7-0.1-1.1-0.3-1.4
		c-0.2-0.3-0.5-0.4-1-0.4c-0.4,0-0.8,0.1-1.1,0.3S93,98.5,92.8,99v4.8c0.2,0.2,0.4,0.4,0.7,0.5C93.7,104.3,94,104.4,94.3,104.4z"/>
	<path class="st4" d="M102.7,105.4c-0.9,0-1.5-0.3-2-0.9s-0.7-1.4-0.7-2.5v-2.3c0-1.1,0.2-1.9,0.7-2.5s1.2-0.9,2-0.9
		c0.9,0,1.6,0.3,2,0.9c0.5,0.6,0.7,1.4,0.7,2.5v2.3c0,1.1-0.2,1.9-0.7,2.5S103.6,105.4,102.7,105.4z M102.7,104.3
		c0.6,0,1-0.2,1.2-0.5c0.3-0.4,0.4-0.9,0.4-1.7v-2.3c0-0.8-0.1-1.4-0.4-1.7c-0.3-0.4-0.7-0.6-1.2-0.6s-1,0.2-1.2,0.6
		c-0.3,0.4-0.4,1-0.4,1.7v2.3c0,0.8,0.1,1.3,0.4,1.7S102.1,104.3,102.7,104.3z"/>
	<path class="st4" d="M111.1,105.4c-0.5,0-1.1-0.1-1.6-0.3s-1-0.4-1.4-0.8l0.5-1c0.3,0.3,0.7,0.5,1.2,0.6c0.5,0.2,0.9,0.3,1.4,0.3
		s0.9-0.1,1.2-0.3c0.3-0.2,0.4-0.5,0.4-1s-0.1-0.8-0.4-1.1c-0.3-0.2-0.7-0.4-1.4-0.6c-0.8-0.2-1.5-0.5-1.9-0.9s-0.7-1-0.7-1.8
		c0-0.7,0.2-1.3,0.7-1.7c0.5-0.4,1.1-0.7,1.8-0.7c0.5,0,1,0.1,1.5,0.3c0.5,0.2,0.9,0.5,1.3,0.8l-0.5,1c-0.3-0.2-0.7-0.5-1.1-0.7
		s-0.8-0.3-1.3-0.3s-0.8,0.1-1,0.3c-0.2,0.2-0.3,0.5-0.3,1s0.1,0.8,0.4,1.1c0.3,0.2,0.8,0.4,1.5,0.6c0.9,0.2,1.5,0.5,1.9,0.9
		s0.6,1,0.6,1.7s-0.3,1.3-0.8,1.7C112.5,105.2,111.9,105.4,111.1,105.4z"/>
	<path class="st4" d="M118.8,105.4c-0.7,0-1.2-0.2-1.6-0.7c-0.4-0.4-0.6-1-0.6-1.8s0.2-1.4,0.6-1.8s1-0.7,1.7-0.7h2.1V99
		c0-0.4-0.1-0.8-0.4-1.1c-0.3-0.3-0.6-0.5-1.1-0.5s-0.9,0.1-1.2,0.4s-0.4,0.7-0.6,1.4l-0.9-0.3c0.1-0.8,0.4-1.4,0.8-1.8
		s1-0.6,1.8-0.6s1.4,0.2,1.9,0.6s0.8,1,0.8,1.8v4.6c0,0.4,0.1,0.7,0.3,0.9c0.2,0.1,0.5,0.2,1,0v1.1c-0.6,0.1-1.1,0-1.4-0.2
		s-0.5-0.6-0.5-1.2h-0.2c-0.2,0.4-0.5,0.8-0.9,1C119.8,105.2,119.3,105.4,118.8,105.4z M118.9,104.3c0.4,0,0.8-0.1,1.1-0.3
		c0.4-0.2,0.6-0.5,0.9-1v-1.5H119c-0.4,0-0.7,0.1-1,0.3c-0.2,0.2-0.4,0.6-0.4,1.1s0.1,0.8,0.3,1.1
		C118.1,104.2,118.5,104.3,118.9,104.3z"/>
	<path class="st4" d="M128.3,105.3c-0.8,0-1.3-0.3-1.8-0.8s-0.6-1.3-0.6-2.2v-8.7h1.1v8.7c0,0.6,0.1,1.1,0.3,1.4
		c0.2,0.3,0.5,0.5,1,0.5c0.1,0,0.2,0,0.4-0.1c0.1,0,0.3-0.1,0.4-0.2l0.2,1c-0.1,0.1-0.3,0.1-0.5,0.2
		C128.6,105.3,128.5,105.3,128.3,105.3z"/>
	<path class="st4" d="M134.3,105.4c-0.5,0-1.1-0.1-1.6-0.3s-1-0.4-1.4-0.8l0.5-1c0.3,0.3,0.7,0.5,1.2,0.6c0.5,0.2,0.9,0.3,1.4,0.3
		s0.9-0.1,1.2-0.3c0.3-0.2,0.4-0.5,0.4-1s-0.1-0.8-0.4-1.1c-0.3-0.2-0.7-0.4-1.4-0.6c-0.8-0.2-1.5-0.5-1.9-0.9s-0.7-1-0.7-1.8
		c0-0.7,0.2-1.3,0.7-1.7c0.5-0.4,1.1-0.7,1.8-0.7c0.5,0,1,0.1,1.5,0.3c0.5,0.2,0.9,0.5,1.3,0.8l-0.5,1c-0.3-0.2-0.7-0.5-1.1-0.7
		c-0.4-0.2-0.8-0.3-1.3-0.3s-0.8,0.1-1,0.3c-0.2,0.2-0.3,0.5-0.3,1s0.1,0.8,0.4,1.1c0.3,0.2,0.8,0.4,1.5,0.6
		c0.9,0.2,1.5,0.5,1.9,0.9s0.6,1,0.6,1.7s-0.3,1.3-0.8,1.7C135.8,105.2,135.1,105.4,134.3,105.4z"/>
	<path class="st4" d="M4,127.3c-0.8,0-1.3-0.3-1.8-0.8s-0.6-1.3-0.6-2.2v-8.7h1.1v8.7c0,0.6,0.1,1.1,0.3,1.4s0.5,0.5,1,0.5
		c0.1,0,0.2,0,0.4-0.1c0.1,0,0.3-0.1,0.4-0.2l0.2,1c-0.1,0.1-0.3,0.1-0.5,0.2C4.4,127.3,4.2,127.3,4,127.3z"/>
	<path class="st4" d="M9.5,127.4c-0.7,0-1.2-0.2-1.6-0.7c-0.4-0.4-0.6-1-0.6-1.8s0.2-1.4,0.6-1.8s1-0.7,1.7-0.7h2.1V121
		c0-0.4-0.1-0.8-0.4-1.1c-0.3-0.3-0.6-0.5-1.1-0.5s-0.9,0.1-1.2,0.4s-0.4,0.7-0.6,1.4l-0.9-0.3c0.1-0.8,0.4-1.4,0.8-1.8
		s1-0.6,1.8-0.6s1.4,0.2,1.9,0.6s0.8,1,0.8,1.8v4.6c0,0.4,0.1,0.7,0.3,0.9c0.2,0.1,0.5,0.2,1,0v1.1c-0.6,0.1-1.1,0-1.4-0.2
		c-0.3-0.2-0.5-0.6-0.5-1.2H12c-0.2,0.4-0.5,0.8-0.9,1C10.5,127.2,10,127.4,9.5,127.4z M9.6,126.3c0.4,0,0.8-0.1,1.1-0.3
		c0.4-0.2,0.6-0.5,0.9-1v-1.5H9.7c-0.4,0-0.7,0.1-1,0.3c-0.2,0.2-0.4,0.6-0.4,1.1s0.1,0.8,0.3,1.1C8.8,126.2,9.2,126.3,9.6,126.3z"
		/>
	<path class="st4" d="M18.7,127.4c-0.6,0-1.1-0.2-1.5-0.7s-0.6-1.1-0.6-1.9v-6.2h1.1v5.9c0,0.6,0.1,1,0.3,1.3
		c0.2,0.3,0.5,0.5,0.9,0.5s0.7-0.1,1.1-0.3c0.3-0.2,0.6-0.6,0.9-1v-6.4H22v8.7h-1v-1.1h-0.3c-0.1,0.4-0.3,0.7-0.7,0.9
		S19.2,127.4,18.7,127.4z"/>
	<path class="st4" d="M24.9,127.2v-8.7H26v1.1h0.3c0.2-0.4,0.4-0.7,0.8-0.9c0.4-0.2,0.7-0.4,1.1-0.4c0.6,0,1.1,0.3,1.5,0.8
		s0.6,1.1,0.6,1.9v6.2h-1.1v-5.9c0-0.6-0.1-1-0.3-1.3c-0.2-0.3-0.5-0.5-0.9-0.5s-0.7,0.1-1.1,0.3s-0.6,0.6-0.9,1v6.4H24.9z"/>
	<path class="st4" d="M36.1,127.4c-1,0-1.7-0.3-2.2-0.8s-0.7-1.3-0.7-2.2v-3c0-1,0.3-1.8,0.8-2.3s1.2-0.8,2.1-0.8
		c0.9,0,1.5,0.2,2,0.7c0.4,0.5,0.7,1.2,0.8,2.2h-1.1c0-0.7-0.2-1.1-0.4-1.4c-0.3-0.3-0.7-0.5-1.2-0.5c-0.6,0-1.1,0.2-1.3,0.5
		s-0.4,0.8-0.4,1.5v3c0,0.6,0.1,1.1,0.4,1.4s0.7,0.5,1.3,0.5c0.5,0,0.9-0.1,1.2-0.4s0.4-0.6,0.4-1.2h1.1c0,0.9-0.3,1.6-0.7,2
		C37.7,127.2,37,127.4,36.1,127.4z"/>
	<path class="st4" d="M41.5,127.2v-11.6h1.1v4H43c0.2-0.4,0.5-0.7,0.8-0.9c0.4-0.2,0.7-0.3,1.1-0.3c0.6,0,1.2,0.2,1.5,0.7
		c0.4,0.5,0.6,1.1,0.6,1.9v6.2h-1.1v-5.9c0-0.6-0.1-1-0.3-1.3s-0.5-0.5-0.9-0.5s-0.7,0.1-1.1,0.3c-0.3,0.2-0.6,0.6-0.9,1v6.4
		C42.7,127.2,41.5,127.2,41.5,127.2z"/>
	<path class="st4" d="M55.4,125.4c-0.2,0.7-0.5,1.2-1,1.5s-1,0.5-1.8,0.5c-0.9,0-1.6-0.3-2-0.8c-0.5-0.5-0.7-1.3-0.7-2.2v-3
		c0-1,0.2-1.7,0.7-2.2s1.2-0.8,2-0.8s1.5,0.3,2,0.8c0.5,0.6,0.7,1.3,0.7,2.3v1.5H51v1.4c0,0.7,0.1,1.2,0.4,1.4
		c0.3,0.3,0.7,0.4,1.2,0.4s0.9-0.1,1.2-0.3c0.3-0.2,0.4-0.5,0.5-1L55.4,125.4z M51,121.4v0.7h3.2v-0.5c0-0.7-0.1-1.2-0.4-1.6
		c-0.3-0.4-0.7-0.5-1.2-0.5s-0.9,0.2-1.2,0.5S51,120.8,51,121.4z"/>
	<path class="st4" d="M62.2,126.2c-0.1,0.4-0.4,0.7-0.7,0.9c-0.3,0.2-0.7,0.3-1.2,0.3c-0.7,0-1.2-0.3-1.6-0.8
		c-0.4-0.5-0.6-1.3-0.6-2.3v-2.9c0-1,0.2-1.7,0.7-2.3c0.5-0.5,1.2-0.8,2.1-0.8c0.2,0,0.5,0,0.8,0.1s0.5,0.2,0.8,0.3v-3.2h1.1v11.6
		h-1.1V126h-0.3V126.2z M60.6,126.3c0.4,0,0.8-0.1,1.1-0.4c0.3-0.2,0.6-0.6,0.9-1.1V120c-0.2-0.2-0.4-0.4-0.7-0.5s-0.5-0.1-0.8-0.1
		c-0.6,0-1,0.2-1.3,0.5s-0.4,0.9-0.4,1.5v3c0,0.6,0.1,1.1,0.3,1.4C59.8,126.1,60.1,126.3,60.6,126.3z"/>
	<path class="st4" d="M69.1,127.4c-0.4,0-0.7-0.1-0.9-0.3c-0.2-0.2-0.3-0.5-0.3-0.9V126c0-0.4,0.1-0.8,0.3-1
		c0.2-0.2,0.5-0.3,0.9-0.3s0.7,0.1,0.9,0.3c0.2,0.2,0.3,0.5,0.3,1v0.2c0,0.4-0.1,0.7-0.3,0.9C69.7,127.3,69.5,127.4,69.1,127.4z"/>
</g>
<g>
	<path class="st4" d="M212.1,105.8V94.2h3c1.1,0,2,0.4,2.6,1.1s1,1.6,1,2.8v4c0,1.2-0.3,2.1-1,2.8s-1.5,1-2.7,1L212.1,105.8
		L212.1,105.8z M213.3,104.8h1.8c0.8,0,1.4-0.2,1.8-0.7c0.4-0.5,0.7-1.2,0.7-2v-4c0-0.9-0.2-1.6-0.7-2.1c-0.4-0.5-1-0.8-1.8-0.8
		h-1.8V104.8z"/>
	<path class="st4" d="M227.1,104c-0.2,0.7-0.5,1.2-1,1.5s-1,0.5-1.8,0.5c-0.9,0-1.6-0.3-2-0.8c-0.5-0.5-0.7-1.3-0.7-2.2v-3
		c0-1,0.2-1.7,0.7-2.2s1.2-0.8,2-0.8s1.5,0.3,2,0.8c0.5,0.6,0.7,1.3,0.7,2.3v1.5h-4.4v1.4c0,0.7,0.1,1.2,0.4,1.4
		c0.3,0.3,0.7,0.4,1.2,0.4s0.9-0.1,1.2-0.3c0.3-0.2,0.4-0.5,0.5-1L227.1,104z M222.7,100v0.7h3.2v-0.5c0-0.7-0.1-1.2-0.4-1.6
		c-0.3-0.4-0.7-0.5-1.2-0.5s-0.9,0.2-1.2,0.5S222.7,99.4,222.7,100z"/>
	<path class="st4" d="M232.1,106c-0.7,0-1.2-0.2-1.6-0.7s-0.6-1-0.6-1.8s0.2-1.4,0.6-1.8s1-0.7,1.7-0.7h2.1v-1.5
		c0-0.4-0.1-0.8-0.4-1.1s-0.6-0.5-1.1-0.5s-0.9,0.1-1.2,0.4c-0.2,0.2-0.4,0.7-0.6,1.4l-0.9-0.3c0.1-0.8,0.4-1.4,0.8-1.8
		c0.4-0.4,1-0.6,1.8-0.6s1.4,0.2,1.9,0.6s0.8,1,0.8,1.8v4.6c0,0.4,0.1,0.7,0.3,0.9c0.2,0.1,0.5,0.2,1,0v1.1c-0.6,0.1-1.1,0-1.4-0.2
		c-0.3-0.2-0.5-0.6-0.5-1.2h-0.2c-0.2,0.4-0.5,0.8-0.9,1C233.1,105.8,232.6,106,232.1,106z M232.2,104.9c0.4,0,0.8-0.1,1.1-0.3
		c0.4-0.2,0.6-0.5,0.9-1V102h-1.9c-0.4,0-0.7,0.1-1,0.3c-0.2,0.2-0.4,0.6-0.4,1.1s0.1,0.8,0.3,1.1
		C231.4,104.8,231.8,104.9,232.2,104.9z"/>
	<path class="st4" d="M243.3,104.8c-0.1,0.4-0.4,0.7-0.7,0.9c-0.3,0.2-0.7,0.3-1.2,0.3c-0.7,0-1.2-0.3-1.6-0.8
		c-0.4-0.5-0.6-1.3-0.6-2.3V100c0-1,0.2-1.7,0.7-2.3c0.5-0.5,1.2-0.8,2.1-0.8c0.2,0,0.5,0,0.8,0.1s0.5,0.2,0.8,0.3v-3.2h1.1v11.6
		h-1.1v-1.1h-0.3V104.8z M241.7,104.9c0.4,0,0.8-0.1,1.1-0.4c0.3-0.2,0.6-0.6,0.9-1.1v-4.8c-0.2-0.2-0.4-0.4-0.7-0.5
		s-0.5-0.1-0.8-0.1c-0.6,0-1,0.2-1.3,0.5s-0.4,0.9-0.4,1.5v3c0,0.6,0.1,1.1,0.3,1.4C240.9,104.7,241.2,104.9,241.7,104.9z"/>
	<path class="st4" d="M250.5,105.9c-0.8,0-1.3-0.3-1.8-0.8c-0.4-0.5-0.6-1.3-0.6-2.2v-8.7h1.1v8.7c0,0.6,0.1,1.1,0.3,1.4
		s0.5,0.5,1,0.5c0.1,0,0.2,0,0.4-0.1c0.1,0,0.3-0.1,0.4-0.2l0.2,1c-0.1,0.1-0.3,0.1-0.5,0.2S250.7,105.9,250.5,105.9z"/>
	<path class="st4" d="M255.2,95.4c-0.3,0-0.5-0.1-0.7-0.2s-0.3-0.3-0.3-0.6v-0.1c0-0.3,0.1-0.5,0.3-0.6s0.4-0.2,0.7-0.2
		s0.5,0.1,0.7,0.2c0.2,0.1,0.3,0.3,0.3,0.6v0.1c0,0.3-0.1,0.5-0.3,0.6S255.5,95.4,255.2,95.4z M254.6,105.8v-8.7h1.1v8.7H254.6z"/>
	<path class="st4" d="M259.6,105.8v-8.7h1.1v1.1h0.3c0.2-0.4,0.4-0.7,0.8-0.9s0.7-0.4,1.1-0.4c0.6,0,1.1,0.3,1.5,0.8
		s0.6,1.1,0.6,1.9v6.2h-1.1v-5.9c0-0.6-0.1-1-0.3-1.3c-0.2-0.3-0.5-0.5-0.9-0.5s-0.7,0.1-1.1,0.3c-0.3,0.2-0.6,0.6-0.9,1v6.4H259.6z
		"/>
	<path class="st4" d="M273.4,104c-0.2,0.7-0.5,1.2-1,1.5s-1,0.5-1.8,0.5c-0.9,0-1.6-0.3-2-0.8c-0.5-0.5-0.7-1.3-0.7-2.2v-3
		c0-1,0.2-1.7,0.7-2.2s1.2-0.8,2-0.8s1.5,0.3,2,0.8c0.5,0.6,0.7,1.3,0.7,2.3v1.5H269v1.4c0,0.7,0.1,1.2,0.4,1.4
		c0.3,0.3,0.7,0.4,1.2,0.4s0.9-0.1,1.2-0.3c0.3-0.2,0.4-0.5,0.5-1L273.4,104z M269,100v0.7h3.2v-0.5c0-0.7-0.1-1.2-0.4-1.6
		s-0.7-0.5-1.2-0.5s-0.9,0.2-1.2,0.5C269.1,98.9,269,99.4,269,100z"/>
	<path class="st4" d="M284,105.8v-7.7h-1.3V97h1.3v-0.7c0-0.7,0.2-1.2,0.6-1.6s0.8-0.6,1.3-0.6c0.2,0,0.5,0,0.8,0.1s0.6,0.2,0.7,0.3
		l-0.2,1c-0.2-0.1-0.3-0.1-0.5-0.2s-0.4-0.1-0.6-0.1c-0.3,0-0.5,0.1-0.7,0.2c-0.2,0.2-0.3,0.4-0.3,0.7v0.8h2.2V98h-2.2v7.7
		L284,105.8L284,105.8z"/>
	<path class="st4" d="M292.9,106c-0.9,0-1.5-0.3-2-0.9s-0.7-1.4-0.7-2.5v-2.3c0-1.1,0.2-1.9,0.7-2.5s1.2-0.9,2-0.9
		c0.9,0,1.6,0.3,2,0.9c0.5,0.6,0.7,1.4,0.7,2.5v2.3c0,1.1-0.2,1.9-0.7,2.5S293.8,106,292.9,106z M292.9,104.9c0.6,0,1-0.2,1.2-0.5
		c0.3-0.4,0.4-0.9,0.4-1.7v-2.3c0-0.8-0.1-1.4-0.4-1.7c-0.3-0.4-0.7-0.6-1.2-0.6s-1,0.2-1.2,0.6c-0.3,0.4-0.4,1-0.4,1.7v2.3
		c0,0.8,0.1,1.3,0.4,1.7C291.9,104.7,292.3,104.9,292.9,104.9z"/>
	<path class="st4" d="M298.4,105.8v-8.7h1.1v1.1h0.3c0.1-0.4,0.4-0.8,0.7-1c0.3-0.2,0.7-0.3,1.1-0.3c0.5,0,0.9,0.2,1.2,0.5
		c0.3,0.4,0.4,0.9,0.4,1.5v1.6h-1.1V99c0-0.3-0.1-0.6-0.2-0.8c-0.2-0.2-0.4-0.3-0.6-0.3c-0.3,0-0.6,0.1-1,0.4
		c-0.3,0.3-0.6,0.6-0.8,1v6.4h-1.1V105.8z"/>
	<path class="st4" d="M193.3,128c-0.5,0-1.1-0.1-1.6-0.3c-0.5-0.2-1-0.4-1.4-0.8l0.5-1c0.3,0.3,0.7,0.5,1.2,0.6
		c0.5,0.2,0.9,0.3,1.4,0.3s0.9-0.1,1.2-0.3c0.3-0.2,0.4-0.5,0.4-1s-0.1-0.8-0.4-1.1c-0.3-0.2-0.7-0.4-1.4-0.6
		c-0.8-0.2-1.5-0.5-1.9-0.9s-0.7-1-0.7-1.8c0-0.7,0.2-1.3,0.7-1.7s1.1-0.7,1.8-0.7c0.5,0,1,0.1,1.5,0.3c0.5,0.2,0.9,0.5,1.3,0.8
		l-0.5,1c-0.3-0.2-0.7-0.5-1.1-0.7c-0.4-0.2-0.8-0.3-1.3-0.3s-0.8,0.1-1,0.3c-0.2,0.2-0.3,0.5-0.3,1s0.1,0.8,0.4,1.1
		c0.3,0.2,0.8,0.4,1.5,0.6c0.9,0.2,1.5,0.5,1.9,0.9s0.6,1,0.6,1.7s-0.3,1.3-0.8,1.7S194.1,128,193.3,128z"/>
	<path class="st4" d="M204.3,126c-0.2,0.7-0.5,1.2-1,1.5s-1,0.5-1.8,0.5c-0.9,0-1.6-0.3-2-0.8c-0.5-0.5-0.7-1.3-0.7-2.2v-3
		c0-1,0.2-1.7,0.7-2.2s1.2-0.8,2-0.8s1.5,0.3,2,0.8c0.5,0.6,0.7,1.3,0.7,2.3v1.5h-4.4v1.4c0,0.7,0.1,1.2,0.4,1.4
		c0.3,0.3,0.7,0.4,1.2,0.4s0.9-0.1,1.2-0.3c0.3-0.2,0.4-0.5,0.5-1L204.3,126z M199.9,122v0.7h3.2v-0.5c0-0.7-0.1-1.2-0.4-1.6
		c-0.3-0.4-0.7-0.5-1.2-0.5s-0.9,0.2-1.2,0.5S199.9,121.4,199.9,122z"/>
	<path class="st4" d="M207.1,127.8v-8.7h1.1v1.1h0.3c0.2-0.4,0.4-0.7,0.8-0.9s0.7-0.4,1.1-0.4c0.6,0,1.1,0.3,1.5,0.8
		s0.6,1.1,0.6,1.9v6.2h-1.1v-5.9c0-0.6-0.1-1-0.3-1.3s-0.5-0.5-0.9-0.5s-0.7,0.1-1.1,0.3c-0.3,0.2-0.6,0.6-0.9,1v6.4H207.1z"/>
	<path class="st4" d="M219.4,126.8c-0.1,0.4-0.4,0.7-0.7,0.9c-0.3,0.2-0.7,0.3-1.2,0.3c-0.7,0-1.2-0.3-1.6-0.8
		c-0.4-0.5-0.6-1.3-0.6-2.3V122c0-1,0.2-1.7,0.7-2.3c0.5-0.5,1.2-0.8,2.1-0.8c0.2,0,0.5,0,0.8,0.1s0.5,0.2,0.8,0.3v-3.2h1.1v11.6
		h-1.1v-1.1h-0.3V126.8z M217.8,126.9c0.4,0,0.8-0.1,1.1-0.4c0.3-0.2,0.6-0.6,0.9-1.1v-4.8c-0.2-0.2-0.4-0.4-0.7-0.5
		s-0.5-0.1-0.8-0.1c-0.6,0-1,0.2-1.3,0.5s-0.4,0.9-0.4,1.5v3c0,0.6,0.1,1.1,0.3,1.4C217,126.7,217.4,126.9,217.8,126.9z"/>
	<path class="st4" d="M225.2,117.4c-0.3,0-0.5-0.1-0.7-0.2s-0.3-0.3-0.3-0.6v-0.1c0-0.3,0.1-0.5,0.3-0.6s0.4-0.2,0.7-0.2
		s0.5,0.1,0.7,0.2s0.3,0.3,0.3,0.6v0.1c0,0.3-0.1,0.5-0.3,0.6S225.5,117.4,225.2,117.4z M224.7,127.8v-8.7h1.1v8.7H224.7z"/>
	<path class="st4" d="M229.6,127.8v-8.7h1.1v1.1h0.3c0.2-0.4,0.4-0.7,0.8-0.9s0.7-0.4,1.1-0.4c0.6,0,1.1,0.3,1.5,0.8
		s0.6,1.1,0.6,1.9v6.2h-1.1v-5.9c0-0.6-0.1-1-0.3-1.3s-0.5-0.5-0.9-0.5s-0.7,0.1-1.1,0.3c-0.3,0.2-0.6,0.6-0.9,1v6.4H229.6z"/>
	<path class="st4" d="M244.5,128.7c0,0.8-0.2,1.4-0.7,1.7c-0.4,0.4-1,0.5-1.6,0.5h-2.1c-0.7,0-1.2-0.2-1.6-0.5s-0.6-0.9-0.6-1.7
		c0-0.4,0.1-0.8,0.3-1.1c0.2-0.3,0.5-0.4,0.8-0.5v-0.3c-0.3,0-0.5-0.2-0.6-0.4s-0.2-0.6-0.2-1s0.1-0.7,0.3-1.1s0.5-0.5,1-0.6v-0.3
		c-0.4-0.2-0.6-0.4-0.7-0.7s-0.2-0.6-0.2-0.8v-0.5c0-0.7,0.2-1.2,0.6-1.7s1-0.7,1.8-0.7h3.2v1.2l-1.7-0.4v0.3
		c0.3,0.1,0.5,0.3,0.7,0.6c0.2,0.3,0.2,0.6,0.2,0.9v0.5c0,0.6-0.2,1.2-0.6,1.6c-0.4,0.4-1,0.6-1.9,0.6h-1.3c-0.2,0-0.3,0.1-0.4,0.2
		s-0.2,0.4-0.2,0.7c0,0.3,0.1,0.6,0.2,0.7c0.1,0.2,0.4,0.2,0.6,0.2h2.5c0.6,0,1.1,0.2,1.5,0.5C244.3,127.2,244.5,127.8,244.5,128.7z
		 M240.1,129.9h2.2c0.3,0,0.6-0.1,0.8-0.3s0.3-0.5,0.3-0.9s-0.1-0.7-0.3-0.9c-0.2-0.2-0.4-0.3-0.7-0.3H239v1.1c0,0.5,0.1,0.8,0.3,1
		C239.5,129.8,239.8,129.9,240.1,129.9z M241,123.4c0.4,0,0.8-0.1,1-0.3c0.2-0.2,0.3-0.6,0.3-1.1v-0.5c0-0.5-0.1-0.9-0.3-1.1
		s-0.6-0.3-1-0.3s-0.8,0.1-1,0.3c-0.2,0.2-0.3,0.6-0.3,1.1v0.5c0,0.5,0.1,0.9,0.3,1.1C240.2,123.3,240.5,123.4,241,123.4z"/>
	<path class="st4" d="M256.7,128c-0.2,0-0.5,0-0.8-0.1s-0.5-0.2-0.8-0.3v3.2H254v-11.6h1.1v1.1h0.3c0.1-0.4,0.4-0.7,0.7-0.9
		c0.3-0.2,0.7-0.3,1.2-0.3c0.7,0,1.2,0.3,1.5,0.8c0.4,0.5,0.6,1.3,0.6,2.2v2.9c0,1-0.3,1.7-0.8,2.3C258.3,127.7,257.6,128,256.7,128
		z M256.7,127c0.6,0,1-0.2,1.3-0.5s0.4-0.8,0.4-1.6v-3c0-0.7-0.1-1.1-0.3-1.4c-0.2-0.3-0.5-0.4-1-0.4c-0.4,0-0.8,0.1-1.1,0.3
		c-0.3,0.2-0.6,0.6-0.9,1.1v4.8c0.2,0.2,0.4,0.4,0.7,0.5S256.4,127,256.7,127z"/>
	<path class="st4" d="M262.3,127.8v-8.7h1.1v1.1h0.3c0.1-0.4,0.4-0.8,0.7-1c0.3-0.2,0.7-0.3,1.1-0.3c0.5,0,0.9,0.2,1.2,0.5
		c0.3,0.4,0.4,0.9,0.4,1.5v1.6H266V121c0-0.3-0.1-0.6-0.2-0.8c-0.2-0.2-0.4-0.3-0.6-0.3c-0.3,0-0.6,0.1-1,0.4
		c-0.3,0.3-0.6,0.6-0.8,1v6.4h-1.1V127.8z"/>
	<path class="st4" d="M272.3,128c-0.9,0-1.5-0.3-2-0.9s-0.7-1.4-0.7-2.5v-2.3c0-1.1,0.2-1.9,0.7-2.5s1.2-0.9,2-0.9
		c0.9,0,1.6,0.3,2,0.9c0.5,0.6,0.7,1.4,0.7,2.5v2.3c0,1.1-0.2,1.9-0.7,2.5C273.9,127.7,273.2,128,272.3,128z M272.3,126.9
		c0.6,0,1-0.2,1.2-0.5c0.3-0.4,0.4-0.9,0.4-1.7v-2.3c0-0.8-0.1-1.4-0.4-1.7c-0.3-0.4-0.7-0.6-1.2-0.6s-1,0.2-1.2,0.6
		c-0.3,0.4-0.4,1-0.4,1.7v2.3c0,0.8,0.1,1.3,0.4,1.7C271.3,126.7,271.7,126.9,272.3,126.9z"/>
	<path class="st4" d="M280.5,128c-0.2,0-0.5,0-0.8-0.1s-0.5-0.2-0.8-0.3v3.2h-1.1v-11.6h1.1v1.1h0.3c0.1-0.4,0.4-0.7,0.7-0.9
		c0.3-0.2,0.7-0.3,1.2-0.3c0.7,0,1.2,0.3,1.5,0.8c0.4,0.5,0.6,1.3,0.6,2.2v2.9c0,1-0.3,1.7-0.8,2.3C282.1,127.7,281.4,128,280.5,128
		z M280.5,127c0.6,0,1-0.2,1.3-0.5s0.4-0.8,0.4-1.6v-3c0-0.7-0.1-1.1-0.3-1.4c-0.2-0.3-0.5-0.4-1-0.4c-0.4,0-0.8,0.1-1.1,0.3
		c-0.3,0.2-0.6,0.6-0.9,1.1v4.8c0.2,0.2,0.4,0.4,0.7,0.5C279.9,126.9,280.2,127,280.5,127z"/>
	<path class="st4" d="M288.9,128c-0.9,0-1.5-0.3-2-0.9s-0.7-1.4-0.7-2.5v-2.3c0-1.1,0.2-1.9,0.7-2.5s1.2-0.9,2-0.9
		c0.9,0,1.6,0.3,2,0.9c0.5,0.6,0.7,1.4,0.7,2.5v2.3c0,1.1-0.2,1.9-0.7,2.5C290.5,127.7,289.8,128,288.9,128z M288.9,126.9
		c0.6,0,1-0.2,1.2-0.5c0.3-0.4,0.4-0.9,0.4-1.7v-2.3c0-0.8-0.1-1.4-0.4-1.7c-0.3-0.4-0.7-0.6-1.2-0.6s-1,0.2-1.2,0.6
		c-0.3,0.4-0.4,1-0.4,1.7v2.3c0,0.8,0.1,1.3,0.4,1.7C287.9,126.7,288.3,126.9,288.9,126.9z"/>
	<path class="st4" d="M297.3,128c-0.5,0-1.1-0.1-1.6-0.3c-0.5-0.2-1-0.4-1.4-0.8l0.5-1c0.3,0.3,0.7,0.5,1.2,0.6
		c0.5,0.2,0.9,0.3,1.4,0.3s0.9-0.1,1.2-0.3c0.3-0.2,0.4-0.5,0.4-1s-0.1-0.8-0.4-1.1c-0.3-0.2-0.7-0.4-1.4-0.6
		c-0.8-0.2-1.5-0.5-1.9-0.9s-0.7-1-0.7-1.8c0-0.7,0.2-1.3,0.7-1.7s1.1-0.7,1.8-0.7c0.5,0,1,0.1,1.5,0.3c0.5,0.2,0.9,0.5,1.3,0.8
		l-0.5,1c-0.3-0.2-0.7-0.5-1.1-0.7s-0.8-0.3-1.3-0.3s-0.8,0.1-1,0.3c-0.2,0.2-0.3,0.5-0.3,1s0.1,0.8,0.4,1.1
		c0.3,0.2,0.8,0.4,1.5,0.6c0.9,0.2,1.5,0.5,1.9,0.9s0.6,1,0.6,1.7s-0.3,1.3-0.8,1.7S298.1,128,297.3,128z"/>
	<path class="st4" d="M305,128c-0.7,0-1.2-0.2-1.6-0.7s-0.6-1-0.6-1.8s0.2-1.4,0.6-1.8s1-0.7,1.7-0.7h2.1v-1.5
		c0-0.4-0.1-0.8-0.4-1.1s-0.6-0.5-1.1-0.5s-0.9,0.1-1.2,0.4c-0.2,0.2-0.4,0.7-0.6,1.4l-0.9-0.3c0.1-0.8,0.4-1.4,0.8-1.8
		s1-0.6,1.8-0.6s1.4,0.2,1.9,0.6s0.8,1,0.8,1.8v4.6c0,0.4,0.1,0.7,0.3,0.9c0.2,0.1,0.5,0.2,1,0v1.1c-0.6,0.1-1.1,0-1.4-0.2
		s-0.5-0.6-0.5-1.2h-0.2c-0.2,0.4-0.5,0.8-0.9,1C306,127.8,305.5,128,305,128z M305.2,126.9c0.4,0,0.8-0.1,1.1-0.3
		c0.4-0.2,0.6-0.5,0.9-1V124h-1.9c-0.4,0-0.7,0.1-1,0.3c-0.2,0.2-0.4,0.6-0.4,1.1s0.1,0.8,0.3,1.1
		C304.4,126.8,304.7,126.9,305.2,126.9z"/>
	<path class="st4" d="M314.5,127.9c-0.8,0-1.3-0.3-1.8-0.8c-0.4-0.5-0.6-1.3-0.6-2.2v-8.7h1.1v8.7c0,0.6,0.1,1.1,0.3,1.4
		c0.2,0.3,0.5,0.5,1,0.5c0.1,0,0.2,0,0.4-0.1c0.1,0,0.3-0.1,0.4-0.2l0.2,1c-0.1,0.1-0.3,0.1-0.5,0.2S314.7,127.9,314.5,127.9z"/>
	<path class="st4" d="M320.5,128c-0.5,0-1.1-0.1-1.6-0.3c-0.5-0.2-1-0.4-1.4-0.8l0.5-1c0.3,0.3,0.7,0.5,1.2,0.6
		c0.5,0.2,0.9,0.3,1.4,0.3s0.9-0.1,1.2-0.3c0.3-0.2,0.4-0.5,0.4-1s-0.1-0.8-0.4-1.1c-0.3-0.2-0.7-0.4-1.4-0.6
		c-0.8-0.2-1.5-0.5-1.9-0.9s-0.7-1-0.7-1.8c0-0.7,0.2-1.3,0.7-1.7s1.1-0.7,1.8-0.7c0.5,0,1,0.1,1.5,0.3c0.5,0.2,0.9,0.5,1.3,0.8
		l-0.5,1c-0.3-0.2-0.7-0.5-1.1-0.7s-0.8-0.3-1.3-0.3s-0.8,0.1-1,0.3c-0.2,0.2-0.3,0.5-0.3,1s0.1,0.8,0.4,1.1
		c0.3,0.2,0.8,0.4,1.5,0.6c0.9,0.2,1.5,0.5,1.9,0.9s0.6,1,0.6,1.7s-0.3,1.3-0.8,1.7S321.3,128,320.5,128z"/>
	<path class="st4" d="M328.6,128c-0.4,0-0.7-0.1-0.9-0.3c-0.2-0.2-0.3-0.5-0.3-0.9v-0.2c0-0.4,0.1-0.8,0.3-1
		c0.2-0.2,0.5-0.3,0.9-0.3s0.7,0.1,0.9,0.3c0.2,0.2,0.3,0.5,0.3,1v0.2c0,0.4-0.1,0.7-0.3,0.9C329.3,127.9,329,128,328.6,128z"/>
</g>
<g>
	<path class="st4" d="M222.7,75.4l-0.7-3.8h-3.2l-0.7,3.8h-2.6l3.2-14.5h3.7l3.2,14.5H222.7z M221.6,69.5l-1.2-6.1l-1.2,6.1H221.6z"
		/>
	<path class="st4" d="M232.6,75.6c-0.3,0-0.7,0-1-0.1s-0.6-0.2-0.9-0.4v4h-2.8V64.5h2.8V66h0.4c0.2-0.5,0.5-1,0.9-1.3s1-0.4,1.6-0.4
		c0.8,0,1.5,0.3,1.9,1c0.4,0.6,0.7,1.6,0.7,2.7v3.8c0,1.2-0.3,2.1-0.9,2.8C234.6,75.2,233.7,75.6,232.6,75.6z M232,73.5
		c0.4,0,0.8-0.1,1-0.4s0.3-0.7,0.3-1.3v-3.6c0-0.6-0.1-1-0.3-1.3s-0.4-0.4-0.8-0.4c-0.3,0-0.6,0.1-0.9,0.3s-0.5,0.5-0.7,0.8V73
		c0.3,0.2,0.5,0.3,0.7,0.4C231.6,73.5,231.8,73.5,232,73.5z"/>
	<path class="st4" d="M239.4,75.4V64.5h2.8V66h0.4c0.2-0.6,0.5-1,0.9-1.3s0.8-0.4,1.3-0.4c0.8,0,1.3,0.3,1.7,0.8s0.5,1.2,0.5,2.1v2
		h-2.5v-1.6c0-0.4-0.1-0.6-0.2-0.8s-0.3-0.3-0.6-0.3s-0.5,0.1-0.8,0.4s-0.5,0.6-0.7,1v7.6L239.4,75.4L239.4,75.4z"/>
	<path class="st4" d="M251.6,62.7c-0.5,0-0.9-0.1-1.3-0.3c-0.3-0.2-0.5-0.5-0.5-0.9v-0.2c0-0.4,0.2-0.8,0.5-1s0.8-0.3,1.3-0.3
		s1,0.1,1.3,0.3s0.5,0.5,0.5,1v0.2c0,0.4-0.2,0.8-0.5,0.9C252.5,62.6,252.1,62.7,251.6,62.7z M250.2,75.4V64.5h2.8v10.9H250.2z"/>
	<path class="st4" d="M260.9,75.6c-1.1,0-1.9-0.3-2.4-1c-0.6-0.7-0.9-1.6-0.9-2.9V60.9h2.8v10.8c0,0.6,0.1,1.1,0.3,1.3
		s0.4,0.4,0.8,0.4c0.2,0,0.4,0,0.6-0.1s0.4-0.2,0.6-0.3l0.4,2c-0.3,0.2-0.7,0.3-1.1,0.4S261.2,75.6,260.9,75.6z"/>
	<path class="st4" d="M275.2,75.4v-2.1h3v-9.4h-0.4c-0.1,0.8-0.5,1.4-1,1.8c-0.5,0.5-1.1,0.7-1.7,0.8l-0.1-2.2
		c0.8-0.1,1.5-0.4,2.1-1.1s1-1.4,1.2-2.4h2.7v12.4h2.7v2.1L275.2,75.4L275.2,75.4z"/>
	<path class="st4" d="M291.1,75.6c-0.8,0-1.6-0.1-2.4-0.4c-0.7-0.3-1.4-0.6-1.9-1l0.6-1.8c0.6,0.4,1.2,0.7,1.8,0.9
		c0.7,0.2,1.3,0.4,1.9,0.4c0.5,0,0.9-0.1,1.1-0.3c0.2-0.2,0.4-0.5,0.4-0.8c0-0.4-0.2-0.8-0.5-0.9c-0.3-0.2-1-0.4-1.9-0.7
		c-0.9-0.3-1.6-0.6-2.2-1.1s-0.9-1.2-0.9-2.2c0-1.1,0.3-1.9,1-2.5s1.6-0.9,2.7-0.9c0.8,0,1.5,0.1,2.2,0.4c0.7,0.2,1.3,0.5,1.7,0.9
		l-0.5,1.7c-0.6-0.3-1.1-0.6-1.7-0.8c-0.5-0.2-1-0.3-1.5-0.3c-0.4,0-0.8,0.1-1,0.3c-0.2,0.2-0.3,0.5-0.3,0.8c0,0.4,0.2,0.8,0.5,1
		s1,0.4,2,0.7c1,0.3,1.7,0.6,2.2,1.1s0.8,1.2,0.8,2.1c0,1-0.4,1.9-1.1,2.5C293.4,75.3,292.4,75.6,291.1,75.6z"/>
	<path class="st4" d="M303.4,75.6c-1.2,0-2.1-0.3-2.7-0.9s-0.9-1.5-0.9-2.6v-5.6h-1.6v-2h1.6v-3.6h2.8v3.6h2.7v2h-2.7v5.3
		c0,0.6,0.1,1,0.3,1.3c0.2,0.3,0.5,0.4,0.9,0.4c0.2,0,0.4,0,0.6-0.1s0.5-0.2,0.7-0.3l0.3,2c-0.2,0.1-0.5,0.2-0.9,0.3
		S303.8,75.6,303.4,75.6z"/>
</g>
<g>
	<path class="st4" d="M663.6,75.4l-0.7-3.8h-3.2l-0.7,3.8h-2.6l3.2-14.5h3.7l3.2,14.5H663.6z M662.4,69.5l-1.2-6.1l-1.2,6.1H662.4z"
		/>
	<path class="st4" d="M673.4,75.6c-0.3,0-0.7,0-1-0.1s-0.6-0.2-0.9-0.4v4h-2.8V64.5h2.8V66h0.4c0.2-0.5,0.5-1,0.9-1.3s1-0.4,1.6-0.4
		c0.8,0,1.5,0.3,1.9,1c0.4,0.6,0.7,1.6,0.7,2.7v3.8c0,1.2-0.3,2.1-0.9,2.8C675.4,75.2,674.5,75.6,673.4,75.6z M672.9,73.5
		c0.4,0,0.8-0.1,1-0.4s0.3-0.7,0.3-1.3v-3.6c0-0.6-0.1-1-0.3-1.3s-0.4-0.4-0.8-0.4c-0.3,0-0.6,0.1-0.9,0.3s-0.5,0.5-0.7,0.8V73
		c0.3,0.2,0.5,0.3,0.7,0.4S672.7,73.5,672.9,73.5z"/>
	<path class="st4" d="M680.2,75.4V64.5h2.8V66h0.4c0.2-0.6,0.5-1,0.9-1.3s0.8-0.4,1.3-0.4c0.8,0,1.3,0.3,1.7,0.8s0.5,1.2,0.5,2.1v2
		h-2.5v-1.6c0-0.4-0.1-0.6-0.2-0.8s-0.3-0.3-0.6-0.3s-0.5,0.1-0.8,0.4s-0.5,0.6-0.7,1v7.6L680.2,75.4L680.2,75.4z"/>
	<path class="st4" d="M692.4,62.7c-0.5,0-0.9-0.1-1.3-0.3c-0.3-0.2-0.5-0.5-0.5-0.9v-0.2c0-0.4,0.2-0.8,0.5-1s0.8-0.3,1.3-0.3
		s1,0.1,1.3,0.3s0.5,0.5,0.5,1v0.2c0,0.4-0.2,0.8-0.5,0.9C693.4,62.6,692.9,62.7,692.4,62.7z M691,75.4V64.5h2.8v10.9H691z"/>
	<path class="st4" d="M701.7,75.6c-1.1,0-1.9-0.3-2.4-1c-0.6-0.7-0.9-1.6-0.9-2.9V60.9h2.8v10.8c0,0.6,0.1,1.1,0.3,1.3
		s0.4,0.4,0.8,0.4c0.2,0,0.4,0,0.6-0.1s0.4-0.2,0.6-0.3l0.4,2c-0.3,0.2-0.7,0.3-1.1,0.4S702.1,75.6,701.7,75.6z"/>
	<path class="st4" d="M714.9,75.4v-3.1c0-1.3,0.2-2.3,0.6-2.9c0.4-0.6,1.1-1.1,2-1.4l2.7-0.7c0.5-0.1,0.9-0.4,1.1-0.6
		c0.2-0.3,0.3-0.7,0.3-1.2v-0.8c0-0.7-0.1-1.2-0.4-1.6c-0.3-0.3-0.8-0.5-1.4-0.5c-0.7,0-1.2,0.2-1.4,0.6s-0.4,1.1-0.5,2.1l-2.8-0.2
		c0.1-1.6,0.5-2.7,1.2-3.5c0.7-0.7,1.9-1.1,3.4-1.1s2.7,0.3,3.5,1s1.2,1.7,1.2,3v1c0,1.1-0.2,1.9-0.6,2.5s-1,1-2,1.2l-2.7,0.7
		c-0.5,0.1-0.9,0.4-1.1,0.7c-0.2,0.3-0.3,0.8-0.3,1.5v1h6.8v2.1h-9.6V75.4z"/>
	<path class="st4" d="M732.6,75.6c-1.7,0-2.9-0.4-3.7-1.1s-1.2-1.8-1.2-3.4l2.8-0.2c0.1,1,0.3,1.7,0.6,2c0.3,0.4,0.8,0.6,1.6,0.6
		c0.7,0,1.3-0.2,1.6-0.5s0.4-0.8,0.4-1.6v-1.1c0-0.8-0.2-1.3-0.5-1.6c-0.3-0.3-0.8-0.5-1.5-0.5h-4.6v-7.4h8.9v2h-6.1V66h2.4
		c1.4,0,2.5,0.3,3.1,1c0.7,0.7,1,1.7,1,3v1.4c0,1.3-0.4,2.3-1.2,3C735.4,75.3,734.2,75.6,732.6,75.6z"/>
	<path class="st4" d="M745.6,75.6c-1.2,0-2.1-0.3-2.7-0.9c-0.6-0.6-0.9-1.5-0.9-2.6v-5.6h-1.6v-2h1.6v-3.6h2.8v3.6h2.7v2h-2.7v5.3
		c0,0.6,0.1,1,0.3,1.3s0.5,0.4,0.9,0.4c0.2,0,0.4,0,0.6-0.1c0.2-0.1,0.5-0.2,0.7-0.3l0.3,2c-0.2,0.1-0.5,0.2-0.9,0.3
		S746,75.6,745.6,75.6z"/>
	<path class="st4" d="M750.8,75.4V60.9h2.8V66h0.4c0.2-0.5,0.5-1,1-1.3s1-0.5,1.6-0.5c0.8,0,1.4,0.3,1.8,0.9s0.7,1.4,0.7,2.5v7.7
		h-2.8V68c0-0.6-0.1-1-0.2-1.3s-0.4-0.4-0.7-0.4s-0.6,0.1-0.9,0.4c-0.3,0.2-0.5,0.6-0.8,1v7.5h-2.9L750.8,75.4L750.8,75.4z"/>
</g>
<g>
	<path class="st4" d="M5.5,71.8l-1.8-7.3v10.9H1.3V60.9h3.5l2,8.1l2-8.1h3.5v14.5H9.9V64.3l-1.8,7.5H5.5z"/>
	<path class="st4" d="M18.7,75.6c-0.9,0-1.7-0.3-2.2-0.8c-0.5-0.6-0.8-1.3-0.8-2.3s0.3-1.7,0.9-2.3c0.6-0.5,1.4-0.8,2.3-0.8h2.3
		v-1.6c0-0.5-0.1-0.8-0.3-1.1c-0.2-0.3-0.6-0.4-1-0.4c-0.5,0-0.8,0.1-1,0.4c-0.2,0.2-0.4,0.7-0.5,1.4L16,67.6c0.2-1.1,0.7-2,1.4-2.5
		c0.7-0.5,1.7-0.8,2.8-0.8c1.2,0,2.2,0.3,2.9,0.8c0.7,0.5,1,1.4,1,2.5v4.7c0,0.6,0.1,0.9,0.4,1.1c0.3,0.1,0.7,0.2,1.2,0.1v2
		c-0.8,0.2-1.5,0.2-2.1,0s-1-0.7-1.1-1.4h-0.4c-0.3,0.5-0.8,0.9-1.3,1.2C20.1,75.4,19.4,75.6,18.7,75.6z M19.5,73.8
		c0.3,0,0.7-0.1,1-0.2s0.5-0.4,0.8-0.7V71h-1.8c-0.3,0-0.5,0.1-0.7,0.3s-0.3,0.6-0.3,1.1s0.1,0.8,0.3,1.1
		C18.8,73.6,19.1,73.8,19.5,73.8z"/>
	<path class="st4" d="M28.4,75.4V64.5h2.8V66h0.4c0.2-0.6,0.5-1,0.9-1.3s0.8-0.4,1.3-0.4c0.8,0,1.3,0.3,1.7,0.8s0.5,1.2,0.5,2.1v2
		h-2.5v-1.6c0-0.4-0.1-0.6-0.2-0.8s-0.3-0.3-0.6-0.3s-0.5,0.1-0.8,0.4s-0.5,0.6-0.7,1v7.6L28.4,75.4L28.4,75.4z"/>
	<path class="st4" d="M42.8,75.6c-1.4,0-2.4-0.3-3.1-1c-0.7-0.7-1-1.6-1-2.8v-3.6c0-1.3,0.4-2.3,1.1-2.9c0.7-0.6,1.7-1,3.1-1
		c1.3,0,2.4,0.3,3.1,1c0.7,0.6,1.1,1.6,1.2,2.8l-2.7,0.2c0-0.7-0.2-1.2-0.4-1.5s-0.6-0.4-1.1-0.4s-0.9,0.1-1.1,0.4s-0.3,0.7-0.3,1.4
		v3.5c0,0.7,0.1,1.2,0.3,1.4c0.2,0.3,0.6,0.4,1.1,0.4s0.9-0.1,1.1-0.4s0.3-0.7,0.4-1.4l2.7,0.2c-0.1,1.2-0.4,2.1-1.1,2.8
		C45.1,75.3,44.1,75.6,42.8,75.6z"/>
	<path class="st4" d="M50.1,75.4V60.9h2.8V66h0.4c0.2-0.5,0.5-1,1-1.3s1-0.5,1.6-0.5c0.8,0,1.4,0.3,1.8,0.9s0.7,1.4,0.7,2.5v7.7
		h-2.8V68c0-0.6-0.1-1-0.2-1.3s-0.4-0.4-0.7-0.4s-0.6,0.1-0.9,0.4c-0.3,0.2-0.5,0.6-0.8,1v7.5h-2.9C50.1,75.2,50.1,75.4,50.1,75.4z"
		/>
	<path class="st4" d="M70,75.4v-3.1c0-1.3,0.2-2.3,0.6-2.9s1.1-1.1,2-1.4l2.7-0.7c0.5-0.1,0.9-0.4,1.1-0.6c0.2-0.3,0.3-0.7,0.3-1.2
		v-0.8c0-0.7-0.1-1.2-0.4-1.6c-0.3-0.3-0.8-0.5-1.4-0.5c-0.7,0-1.2,0.2-1.4,0.6S73,64.4,73,65.4l-2.8-0.2c0.1-1.6,0.5-2.7,1.2-3.5
		c0.7-0.7,1.9-1.1,3.4-1.1s2.7,0.3,3.5,1s1.2,1.7,1.2,3v1c0,1.1-0.2,1.9-0.6,2.5s-1,1-2,1.2L74.2,70c-0.5,0.1-0.9,0.4-1.1,0.7
		c-0.2,0.3-0.3,0.8-0.3,1.5v1h6.8v2.1H70V75.4z"/>
	<path class="st4" d="M82.9,75.4V64.5h2.8V66h0.4c0.2-0.5,0.5-1,1-1.3s1-0.5,1.6-0.5c0.8,0,1.4,0.3,1.8,0.9s0.7,1.4,0.7,2.5v7.7
		h-2.8V68c0-0.6-0.1-1-0.2-1.2c-0.2-0.3-0.4-0.4-0.7-0.4c-0.3,0-0.7,0.1-1,0.4s-0.6,0.6-0.8,1v7.5L82.9,75.4L82.9,75.4z"/>
	<path class="st4" d="M99.5,73.8c-0.2,0.6-0.5,1-0.9,1.4s-1,0.5-1.6,0.5c-0.8,0-1.4-0.3-1.9-1c-0.4-0.7-0.7-1.6-0.7-2.7v-3.8
		c0-1.2,0.3-2.1,0.9-2.8c0.6-0.7,1.5-1,2.6-1c0.3,0,0.7,0,1,0.1s0.6,0.2,0.9,0.4v-4h2.8v14.5h-2.8v-1.7L99.5,73.8L99.5,73.8z
		 M98.3,73.4c0.3,0,0.6-0.1,0.8-0.3c0.3-0.2,0.5-0.5,0.8-0.9V67c-0.3-0.2-0.5-0.4-0.7-0.5s-0.4-0.1-0.7-0.1c-0.4,0-0.8,0.1-1,0.4
		s-0.3,0.7-0.3,1.4v3.6c0,0.6,0.1,1,0.3,1.3C97.7,73.3,97.9,73.4,98.3,73.4z"/>
</g>
<g>
	<path class="st4" d="M440.9,106c-1.1,0-2-0.3-2.5-1c-0.6-0.6-0.9-1.6-0.9-2.9V98c0-1.3,0.3-2.3,0.9-3c0.6-0.6,1.4-1,2.6-1
		c1.1,0,1.9,0.3,2.4,1s0.9,1.6,0.9,2.9l-1.1,0.1c-0.1-1-0.3-1.8-0.6-2.3c-0.4-0.5-0.9-0.7-1.6-0.7c-0.8,0-1.4,0.2-1.7,0.7
		c-0.4,0.5-0.5,1.2-0.5,2.2v4.2c0,1,0.2,1.7,0.5,2.1c0.4,0.4,0.9,0.7,1.7,0.7c0.7,0,1.3-0.2,1.6-0.7c0.4-0.5,0.6-1.2,0.6-2.2
		l1.1,0.1c0,1.2-0.4,2.2-0.9,2.8C442.8,105.7,442,106,440.9,106z"/>
	<path class="st4" d="M449.7,106c-0.9,0-1.5-0.3-2-0.9s-0.7-1.4-0.7-2.5v-2.3c0-1.1,0.2-1.9,0.7-2.5s1.2-0.9,2-0.9
		c0.9,0,1.6,0.3,2,0.9c0.5,0.6,0.7,1.4,0.7,2.5v2.3c0,1.1-0.2,1.9-0.7,2.5S450.6,106,449.7,106z M449.7,104.9c0.6,0,1-0.2,1.2-0.5
		c0.3-0.4,0.4-0.9,0.4-1.7v-2.3c0-0.8-0.1-1.4-0.4-1.7c-0.3-0.4-0.7-0.6-1.2-0.6s-1,0.2-1.2,0.6c-0.3,0.4-0.4,1-0.4,1.7v2.3
		c0,0.8,0.1,1.3,0.4,1.7S449.1,104.9,449.7,104.9z"/>
	<path class="st4" d="M456.4,99.3v6.5h-1.1v-8.7h1.1v1.1h0.3c0.1-0.4,0.3-0.7,0.6-0.9c0.3-0.2,0.7-0.4,1-0.4c0.4,0,0.7,0.1,1,0.3
		c0.3,0.2,0.5,0.5,0.7,0.9h0.5c0.1-0.4,0.3-0.7,0.6-0.9c0.3-0.2,0.7-0.4,1-0.4c0.5,0,1,0.2,1.3,0.7s0.5,1,0.5,1.7v6.5h-1.1v-6.2
		c0-0.5-0.1-0.8-0.2-1.1s-0.4-0.4-0.7-0.4c-0.4,0-0.7,0.1-1,0.3c-0.3,0.2-0.6,0.5-0.7,0.9v6.5h-1.1v-6.2c0-0.5-0.1-0.8-0.3-1.1
		c-0.2-0.3-0.4-0.4-0.7-0.4c-0.3,0-0.7,0.1-1,0.3C456.8,98.6,456.5,98.9,456.4,99.3z"/>
	<path class="st4" d="M467.9,99.3v6.5h-1.1v-8.7h1.1v1.1h0.3c0.1-0.4,0.3-0.7,0.6-0.9c0.3-0.2,0.7-0.4,1-0.4c0.4,0,0.7,0.1,1,0.3
		c0.3,0.2,0.5,0.5,0.7,0.9h0.5c0.1-0.4,0.3-0.7,0.6-0.9c0.3-0.2,0.7-0.4,1-0.4c0.5,0,1,0.2,1.3,0.7s0.5,1,0.5,1.7v6.5h-1.1v-6.2
		c0-0.5-0.1-0.8-0.2-1.1s-0.4-0.4-0.7-0.4c-0.4,0-0.7,0.1-1,0.3c-0.3,0.2-0.6,0.5-0.7,0.9v6.5h-1.1v-6.2c0-0.5-0.1-0.8-0.3-1.1
		c-0.2-0.3-0.4-0.4-0.7-0.4c-0.3,0-0.7,0.1-1,0.3C468.4,98.6,468.1,98.9,467.9,99.3z"/>
	<path class="st4" d="M480.5,106c-0.6,0-1.1-0.2-1.5-0.7s-0.6-1.1-0.6-1.9v-6.2h1.1v5.9c0,0.6,0.1,1,0.3,1.3
		c0.2,0.3,0.5,0.5,0.9,0.5s0.7-0.1,1.1-0.3c0.3-0.2,0.6-0.6,0.9-1v-6.4h1.1v8.7h-1.1v-1.1h-0.3c-0.1,0.4-0.3,0.7-0.7,0.9
		S480.9,106,480.5,106z"/>
	<path class="st4" d="M486.7,105.8v-8.7h1.1v1.1h0.3c0.2-0.4,0.4-0.7,0.8-0.9c0.4-0.2,0.7-0.4,1.1-0.4c0.6,0,1.1,0.3,1.5,0.8
		s0.6,1.1,0.6,1.9v6.2H491v-5.9c0-0.6-0.1-1-0.3-1.3c-0.2-0.3-0.5-0.5-0.9-0.5s-0.7,0.1-1.1,0.3s-0.6,0.6-0.9,1v6.4H486.7z"/>
	<path class="st4" d="M496.5,95.4c-0.3,0-0.5-0.1-0.7-0.2s-0.3-0.3-0.3-0.6v-0.1c0-0.3,0.1-0.5,0.3-0.6c0.2-0.1,0.4-0.2,0.7-0.2
		c0.3,0,0.5,0.1,0.7,0.2s0.3,0.3,0.3,0.6v0.1c0,0.3-0.1,0.5-0.3,0.6C497,95.4,496.8,95.4,496.5,95.4z M496,105.8v-8.7h1.1v8.7H496z"
		/>
	<path class="st4" d="M503.8,106c-1,0-1.7-0.3-2.2-0.8s-0.7-1.3-0.7-2.2v-3c0-1,0.3-1.8,0.8-2.3s1.2-0.8,2.1-0.8s1.5,0.2,2,0.7
		c0.4,0.5,0.7,1.2,0.8,2.2h-1.1c0-0.7-0.2-1.1-0.4-1.4c-0.3-0.3-0.7-0.5-1.2-0.5c-0.6,0-1.1,0.2-1.3,0.5s-0.4,0.8-0.4,1.5v3
		c0,0.6,0.1,1.1,0.4,1.4s0.7,0.5,1.3,0.5c0.5,0,0.9-0.1,1.2-0.4c0.3-0.3,0.4-0.6,0.4-1.2h1.1c0,0.9-0.3,1.6-0.7,2
		C505.3,105.8,504.7,106,503.8,106z"/>
	<path class="st4" d="M511.4,106c-0.7,0-1.2-0.2-1.6-0.7c-0.4-0.4-0.6-1-0.6-1.8s0.2-1.4,0.6-1.8s1-0.7,1.7-0.7h2.1v-1.5
		c0-0.4-0.1-0.8-0.4-1.1c-0.3-0.3-0.6-0.5-1.1-0.5s-0.9,0.1-1.2,0.4s-0.4,0.7-0.6,1.4l-0.9-0.3c0.1-0.8,0.4-1.4,0.8-1.8
		s1-0.6,1.8-0.6s1.4,0.2,1.9,0.6s0.8,1,0.8,1.8v4.6c0,0.4,0.1,0.7,0.3,0.9c0.2,0.1,0.5,0.2,1,0v1.1c-0.6,0.1-1.1,0-1.4-0.2
		c-0.3-0.2-0.5-0.6-0.5-1.2h-0.2c-0.2,0.4-0.5,0.8-0.9,1C512.5,105.8,512,106,511.4,106z M511.6,104.9c0.4,0,0.8-0.1,1.1-0.3
		c0.4-0.2,0.6-0.5,0.9-1V102h-1.9c-0.4,0-0.7,0.1-1,0.3c-0.2,0.2-0.4,0.6-0.4,1.1s0.1,0.8,0.3,1.1
		C510.8,104.8,511.1,104.9,511.6,104.9z"/>
	<path class="st4" d="M521.3,106c-0.7,0-1.2-0.2-1.6-0.7c-0.4-0.5-0.6-1.1-0.6-1.9v-5.1h-1.3v-1.1h1.3v-2.9h1.1v2.9h2.4v1.1h-2.4
		v5.3c0,0.5,0.1,0.8,0.3,1.1c0.2,0.2,0.5,0.3,0.8,0.3c0.2,0,0.3,0,0.5-0.1c0.2,0,0.4-0.1,0.6-0.2l0.2,1c-0.2,0.1-0.5,0.2-0.7,0.3
		S521.5,106,521.3,106z"/>
	<path class="st4" d="M526.8,95.4c-0.3,0-0.5-0.1-0.7-0.2s-0.3-0.3-0.3-0.6v-0.1c0-0.3,0.1-0.5,0.3-0.6s0.4-0.2,0.7-0.2
		s0.5,0.1,0.7,0.2s0.3,0.3,0.3,0.6v0.1c0,0.3-0.1,0.5-0.3,0.6C527.3,95.4,527,95.4,526.8,95.4z M526.2,105.8v-8.7h1.1v8.7H526.2z"/>
	<path class="st4" d="M533.8,106c-0.9,0-1.5-0.3-2-0.9s-0.7-1.4-0.7-2.5v-2.3c0-1.1,0.2-1.9,0.7-2.5s1.2-0.9,2-0.9
		c0.9,0,1.6,0.3,2,0.9c0.5,0.6,0.7,1.4,0.7,2.5v2.3c0,1.1-0.2,1.9-0.7,2.5C535.4,105.7,534.7,106,533.8,106z M533.8,104.9
		c0.6,0,1-0.2,1.2-0.5c0.3-0.4,0.4-0.9,0.4-1.7v-2.3c0-0.8-0.1-1.4-0.4-1.7c-0.3-0.4-0.7-0.6-1.2-0.6s-1,0.2-1.2,0.6
		c-0.3,0.4-0.4,1-0.4,1.7v2.3c0,0.8,0.1,1.3,0.4,1.7S533.3,104.9,533.8,104.9z"/>
	<path class="st4" d="M539.4,105.8v-8.7h1.1v1.1h0.3c0.2-0.4,0.4-0.7,0.8-0.9c0.4-0.2,0.7-0.4,1.1-0.4c0.6,0,1.1,0.3,1.5,0.8
		s0.6,1.1,0.6,1.9v6.2h-1.1v-5.9c0-0.6-0.1-1-0.3-1.3s-0.5-0.5-0.9-0.5s-0.7,0.1-1.1,0.3s-0.6,0.6-0.9,1v6.4H539.4z"/>
	<path class="st4" d="M557.2,106c-0.9,0-1.5-0.3-2-0.9s-0.7-1.4-0.7-2.5v-2.3c0-1.1,0.2-1.9,0.7-2.5s1.2-0.9,2-0.9
		c0.9,0,1.6,0.3,2,0.9c0.5,0.6,0.7,1.4,0.7,2.5v2.3c0,1.1-0.2,1.9-0.7,2.5C558.8,105.7,558.1,106,557.2,106z M557.2,104.9
		c0.6,0,1-0.2,1.2-0.5c0.3-0.4,0.4-0.9,0.4-1.7v-2.3c0-0.8-0.1-1.4-0.4-1.7c-0.3-0.4-0.7-0.6-1.2-0.6s-1,0.2-1.2,0.6
		c-0.3,0.4-0.4,1-0.4,1.7v2.3c0,0.8,0.1,1.3,0.4,1.7S556.7,104.9,557.2,104.9z"/>
	<path class="st4" d="M563.9,105.8v-7.7h-1.3V97h1.3v-0.7c0-0.7,0.2-1.2,0.6-1.6c0.4-0.4,0.8-0.6,1.3-0.6c0.2,0,0.5,0,0.8,0.1
		s0.6,0.2,0.7,0.3l-0.2,1c-0.2-0.1-0.3-0.1-0.5-0.2s-0.4-0.1-0.6-0.1c-0.3,0-0.5,0.1-0.7,0.2s-0.3,0.4-0.3,0.7v0.8h2.2V98H565v7.7
		L563.9,105.8L563.9,105.8z"/>
	<path class="st4" d="M429.4,128c-0.7,0-1.2-0.2-1.6-0.7c-0.4-0.4-0.6-1-0.6-1.8s0.2-1.4,0.6-1.8s1-0.7,1.7-0.7h2.1v-1.5
		c0-0.4-0.1-0.8-0.4-1.1c-0.3-0.3-0.6-0.5-1.1-0.5s-0.9,0.1-1.2,0.4s-0.4,0.7-0.6,1.4l-0.9-0.3c0.1-0.8,0.4-1.4,0.8-1.8
		s1-0.6,1.8-0.6s1.4,0.2,1.9,0.6s0.8,1,0.8,1.8v4.6c0,0.4,0.1,0.7,0.3,0.9c0.2,0.1,0.5,0.2,1,0v1.1c-0.6,0.1-1.1,0-1.4-0.2
		s-0.5-0.6-0.5-1.2h-0.2c-0.2,0.4-0.5,0.8-0.9,1C430.4,127.8,429.9,128,429.4,128z M429.5,126.9c0.4,0,0.8-0.1,1.1-0.3
		c0.4-0.2,0.6-0.5,0.9-1V124h-1.9c-0.4,0-0.7,0.1-1,0.3c-0.2,0.2-0.4,0.6-0.4,1.1s0.1,0.8,0.3,1.1
		C428.7,126.8,429.1,126.9,429.5,126.9z"/>
	<path class="st4" d="M439.4,128c-1,0-1.7-0.3-2.2-0.8s-0.7-1.3-0.7-2.2v-3c0-1,0.3-1.8,0.8-2.3s1.2-0.8,2.1-0.8s1.5,0.2,2,0.7
		c0.4,0.5,0.7,1.2,0.8,2.2h-1.1c0-0.7-0.2-1.1-0.4-1.4c-0.3-0.3-0.7-0.5-1.2-0.5c-0.6,0-1.1,0.2-1.3,0.5s-0.4,0.8-0.4,1.5v3
		c0,0.6,0.1,1.1,0.4,1.4s0.7,0.5,1.3,0.5c0.5,0,0.9-0.1,1.2-0.4c0.3-0.3,0.4-0.6,0.4-1.2h1.1c0,0.9-0.3,1.6-0.7,2
		C441,127.8,440.3,128,439.4,128z"/>
	<path class="st4" d="M447.7,128c-1,0-1.7-0.3-2.2-0.8s-0.7-1.3-0.7-2.2v-3c0-1,0.3-1.8,0.8-2.3s1.2-0.8,2.1-0.8s1.5,0.2,2,0.7
		c0.4,0.5,0.7,1.2,0.8,2.2h-1.1c0-0.7-0.2-1.1-0.4-1.4c-0.3-0.3-0.7-0.5-1.2-0.5c-0.6,0-1.1,0.2-1.3,0.5s-0.4,0.8-0.4,1.5v3
		c0,0.6,0.1,1.1,0.4,1.4s0.7,0.5,1.3,0.5c0.5,0,0.9-0.1,1.2-0.4c0.3-0.3,0.4-0.6,0.4-1.2h1.1c0,0.9-0.3,1.6-0.7,2
		C449.3,127.8,448.6,128,447.7,128z"/>
	<path class="st4" d="M458.7,126c-0.2,0.7-0.5,1.2-1,1.5s-1,0.5-1.8,0.5c-0.9,0-1.6-0.3-2-0.8c-0.5-0.5-0.7-1.3-0.7-2.2v-3
		c0-1,0.2-1.7,0.7-2.2s1.2-0.8,2-0.8s1.5,0.3,2,0.8c0.5,0.6,0.7,1.3,0.7,2.3v1.5h-4.4v1.4c0,0.7,0.1,1.2,0.4,1.4
		c0.3,0.3,0.7,0.4,1.2,0.4s0.9-0.1,1.2-0.3c0.3-0.2,0.4-0.5,0.5-1L458.7,126z M454.3,122v0.7h3.2v-0.5c0-0.7-0.1-1.2-0.4-1.6
		s-0.7-0.5-1.2-0.5s-0.9,0.2-1.2,0.5S454.3,121.4,454.3,122z"/>
	<path class="st4" d="M464.1,128c-0.2,0-0.5,0-0.8-0.1s-0.5-0.2-0.8-0.3v3.2h-1.1v-11.6h1.1v1.1h0.3c0.1-0.4,0.4-0.7,0.7-0.9
		c0.3-0.2,0.7-0.3,1.2-0.3c0.7,0,1.2,0.3,1.5,0.8c0.4,0.5,0.6,1.3,0.6,2.2v2.9c0,1-0.3,1.7-0.8,2.3C465.7,127.7,465,128,464.1,128z
		 M464.1,127c0.6,0,1-0.2,1.3-0.5s0.4-0.8,0.4-1.6v-3c0-0.7-0.1-1.1-0.3-1.4c-0.2-0.3-0.5-0.4-1-0.4c-0.4,0-0.8,0.1-1.1,0.3
		s-0.6,0.6-0.9,1.1v4.8c0.2,0.2,0.4,0.4,0.7,0.5C463.5,126.9,463.8,127,464.1,127z"/>
	<path class="st4" d="M473,128c-0.7,0-1.2-0.2-1.6-0.7s-0.6-1.1-0.6-1.9v-5.1h-1.3v-1.1h1.3v-2.9h1.1v2.9h2.4v1.1H472v5.3
		c0,0.5,0.1,0.8,0.3,1.1c0.2,0.2,0.5,0.3,0.8,0.3c0.2,0,0.3,0,0.5-0.1c0.2,0,0.4-0.1,0.6-0.2l0.2,1c-0.2,0.1-0.5,0.2-0.7,0.3
		S473.3,128,473,128z"/>
	<path class="st4" d="M482.5,126c-0.2,0.7-0.5,1.2-1,1.5s-1,0.5-1.8,0.5c-0.9,0-1.6-0.3-2-0.8c-0.5-0.5-0.7-1.3-0.7-2.2v-3
		c0-1,0.2-1.7,0.7-2.2s1.2-0.8,2-0.8s1.5,0.3,2,0.8c0.5,0.6,0.7,1.3,0.7,2.3v1.5H478v1.4c0,0.7,0.1,1.2,0.4,1.4
		c0.3,0.3,0.7,0.4,1.2,0.4s0.9-0.1,1.2-0.3c0.3-0.2,0.4-0.5,0.5-1L482.5,126z M478.1,122v0.7h3.2v-0.5c0-0.7-0.1-1.2-0.4-1.6
		s-0.7-0.5-1.2-0.5s-0.9,0.2-1.2,0.5S478.1,121.4,478.1,122z"/>
	<path class="st4" d="M489.3,126.8c-0.1,0.4-0.4,0.7-0.7,0.9c-0.3,0.2-0.7,0.3-1.2,0.3c-0.7,0-1.2-0.3-1.6-0.8s-0.6-1.3-0.6-2.3V122
		c0-1,0.2-1.7,0.7-2.3c0.5-0.5,1.2-0.8,2.1-0.8c0.2,0,0.5,0,0.8,0.1s0.5,0.2,0.8,0.3v-3.2h1.1v11.6h-1.1v-1.1h-0.3L489.3,126.8
		L489.3,126.8z M487.7,126.9c0.4,0,0.8-0.1,1.1-0.4c0.3-0.2,0.6-0.6,0.9-1.1v-4.8c-0.2-0.2-0.4-0.4-0.7-0.5
		c-0.3-0.1-0.5-0.1-0.8-0.1c-0.6,0-1,0.2-1.3,0.5s-0.4,0.9-0.4,1.5v3c0,0.6,0.1,1.1,0.3,1.4C486.9,126.7,487.2,126.9,487.7,126.9z"
		/>
	<path class="st4" d="M503,128c-0.2,0-0.5,0-0.8-0.1s-0.5-0.2-0.8-0.3v3.2h-1.1v-11.6h1.1v1.1h0.3c0.1-0.4,0.4-0.7,0.7-0.9
		c0.3-0.2,0.7-0.3,1.2-0.3c0.7,0,1.2,0.3,1.5,0.8c0.4,0.5,0.6,1.3,0.6,2.2v2.9c0,1-0.3,1.7-0.8,2.3C504.6,127.7,503.9,128,503,128z
		 M503,127c0.6,0,1-0.2,1.3-0.5s0.4-0.8,0.4-1.6v-3c0-0.7-0.1-1.1-0.3-1.4c-0.2-0.3-0.5-0.4-1-0.4c-0.4,0-0.8,0.1-1.1,0.3
		s-0.6,0.6-0.9,1.1v4.8c0.2,0.2,0.4,0.4,0.7,0.5C502.4,126.9,502.7,127,503,127z"/>
	<path class="st4" d="M508.6,127.8v-8.7h1.1v1.1h0.3c0.1-0.4,0.4-0.8,0.7-1c0.3-0.2,0.7-0.3,1.1-0.3c0.5,0,0.9,0.2,1.2,0.5
		c0.3,0.4,0.4,0.9,0.4,1.5v1.6h-1.1V121c0-0.3-0.1-0.6-0.2-0.8s-0.4-0.3-0.6-0.3c-0.3,0-0.6,0.1-1,0.4c-0.3,0.3-0.6,0.6-0.8,1v6.4
		h-1.1L508.6,127.8L508.6,127.8z"/>
	<path class="st4" d="M518.6,128c-0.9,0-1.5-0.3-2-0.9s-0.7-1.4-0.7-2.5v-2.3c0-1.1,0.2-1.9,0.7-2.5s1.2-0.9,2-0.9
		c0.9,0,1.6,0.3,2,0.9c0.5,0.6,0.7,1.4,0.7,2.5v2.3c0,1.1-0.2,1.9-0.7,2.5C520.2,127.7,519.5,128,518.6,128z M518.6,126.9
		c0.6,0,1-0.2,1.2-0.5c0.3-0.4,0.4-0.9,0.4-1.7v-2.3c0-0.8-0.1-1.4-0.4-1.7c-0.3-0.4-0.7-0.6-1.2-0.6s-1,0.2-1.2,0.6
		c-0.3,0.4-0.4,1-0.4,1.7v2.3c0,0.8,0.1,1.3,0.4,1.7S518,126.9,518.6,126.9z"/>
	<path class="st4" d="M526.8,128c-0.2,0-0.5,0-0.8-0.1s-0.5-0.2-0.8-0.3v3.2h-1.1v-11.6h1.1v1.1h0.3c0.1-0.4,0.4-0.7,0.7-0.9
		c0.3-0.2,0.7-0.3,1.2-0.3c0.7,0,1.2,0.3,1.5,0.8c0.4,0.5,0.6,1.3,0.6,2.2v2.9c0,1-0.3,1.7-0.8,2.3C528.4,127.7,527.7,128,526.8,128
		z M526.8,127c0.6,0,1-0.2,1.3-0.5s0.4-0.8,0.4-1.6v-3c0-0.7-0.1-1.1-0.3-1.4s-0.5-0.4-1-0.4c-0.4,0-0.8,0.1-1.1,0.3
		s-0.6,0.6-0.9,1.1v4.8c0.2,0.2,0.4,0.4,0.7,0.5S526.5,127,526.8,127z"/>
	<path class="st4" d="M535.2,128c-0.9,0-1.5-0.3-2-0.9s-0.7-1.4-0.7-2.5v-2.3c0-1.1,0.2-1.9,0.7-2.5s1.2-0.9,2-0.9
		c0.9,0,1.6,0.3,2,0.9c0.5,0.6,0.7,1.4,0.7,2.5v2.3c0,1.1-0.2,1.9-0.7,2.5C536.8,127.7,536.1,128,535.2,128z M535.2,126.9
		c0.6,0,1-0.2,1.2-0.5c0.3-0.4,0.4-0.9,0.4-1.7v-2.3c0-0.8-0.1-1.4-0.4-1.7c-0.3-0.4-0.7-0.6-1.2-0.6s-1,0.2-1.2,0.6
		c-0.3,0.4-0.4,1-0.4,1.7v2.3c0,0.8,0.1,1.3,0.4,1.7S534.6,126.9,535.2,126.9z"/>
	<path class="st4" d="M543.6,128c-0.5,0-1.1-0.1-1.6-0.3s-1-0.4-1.4-0.8l0.5-1c0.3,0.3,0.7,0.5,1.2,0.6c0.5,0.2,0.9,0.3,1.4,0.3
		s0.9-0.1,1.2-0.3c0.3-0.2,0.4-0.5,0.4-1s-0.1-0.8-0.4-1.1c-0.3-0.2-0.7-0.4-1.4-0.6c-0.8-0.2-1.5-0.5-1.9-0.9s-0.7-1-0.7-1.8
		c0-0.7,0.2-1.3,0.7-1.7c0.5-0.4,1.1-0.7,1.8-0.7c0.5,0,1,0.1,1.5,0.3c0.5,0.2,0.9,0.5,1.3,0.8l-0.5,1c-0.3-0.2-0.7-0.5-1.1-0.7
		c-0.4-0.2-0.8-0.3-1.3-0.3s-0.8,0.1-1,0.3c-0.2,0.2-0.3,0.5-0.3,1s0.1,0.8,0.4,1.1c0.3,0.2,0.8,0.4,1.5,0.6
		c0.9,0.2,1.5,0.5,1.9,0.9s0.6,1,0.6,1.7s-0.3,1.3-0.8,1.7C545,127.8,544.4,128,543.6,128z"/>
	<path class="st4" d="M551.3,128c-0.7,0-1.2-0.2-1.6-0.7c-0.4-0.4-0.6-1-0.6-1.8s0.2-1.4,0.6-1.8c0.4-0.4,1-0.7,1.7-0.7h2.1v-1.5
		c0-0.4-0.1-0.8-0.4-1.1c-0.3-0.3-0.6-0.5-1.1-0.5s-0.9,0.1-1.2,0.4s-0.4,0.7-0.6,1.4l-0.9-0.3c0.1-0.8,0.4-1.4,0.8-1.8
		c0.4-0.4,1-0.6,1.8-0.6s1.4,0.2,1.9,0.6s0.8,1,0.8,1.8v4.6c0,0.4,0.1,0.7,0.3,0.9c0.2,0.1,0.5,0.2,1,0v1.1c-0.6,0.1-1.1,0-1.4-0.2
		c-0.3-0.2-0.5-0.6-0.5-1.2h-0.2c-0.2,0.4-0.5,0.8-0.9,1C552.3,127.8,551.8,128,551.3,128z M551.5,126.9c0.4,0,0.8-0.1,1.1-0.3
		c0.4-0.2,0.6-0.5,0.9-1V124h-1.9c-0.4,0-0.7,0.1-1,0.3c-0.2,0.2-0.4,0.6-0.4,1.1s0.1,0.8,0.3,1.1
		C550.7,126.8,551,126.9,551.5,126.9z"/>
	<path class="st4" d="M560.8,127.9c-0.8,0-1.3-0.3-1.8-0.8s-0.6-1.3-0.6-2.2v-8.7h1.1v8.7c0,0.6,0.1,1.1,0.3,1.4s0.5,0.5,1,0.5
		c0.1,0,0.2,0,0.4-0.1c0.1,0,0.3-0.1,0.4-0.2l0.2,1c-0.1,0.1-0.3,0.1-0.5,0.2C561.2,127.9,561,127.9,560.8,127.9z"/>
	<path class="st4" d="M566.8,128c-0.5,0-1.1-0.1-1.6-0.3s-1-0.4-1.4-0.8l0.5-1c0.3,0.3,0.7,0.5,1.2,0.6c0.5,0.2,0.9,0.3,1.4,0.3
		s0.9-0.1,1.2-0.3c0.3-0.2,0.4-0.5,0.4-1s-0.1-0.8-0.4-1.1c-0.3-0.2-0.7-0.4-1.4-0.6c-0.8-0.2-1.5-0.5-1.9-0.9s-0.7-1-0.7-1.8
		c0-0.7,0.2-1.3,0.7-1.7c0.5-0.4,1.1-0.7,1.8-0.7c0.5,0,1,0.1,1.5,0.3c0.5,0.2,0.9,0.5,1.3,0.8l-0.5,1c-0.3-0.2-0.7-0.5-1.1-0.7
		c-0.4-0.2-0.8-0.3-1.3-0.3s-0.8,0.1-1,0.3c-0.2,0.2-0.3,0.5-0.3,1s0.1,0.8,0.4,1.1c0.3,0.2,0.8,0.4,1.5,0.6
		c0.9,0.2,1.5,0.5,1.9,0.9s0.6,1,0.6,1.7s-0.3,1.3-0.8,1.7C568.3,127.8,567.6,128,566.8,128z"/>
	<path class="st4" d="M574.9,128c-0.4,0-0.7-0.1-0.9-0.3c-0.2-0.2-0.3-0.5-0.3-0.9v-0.2c0-0.4,0.1-0.8,0.3-1s0.5-0.3,0.9-0.3
		s0.7,0.1,0.9,0.3c0.2,0.2,0.3,0.5,0.3,1v0.2c0,0.4-0.1,0.7-0.3,0.9C575.6,127.9,575.3,128,574.9,128z"/>
</g>
<g class="st5">
	<path class="st4" d="M463.9,75.4l-0.7-3.8h-3.3l-0.8,3.8h-2.6l3.3-14.7h3.7l3.2,14.7H463.9z M462.7,69.4l-1.2-6.2l-1.2,6.2H462.7z"
		/>
	<path class="st4" d="M473.9,75.5c-0.3,0-0.7,0-1-0.1c-0.3-0.1-0.7-0.2-0.9-0.4v4h-2.8V64.4h2.8v1.5h0.4c0.2-0.6,0.5-1,0.9-1.3
		c0.4-0.3,1-0.5,1.6-0.5c0.8,0,1.5,0.3,1.9,1c0.4,0.7,0.7,1.6,0.7,2.8v3.8c0,1.2-0.3,2.2-0.9,2.8C475.9,75.2,475,75.5,473.9,75.5z
		 M473.3,73.5c0.5,0,0.8-0.1,1-0.4s0.3-0.7,0.3-1.4v-3.6c0-0.6-0.1-1-0.3-1.3c-0.2-0.3-0.4-0.4-0.8-0.4c-0.3,0-0.6,0.1-0.9,0.3
		c-0.3,0.2-0.5,0.5-0.7,0.9v5.4c0.3,0.2,0.5,0.3,0.7,0.4C472.9,73.5,473.1,73.5,473.3,73.5z"/>
	<path class="st4" d="M480.7,75.4v-11h2.8v1.5h0.4c0.2-0.6,0.5-1.1,0.9-1.3c0.4-0.3,0.9-0.4,1.3-0.4c0.8,0,1.4,0.3,1.7,0.8
		c0.4,0.5,0.5,1.2,0.5,2.2v2h-2.6v-1.6c0-0.4-0.1-0.6-0.2-0.9c-0.1-0.2-0.3-0.3-0.6-0.3c-0.3,0-0.5,0.1-0.8,0.4
		c-0.3,0.2-0.5,0.6-0.7,1v7.7H480.7z"/>
	<path class="st4" d="M493.1,62.5c-0.5,0-1-0.1-1.3-0.3c-0.3-0.2-0.5-0.5-0.5-0.9v-0.2c0-0.5,0.2-0.8,0.5-1c0.3-0.2,0.8-0.3,1.3-0.3
		c0.5,0,1,0.1,1.3,0.3c0.3,0.2,0.5,0.5,0.5,1v0.2c0,0.5-0.2,0.8-0.5,0.9C494,62.4,493.6,62.5,493.1,62.5z M491.6,75.4v-11h2.8v11
		H491.6z"/>
	<path class="st4" d="M502.5,75.5c-1.1,0-1.9-0.3-2.5-1c-0.6-0.7-0.9-1.7-0.9-2.9V60.7h2.8v10.9c0,0.6,0.1,1.1,0.3,1.4
		c0.2,0.3,0.4,0.4,0.8,0.4c0.2,0,0.4,0,0.6-0.1c0.2-0.1,0.4-0.2,0.6-0.3l0.4,2c-0.3,0.2-0.7,0.3-1.1,0.4S502.8,75.5,502.5,75.5z"/>
	<path class="st4" d="M520.7,75.6c-1.7,0-2.9-0.3-3.7-1c-0.8-0.7-1.2-1.8-1.3-3.3l2.8-0.2c0.1,1,0.3,1.6,0.6,1.9
		c0.3,0.3,0.8,0.5,1.6,0.5c0.7,0,1.2-0.2,1.5-0.5s0.5-0.9,0.5-1.6v-0.5c0-0.8-0.1-1.4-0.4-1.7s-0.8-0.5-1.6-0.5h-1.8v-2.1h1.8
		c0.6,0,1.1-0.1,1.4-0.3c0.3-0.2,0.4-0.6,0.4-1.3v-0.6c0-0.7-0.1-1.1-0.5-1.4c-0.3-0.3-0.8-0.4-1.4-0.4c-0.7,0-1.1,0.2-1.4,0.5
		c-0.3,0.3-0.4,0.8-0.5,1.6l-2.8-0.2c0.1-1.4,0.5-2.4,1.2-3c0.7-0.6,1.9-0.9,3.4-0.9c1.6,0,2.8,0.3,3.6,0.9c0.8,0.6,1.1,1.5,1.1,2.8
		v0.5c0,0.7-0.2,1.3-0.6,1.8c-0.4,0.5-0.9,0.8-1.4,0.9v0.5c0.7,0.1,1.2,0.4,1.6,1c0.4,0.6,0.6,1.3,0.6,2.1v0.4
		c0,1.4-0.4,2.5-1.1,3.2C523.6,75.2,522.4,75.6,520.7,75.6z"/>
	<path class="st4" d="M528.8,75.4v-11h2.8v1.5h0.4c0.2-0.6,0.5-1.1,0.9-1.3c0.4-0.3,0.9-0.4,1.3-0.4c0.8,0,1.4,0.3,1.7,0.8
		c0.4,0.5,0.5,1.2,0.5,2.2v2h-2.6v-1.6c0-0.4-0.1-0.6-0.2-0.9c-0.1-0.2-0.3-0.3-0.6-0.3c-0.3,0-0.5,0.1-0.8,0.4s-0.5,0.6-0.7,1v7.7
		H528.8z"/>
	<path class="st4" d="M544.2,73.7c-0.2,0.6-0.5,1-0.9,1.4c-0.4,0.3-1,0.5-1.6,0.5c-0.8,0-1.5-0.3-1.9-1c-0.5-0.7-0.7-1.6-0.7-2.8V68
		c0-1.2,0.3-2.1,0.9-2.8c0.6-0.7,1.5-1,2.6-1c0.3,0,0.7,0,1,0.1c0.3,0.1,0.6,0.2,0.9,0.4v-4h2.8v14.7h-2.8v-1.7H544.2z M543,73.4
		c0.3,0,0.6-0.1,0.8-0.3c0.3-0.2,0.5-0.5,0.8-0.9v-5.3c-0.3-0.2-0.5-0.4-0.7-0.5c-0.2-0.1-0.4-0.1-0.7-0.1c-0.4,0-0.8,0.1-1,0.4
		c-0.2,0.3-0.3,0.7-0.3,1.4v3.6c0,0.6,0.1,1,0.3,1.3C542.4,73.2,542.6,73.4,543,73.4z"/>
</g>
</svg>
