<svg width="1298" height="611" viewBox="0 0 1298 611" fill="none" xmlns="http://www.w3.org/2000/svg">
<g clip-path="url(#clip0)">
<path d="M19.824 272L3.62402 255.8L19.824 20.3H110.724C136.924 20.3 157.524 26.0001 172.524 37.4001C187.524 48.8001 195.024 66.5001 195.024 90.4001V127.8C195.024 151.1 187.724 168 173.024 178.6C158.324 189.2 137.724 194.5 111.024 194.5H80.524V272H19.824ZM80.524 149.9H107.224C116.224 149.9 123.024 148.1 127.624 144.4C132.224 140.7 134.524 133.3 134.524 122.2V94.9001C134.524 83.6001 132.224 75.9001 127.624 71.8001C123.024 67.7001 116.224 65.7 107.224 65.7H80.524V149.9Z" fill="#1E193B" stroke="#1E193B" stroke-width="2" stroke-miterlimit="10" stroke-linecap="round" stroke-linejoin="round"/>
<path d="M316.124 275.1C287.624 275.1 265.924 267.9 251.024 253.4C236.124 239 228.724 218.9 228.724 193.4V100.3C228.724 74.5 236.224 54.2 251.224 39.4C266.224 24.6 288.024 17.2 316.524 17.2C336.824 17.2 348.624 12.7 362.124 20.3C367.424 23.3 377.124 35.2 381.324 39.3C396.224 54.1 403.624 74.4 403.624 100.2V193.3C403.624 218.9 396.224 238.9 381.324 253.4C366.324 267.9 344.624 275.1 316.124 275.1ZM316.124 229.8C326.024 229.8 332.924 226.8 336.924 220.7C340.924 214.6 342.924 203.6 342.924 187.7V105.9C342.924 89.8 340.924 78.5 336.924 72.1C332.924 65.7 326.024 62.5 316.124 62.5C306.524 62.5 299.624 65.7 295.524 72.1C291.424 78.5 289.424 89.8 289.424 105.9V187.7C289.424 203.6 291.424 214.7 295.524 220.7C299.624 226.8 306.524 229.8 316.124 229.8Z" fill="#1E193B" stroke="#1E193B" stroke-width="2" stroke-miterlimit="10" stroke-linecap="round" stroke-linejoin="round"/>
<path d="M436.324 272L420.124 255.8L436.324 20.3001L595.624 4.1001L611.824 20.3001V65.6001H497.024V115.3L581.224 99.1001L597.424 115.3V160.6H497.024V226.7L595.624 210.5L611.824 226.7V272H436.324Z" fill="#1E193B" stroke="#1E193B" stroke-width="2" stroke-miterlimit="10" stroke-linecap="round" stroke-linejoin="round"/>
<path d="M702.124 272L685.924 255.8L702.124 65.6001H638.924L622.724 49.4001L638.924 20.3001L810.524 4.1001L826.724 20.3001V65.6001H763.224V272H702.124Z" fill="#1E193B" stroke="#1E193B" stroke-width="2" stroke-miterlimit="10" stroke-linecap="round" stroke-linejoin="round"/>
<path d="M913.524 272H852.824L836.624 255.8L852.824 20.3001H949.424C967.324 20.3001 974.224 12.5001 985.624 18.4001C990.424 20.9001 1002.22 34.6001 1005.92 38.1001C1018.22 50.0001 1024.32 67.1001 1024.32 89.5001V111.8C1024.32 128.8 1021.02 142.8 1014.52 153.8C1008.02 164.8 998.524 172.6 985.924 177.2L1033.42 271.9H970.224L954.024 255.7L926.124 183H913.524V272ZM913.524 137.7H939.324C949.424 137.7 956.424 135.9 960.524 132.2C964.624 128.5 966.624 121.3 966.624 110.6V92.7001C966.624 82.2001 964.624 75.1001 960.524 71.3001C956.424 67.5001 949.324 65.6001 939.324 65.6001H913.524V137.7Z" fill="#1E193B" stroke="#1E193B" stroke-width="2" stroke-miterlimit="10" stroke-linecap="round" stroke-linejoin="round"/>
<path d="M1179.62 272H1118.62L1102.42 255.8L1118.62 177.6L1052.22 20.3001L1096.12 4.1001L1112.32 20.3001L1148.82 122.2L1185.92 20.3001L1229.52 4.1001L1245.72 20.3001L1179.62 177.6V272Z" fill="#1E193B" stroke="#1E193B" stroke-width="2" stroke-miterlimit="10" stroke-linecap="round" stroke-linejoin="round"/>
<path d="M103.424 609.5C85.8236 609.5 70.0236 607.2 56.1236 602.7C42.2236 598.2 29.4236 592.4 17.9236 585.2L1.72363 569.1L30.1236 540C41.6236 547.1 53.2236 553 64.9236 557.5C76.5236 562 89.7236 564.3 104.424 564.3C115.724 564.3 123.824 561.8 128.624 556.9C133.424 552 135.824 545.6 135.824 537.9C135.824 528 132.624 521.2 126.224 517.3C119.824 513.4 108.824 509.2 93.3236 504.6C67.8236 497.3 49.7236 488 39.1236 476.6L18.9236 455.6C18.9236 455.6 23.2236 444.6 23.2236 429.3C23.2236 407.3 30.3236 388.9 44.6236 374.1C58.9236 359.3 80.4236 351.9 109.124 351.9C122.924 351.9 136.724 354.3 150.524 359C160.024 362.3 161.024 354.5 168.124 358.1L184.324 374.3L175.224 417.4C163.924 411.1 153.124 406.2 143.024 402.8C132.824 399.3 122.424 397.6 111.724 397.6C102.324 397.6 95.3236 399.7 90.8236 403.9C86.3236 408.1 84.0236 414.3 84.0236 422.5C84.0236 430.7 86.8236 437 92.5236 441.5C98.2236 446 109.524 450.7 126.524 455.5C145.724 461.2 153.824 460.2 164.624 468.3C164.624 468.3 178.924 482.5 180.824 484.5C191.724 496 196.724 512.5 196.724 533.3C196.724 557.2 188.524 575.9 172.224 589.5C155.724 602.7 132.824 609.5 103.424 609.5Z" fill="#1E193B" stroke="#1E193B" stroke-width="2" stroke-miterlimit="10" stroke-linecap="round" stroke-linejoin="round"/>
<path d="M242.523 606.4L226.323 590.2L242.523 354.7L287.023 338.5L303.223 354.7V561L388.023 544.8L404.223 561V606.3H242.523V606.4Z" fill="#1E193B" stroke="#1E193B" stroke-width="2" stroke-miterlimit="10" stroke-linecap="round" stroke-linejoin="round"/>
<path d="M566.824 606.4L550.624 590.2L555.524 548.2H492.624L479.724 606.4H425.324L409.124 590.2L486.924 354.7L545.924 338.5L562.124 354.7L623.824 606.4H566.824V606.4ZM546.424 502.9L525.924 399L502.924 502.8H546.424V502.9Z" fill="#1E193B" stroke="#1E193B" stroke-width="2" stroke-miterlimit="10" stroke-linecap="round" stroke-linejoin="round"/>
<path d="M728.223 609.5C710.623 609.5 694.823 607.2 680.923 602.7C667.023 598.2 654.223 592.4 642.723 585.2L626.523 569L654.923 539.9C666.423 547 678.023 552.9 689.723 557.4C701.323 561.9 714.523 564.2 729.223 564.2C740.523 564.2 748.623 561.7 753.423 556.8C758.223 551.9 760.623 545.5 760.623 537.8C760.623 527.9 757.423 521.1 751.023 517.2C744.623 513.3 733.623 509.1 718.123 504.5C692.523 497.4 674.423 488.1 663.823 476.7L646.223 458.9C643.223 450.6 647.923 440.1 647.923 429.3C647.923 407.3 655.023 388.9 669.323 374.1C683.623 359.3 705.123 351.9 733.823 351.9C747.623 351.9 761.423 354.3 775.223 359C781.123 361 790.023 358.9 792.323 358.2C792.623 358.1 793.023 358.2 793.323 358.5L809.123 374.3L800.023 417.4C788.723 411.1 777.923 406.2 767.823 402.8C757.623 399.3 747.223 397.6 736.523 397.6C727.123 397.6 720.123 399.7 715.623 403.9C711.123 408.1 708.823 414.3 708.823 422.5C708.823 430.7 711.623 437 717.323 441.5C723.023 446 734.323 450.7 751.323 455.5C768.323 460.5 776.623 458.9 787.023 465.8C787.023 465.8 802.023 480.5 805.623 484.5C816.223 496.2 821.523 512.5 821.523 533.3C821.523 557.2 813.323 575.9 797.023 589.5C780.423 602.7 757.623 609.5 728.223 609.5Z" fill="#1E193B" stroke="#1E193B" stroke-width="2" stroke-miterlimit="10" stroke-linecap="round" stroke-linejoin="round"/>
<path d="M852.824 606.4L836.624 590.2L852.824 354.7L897.324 338.5L913.524 354.7V444H968.224V354.7L1012.72 338.5L1028.92 354.7V606.4H968.224L952.024 590.2L968.224 489.4H913.524V606.4H852.824V606.4Z" fill="#1E193B" stroke="#1E193B" stroke-width="2" stroke-miterlimit="10" stroke-linecap="round" stroke-linejoin="round"/>
<path d="M3.62402 255.8V4.1001H94.524C120.724 4.1001 141.324 9.8001 156.324 21.2001C171.324 32.6001 178.824 50.3001 178.824 74.2001V111.6C178.824 134.9 171.524 151.8 156.824 162.4C142.124 173 121.524 178.3 94.824 178.3H64.324V255.7H3.62402V255.8ZM64.324 133.8H91.024C100.024 133.8 106.824 132 111.424 128.3C116.024 124.6 118.324 117.2 118.324 106.1V78.7001C118.324 67.4001 116.024 59.7001 111.424 55.6001C106.824 51.5001 100.024 49.5001 91.024 49.5001H64.324V133.8Z" fill="white" stroke="#1E193B" stroke-width="2" stroke-miterlimit="10" stroke-linecap="round" stroke-linejoin="round"/>
<path d="M299.923 259C271.423 259 249.723 251.8 234.823 237.3C219.923 222.8 212.523 202.8 212.523 177.2V84.1C212.523 58.3 220.023 38 235.023 23.2C250.023 8.4 271.723 1 300.223 1C328.523 1 350.123 8.4 365.023 23.2C379.923 38 387.323 58.3 387.323 84.1V177.2C387.323 202.8 379.923 222.8 365.023 237.3C350.223 251.7 328.423 259 299.923 259ZM299.923 213.7C309.823 213.7 316.723 210.7 320.723 204.6C324.723 198.5 326.723 187.5 326.723 171.6V89.7C326.723 73.6 324.723 62.3 320.723 55.9C316.723 49.5 309.823 46.3 299.923 46.3C290.323 46.3 283.423 49.5 279.323 55.9C275.223 62.3 273.223 73.6 273.223 89.7V171.5C273.223 187.4 275.223 198.5 279.323 204.5C283.423 210.6 290.323 213.7 299.923 213.7Z" fill="white" stroke="#1E193B" stroke-width="2" stroke-miterlimit="10" stroke-linecap="round" stroke-linejoin="round"/>
<path d="M420.124 255.8V4.1001H595.624V49.4001H480.824V99.1001H581.224V144.4H480.824V210.5H595.624V255.8H420.124V255.8Z" fill="white" stroke="#1E193B" stroke-width="2" stroke-miterlimit="10" stroke-linecap="round" stroke-linejoin="round"/>
<path d="M685.924 255.8V49.4001H622.724V4.1001H810.524V49.4001H747.024V255.8H685.924Z" fill="white" stroke="#1E193B" stroke-width="2" stroke-miterlimit="10" stroke-linecap="round" stroke-linejoin="round"/>
<path d="M897.324 255.8H836.624V4.1001H933.224C958.624 4.1001 977.424 10.0001 989.724 21.9001C1002.02 33.8001 1008.12 50.9001 1008.12 73.3001V95.6001C1008.12 112.6 1004.82 126.6 998.324 137.6C991.824 148.6 982.324 156.4 969.724 161L1017.22 255.7H954.024L910.024 166.7H897.424V255.8H897.324ZM897.324 121.5H923.124C933.224 121.5 940.224 119.7 944.324 116C948.424 112.3 950.424 105.1 950.424 94.4001V76.5001C950.424 66.0001 948.424 58.9001 944.324 55.1001C940.224 51.3001 933.124 49.4001 923.124 49.4001H897.324V121.5Z" fill="white" stroke="#1E193B" stroke-width="2" stroke-miterlimit="10" stroke-linecap="round" stroke-linejoin="round"/>
<path d="M1163.52 255.8H1102.52V161.4L1036.02 4.1001H1096.12L1132.62 106L1169.72 4.1001H1229.52L1163.42 161.4V255.8H1163.52Z" fill="white" stroke="#1E193B" stroke-width="2" stroke-miterlimit="10" stroke-linecap="round" stroke-linejoin="round"/>
<path d="M87.3236 593.3C69.7236 593.3 53.9236 591 40.0236 586.5C26.0236 582 13.2236 576.2 1.72363 569.1L14.0236 523.8C25.5236 530.9 37.1236 536.8 48.8236 541.3C60.4236 545.8 73.6236 548.1 88.3236 548.1C99.6236 548.1 107.724 545.6 112.524 540.7C117.324 535.8 119.724 529.4 119.724 521.7C119.724 511.8 116.524 505 110.124 501.1C103.724 497.2 92.7236 493 77.2236 488.4C51.6236 481.3 33.5236 472 22.9236 460.6C12.3236 449 7.02363 433.2 7.02363 413.1C7.02363 391.1 14.1236 372.7 28.4236 357.9C42.7236 343.1 64.2236 335.7 92.9236 335.7C106.724 335.7 120.524 338.1 134.324 342.8C148.024 347.5 159.324 352.6 168.124 358.1L159.024 401.2C147.724 394.9 136.924 390 126.824 386.6C116.624 383.1 106.224 381.4 95.5236 381.4C86.1236 381.4 79.1236 383.5 74.6236 387.7C70.1236 391.9 67.8236 398.1 67.8236 406.3C67.8236 414.5 70.6236 420.8 76.3236 425.3C82.0236 429.8 93.3236 434.5 110.324 439.3C135.924 446.8 154.024 456.5 164.624 468.2C175.224 479.9 180.524 496.2 180.524 517C180.524 540.9 172.324 559.6 156.024 573.2C139.524 586.6 116.624 593.3 87.3236 593.3Z" fill="white" stroke="#1E193B" stroke-width="2" stroke-miterlimit="10" stroke-linecap="round" stroke-linejoin="round"/>
<path d="M226.323 590.2V338.5H287.023V544.9H388.023V590.2H226.323V590.2Z" fill="white" stroke="#1E193B" stroke-width="2" stroke-miterlimit="10" stroke-linecap="round" stroke-linejoin="round"/>
<path d="M550.624 590.2L539.324 532H476.424L463.524 590.2H409.124L470.724 338.5H545.924L607.624 590.2H550.624ZM530.224 486.7L509.824 382.9L486.824 486.7H530.224Z" fill="white" stroke="#1E193B" stroke-width="2" stroke-miterlimit="10" stroke-linecap="round" stroke-linejoin="round"/>
<path d="M712.023 593.3C694.423 593.3 678.623 591 664.723 586.5C650.823 582 638.023 576.2 626.523 569L638.823 523.7C650.323 530.8 661.923 536.7 673.623 541.2C685.223 545.7 698.423 548 713.123 548C724.423 548 732.523 545.5 737.323 540.6C742.123 535.7 744.523 529.3 744.523 521.6C744.523 511.7 741.323 504.9 734.923 501C728.523 497.1 717.523 492.9 702.023 488.3C676.423 481.2 658.323 471.9 647.723 460.5C637.123 449.1 631.823 433.3 631.823 413.2C631.823 391.2 638.923 372.8 653.223 358C667.523 343.2 689.023 335.8 717.723 335.8C731.523 335.8 745.323 338.2 759.123 342.9C772.823 347.6 784.123 352.7 792.923 358.2L783.823 401.3C772.523 395 761.723 390.1 751.623 386.7C741.423 383.2 731.023 381.5 720.323 381.5C710.923 381.5 703.923 383.6 699.423 387.8C694.923 392 692.623 398.2 692.623 406.4C692.623 414.6 695.423 420.9 701.123 425.4C706.823 429.9 718.123 434.6 735.123 439.4C760.723 446.9 778.823 456.6 789.423 468.3C800.023 480 805.323 496.3 805.323 517.1C805.323 541 797.123 559.7 780.823 573.3C764.223 586.6 741.423 593.3 712.023 593.3Z" fill="white" stroke="#1E193B" stroke-width="2" stroke-miterlimit="10" stroke-linecap="round" stroke-linejoin="round"/>
<path d="M836.624 590.2V338.5H897.324V427.8H952.024V338.5H1012.72V590.2H952.024V473.2H897.324V590.2H836.624Z" fill="white" stroke="#1E193B" stroke-width="2" stroke-miterlimit="10" stroke-linecap="round" stroke-linejoin="round"/>
</g>
<path d="M1060.66 536.264C1080.36 536.264 1096.29 520.214 1096.29 500.37V481.136" stroke="#1E193B" stroke-width="2" stroke-miterlimit="10" stroke-linecap="round" stroke-linejoin="round"/>
<path d="M1101.79 486.675L1096.29 481.136L1090.79 486.675" stroke="#1E193B" stroke-width="2" stroke-miterlimit="10" stroke-linecap="round" stroke-linejoin="round"/>
<path d="M1058.19 396.45V392.719C1058.19 391.294 1058.43 390.196 1058.91 389.425C1059.4 388.654 1060.19 388.123 1061.29 387.832L1064.49 386.959C1065.1 386.799 1065.54 386.523 1065.8 386.13C1066.08 385.723 1066.22 385.148 1066.22 384.407V383.425C1066.22 382.407 1065.98 381.679 1065.52 381.243C1065.07 380.792 1064.32 380.567 1063.27 380.567C1062.22 380.567 1061.5 380.843 1061.09 381.396C1060.68 381.934 1060.43 382.959 1060.33 384.472L1058.36 384.254C1058.45 382.29 1058.86 380.887 1059.61 380.043C1060.36 379.199 1061.58 378.777 1063.25 378.777C1064.86 378.777 1066.09 379.148 1066.91 379.89C1067.76 380.632 1068.18 381.723 1068.18 383.163V384.69C1068.18 385.868 1067.94 386.792 1067.46 387.461C1066.98 388.116 1066.22 388.581 1065.17 388.857L1061.94 389.73C1061.31 389.89 1060.86 390.203 1060.59 390.668C1060.31 391.134 1060.17 391.803 1060.17 392.676V394.705H1068.35V396.45H1058.19ZM1077.34 396.668C1075.58 396.668 1074.28 396.283 1073.45 395.512C1072.62 394.727 1072.18 393.468 1072.12 391.737L1074.08 391.519C1074.17 392.814 1074.44 393.701 1074.89 394.181C1075.36 394.647 1076.18 394.879 1077.36 394.879C1078.45 394.879 1079.23 394.647 1079.71 394.181C1080.21 393.701 1080.46 392.923 1080.46 391.847V390.734C1080.46 389.643 1080.24 388.857 1079.8 388.377C1079.38 387.897 1078.68 387.657 1077.71 387.657H1072.6V378.996H1081.81V380.785H1074.59V385.759H1077.97C1079.45 385.759 1080.56 386.167 1081.31 386.981C1082.06 387.796 1082.44 389.01 1082.44 390.625V391.999C1082.44 393.527 1082.01 394.69 1081.15 395.49C1080.3 396.276 1079.02 396.668 1077.34 396.668ZM1100.28 394.792C1100.85 394.792 1101.36 394.625 1101.81 394.29C1102.26 393.956 1102.67 393.439 1103.03 392.741V385.737C1102.71 385.447 1102.37 385.228 1102 385.083C1101.64 384.937 1101.26 384.865 1100.85 384.865C1100.05 384.865 1099.45 385.105 1099.06 385.585C1098.67 386.05 1098.47 386.77 1098.47 387.745V392.174C1098.47 393.061 1098.62 393.723 1098.91 394.159C1099.2 394.581 1099.66 394.792 1100.28 394.792ZM1102.55 394.748C1102.33 395.359 1101.97 395.832 1101.46 396.167C1100.95 396.501 1100.34 396.668 1099.63 396.668C1098.62 396.668 1097.84 396.268 1097.29 395.468C1096.75 394.668 1096.48 393.548 1096.48 392.108V387.701C1096.48 386.247 1096.85 385.119 1097.58 384.319C1098.32 383.519 1099.36 383.119 1100.72 383.119C1101.08 383.119 1101.47 383.177 1101.87 383.294C1102.28 383.396 1102.67 383.548 1103.03 383.752V378.996H1105.02V396.45H1103.03V394.748H1102.55ZM1117.55 393.614C1117.23 394.69 1116.71 395.468 1115.98 395.948C1115.27 396.428 1114.36 396.668 1113.25 396.668C1111.9 396.668 1110.84 396.276 1110.09 395.49C1109.33 394.69 1108.95 393.585 1108.95 392.174V387.723C1108.95 386.283 1109.33 385.163 1110.09 384.363C1110.84 383.548 1111.89 383.141 1113.23 383.141C1114.57 383.141 1115.61 383.563 1116.35 384.407C1117.11 385.25 1117.48 386.414 1117.48 387.897V390.276H1110.94V392.196C1110.94 393.185 1111.13 393.89 1111.51 394.312C1111.9 394.734 1112.49 394.945 1113.29 394.945C1114.04 394.945 1114.58 394.799 1114.93 394.508C1115.29 394.203 1115.56 393.716 1115.74 393.047L1117.55 393.614ZM1110.94 387.723V388.727H1115.5V387.941C1115.5 386.894 1115.31 386.123 1114.93 385.628C1114.57 385.119 1113.99 384.865 1113.21 384.865C1112.44 384.865 1111.86 385.105 1111.48 385.585C1111.12 386.05 1110.94 386.763 1110.94 387.723ZM1135.32 394.901C1135.87 394.901 1136.4 394.777 1136.89 394.53C1137.4 394.268 1137.82 393.803 1138.14 393.134V390.821H1135.36C1134.78 390.821 1134.32 390.974 1133.97 391.279C1133.63 391.57 1133.47 392.087 1133.47 392.828C1133.47 393.483 1133.61 393.992 1133.9 394.356C1134.21 394.719 1134.68 394.901 1135.32 394.901ZM1134.99 396.668C1133.95 396.668 1133.12 396.341 1132.51 395.687C1131.9 395.017 1131.59 394.108 1131.59 392.959C1131.59 391.825 1131.9 390.93 1132.53 390.276C1133.17 389.607 1134.02 389.272 1135.08 389.272H1138.14V387.09C1138.14 386.45 1137.95 385.919 1137.59 385.497C1137.23 385.061 1136.69 384.843 1135.98 384.843C1135.2 384.843 1134.64 385.025 1134.3 385.388C1133.95 385.737 1133.68 386.392 1133.49 387.352L1131.81 386.828C1132.01 385.592 1132.46 384.668 1133.14 384.057C1133.84 383.447 1134.79 383.141 1136 383.141C1137.2 383.141 1138.19 383.439 1138.94 384.036C1139.71 384.632 1140.1 385.556 1140.1 386.807V393.352C1140.1 394.007 1140.24 394.436 1140.54 394.639C1140.84 394.843 1141.35 394.857 1142.06 394.683V396.537C1141.1 396.683 1140.37 396.596 1139.86 396.276C1139.36 395.941 1139.07 395.359 1138.99 394.53H1138.62C1138.34 395.156 1137.87 395.672 1137.2 396.079C1136.53 396.472 1135.79 396.668 1134.99 396.668ZM1149.78 396.69C1148.93 396.69 1148.15 396.574 1147.42 396.341C1146.69 396.094 1146.1 395.752 1145.63 395.316V378.996H1147.62V385.061H1148.1C1148.32 384.45 1148.68 383.977 1149.19 383.643C1149.7 383.308 1150.31 383.141 1151.02 383.141C1152.03 383.141 1152.8 383.541 1153.33 384.341C1153.89 385.141 1154.16 386.261 1154.16 387.701V392.108C1154.16 393.563 1153.78 394.69 1153.01 395.49C1152.25 396.29 1151.17 396.69 1149.78 396.69ZM1149.8 394.945C1150.63 394.945 1151.23 394.719 1151.61 394.268C1151.99 393.803 1152.18 393.068 1152.18 392.065V387.657C1152.18 386.741 1152.03 386.072 1151.72 385.65C1151.43 385.228 1150.97 385.017 1150.35 385.017C1149.76 385.017 1149.25 385.185 1148.82 385.519C1148.38 385.839 1147.98 386.356 1147.62 387.068V394.29C1147.88 394.523 1148.19 394.69 1148.53 394.792C1148.88 394.894 1149.31 394.945 1149.8 394.945ZM1158.1 396.45V383.359H1160.09V385.061H1160.57C1160.76 384.392 1161.1 383.905 1161.59 383.599C1162.1 383.294 1162.64 383.141 1163.21 383.141C1163.96 383.141 1164.56 383.417 1165 383.97C1165.45 384.523 1165.67 385.308 1165.67 386.327V388.727H1163.8V386.567C1163.8 386.101 1163.69 385.73 1163.47 385.454C1163.25 385.163 1162.94 385.017 1162.55 385.017C1162.13 385.017 1161.68 385.207 1161.2 385.585C1160.73 385.948 1160.36 386.407 1160.09 386.959V396.45H1158.1ZM1170.39 396.45V383.359H1172.38V396.45H1170.39ZM1171.39 380.894C1170.94 380.894 1170.57 380.814 1170.28 380.654C1169.99 380.479 1169.85 380.167 1169.85 379.716V379.585C1169.85 379.119 1169.99 378.799 1170.28 378.625C1170.57 378.45 1170.94 378.363 1171.39 378.363C1171.85 378.363 1172.22 378.45 1172.51 378.625C1172.8 378.799 1172.94 379.119 1172.94 379.585V379.716C1172.94 380.167 1172.8 380.479 1172.51 380.654C1172.22 380.814 1171.85 380.894 1171.39 380.894ZM1182.22 396.537C1181.07 396.537 1180.17 396.145 1179.53 395.359C1178.91 394.574 1178.59 393.461 1178.59 392.021V378.996H1180.56V392.043C1180.56 392.93 1180.71 393.599 1181.02 394.05C1181.32 394.487 1181.77 394.705 1182.37 394.705C1182.54 394.705 1182.74 394.676 1182.96 394.617C1183.19 394.545 1183.4 394.457 1183.59 394.356L1183.94 396.079C1183.71 396.21 1183.44 396.319 1183.13 396.407C1182.84 396.494 1182.54 396.537 1182.22 396.537ZM1188.5 400.988L1189.92 392.436H1193.45L1190.03 400.988H1188.5ZM1209.2 396.45V392.719C1209.2 391.294 1209.44 390.196 1209.92 389.425C1210.41 388.654 1211.2 388.123 1212.29 387.832L1215.5 386.959C1216.11 386.799 1216.55 386.523 1216.81 386.13C1217.09 385.723 1217.22 385.148 1217.22 384.407V383.425C1217.22 382.407 1216.99 381.679 1216.53 381.243C1216.08 380.792 1215.33 380.567 1214.28 380.567C1213.23 380.567 1212.5 380.843 1212.1 381.396C1211.69 381.934 1211.44 382.959 1211.33 384.472L1209.37 384.254C1209.46 382.29 1209.87 380.887 1210.61 380.043C1211.37 379.199 1212.58 378.777 1214.26 378.777C1215.87 378.777 1217.09 379.148 1217.92 379.89C1218.77 380.632 1219.19 381.723 1219.19 383.163V384.69C1219.19 385.868 1218.95 386.792 1218.47 387.461C1217.99 388.116 1217.22 388.581 1216.18 388.857L1212.95 389.73C1212.32 389.89 1211.87 390.203 1211.6 390.668C1211.32 391.134 1211.18 391.803 1211.18 392.676V394.705H1219.36V396.45H1209.2ZM1228.36 396.668C1226.66 396.668 1225.37 396.036 1224.48 394.77C1223.59 393.505 1223.15 391.665 1223.15 389.25V386.283C1223.15 383.825 1223.59 381.963 1224.48 380.697C1225.38 379.417 1226.68 378.777 1228.39 378.777C1230.07 378.777 1231.36 379.417 1232.25 380.697C1233.14 381.963 1233.58 383.825 1233.58 386.283V389.25C1233.58 391.665 1233.14 393.505 1232.25 394.77C1231.36 396.036 1230.07 396.668 1228.36 396.668ZM1228.36 394.879C1229.5 394.879 1230.32 394.428 1230.83 393.527C1231.34 392.61 1231.59 391.119 1231.59 389.054V386.479C1231.59 384.385 1231.34 382.879 1230.83 381.963C1230.32 381.032 1229.5 380.567 1228.36 380.567C1227.23 380.567 1226.41 381.032 1225.9 381.963C1225.39 382.879 1225.14 384.385 1225.14 386.479V389.054C1225.14 391.119 1225.39 392.61 1225.9 393.527C1226.41 394.428 1227.23 394.879 1228.36 394.879ZM1228.36 389.381C1228.02 389.381 1227.73 389.287 1227.51 389.097C1227.3 388.894 1227.19 388.523 1227.19 387.985V387.483C1227.19 386.945 1227.3 386.581 1227.51 386.392C1227.73 386.188 1228.02 386.087 1228.36 386.087C1228.71 386.087 1228.99 386.188 1229.19 386.392C1229.41 386.581 1229.52 386.945 1229.52 387.483V387.985C1229.52 388.523 1229.41 388.894 1229.19 389.097C1228.98 389.287 1228.7 389.381 1228.36 389.381ZM1237.37 396.45V392.719C1237.37 391.294 1237.61 390.196 1238.09 389.425C1238.58 388.654 1239.37 388.123 1240.47 387.832L1243.67 386.959C1244.28 386.799 1244.72 386.523 1244.98 386.13C1245.26 385.723 1245.4 385.148 1245.4 384.407V383.425C1245.4 382.407 1245.16 381.679 1244.7 381.243C1244.25 380.792 1243.5 380.567 1242.45 380.567C1241.4 380.567 1240.68 380.843 1240.27 381.396C1239.86 381.934 1239.61 382.959 1239.51 384.472L1237.54 384.254C1237.63 382.29 1238.04 380.887 1238.79 380.043C1239.54 379.199 1240.76 378.777 1242.43 378.777C1244.04 378.777 1245.27 379.148 1246.09 379.89C1246.94 380.632 1247.36 381.723 1247.36 383.163V384.69C1247.36 385.868 1247.12 386.792 1246.64 387.461C1246.16 388.116 1245.4 388.581 1244.35 388.857L1241.12 389.73C1240.49 389.89 1240.04 390.203 1239.77 390.668C1239.49 391.134 1239.35 391.803 1239.35 392.676V394.705H1247.53V396.45H1237.37ZM1256.54 396.668C1254.83 396.668 1253.54 396.036 1252.65 394.77C1251.77 393.505 1251.32 391.665 1251.32 389.25V386.283C1251.32 383.825 1251.77 381.963 1252.65 380.697C1253.55 379.417 1254.86 378.777 1256.56 378.777C1258.25 378.777 1259.53 379.417 1260.42 380.697C1261.31 381.963 1261.75 383.825 1261.75 386.283V389.25C1261.75 391.665 1261.31 393.505 1260.42 394.77C1259.53 396.036 1258.24 396.668 1256.54 396.668ZM1256.54 394.879C1257.67 394.879 1258.49 394.428 1259 393.527C1259.51 392.61 1259.77 391.119 1259.77 389.054V386.479C1259.77 384.385 1259.51 382.879 1259 381.963C1258.49 381.032 1257.67 380.567 1256.54 380.567C1255.4 380.567 1254.58 381.032 1254.07 381.963C1253.56 382.879 1253.31 384.385 1253.31 386.479V389.054C1253.31 391.119 1253.56 392.61 1254.07 393.527C1254.58 394.428 1255.4 394.879 1256.54 394.879ZM1256.54 389.381C1256.19 389.381 1255.9 389.287 1255.69 389.097C1255.47 388.894 1255.36 388.523 1255.36 387.985V387.483C1255.36 386.945 1255.47 386.581 1255.69 386.392C1255.9 386.188 1256.19 386.087 1256.54 386.087C1256.89 386.087 1257.16 386.188 1257.37 386.392C1257.58 386.581 1257.69 386.945 1257.69 387.483V387.985C1257.69 388.523 1257.58 388.894 1257.37 389.097C1257.15 389.287 1256.87 389.381 1256.54 389.381ZM1058.19 428.45V410.996H1060.17V426.705H1066.02V428.45H1058.19ZM1072.79 426.901C1073.34 426.901 1073.87 426.777 1074.36 426.53C1074.87 426.268 1075.28 425.803 1075.6 425.134V422.821H1072.83C1072.25 422.821 1071.79 422.974 1071.44 423.279C1071.1 423.57 1070.94 424.087 1070.94 424.828C1070.94 425.483 1071.08 425.992 1071.37 426.356C1071.68 426.719 1072.15 426.901 1072.79 426.901ZM1072.46 428.668C1071.42 428.668 1070.59 428.341 1069.98 427.687C1069.36 427.017 1069.06 426.108 1069.06 424.959C1069.06 423.825 1069.37 422.93 1070 422.276C1070.64 421.607 1071.49 421.272 1072.55 421.272H1075.6V419.09C1075.6 418.45 1075.42 417.919 1075.06 417.497C1074.7 417.061 1074.16 416.843 1073.44 416.843C1072.67 416.843 1072.11 417.025 1071.76 417.388C1071.42 417.737 1071.15 418.392 1070.96 419.352L1069.28 418.828C1069.48 417.592 1069.92 416.668 1070.61 416.057C1071.31 415.447 1072.26 415.141 1073.47 415.141C1074.67 415.141 1075.66 415.439 1076.41 416.036C1077.18 416.632 1077.57 417.556 1077.57 418.807V425.352C1077.57 426.007 1077.71 426.436 1078 426.639C1078.31 426.843 1078.82 426.857 1079.53 426.683V428.537C1078.57 428.683 1077.84 428.596 1077.33 428.276C1076.83 427.941 1076.54 427.359 1076.46 426.53H1076.08C1075.81 427.156 1075.34 427.672 1074.67 428.079C1074 428.472 1073.26 428.668 1072.46 428.668ZM1098.51 428.668C1096.75 428.668 1095.42 428.188 1094.54 427.228C1093.66 426.254 1093.23 424.807 1093.23 422.887V416.647C1093.23 414.697 1093.67 413.236 1094.56 412.261C1095.44 411.272 1096.77 410.777 1098.53 410.777C1100.17 410.777 1101.43 411.272 1102.3 412.261C1103.19 413.25 1103.67 414.705 1103.74 416.625L1101.78 416.843C1101.68 415.301 1101.37 414.196 1100.86 413.527C1100.37 412.857 1099.58 412.523 1098.51 412.523C1097.33 412.523 1096.48 412.843 1095.98 413.483C1095.47 414.123 1095.21 415.177 1095.21 416.647V422.887C1095.21 424.327 1095.47 425.359 1095.98 425.985C1096.48 426.61 1097.33 426.923 1098.51 426.923C1099.58 426.923 1100.37 426.596 1100.86 425.941C1101.37 425.287 1101.68 424.203 1101.78 422.69L1103.74 422.908C1103.67 424.814 1103.19 426.254 1102.3 427.228C1101.42 428.188 1100.15 428.668 1098.51 428.668ZM1111.09 426.901C1111.64 426.901 1112.16 426.777 1112.66 426.53C1113.17 426.268 1113.58 425.803 1113.9 425.134V422.821H1111.13C1110.55 422.821 1110.08 422.974 1109.73 423.279C1109.4 423.57 1109.23 424.087 1109.23 424.828C1109.23 425.483 1109.38 425.992 1109.67 426.356C1109.97 426.719 1110.45 426.901 1111.09 426.901ZM1110.76 428.668C1109.71 428.668 1108.88 428.341 1108.27 427.687C1107.66 427.017 1107.36 426.108 1107.36 424.959C1107.36 423.825 1107.67 422.93 1108.29 422.276C1108.93 421.607 1109.78 421.272 1110.85 421.272H1113.9V419.09C1113.9 418.45 1113.72 417.919 1113.36 417.497C1112.99 417.061 1112.45 416.843 1111.74 416.843C1110.97 416.843 1110.41 417.025 1110.06 417.388C1109.71 417.737 1109.44 418.392 1109.25 419.352L1107.57 418.828C1107.78 417.592 1108.22 416.668 1108.9 416.057C1109.6 415.447 1110.56 415.141 1111.76 415.141C1112.97 415.141 1113.95 415.439 1114.71 416.036C1115.48 416.632 1115.86 417.556 1115.86 418.807V425.352C1115.86 426.007 1116.01 426.436 1116.3 426.639C1116.61 426.843 1117.12 426.857 1117.83 426.683V428.537C1116.87 428.683 1116.13 428.596 1115.62 428.276C1115.13 427.941 1114.84 427.359 1114.75 426.53H1114.38C1114.1 427.156 1113.63 427.672 1112.96 428.079C1112.29 428.472 1111.56 428.668 1110.76 428.668ZM1125.76 428.69C1124.92 428.69 1124.07 428.552 1123.23 428.276C1122.4 427.999 1121.7 427.607 1121.11 427.097L1121.83 425.505C1122.37 425.912 1122.99 426.247 1123.69 426.508C1124.4 426.77 1125.1 426.901 1125.78 426.901C1126.53 426.901 1127.09 426.748 1127.46 426.443C1127.84 426.137 1128.03 425.694 1128.03 425.112C1128.03 424.399 1127.83 423.905 1127.44 423.628C1127.05 423.352 1126.34 423.076 1125.3 422.799C1124.08 422.479 1123.13 422.05 1122.45 421.512C1121.78 420.974 1121.44 420.072 1121.44 418.807C1121.44 417.716 1121.8 416.836 1122.51 416.167C1123.22 415.483 1124.16 415.141 1125.33 415.141C1126.08 415.141 1126.85 415.294 1127.62 415.599C1128.39 415.89 1129.05 416.283 1129.6 416.777L1128.9 418.37C1128.41 417.992 1127.85 417.657 1127.22 417.367C1126.6 417.061 1125.97 416.908 1125.35 416.908C1124.72 416.908 1124.24 417.068 1123.91 417.388C1123.57 417.694 1123.41 418.137 1123.41 418.719C1123.41 419.432 1123.61 419.934 1124.02 420.225C1124.44 420.501 1125.18 420.785 1126.24 421.076C1127.51 421.41 1128.45 421.868 1129.06 422.45C1129.68 423.017 1129.99 423.876 1129.99 425.025C1129.99 426.116 1129.6 427.003 1128.82 427.687C1128.05 428.356 1127.03 428.69 1125.76 428.69ZM1137.64 426.901C1138.19 426.901 1138.72 426.777 1139.21 426.53C1139.72 426.268 1140.14 425.803 1140.46 425.134V422.821H1137.69C1137.1 422.821 1136.64 422.974 1136.29 423.279C1135.95 423.57 1135.79 424.087 1135.79 424.828C1135.79 425.483 1135.93 425.992 1136.22 426.356C1136.53 426.719 1137 426.901 1137.64 426.901ZM1137.31 428.668C1136.27 428.668 1135.44 428.341 1134.83 427.687C1134.22 427.017 1133.91 426.108 1133.91 424.959C1133.91 423.825 1134.22 422.93 1134.85 422.276C1135.49 421.607 1136.34 421.272 1137.4 421.272H1140.46V419.09C1140.46 418.45 1140.27 417.919 1139.91 417.497C1139.55 417.061 1139.01 416.843 1138.3 416.843C1137.53 416.843 1136.97 417.025 1136.62 417.388C1136.27 417.737 1136 418.392 1135.81 419.352L1134.13 418.828C1134.33 417.592 1134.78 416.668 1135.46 416.057C1136.16 415.447 1137.11 415.141 1138.32 415.141C1139.53 415.141 1140.51 415.439 1141.26 416.036C1142.03 416.632 1142.42 417.556 1142.42 418.807V425.352C1142.42 426.007 1142.57 426.436 1142.86 426.639C1143.16 426.843 1143.67 426.857 1144.38 426.683V428.537C1143.42 428.683 1142.69 428.596 1142.18 428.276C1141.69 427.941 1141.39 427.359 1141.31 426.53H1140.94C1140.66 427.156 1140.19 427.672 1139.52 428.079C1138.85 428.472 1138.11 428.668 1137.31 428.668ZM1158.08 428.45V410.996H1166.87V412.741H1160.06V418.043H1166.04V419.81H1160.06V426.705H1166.87V428.45H1158.08ZM1170.55 428.45V415.359H1172.53V417.061H1173.01C1173.26 416.494 1173.65 416.036 1174.19 415.687C1174.74 415.323 1175.32 415.141 1175.94 415.141C1176.85 415.141 1177.6 415.519 1178.18 416.276C1178.78 417.017 1179.08 417.977 1179.08 419.156V428.45H1177.09V419.57C1177.09 418.77 1176.94 418.145 1176.63 417.694C1176.33 417.243 1175.89 417.017 1175.32 417.017C1174.79 417.017 1174.28 417.185 1173.8 417.519C1173.32 417.854 1172.9 418.327 1172.53 418.937V428.45H1170.55ZM1187.47 428.668C1185.95 428.668 1184.83 428.276 1184.11 427.49C1183.38 426.705 1183.02 425.599 1183.02 424.174V419.723C1183.02 418.181 1183.42 417.032 1184.22 416.276C1185.03 415.519 1186.11 415.141 1187.47 415.141C1188.82 415.141 1189.84 415.497 1190.52 416.21C1191.22 416.923 1191.62 418.043 1191.72 419.57L1189.8 419.657C1189.76 418.697 1189.55 418.007 1189.17 417.585C1188.8 417.148 1188.24 416.93 1187.47 416.93C1186.59 416.93 1185.96 417.156 1185.57 417.607C1185.19 418.043 1185 418.748 1185 419.723V424.196C1185 425.141 1185.2 425.825 1185.59 426.247C1185.98 426.668 1186.62 426.879 1187.49 426.879C1188.24 426.879 1188.8 426.697 1189.17 426.334C1189.55 425.97 1189.76 425.388 1189.8 424.588L1191.72 424.676C1191.65 426.072 1191.27 427.09 1190.59 427.73C1189.9 428.356 1188.86 428.668 1187.47 428.668ZM1204.08 425.614C1203.76 426.69 1203.24 427.468 1202.51 427.948C1201.8 428.428 1200.89 428.668 1199.78 428.668C1198.43 428.668 1197.38 428.276 1196.62 427.49C1195.86 426.69 1195.48 425.585 1195.48 424.174V419.723C1195.48 418.283 1195.86 417.163 1196.62 416.363C1197.38 415.548 1198.42 415.141 1199.76 415.141C1201.1 415.141 1202.14 415.563 1202.88 416.407C1203.64 417.25 1204.02 418.414 1204.02 419.897V422.276H1197.47V424.196C1197.47 425.185 1197.66 425.89 1198.04 426.312C1198.43 426.734 1199.03 426.945 1199.83 426.945C1200.57 426.945 1201.11 426.799 1201.46 426.508C1201.83 426.203 1202.1 425.716 1202.27 425.047L1204.08 425.614ZM1197.47 419.723V420.727H1202.03V419.941C1202.03 418.894 1201.84 418.123 1201.46 417.628C1201.1 417.119 1200.52 416.865 1199.74 416.865C1198.97 416.865 1198.39 417.105 1198.02 417.585C1197.65 418.05 1197.47 418.763 1197.47 419.723ZM1207.95 428.45V415.359H1209.94V417.061H1210.42C1210.67 416.494 1211.06 416.036 1211.6 415.687C1212.15 415.323 1212.73 415.141 1213.34 415.141C1214.26 415.141 1215.01 415.519 1215.59 416.276C1216.19 417.017 1216.48 417.977 1216.48 419.156V428.45H1214.5V419.57C1214.5 418.77 1214.35 418.145 1214.04 417.694C1213.73 417.243 1213.3 417.017 1212.73 417.017C1212.19 417.017 1211.68 417.185 1211.2 417.519C1210.72 417.854 1210.3 418.327 1209.94 418.937V428.45H1207.95ZM1224.22 426.792C1224.79 426.792 1225.29 426.625 1225.75 426.29C1226.2 425.956 1226.6 425.439 1226.97 424.741V417.737C1226.65 417.447 1226.31 417.228 1225.94 417.083C1225.58 416.937 1225.19 416.865 1224.79 416.865C1223.99 416.865 1223.39 417.105 1223 417.585C1222.6 418.05 1222.41 418.77 1222.41 419.745V424.174C1222.41 425.061 1222.55 425.723 1222.84 426.159C1223.13 426.581 1223.59 426.792 1224.22 426.792ZM1226.49 426.748C1226.27 427.359 1225.91 427.832 1225.4 428.167C1224.89 428.501 1224.28 428.668 1223.56 428.668C1222.56 428.668 1221.78 428.268 1221.23 427.468C1220.69 426.668 1220.42 425.548 1220.42 424.108V419.701C1220.42 418.247 1220.79 417.119 1221.51 416.319C1222.25 415.519 1223.3 415.119 1224.65 415.119C1225.02 415.119 1225.4 415.177 1225.81 415.294C1226.22 415.396 1226.6 415.548 1226.97 415.752V410.996H1228.95V428.45H1226.97V426.748H1226.49ZM1234.35 428.45V415.359H1236.34V428.45H1234.35ZM1235.36 412.894C1234.9 412.894 1234.53 412.814 1234.24 412.654C1233.95 412.479 1233.81 412.167 1233.81 411.716V411.585C1233.81 411.119 1233.95 410.799 1234.24 410.625C1234.53 410.45 1234.9 410.363 1235.36 410.363C1235.81 410.363 1236.18 410.45 1236.47 410.625C1236.76 410.799 1236.9 411.119 1236.9 411.585V411.716C1236.9 412.167 1236.76 412.479 1236.47 412.654C1236.18 412.814 1235.81 412.894 1235.36 412.894ZM1245.52 426.792C1246.09 426.792 1246.6 426.625 1247.05 426.29C1247.5 425.956 1247.91 425.439 1248.27 424.741V417.737C1247.95 417.447 1247.61 417.228 1247.25 417.083C1246.88 416.937 1246.5 416.865 1246.09 416.865C1245.29 416.865 1244.69 417.105 1244.3 417.585C1243.91 418.05 1243.71 418.77 1243.71 419.745V424.174C1243.71 425.061 1243.86 425.723 1244.15 426.159C1244.44 426.581 1244.9 426.792 1245.52 426.792ZM1247.79 426.748C1247.57 427.359 1247.21 427.832 1246.7 428.167C1246.19 428.501 1245.58 428.668 1244.87 428.668C1243.86 428.668 1243.09 428.268 1242.53 427.468C1242 426.668 1241.73 425.548 1241.73 424.108V419.701C1241.73 418.247 1242.09 417.119 1242.82 416.319C1243.56 415.519 1244.61 415.119 1245.96 415.119C1246.32 415.119 1246.71 415.177 1247.12 415.294C1247.52 415.396 1247.91 415.548 1248.27 415.752V410.996H1250.26V428.45H1248.27V426.748H1247.79ZM1257.97 426.901C1258.52 426.901 1259.05 426.777 1259.54 426.53C1260.05 426.268 1260.46 425.803 1260.78 425.134V422.821H1258.01C1257.43 422.821 1256.97 422.974 1256.62 423.279C1256.28 423.57 1256.12 424.087 1256.12 424.828C1256.12 425.483 1256.26 425.992 1256.55 426.356C1256.86 426.719 1257.33 426.901 1257.97 426.901ZM1257.64 428.668C1256.6 428.668 1255.77 428.341 1255.16 427.687C1254.54 427.017 1254.24 426.108 1254.24 424.959C1254.24 423.825 1254.55 422.93 1255.18 422.276C1255.82 421.607 1256.67 421.272 1257.73 421.272H1260.78V419.09C1260.78 418.45 1260.6 417.919 1260.24 417.497C1259.88 417.061 1259.34 416.843 1258.62 416.843C1257.85 416.843 1257.29 417.025 1256.94 417.388C1256.6 417.737 1256.33 418.392 1256.14 419.352L1254.46 418.828C1254.66 417.592 1255.1 416.668 1255.79 416.057C1256.49 415.447 1257.44 415.141 1258.65 415.141C1259.85 415.141 1260.84 415.439 1261.59 416.036C1262.36 416.632 1262.75 417.556 1262.75 418.807V425.352C1262.75 426.007 1262.89 426.436 1263.18 426.639C1263.49 426.843 1264 426.857 1264.71 426.683V428.537C1263.75 428.683 1263.02 428.596 1262.51 428.276C1262.01 427.941 1261.72 427.359 1261.64 426.53H1261.26C1260.99 427.156 1260.52 427.672 1259.85 428.079C1259.18 428.472 1258.44 428.668 1257.64 428.668ZM1062.99 456.087L1060 445.614V460.45H1058.19V442.996H1061L1064.14 454.101L1067.29 442.996H1069.99V460.45H1068.18V445.483L1065.19 456.087H1062.99ZM1077.69 458.901C1078.24 458.901 1078.76 458.777 1079.26 458.53C1079.77 458.268 1080.18 457.803 1080.5 457.134V454.821H1077.73C1077.15 454.821 1076.68 454.974 1076.34 455.279C1076 455.57 1075.83 456.087 1075.83 456.828C1075.83 457.483 1075.98 457.992 1076.27 458.356C1076.58 458.719 1077.05 458.901 1077.69 458.901ZM1077.36 460.668C1076.31 460.668 1075.48 460.341 1074.87 459.687C1074.26 459.017 1073.96 458.108 1073.96 456.959C1073.96 455.825 1074.27 454.93 1074.9 454.276C1075.54 453.607 1076.39 453.272 1077.45 453.272H1080.5V451.09C1080.5 450.45 1080.32 449.919 1079.96 449.497C1079.59 449.061 1079.06 448.843 1078.34 448.843C1077.57 448.843 1077.01 449.025 1076.66 449.388C1076.31 449.737 1076.04 450.392 1075.86 451.352L1074.18 450.828C1074.38 449.592 1074.82 448.668 1075.51 448.057C1076.2 447.447 1077.16 447.141 1078.36 447.141C1079.57 447.141 1080.55 447.439 1081.31 448.036C1082.08 448.632 1082.47 449.556 1082.47 450.807V457.352C1082.47 458.007 1082.61 458.436 1082.9 458.639C1083.21 458.843 1083.72 458.857 1084.43 458.683V460.537C1083.47 460.683 1082.74 460.596 1082.23 460.276C1081.73 459.941 1081.44 459.359 1081.35 458.53H1080.98C1080.71 459.156 1080.23 459.672 1079.56 460.079C1078.9 460.472 1078.16 460.668 1077.36 460.668ZM1091.8 458.792C1092.36 458.792 1092.87 458.625 1093.32 458.29C1093.77 457.956 1094.18 457.439 1094.55 456.741V449.737C1094.23 449.447 1093.88 449.228 1093.52 449.083C1093.16 448.937 1092.77 448.865 1092.36 448.865C1091.56 448.865 1090.97 449.105 1090.57 449.585C1090.18 450.05 1089.99 450.77 1089.99 451.745V456.174C1089.99 457.061 1090.13 457.723 1090.42 458.159C1090.71 458.581 1091.17 458.792 1091.8 458.792ZM1094.07 458.748C1093.85 459.359 1093.48 459.832 1092.97 460.167C1092.47 460.501 1091.85 460.668 1091.14 460.668C1090.14 460.668 1089.36 460.268 1088.81 459.468C1088.27 458.668 1088 457.548 1088 456.108V451.701C1088 450.247 1088.36 449.119 1089.09 448.319C1089.83 447.519 1090.88 447.119 1092.23 447.119C1092.6 447.119 1092.98 447.177 1093.39 447.294C1093.8 447.396 1094.18 447.548 1094.55 447.752V442.996H1096.53V460.45H1094.55V458.748H1094.07ZM1100.47 460.45V447.359H1102.45V449.061H1102.93C1103.12 448.392 1103.46 447.905 1103.96 447.599C1104.47 447.294 1105.01 447.141 1105.57 447.141C1106.33 447.141 1106.93 447.417 1107.36 447.97C1107.81 448.523 1108.04 449.308 1108.04 450.327V452.727H1106.16V450.567C1106.16 450.101 1106.05 449.73 1105.84 449.454C1105.62 449.163 1105.31 449.017 1104.92 449.017C1104.5 449.017 1104.05 449.207 1103.57 449.585C1103.1 449.948 1102.73 450.407 1102.45 450.959V460.45H1100.47ZM1112.76 460.45V447.359H1114.74V460.45H1112.76ZM1113.76 444.894C1113.31 444.894 1112.94 444.814 1112.65 444.654C1112.36 444.479 1112.21 444.167 1112.21 443.716V443.585C1112.21 443.119 1112.36 442.799 1112.65 442.625C1112.94 442.45 1113.31 442.363 1113.76 442.363C1114.21 442.363 1114.58 442.45 1114.87 442.625C1115.17 442.799 1115.31 443.119 1115.31 443.585V443.716C1115.31 444.167 1115.17 444.479 1114.87 444.654C1114.58 444.814 1114.21 444.894 1113.76 444.894ZM1123.93 458.792C1124.5 458.792 1125.01 458.625 1125.46 458.29C1125.91 457.956 1126.31 457.439 1126.68 456.741V449.737C1126.36 449.447 1126.02 449.228 1125.65 449.083C1125.29 448.937 1124.9 448.865 1124.5 448.865C1123.7 448.865 1123.1 449.105 1122.71 449.585C1122.31 450.05 1122.12 450.77 1122.12 451.745V456.174C1122.12 457.061 1122.26 457.723 1122.55 458.159C1122.85 458.581 1123.3 458.792 1123.93 458.792ZM1126.2 458.748C1125.98 459.359 1125.62 459.832 1125.11 460.167C1124.6 460.501 1123.99 460.668 1123.27 460.668C1122.27 460.668 1121.49 460.268 1120.94 459.468C1120.4 458.668 1120.13 457.548 1120.13 456.108V451.701C1120.13 450.247 1120.5 449.119 1121.22 448.319C1121.97 447.519 1123.01 447.119 1124.37 447.119C1124.73 447.119 1125.11 447.177 1125.52 447.294C1125.93 447.396 1126.31 447.548 1126.68 447.752V442.996H1128.66V460.45H1126.68V458.748H1126.2Z" fill="#1E193B"/>
<defs>
<clipPath id="clip0">
<rect x="0.723633" width="1246" height="610.5" fill="white"/>
</clipPath>
</defs>
</svg>
