<svg width="1298" height="611" viewBox="0 0 1298 611" fill="none" xmlns="http://www.w3.org/2000/svg">
<mask id="mask0_425_79" style="mask-type:luminance" maskUnits="userSpaceOnUse" x="0" y="0" width="1247" height="611">
<path d="M1246.72 0H0.724609V610.5H1246.72V0Z" fill="white"/>
</mask>
<g mask="url(#mask0_425_79)">
<path d="M19.825 272L3.625 255.8L19.825 20.2998H110.725C136.925 20.2998 157.525 25.9999 172.525 37.3999C187.525 48.7999 195.025 66.4999 195.025 90.3999V127.8C195.025 151.1 187.725 168 173.025 178.6C158.325 189.2 137.725 194.5 111.025 194.5H80.525V272H19.825ZM80.525 149.9H107.225C116.225 149.9 123.025 148.1 127.625 144.4C132.225 140.7 134.525 133.3 134.525 122.2V94.8999C134.525 83.5999 132.225 75.8999 127.625 71.7999C123.025 67.6999 116.225 65.6998 107.225 65.6998H80.525V149.9Z" fill="#1E193B" stroke="#1E193B" stroke-width="2" stroke-miterlimit="10" stroke-linecap="round" stroke-linejoin="round"/>
<path d="M316.125 275.1C287.625 275.1 265.925 267.9 251.025 253.4C236.125 239 228.725 218.9 228.725 193.4V100.3C228.725 74.4997 236.225 54.1997 251.225 39.3997C266.225 24.5997 288.025 17.1997 316.525 17.1997C336.825 17.1997 348.625 12.6997 362.125 20.2997C367.425 23.2997 377.125 35.1997 381.325 39.2997C396.225 54.0997 403.625 74.3997 403.625 100.2V193.3C403.625 218.9 396.225 238.9 381.325 253.4C366.325 267.9 344.625 275.1 316.125 275.1ZM316.125 229.8C326.025 229.8 332.925 226.8 336.925 220.7C340.925 214.6 342.925 203.6 342.925 187.7V105.9C342.925 89.7997 340.925 78.4997 336.925 72.0997C332.925 65.6997 326.025 62.4997 316.125 62.4997C306.525 62.4997 299.625 65.6997 295.525 72.0997C291.425 78.4997 289.425 89.7997 289.425 105.9V187.7C289.425 203.6 291.425 214.7 295.525 220.7C299.625 226.8 306.525 229.8 316.125 229.8Z" fill="#1E193B" stroke="#1E193B" stroke-width="2" stroke-miterlimit="10" stroke-linecap="round" stroke-linejoin="round"/>
<path d="M436.325 272L420.125 255.8L436.325 20.3006L595.625 4.10059L611.825 20.3006V65.6006H497.025V115.3L581.225 99.1006L597.425 115.3V160.6H497.025V226.7L595.625 210.5L611.825 226.7V272H436.325Z" fill="#1E193B" stroke="#1E193B" stroke-width="2" stroke-miterlimit="10" stroke-linecap="round" stroke-linejoin="round"/>
<path d="M702.125 272L685.925 255.8L702.125 65.6006H638.925L622.725 49.4006L638.925 20.3006L810.525 4.10059L826.725 20.3006V65.6006H763.225V272H702.125Z" fill="#1E193B" stroke="#1E193B" stroke-width="2" stroke-miterlimit="10" stroke-linecap="round" stroke-linejoin="round"/>
<path d="M913.525 272H852.825L836.625 255.8L852.825 20.2998H949.425C967.325 20.2998 974.225 12.4998 985.625 18.3998C990.425 20.8998 1002.22 34.5998 1005.92 38.0998C1018.22 49.9998 1024.32 67.0998 1024.32 89.4998V111.8C1024.32 128.8 1021.02 142.8 1014.52 153.8C1008.02 164.8 998.525 172.6 985.925 177.2L1033.42 271.9H970.225L954.025 255.7L926.125 183H913.525V272ZM913.525 137.7H939.325C949.425 137.7 956.425 135.9 960.525 132.2C964.625 128.5 966.625 121.3 966.625 110.6V92.6998C966.625 82.1998 964.625 75.0998 960.525 71.2998C956.425 67.4998 949.325 65.5998 939.325 65.5998H913.525V137.7Z" fill="#1E193B" stroke="#1E193B" stroke-width="2" stroke-miterlimit="10" stroke-linecap="round" stroke-linejoin="round"/>
<path d="M1179.62 272H1118.62L1102.42 255.8L1118.62 177.6L1052.22 20.3006L1096.12 4.10059L1112.32 20.3006L1148.82 122.2L1185.92 20.3006L1229.52 4.10059L1245.72 20.3006L1179.62 177.6V272Z" fill="#1E193B" stroke="#1E193B" stroke-width="2" stroke-miterlimit="10" stroke-linecap="round" stroke-linejoin="round"/>
<path d="M103.425 609.5C85.8246 609.5 70.0246 607.2 56.1246 602.7C42.2246 598.2 29.4246 592.4 17.9246 585.2L1.72461 569.1L30.1246 540C41.6246 547.1 53.2246 553 64.9246 557.5C76.5246 562 89.7246 564.3 104.425 564.3C115.725 564.3 123.825 561.8 128.625 556.9C133.425 552 135.825 545.6 135.825 537.9C135.825 528 132.625 521.2 126.225 517.3C119.825 513.4 108.825 509.2 93.3246 504.6C67.8246 497.3 49.7246 488 39.1246 476.6L18.9246 455.6C18.9246 455.6 23.2246 444.6 23.2246 429.3C23.2246 407.3 30.3246 388.9 44.6246 374.1C58.9246 359.3 80.4246 351.9 109.125 351.9C122.925 351.9 136.725 354.3 150.525 359C160.025 362.3 161.025 354.5 168.125 358.1L184.325 374.3L175.225 417.4C163.925 411.1 153.125 406.2 143.025 402.8C132.825 399.3 122.425 397.6 111.725 397.6C102.325 397.6 95.3246 399.7 90.8246 403.9C86.3246 408.1 84.0246 414.3 84.0246 422.5C84.0246 430.7 86.8246 437 92.5246 441.5C98.2246 446 109.525 450.7 126.525 455.5C145.725 461.2 153.825 460.2 164.625 468.3C164.625 468.3 178.925 482.5 180.825 484.5C191.725 496 196.725 512.5 196.725 533.3C196.725 557.2 188.525 575.9 172.225 589.5C155.725 602.7 132.825 609.5 103.425 609.5Z" fill="#1E193B" stroke="#1E193B" stroke-width="2" stroke-miterlimit="10" stroke-linecap="round" stroke-linejoin="round"/>
<path d="M242.524 606.4L226.324 590.2L242.524 354.7L287.024 338.5L303.224 354.7V561L388.024 544.8L404.224 561V606.3H242.524V606.4Z" fill="#1E193B" stroke="#1E193B" stroke-width="2" stroke-miterlimit="10" stroke-linecap="round" stroke-linejoin="round"/>
<path d="M566.825 606.4L550.625 590.2L555.525 548.2H492.625L479.725 606.4H425.325L409.125 590.2L486.925 354.7L545.925 338.5L562.125 354.7L623.825 606.4H566.825ZM546.425 502.9L525.925 399L502.925 502.8H546.425V502.9Z" fill="#1E193B" stroke="#1E193B" stroke-width="2" stroke-miterlimit="10" stroke-linecap="round" stroke-linejoin="round"/>
<path d="M728.223 609.5C710.623 609.5 694.823 607.2 680.923 602.7C667.023 598.2 654.223 592.4 642.723 585.2L626.523 569L654.923 539.9C666.423 547 678.023 552.9 689.723 557.4C701.323 561.9 714.523 564.2 729.223 564.2C740.523 564.2 748.623 561.7 753.423 556.8C758.223 551.9 760.623 545.5 760.623 537.8C760.623 527.9 757.423 521.1 751.023 517.2C744.623 513.3 733.623 509.1 718.123 504.5C692.523 497.4 674.423 488.1 663.823 476.7L646.223 458.9C643.223 450.6 647.923 440.1 647.923 429.3C647.923 407.3 655.023 388.9 669.323 374.1C683.623 359.3 705.123 351.9 733.823 351.9C747.623 351.9 761.423 354.3 775.223 359C781.123 361 790.023 358.9 792.323 358.2C792.623 358.1 793.023 358.2 793.323 358.5L809.123 374.3L800.023 417.4C788.723 411.1 777.923 406.2 767.823 402.8C757.623 399.3 747.223 397.6 736.523 397.6C727.123 397.6 720.123 399.7 715.623 403.9C711.123 408.1 708.823 414.3 708.823 422.5C708.823 430.7 711.623 437 717.323 441.5C723.023 446 734.323 450.7 751.323 455.5C768.323 460.5 776.623 458.9 787.023 465.8C787.023 465.8 802.023 480.5 805.623 484.5C816.223 496.2 821.523 512.5 821.523 533.3C821.523 557.2 813.323 575.9 797.023 589.5C780.423 602.7 757.623 609.5 728.223 609.5Z" fill="#1E193B" stroke="#1E193B" stroke-width="2" stroke-miterlimit="10" stroke-linecap="round" stroke-linejoin="round"/>
<path d="M852.825 606.4L836.625 590.2L852.825 354.7L897.325 338.5L913.525 354.7V444H968.225V354.7L1012.72 338.5L1028.92 354.7V606.4H968.225L952.025 590.2L968.225 489.4H913.525V606.4H852.825Z" fill="#1E193B" stroke="#1E193B" stroke-width="2" stroke-miterlimit="10" stroke-linecap="round" stroke-linejoin="round"/>
<path d="M3.625 255.8V4.10059H94.525C120.725 4.10059 141.325 9.80059 156.325 21.2006C171.325 32.6006 178.825 50.3006 178.825 74.2006V111.6C178.825 134.9 171.525 151.8 156.825 162.4C142.125 173 121.525 178.3 94.825 178.3H64.325V255.7H3.625V255.8ZM64.325 133.8H91.025C100.025 133.8 106.825 132 111.425 128.3C116.025 124.6 118.325 117.2 118.325 106.1V78.7006C118.325 67.4006 116.025 59.7006 111.425 55.6006C106.825 51.5006 100.025 49.5006 91.025 49.5006H64.325V133.8Z" fill="white" stroke="#1E193B" stroke-width="2" stroke-miterlimit="10" stroke-linecap="round" stroke-linejoin="round"/>
<path d="M299.923 259C271.423 259 249.723 251.8 234.823 237.3C219.923 222.8 212.523 202.8 212.523 177.2V84.1C212.523 58.3 220.023 38 235.023 23.2C250.023 8.4 271.723 1 300.223 1C328.523 1 350.123 8.4 365.023 23.2C379.923 38 387.323 58.3 387.323 84.1V177.2C387.323 202.8 379.923 222.8 365.023 237.3C350.223 251.7 328.423 259 299.923 259ZM299.923 213.7C309.823 213.7 316.723 210.7 320.723 204.6C324.723 198.5 326.723 187.5 326.723 171.6V89.7C326.723 73.6 324.723 62.3 320.723 55.9C316.723 49.5 309.823 46.3 299.923 46.3C290.323 46.3 283.423 49.5 279.323 55.9C275.223 62.3 273.223 73.6 273.223 89.7V171.5C273.223 187.4 275.223 198.5 279.323 204.5C283.423 210.6 290.323 213.7 299.923 213.7Z" fill="white" stroke="#1E193B" stroke-width="2" stroke-miterlimit="10" stroke-linecap="round" stroke-linejoin="round"/>
<path d="M420.125 255.8V4.10059H595.625V49.4006H480.825V99.1006H581.225V144.4H480.825V210.5H595.625V255.8H420.125Z" fill="white" stroke="#1E193B" stroke-width="2" stroke-miterlimit="10" stroke-linecap="round" stroke-linejoin="round"/>
<path d="M685.925 255.8V49.4006H622.725V4.10059H810.525V49.4006H747.025V255.8H685.925Z" fill="white" stroke="#1E193B" stroke-width="2" stroke-miterlimit="10" stroke-linecap="round" stroke-linejoin="round"/>
<path d="M897.325 255.8H836.625V4.10059H933.225C958.625 4.10059 977.425 10.0006 989.725 21.9006C1002.02 33.8006 1008.12 50.9006 1008.12 73.3006V95.6006C1008.12 112.6 1004.82 126.6 998.325 137.6C991.825 148.6 982.325 156.4 969.725 161L1017.22 255.7H954.025L910.025 166.7H897.425V255.8H897.325ZM897.325 121.5H923.125C933.225 121.5 940.225 119.7 944.325 116C948.425 112.3 950.425 105.1 950.425 94.4006V76.5006C950.425 66.0006 948.425 58.9006 944.325 55.1006C940.225 51.3006 933.125 49.4006 923.125 49.4006H897.325V121.5Z" fill="white" stroke="#1E193B" stroke-width="2" stroke-miterlimit="10" stroke-linecap="round" stroke-linejoin="round"/>
<path d="M1163.52 255.8H1102.52V161.4L1036.02 4.10059H1096.12L1132.62 106L1169.72 4.10059H1229.52L1163.42 161.4V255.8H1163.52Z" fill="white" stroke="#1E193B" stroke-width="2" stroke-miterlimit="10" stroke-linecap="round" stroke-linejoin="round"/>
<path d="M87.3246 593.3C69.7246 593.3 53.9246 591 40.0246 586.5C26.0246 582 13.2246 576.2 1.72461 569.1L14.0246 523.8C25.5246 530.9 37.1246 536.8 48.8246 541.3C60.4246 545.8 73.6246 548.1 88.3246 548.1C99.6246 548.1 107.725 545.6 112.525 540.7C117.325 535.8 119.725 529.4 119.725 521.7C119.725 511.8 116.525 505 110.125 501.1C103.725 497.2 92.7246 493 77.2246 488.4C51.6246 481.3 33.5246 472 22.9246 460.6C12.3246 449 7.02461 433.2 7.02461 413.1C7.02461 391.1 14.1246 372.7 28.4246 357.9C42.7246 343.1 64.2246 335.7 92.9246 335.7C106.725 335.7 120.525 338.1 134.325 342.8C148.025 347.5 159.325 352.6 168.125 358.1L159.025 401.2C147.725 394.9 136.925 390 126.825 386.6C116.625 383.1 106.225 381.4 95.5246 381.4C86.1246 381.4 79.1246 383.5 74.6246 387.7C70.1246 391.9 67.8246 398.1 67.8246 406.3C67.8246 414.5 70.6246 420.8 76.3246 425.3C82.0246 429.8 93.3246 434.5 110.325 439.3C135.925 446.8 154.025 456.5 164.625 468.2C175.225 479.9 180.525 496.2 180.525 517C180.525 540.9 172.325 559.6 156.025 573.2C139.525 586.6 116.625 593.3 87.3246 593.3Z" fill="white" stroke="#1E193B" stroke-width="2" stroke-miterlimit="10" stroke-linecap="round" stroke-linejoin="round"/>
<path d="M226.324 590.2V338.5H287.024V544.9H388.024V590.2H226.324Z" fill="white" stroke="#1E193B" stroke-width="2" stroke-miterlimit="10" stroke-linecap="round" stroke-linejoin="round"/>
<path d="M550.625 590.2L539.325 532H476.425L463.525 590.2H409.125L470.725 338.5H545.925L607.625 590.2H550.625ZM530.225 486.7L509.825 382.9L486.825 486.7H530.225Z" fill="white" stroke="#1E193B" stroke-width="2" stroke-miterlimit="10" stroke-linecap="round" stroke-linejoin="round"/>
<path d="M712.023 593.3C694.423 593.3 678.623 591 664.723 586.5C650.823 582 638.023 576.2 626.523 569L638.823 523.7C650.323 530.8 661.923 536.7 673.623 541.2C685.223 545.7 698.423 548 713.123 548C724.423 548 732.523 545.5 737.323 540.6C742.123 535.7 744.523 529.3 744.523 521.6C744.523 511.7 741.323 504.9 734.923 501C728.523 497.1 717.523 492.9 702.023 488.3C676.423 481.2 658.323 471.9 647.723 460.5C637.123 449.1 631.823 433.3 631.823 413.2C631.823 391.2 638.923 372.8 653.223 358C667.523 343.2 689.023 335.8 717.723 335.8C731.523 335.8 745.323 338.2 759.123 342.9C772.823 347.6 784.123 352.7 792.923 358.2L783.823 401.3C772.523 395 761.723 390.1 751.623 386.7C741.423 383.2 731.023 381.5 720.323 381.5C710.923 381.5 703.923 383.6 699.423 387.8C694.923 392 692.623 398.2 692.623 406.4C692.623 414.6 695.423 420.9 701.123 425.4C706.823 429.9 718.123 434.6 735.123 439.4C760.723 446.9 778.823 456.6 789.423 468.3C800.023 480 805.323 496.3 805.323 517.1C805.323 541 797.123 559.7 780.823 573.3C764.223 586.6 741.423 593.3 712.023 593.3Z" fill="white" stroke="#1E193B" stroke-width="2" stroke-miterlimit="10" stroke-linecap="round" stroke-linejoin="round"/>
<path d="M836.625 590.2V338.5H897.325V427.8H952.025V338.5H1012.72V590.2H952.025V473.2H897.325V590.2H836.625Z" fill="white" stroke="#1E193B" stroke-width="2" stroke-miterlimit="10" stroke-linecap="round" stroke-linejoin="round"/>
</g>
<path d="M1060.66 536.264C1080.36 536.264 1096.29 520.214 1096.29 500.37V481.136" stroke="#1E193B" stroke-width="2" stroke-miterlimit="10" stroke-linecap="round" stroke-linejoin="round"/>
<path d="M1101.79 486.675L1096.29 481.136L1090.79 486.675" stroke="#1E193B" stroke-width="2" stroke-miterlimit="10" stroke-linecap="round" stroke-linejoin="round"/>
<path d="M1058.19 396.817V393.086C1058.19 391.661 1058.43 390.563 1058.91 389.792C1059.4 389.021 1060.19 388.49 1061.28 388.199L1064.49 387.326C1065.1 387.166 1065.54 386.89 1065.8 386.497C1066.08 386.09 1066.22 385.516 1066.22 384.774V383.792C1066.22 382.774 1065.98 382.046 1065.52 381.61C1065.07 381.159 1064.32 380.934 1063.27 380.934C1062.22 380.934 1061.5 381.21 1061.09 381.763C1060.68 382.301 1060.43 383.326 1060.32 384.839L1058.36 384.621C1058.45 382.657 1058.86 381.254 1059.6 380.41C1060.36 379.566 1061.58 379.145 1063.25 379.145C1064.86 379.145 1066.08 379.516 1066.91 380.257C1067.76 380.999 1068.18 382.09 1068.18 383.53V385.057C1068.18 386.236 1067.94 387.159 1067.46 387.828C1066.98 388.483 1066.22 388.948 1065.17 389.225L1061.94 390.097C1061.31 390.257 1060.86 390.57 1060.59 391.036C1060.31 391.501 1060.17 392.17 1060.17 393.043V395.072H1068.35V396.817H1058.19ZM1077.38 388.396C1078.44 388.396 1079.22 388.112 1079.71 387.545C1080.21 386.963 1080.45 386.054 1080.45 384.817V384.534C1080.45 383.283 1080.21 382.374 1079.71 381.806C1079.22 381.225 1078.44 380.934 1077.38 380.934C1076.3 380.934 1075.52 381.225 1075.02 381.806C1074.53 382.374 1074.28 383.283 1074.28 384.534V384.817C1074.28 386.054 1074.53 386.963 1075.02 387.545C1075.52 388.112 1076.3 388.396 1077.38 388.396ZM1077.31 397.036C1075.8 397.036 1074.66 396.73 1073.89 396.119C1073.12 395.508 1072.63 394.512 1072.42 393.13L1074.54 392.628C1074.69 393.53 1074.95 394.192 1075.33 394.614C1075.7 395.036 1076.4 395.246 1077.4 395.246C1078.49 395.246 1079.27 394.926 1079.73 394.286C1080.21 393.646 1080.45 392.592 1080.45 391.123V388.548H1080.19C1079.87 389.072 1079.44 389.486 1078.9 389.792C1078.37 390.097 1077.69 390.25 1076.88 390.25C1075.36 390.25 1074.21 389.814 1073.43 388.941C1072.66 388.068 1072.27 386.781 1072.27 385.079V384.599C1072.27 382.81 1072.7 381.457 1073.56 380.541C1074.42 379.61 1075.68 379.145 1077.36 379.145C1079.03 379.145 1080.29 379.676 1081.15 380.737C1082.01 381.785 1082.44 383.334 1082.44 385.385V391.123C1082.44 393.072 1082 394.548 1081.13 395.552C1080.27 396.541 1079 397.036 1077.31 397.036ZM1100.28 395.159C1100.85 395.159 1101.36 394.992 1101.81 394.657C1102.26 394.323 1102.66 393.806 1103.03 393.108V386.105C1102.71 385.814 1102.37 385.596 1102 385.45C1101.64 385.305 1101.25 385.232 1100.85 385.232C1100.05 385.232 1099.45 385.472 1099.06 385.952C1098.66 386.417 1098.47 387.137 1098.47 388.112V392.541C1098.47 393.428 1098.61 394.09 1098.9 394.526C1099.2 394.948 1099.65 395.159 1100.28 395.159ZM1102.55 395.116C1102.33 395.726 1101.97 396.199 1101.46 396.534C1100.95 396.868 1100.34 397.036 1099.62 397.036C1098.62 397.036 1097.84 396.636 1097.29 395.836C1096.75 395.036 1096.48 393.916 1096.48 392.476V388.068C1096.48 386.614 1096.85 385.486 1097.57 384.686C1098.32 383.886 1099.36 383.486 1100.72 383.486C1101.08 383.486 1101.46 383.545 1101.87 383.661C1102.28 383.763 1102.66 383.916 1103.03 384.119V379.363H1105.01V396.817H1103.03V395.116H1102.55ZM1117.55 393.981C1117.23 395.057 1116.7 395.836 1115.98 396.316C1115.26 396.796 1114.36 397.036 1113.25 397.036C1111.9 397.036 1110.84 396.643 1110.09 395.857C1109.33 395.057 1108.95 393.952 1108.95 392.541V388.09C1108.95 386.65 1109.33 385.53 1110.09 384.73C1110.84 383.916 1111.89 383.508 1113.23 383.508C1114.57 383.508 1115.61 383.93 1116.35 384.774C1117.1 385.617 1117.48 386.781 1117.48 388.265V390.643H1110.94V392.563C1110.94 393.552 1111.13 394.257 1111.5 394.679C1111.9 395.101 1112.49 395.312 1113.29 395.312C1114.04 395.312 1114.58 395.166 1114.93 394.876C1115.29 394.57 1115.56 394.083 1115.74 393.414L1117.55 393.981ZM1110.94 388.09V389.094H1115.5V388.308C1115.5 387.261 1115.31 386.49 1114.93 385.996C1114.57 385.486 1113.99 385.232 1113.21 385.232C1112.44 385.232 1111.86 385.472 1111.48 385.952C1111.12 386.417 1110.94 387.13 1110.94 388.09ZM1135.32 395.268C1135.87 395.268 1136.4 395.145 1136.89 394.897C1137.4 394.636 1137.81 394.17 1138.13 393.501V391.188H1135.36C1134.78 391.188 1134.32 391.341 1133.97 391.646C1133.63 391.937 1133.47 392.454 1133.47 393.196C1133.47 393.85 1133.61 394.359 1133.9 394.723C1134.21 395.086 1134.68 395.268 1135.32 395.268ZM1134.99 397.036C1133.95 397.036 1133.12 396.708 1132.51 396.054C1131.89 395.385 1131.59 394.476 1131.59 393.326C1131.59 392.192 1131.9 391.297 1132.53 390.643C1133.17 389.974 1134.02 389.639 1135.08 389.639H1138.13V387.457C1138.13 386.817 1137.95 386.286 1137.59 385.865C1137.23 385.428 1136.69 385.21 1135.97 385.21C1135.2 385.21 1134.64 385.392 1134.29 385.756C1133.95 386.105 1133.68 386.759 1133.49 387.719L1131.81 387.196C1132.01 385.959 1132.45 385.036 1133.14 384.425C1133.84 383.814 1134.79 383.508 1136 383.508C1137.2 383.508 1138.19 383.806 1138.94 384.403C1139.71 384.999 1140.1 385.923 1140.1 387.174V393.719C1140.1 394.374 1140.24 394.803 1140.53 395.006C1140.84 395.21 1141.35 395.225 1142.06 395.05V396.905C1141.1 397.05 1140.37 396.963 1139.86 396.643C1139.36 396.308 1139.07 395.726 1138.99 394.897H1138.61C1138.34 395.523 1137.87 396.039 1137.2 396.446C1136.53 396.839 1135.79 397.036 1134.99 397.036ZM1149.78 397.057C1148.93 397.057 1148.15 396.941 1147.42 396.708C1146.69 396.461 1146.1 396.119 1145.63 395.683V379.363H1147.62V385.428H1148.1C1148.32 384.817 1148.68 384.345 1149.19 384.01C1149.7 383.676 1150.31 383.508 1151.02 383.508C1152.02 383.508 1152.8 383.908 1153.33 384.708C1153.89 385.508 1154.16 386.628 1154.16 388.068V392.476C1154.16 393.93 1153.78 395.057 1153.01 395.857C1152.25 396.657 1151.17 397.057 1149.78 397.057ZM1149.8 395.312C1150.63 395.312 1151.23 395.086 1151.61 394.636C1151.99 394.17 1152.18 393.436 1152.18 392.432V388.025C1152.18 387.108 1152.02 386.439 1151.72 386.017C1151.43 385.596 1150.97 385.385 1150.34 385.385C1149.76 385.385 1149.25 385.552 1148.82 385.886C1148.38 386.206 1147.98 386.723 1147.62 387.436V394.657C1147.88 394.89 1148.18 395.057 1148.53 395.159C1148.88 395.261 1149.3 395.312 1149.8 395.312ZM1158.1 396.817V383.726H1160.09V385.428H1160.57C1160.75 384.759 1161.1 384.272 1161.59 383.966C1162.1 383.661 1162.64 383.508 1163.21 383.508C1163.96 383.508 1164.56 383.785 1164.99 384.337C1165.45 384.89 1165.67 385.676 1165.67 386.694V389.094H1163.79V386.934C1163.79 386.468 1163.69 386.097 1163.47 385.821C1163.25 385.53 1162.94 385.385 1162.55 385.385C1162.13 385.385 1161.68 385.574 1161.2 385.952C1160.73 386.316 1160.36 386.774 1160.09 387.326V396.817H1158.1ZM1170.39 396.817V383.726H1172.38V396.817H1170.39ZM1171.39 381.261C1170.94 381.261 1170.57 381.181 1170.28 381.021C1169.99 380.846 1169.84 380.534 1169.84 380.083V379.952C1169.84 379.486 1169.99 379.166 1170.28 378.992C1170.57 378.817 1170.94 378.73 1171.39 378.73C1171.84 378.73 1172.22 378.817 1172.51 378.992C1172.8 379.166 1172.94 379.486 1172.94 379.952V380.083C1172.94 380.534 1172.8 380.846 1172.51 381.021C1172.22 381.181 1171.84 381.261 1171.39 381.261ZM1182.22 396.905C1181.07 396.905 1180.17 396.512 1179.53 395.726C1178.91 394.941 1178.59 393.828 1178.59 392.388V379.363H1180.56V392.41C1180.56 393.297 1180.71 393.966 1181.02 394.417C1181.32 394.854 1181.77 395.072 1182.37 395.072C1182.54 395.072 1182.74 395.043 1182.96 394.985C1183.19 394.912 1183.4 394.825 1183.59 394.723L1183.94 396.446C1183.71 396.577 1183.44 396.686 1183.13 396.774C1182.84 396.861 1182.54 396.905 1182.22 396.905ZM1188.5 401.356L1189.92 392.803H1193.45L1190.03 401.356H1188.5ZM1209.19 396.817V393.086C1209.19 391.661 1209.43 390.563 1209.91 389.792C1210.41 389.021 1211.2 388.49 1212.29 388.199L1215.5 387.326C1216.11 387.166 1216.55 386.89 1216.81 386.497C1217.09 386.09 1217.22 385.516 1217.22 384.774V383.792C1217.22 382.774 1216.99 382.046 1216.53 381.61C1216.07 381.159 1215.33 380.934 1214.28 380.934C1213.23 380.934 1212.5 381.21 1212.1 381.763C1211.69 382.301 1211.43 383.326 1211.33 384.839L1209.37 384.621C1209.46 382.657 1209.87 381.254 1210.61 380.41C1211.37 379.566 1212.58 379.145 1214.26 379.145C1215.87 379.145 1217.09 379.516 1217.92 380.257C1218.77 380.999 1219.19 382.09 1219.19 383.53V385.057C1219.19 386.236 1218.95 387.159 1218.47 387.828C1217.99 388.483 1217.22 388.948 1216.18 389.225L1212.95 390.097C1212.32 390.257 1211.87 390.57 1211.59 391.036C1211.32 391.501 1211.18 392.17 1211.18 393.043V395.072H1219.36V396.817H1209.19ZM1228.36 397.036C1226.66 397.036 1225.37 396.403 1224.48 395.137C1223.59 393.872 1223.15 392.032 1223.15 389.617V386.65C1223.15 384.192 1223.59 382.33 1224.48 381.065C1225.38 379.785 1226.68 379.145 1228.39 379.145C1230.07 379.145 1231.36 379.785 1232.25 381.065C1233.13 382.33 1233.58 384.192 1233.58 386.65V389.617C1233.58 392.032 1233.13 393.872 1232.25 395.137C1231.36 396.403 1230.07 397.036 1228.36 397.036ZM1228.36 395.246C1229.5 395.246 1230.32 394.796 1230.83 393.894C1231.34 392.977 1231.59 391.486 1231.59 389.421V386.846C1231.59 384.752 1231.34 383.246 1230.83 382.33C1230.32 381.399 1229.5 380.934 1228.36 380.934C1227.23 380.934 1226.41 381.399 1225.9 382.33C1225.39 383.246 1225.13 384.752 1225.13 386.846V389.421C1225.13 391.486 1225.39 392.977 1225.9 393.894C1226.41 394.796 1227.23 395.246 1228.36 395.246ZM1228.36 389.748C1228.01 389.748 1227.73 389.654 1227.51 389.465C1227.29 389.261 1227.19 388.89 1227.19 388.352V387.85C1227.19 387.312 1227.29 386.948 1227.51 386.759C1227.73 386.556 1228.01 386.454 1228.36 386.454C1228.71 386.454 1228.99 386.556 1229.19 386.759C1229.41 386.948 1229.52 387.312 1229.52 387.85V388.352C1229.52 388.89 1229.41 389.261 1229.19 389.465C1228.97 389.654 1228.7 389.748 1228.36 389.748ZM1237.37 396.817V393.086C1237.37 391.661 1237.61 390.563 1238.09 389.792C1238.58 389.021 1239.37 388.49 1240.46 388.199L1243.67 387.326C1244.28 387.166 1244.72 386.89 1244.98 386.497C1245.26 386.09 1245.4 385.516 1245.4 384.774V383.792C1245.4 382.774 1245.16 382.046 1244.7 381.61C1244.25 381.159 1243.5 380.934 1242.45 380.934C1241.4 380.934 1240.68 381.21 1240.27 381.763C1239.86 382.301 1239.61 383.326 1239.5 384.839L1237.54 384.621C1237.63 382.657 1238.04 381.254 1238.78 380.41C1239.54 379.566 1240.76 379.145 1242.43 379.145C1244.04 379.145 1245.26 379.516 1246.09 380.257C1246.94 380.999 1247.36 382.09 1247.36 383.53V385.057C1247.36 386.236 1247.12 387.159 1246.64 387.828C1246.16 388.483 1245.4 388.948 1244.35 389.225L1241.12 390.097C1240.49 390.257 1240.04 390.57 1239.77 391.036C1239.49 391.501 1239.35 392.17 1239.35 393.043V395.072H1247.53V396.817H1237.37ZM1256.4 397.036C1254.72 397.036 1253.46 396.643 1252.63 395.857C1251.82 395.072 1251.37 393.828 1251.3 392.126L1253.26 391.908C1253.38 393.276 1253.65 394.192 1254.07 394.657C1254.49 395.108 1255.27 395.334 1256.4 395.334C1257.61 395.334 1258.45 395.101 1258.91 394.636C1259.39 394.156 1259.63 393.312 1259.63 392.105V391.516C1259.63 390.337 1259.41 389.523 1258.96 389.072C1258.51 388.621 1257.7 388.396 1256.54 388.396H1254.66V386.628H1256.54C1257.54 386.628 1258.25 386.476 1258.67 386.17C1259.1 385.85 1259.31 385.188 1259.31 384.185V383.486C1259.31 382.512 1259.05 381.828 1258.54 381.436C1258.05 381.043 1257.32 380.846 1256.36 380.846C1255.4 380.846 1254.72 381.094 1254.31 381.588C1253.9 382.068 1253.66 382.854 1253.59 383.945L1251.63 383.726C1251.7 382.126 1252.11 380.963 1252.87 380.236C1253.63 379.508 1254.79 379.145 1256.36 379.145C1258.02 379.145 1259.26 379.508 1260.07 380.236C1260.88 380.963 1261.29 382.068 1261.29 383.552V384.294C1261.29 385.152 1261.06 385.836 1260.59 386.345C1260.14 386.839 1259.53 387.116 1258.76 387.174V387.806C1259.66 387.908 1260.36 388.316 1260.86 389.028C1261.36 389.741 1261.62 390.556 1261.62 391.472V392.083C1261.62 393.756 1261.19 394.999 1260.33 395.814C1259.47 396.628 1258.16 397.036 1256.4 397.036ZM1058.19 428.817V411.363H1060.17V427.072H1066.02V428.817H1058.19ZM1072.79 427.268C1073.34 427.268 1073.87 427.145 1074.36 426.897C1074.87 426.636 1075.28 426.17 1075.6 425.501V423.188H1072.83C1072.25 423.188 1071.79 423.341 1071.44 423.646C1071.1 423.937 1070.93 424.454 1070.93 425.196C1070.93 425.85 1071.08 426.359 1071.37 426.723C1071.68 427.086 1072.15 427.268 1072.79 427.268ZM1072.46 429.036C1071.41 429.036 1070.59 428.708 1069.97 428.054C1069.36 427.385 1069.06 426.476 1069.06 425.326C1069.06 424.192 1069.37 423.297 1070 422.643C1070.64 421.974 1071.49 421.639 1072.55 421.639H1075.6V419.457C1075.6 418.817 1075.42 418.286 1075.06 417.865C1074.69 417.428 1074.16 417.21 1073.44 417.21C1072.67 417.21 1072.11 417.392 1071.76 417.756C1071.41 418.105 1071.15 418.759 1070.96 419.719L1069.28 419.196C1069.48 417.959 1069.92 417.036 1070.61 416.425C1071.31 415.814 1072.26 415.508 1073.47 415.508C1074.67 415.508 1075.65 415.806 1076.41 416.403C1077.18 416.999 1077.57 417.923 1077.57 419.174V425.719C1077.57 426.374 1077.71 426.803 1078 427.006C1078.31 427.21 1078.82 427.225 1079.53 427.05V428.905C1078.57 429.05 1077.84 428.963 1077.33 428.643C1076.83 428.308 1076.54 427.726 1076.45 426.897H1076.08C1075.81 427.523 1075.33 428.039 1074.67 428.446C1074 428.839 1073.26 429.036 1072.46 429.036ZM1098.51 429.036C1096.75 429.036 1095.42 428.556 1094.53 427.596C1093.66 426.621 1093.23 425.174 1093.23 423.254V417.014C1093.23 415.065 1093.67 413.603 1094.56 412.628C1095.44 411.639 1096.77 411.145 1098.53 411.145C1100.17 411.145 1101.43 411.639 1102.3 412.628C1103.19 413.617 1103.67 415.072 1103.74 416.992L1101.78 417.21C1101.68 415.668 1101.37 414.563 1100.86 413.894C1100.37 413.225 1099.58 412.89 1098.51 412.89C1097.33 412.89 1096.48 413.21 1095.97 413.85C1095.47 414.49 1095.21 415.545 1095.21 417.014V423.254C1095.21 424.694 1095.47 425.726 1095.97 426.352C1096.48 426.977 1097.33 427.29 1098.51 427.29C1099.58 427.29 1100.37 426.963 1100.86 426.308C1101.37 425.654 1101.68 424.57 1101.78 423.057L1103.74 423.276C1103.67 425.181 1103.19 426.621 1102.3 427.596C1101.41 428.556 1100.15 429.036 1098.51 429.036ZM1111.09 427.268C1111.64 427.268 1112.16 427.145 1112.66 426.897C1113.17 426.636 1113.58 426.17 1113.9 425.501V423.188H1111.13C1110.55 423.188 1110.08 423.341 1109.73 423.646C1109.4 423.937 1109.23 424.454 1109.23 425.196C1109.23 425.85 1109.38 426.359 1109.67 426.723C1109.97 427.086 1110.45 427.268 1111.09 427.268ZM1110.76 429.036C1109.71 429.036 1108.88 428.708 1108.27 428.054C1107.66 427.385 1107.35 426.476 1107.35 425.326C1107.35 424.192 1107.67 423.297 1108.29 422.643C1108.93 421.974 1109.78 421.639 1110.85 421.639H1113.9V419.457C1113.9 418.817 1113.72 418.286 1113.35 417.865C1112.99 417.428 1112.45 417.21 1111.74 417.21C1110.97 417.21 1110.41 417.392 1110.06 417.756C1109.71 418.105 1109.44 418.759 1109.25 419.719L1107.57 419.196C1107.78 417.959 1108.22 417.036 1108.9 416.425C1109.6 415.814 1110.55 415.508 1111.76 415.508C1112.97 415.508 1113.95 415.806 1114.71 416.403C1115.48 416.999 1115.86 417.923 1115.86 419.174V425.719C1115.86 426.374 1116.01 426.803 1116.3 427.006C1116.61 427.21 1117.11 427.225 1117.83 427.05V428.905C1116.87 429.05 1116.13 428.963 1115.62 428.643C1115.13 428.308 1114.84 427.726 1114.75 426.897H1114.38C1114.1 427.523 1113.63 428.039 1112.96 428.446C1112.29 428.839 1111.56 429.036 1110.76 429.036ZM1125.76 429.057C1124.92 429.057 1124.07 428.919 1123.23 428.643C1122.4 428.366 1121.7 427.974 1121.11 427.465L1121.83 425.872C1122.37 426.279 1122.99 426.614 1123.69 426.876C1124.4 427.137 1125.1 427.268 1125.78 427.268C1126.52 427.268 1127.08 427.116 1127.46 426.81C1127.84 426.505 1128.03 426.061 1128.03 425.479C1128.03 424.766 1127.83 424.272 1127.44 423.996C1127.05 423.719 1126.34 423.443 1125.3 423.166C1124.08 422.846 1123.13 422.417 1122.44 421.879C1121.78 421.341 1121.44 420.439 1121.44 419.174C1121.44 418.083 1121.8 417.203 1122.51 416.534C1123.22 415.85 1124.16 415.508 1125.32 415.508C1126.08 415.508 1126.84 415.661 1127.62 415.966C1128.39 416.257 1129.05 416.65 1129.6 417.145L1128.9 418.737C1128.41 418.359 1127.85 418.025 1127.22 417.734C1126.6 417.428 1125.97 417.276 1125.35 417.276C1124.72 417.276 1124.24 417.436 1123.91 417.756C1123.57 418.061 1123.4 418.505 1123.4 419.086C1123.4 419.799 1123.61 420.301 1124.02 420.592C1124.44 420.868 1125.18 421.152 1126.24 421.443C1127.51 421.777 1128.44 422.236 1129.06 422.817C1129.68 423.385 1129.99 424.243 1129.99 425.392C1129.99 426.483 1129.6 427.37 1128.82 428.054C1128.04 428.723 1127.03 429.057 1125.76 429.057ZM1137.64 427.268C1138.19 427.268 1138.72 427.145 1139.21 426.897C1139.72 426.636 1140.14 426.17 1140.46 425.501V423.188H1137.68C1137.1 423.188 1136.64 423.341 1136.29 423.646C1135.95 423.937 1135.79 424.454 1135.79 425.196C1135.79 425.85 1135.93 426.359 1136.22 426.723C1136.53 427.086 1137 427.268 1137.64 427.268ZM1137.31 429.036C1136.27 429.036 1135.44 428.708 1134.83 428.054C1134.22 427.385 1133.91 426.476 1133.91 425.326C1133.91 424.192 1134.22 423.297 1134.85 422.643C1135.49 421.974 1136.34 421.639 1137.4 421.639H1140.46V419.457C1140.46 418.817 1140.27 418.286 1139.91 417.865C1139.55 417.428 1139.01 417.21 1138.3 417.21C1137.52 417.21 1136.96 417.392 1136.62 417.756C1136.27 418.105 1136 418.759 1135.81 419.719L1134.13 419.196C1134.33 417.959 1134.78 417.036 1135.46 416.425C1136.16 415.814 1137.11 415.508 1138.32 415.508C1139.52 415.508 1140.51 415.806 1141.26 416.403C1142.03 416.999 1142.42 417.923 1142.42 419.174V425.719C1142.42 426.374 1142.56 426.803 1142.86 427.006C1143.16 427.21 1143.67 427.225 1144.38 427.05V428.905C1143.42 429.05 1142.69 428.963 1142.18 428.643C1141.68 428.308 1141.39 427.726 1141.31 426.897H1140.94C1140.66 427.523 1140.19 428.039 1139.52 428.446C1138.85 428.839 1138.11 429.036 1137.31 429.036ZM1158.08 428.817V411.363H1166.87V413.108H1160.06V418.41H1166.04V420.177H1160.06V427.072H1166.87V428.817H1158.08ZM1170.55 428.817V415.726H1172.53V417.428H1173.01C1173.26 416.861 1173.65 416.403 1174.19 416.054C1174.74 415.69 1175.32 415.508 1175.93 415.508C1176.85 415.508 1177.6 415.886 1178.18 416.643C1178.78 417.385 1179.08 418.345 1179.08 419.523V428.817H1177.09V419.937C1177.09 419.137 1176.94 418.512 1176.63 418.061C1176.33 417.61 1175.89 417.385 1175.32 417.385C1174.79 417.385 1174.28 417.552 1173.8 417.886C1173.32 418.221 1172.89 418.694 1172.53 419.305V428.817H1170.55ZM1187.47 429.036C1185.95 429.036 1184.83 428.643 1184.11 427.857C1183.38 427.072 1183.01 425.966 1183.01 424.541V420.09C1183.01 418.548 1183.41 417.399 1184.21 416.643C1185.03 415.886 1186.11 415.508 1187.47 415.508C1188.82 415.508 1189.84 415.865 1190.52 416.577C1191.22 417.29 1191.62 418.41 1191.72 419.937L1189.8 420.025C1189.76 419.065 1189.55 418.374 1189.17 417.952C1188.8 417.516 1188.24 417.297 1187.47 417.297C1186.59 417.297 1185.96 417.523 1185.57 417.974C1185.19 418.41 1185 419.116 1185 420.09V424.563C1185 425.508 1185.2 426.192 1185.59 426.614C1185.98 427.036 1186.61 427.246 1187.49 427.246C1188.24 427.246 1188.8 427.065 1189.17 426.701C1189.55 426.337 1189.76 425.756 1189.8 424.956L1191.72 425.043C1191.65 426.439 1191.27 427.457 1190.59 428.097C1189.9 428.723 1188.86 429.036 1187.47 429.036ZM1204.08 425.981C1203.76 427.057 1203.24 427.836 1202.51 428.316C1201.8 428.796 1200.89 429.036 1199.78 429.036C1198.43 429.036 1197.37 428.643 1196.62 427.857C1195.86 427.057 1195.48 425.952 1195.48 424.541V420.09C1195.48 418.65 1195.86 417.53 1196.62 416.73C1197.37 415.916 1198.42 415.508 1199.76 415.508C1201.1 415.508 1202.14 415.93 1202.88 416.774C1203.64 417.617 1204.01 418.781 1204.01 420.265V422.643H1197.47V424.563C1197.47 425.552 1197.66 426.257 1198.04 426.679C1198.43 427.101 1199.02 427.312 1199.82 427.312C1200.57 427.312 1201.11 427.166 1201.46 426.876C1201.82 426.57 1202.09 426.083 1202.27 425.414L1204.08 425.981ZM1197.47 420.09V421.094H1202.03V420.308C1202.03 419.261 1201.84 418.49 1201.46 417.996C1201.1 417.486 1200.52 417.232 1199.74 417.232C1198.97 417.232 1198.39 417.472 1198.01 417.952C1197.65 418.417 1197.47 419.13 1197.47 420.09ZM1207.95 428.817V415.726H1209.94V417.428H1210.42C1210.66 416.861 1211.06 416.403 1211.6 416.054C1212.15 415.69 1212.73 415.508 1213.34 415.508C1214.26 415.508 1215.01 415.886 1215.59 416.643C1216.18 417.385 1216.48 418.345 1216.48 419.523V428.817H1214.5V419.937C1214.5 419.137 1214.34 418.512 1214.04 418.061C1213.73 417.61 1213.3 417.385 1212.73 417.385C1212.19 417.385 1211.68 417.552 1211.2 417.886C1210.72 418.221 1210.3 418.694 1209.94 419.305V428.817H1207.95ZM1224.22 427.159C1224.78 427.159 1225.29 426.992 1225.74 426.657C1226.2 426.323 1226.6 425.806 1226.97 425.108V418.105C1226.65 417.814 1226.3 417.596 1225.94 417.45C1225.58 417.305 1225.19 417.232 1224.78 417.232C1223.98 417.232 1223.39 417.472 1223 417.952C1222.6 418.417 1222.41 419.137 1222.41 420.112V424.541C1222.41 425.428 1222.55 426.09 1222.84 426.526C1223.13 426.948 1223.59 427.159 1224.22 427.159ZM1226.49 427.116C1226.27 427.726 1225.9 428.199 1225.4 428.534C1224.89 428.868 1224.28 429.036 1223.56 429.036C1222.56 429.036 1221.78 428.636 1221.23 427.836C1220.69 427.036 1220.42 425.916 1220.42 424.476V420.068C1220.42 418.614 1220.78 417.486 1221.51 416.686C1222.25 415.886 1223.3 415.486 1224.65 415.486C1225.02 415.486 1225.4 415.545 1225.81 415.661C1226.22 415.763 1226.6 415.916 1226.97 416.119V411.363H1228.95V428.817H1226.97V427.116H1226.49ZM1234.35 428.817V415.726H1236.34V428.817H1234.35ZM1235.35 413.261C1234.9 413.261 1234.53 413.181 1234.24 413.021C1233.95 412.846 1233.81 412.534 1233.81 412.083V411.952C1233.81 411.486 1233.95 411.166 1234.24 410.992C1234.53 410.817 1234.9 410.73 1235.35 410.73C1235.81 410.73 1236.18 410.817 1236.47 410.992C1236.76 411.166 1236.9 411.486 1236.9 411.952V412.083C1236.9 412.534 1236.76 412.846 1236.47 413.021C1236.18 413.181 1235.81 413.261 1235.35 413.261ZM1245.52 427.159C1246.09 427.159 1246.6 426.992 1247.05 426.657C1247.5 426.323 1247.91 425.806 1248.27 425.108V418.105C1247.95 417.814 1247.61 417.596 1247.25 417.45C1246.88 417.305 1246.5 417.232 1246.09 417.232C1245.29 417.232 1244.69 417.472 1244.3 417.952C1243.91 418.417 1243.71 419.137 1243.71 420.112V424.541C1243.71 425.428 1243.86 426.09 1244.15 426.526C1244.44 426.948 1244.9 427.159 1245.52 427.159ZM1247.79 427.116C1247.57 427.726 1247.21 428.199 1246.7 428.534C1246.19 428.868 1245.58 429.036 1244.87 429.036C1243.86 429.036 1243.09 428.636 1242.53 427.836C1241.99 427.036 1241.73 425.916 1241.73 424.476V420.068C1241.73 418.614 1242.09 417.486 1242.82 416.686C1243.56 415.886 1244.61 415.486 1245.96 415.486C1246.32 415.486 1246.71 415.545 1247.11 415.661C1247.52 415.763 1247.91 415.916 1248.27 416.119V411.363H1250.26V428.817H1248.27V427.116H1247.79ZM1257.97 427.268C1258.52 427.268 1259.05 427.145 1259.54 426.897C1260.05 426.636 1260.46 426.17 1260.78 425.501V423.188H1258.01C1257.43 423.188 1256.97 423.341 1256.62 423.646C1256.28 423.937 1256.11 424.454 1256.11 425.196C1256.11 425.85 1256.26 426.359 1256.55 426.723C1256.86 427.086 1257.33 427.268 1257.97 427.268ZM1257.64 429.036C1256.59 429.036 1255.77 428.708 1255.15 428.054C1254.54 427.385 1254.24 426.476 1254.24 425.326C1254.24 424.192 1254.55 423.297 1255.18 422.643C1255.82 421.974 1256.67 421.639 1257.73 421.639H1260.78V419.457C1260.78 418.817 1260.6 418.286 1260.24 417.865C1259.87 417.428 1259.34 417.21 1258.62 417.21C1257.85 417.21 1257.29 417.392 1256.94 417.756C1256.59 418.105 1256.33 418.759 1256.14 419.719L1254.46 419.196C1254.66 417.959 1255.1 417.036 1255.79 416.425C1256.49 415.814 1257.44 415.508 1258.65 415.508C1259.85 415.508 1260.83 415.806 1261.59 416.403C1262.36 416.999 1262.75 417.923 1262.75 419.174V425.719C1262.75 426.374 1262.89 426.803 1263.18 427.006C1263.49 427.21 1264 427.225 1264.71 427.05V428.905C1263.75 429.05 1263.02 428.963 1262.51 428.643C1262.01 428.308 1261.72 427.726 1261.63 426.897H1261.26C1260.99 427.523 1260.51 428.039 1259.85 428.446C1259.18 428.839 1258.44 429.036 1257.64 429.036ZM1062.99 456.454L1060 445.981V460.817H1058.19V443.363H1061L1064.14 454.468L1067.28 443.363H1069.99V460.817H1068.18V445.85L1065.19 456.454H1062.99ZM1077.69 459.268C1078.24 459.268 1078.76 459.145 1079.26 458.897C1079.77 458.636 1080.18 458.17 1080.5 457.501V455.188H1077.73C1077.15 455.188 1076.68 455.341 1076.33 455.646C1076 455.937 1075.83 456.454 1075.83 457.196C1075.83 457.85 1075.98 458.359 1076.27 458.723C1076.57 459.086 1077.05 459.268 1077.69 459.268ZM1077.36 461.036C1076.31 461.036 1075.48 460.708 1074.87 460.054C1074.26 459.385 1073.96 458.476 1073.96 457.326C1073.96 456.192 1074.27 455.297 1074.89 454.643C1075.53 453.974 1076.39 453.639 1077.45 453.639H1080.5V451.457C1080.5 450.817 1080.32 450.286 1079.96 449.865C1079.59 449.428 1079.05 449.21 1078.34 449.21C1077.57 449.21 1077.01 449.392 1076.66 449.756C1076.31 450.105 1076.04 450.759 1075.85 451.719L1074.17 451.196C1074.38 449.959 1074.82 449.036 1075.51 448.425C1076.2 447.814 1077.16 447.508 1078.36 447.508C1079.57 447.508 1080.55 447.806 1081.31 448.403C1082.08 448.999 1082.47 449.923 1082.47 451.174V457.719C1082.47 458.374 1082.61 458.803 1082.9 459.006C1083.21 459.21 1083.72 459.225 1084.43 459.05V460.905C1083.47 461.05 1082.73 460.963 1082.23 460.643C1081.73 460.308 1081.44 459.726 1081.35 458.897H1080.98C1080.71 459.523 1080.23 460.039 1079.56 460.446C1078.89 460.839 1078.16 461.036 1077.36 461.036ZM1091.8 459.159C1092.36 459.159 1092.87 458.992 1093.32 458.657C1093.77 458.323 1094.18 457.806 1094.54 457.108V450.105C1094.22 449.814 1093.88 449.596 1093.52 449.45C1093.16 449.305 1092.77 449.232 1092.36 449.232C1091.56 449.232 1090.97 449.472 1090.57 449.952C1090.18 450.417 1089.98 451.137 1089.98 452.112V456.541C1089.98 457.428 1090.13 458.09 1090.42 458.526C1090.71 458.948 1091.17 459.159 1091.8 459.159ZM1094.06 459.116C1093.85 459.726 1093.48 460.199 1092.97 460.534C1092.46 460.868 1091.85 461.036 1091.14 461.036C1090.14 461.036 1089.36 460.636 1088.81 459.836C1088.27 459.036 1088 457.916 1088 456.476V452.068C1088 450.614 1088.36 449.486 1089.09 448.686C1089.83 447.886 1090.88 447.486 1092.23 447.486C1092.6 447.486 1092.98 447.545 1093.39 447.661C1093.8 447.763 1094.18 447.916 1094.54 448.119V443.363H1096.53V460.817H1094.54V459.116H1094.06ZM1100.47 460.817V447.726H1102.45V449.428H1102.93C1103.12 448.759 1103.46 448.272 1103.96 447.966C1104.47 447.661 1105.01 447.508 1105.57 447.508C1106.33 447.508 1106.93 447.785 1107.36 448.337C1107.81 448.89 1108.04 449.676 1108.04 450.694V453.094H1106.16V450.934C1106.16 450.468 1106.05 450.097 1105.83 449.821C1105.62 449.53 1105.31 449.385 1104.92 449.385C1104.5 449.385 1104.05 449.574 1103.57 449.952C1103.1 450.316 1102.73 450.774 1102.45 451.326V460.817H1100.47ZM1112.76 460.817V447.726H1114.74V460.817H1112.76ZM1113.76 445.261C1113.31 445.261 1112.94 445.181 1112.65 445.021C1112.36 444.846 1112.21 444.534 1112.21 444.083V443.952C1112.21 443.486 1112.36 443.166 1112.65 442.992C1112.94 442.817 1113.31 442.73 1113.76 442.73C1114.21 442.73 1114.58 442.817 1114.87 442.992C1115.16 443.166 1115.31 443.486 1115.31 443.952V444.083C1115.31 444.534 1115.16 444.846 1114.87 445.021C1114.58 445.181 1114.21 445.261 1113.76 445.261ZM1123.93 459.159C1124.5 459.159 1125 458.992 1125.46 458.657C1125.91 458.323 1126.31 457.806 1126.68 457.108V450.105C1126.36 449.814 1126.02 449.596 1125.65 449.45C1125.29 449.305 1124.9 449.232 1124.5 449.232C1123.7 449.232 1123.1 449.472 1122.71 449.952C1122.31 450.417 1122.12 451.137 1122.12 452.112V456.541C1122.12 457.428 1122.26 458.09 1122.55 458.526C1122.84 458.948 1123.3 459.159 1123.93 459.159ZM1126.2 459.116C1125.98 459.726 1125.62 460.199 1125.11 460.534C1124.6 460.868 1123.99 461.036 1123.27 461.036C1122.27 461.036 1121.49 460.636 1120.94 459.836C1120.4 459.036 1120.13 457.916 1120.13 456.476V452.068C1120.13 450.614 1120.5 449.486 1121.22 448.686C1121.96 447.886 1123.01 447.486 1124.36 447.486C1124.73 447.486 1125.11 447.545 1125.52 447.661C1125.93 447.763 1126.31 447.916 1126.68 448.119V443.363H1128.66V460.817H1126.68V459.116H1126.2Z" fill="#1E193B"/>
</svg>
