<svg width="773" height="579" viewBox="0 0 773 579" fill="none" xmlns="http://www.w3.org/2000/svg">
<path d="M17.824 272.367L1.62402 256.167L17.824 20.667H108.724C134.924 20.667 155.524 26.367 170.524 37.767C185.524 49.167 193.024 66.867 193.024 90.767V128.167C193.024 151.467 185.724 168.367 171.024 178.967C156.324 189.567 135.724 194.867 109.024 194.867H78.524V272.367H17.824ZM78.524 150.267H105.224C114.224 150.267 121.024 148.467 125.624 144.767C130.224 141.067 132.524 133.667 132.524 122.567V95.267C132.524 83.967 130.224 76.267 125.624 72.167C121.024 68.067 114.224 66.067 105.224 66.067H78.524V150.267Z" fill="#1E193B" stroke="#1E193B" stroke-width="2" stroke-miterlimit="10" stroke-linecap="round" stroke-linejoin="round"/>
<path d="M314.124 275.467C285.624 275.467 263.924 268.267 249.024 253.767C234.124 239.367 226.724 219.267 226.724 193.767V100.667C226.724 74.8674 234.224 54.5674 249.224 39.7674C264.224 24.9674 286.024 17.5674 314.524 17.5674C334.824 17.5674 346.624 13.0674 360.124 20.6674C365.424 23.6674 375.124 35.5674 379.324 39.6674C394.224 54.4674 401.624 74.7674 401.624 100.567V193.667C401.624 219.267 394.224 239.267 379.324 253.767C364.324 268.267 342.624 275.467 314.124 275.467ZM314.124 230.167C324.024 230.167 330.924 227.167 334.924 221.067C338.924 214.967 340.924 203.967 340.924 188.067V106.267C340.924 90.1674 338.924 78.8674 334.924 72.4674C330.924 66.0674 324.024 62.8674 314.124 62.8674C304.524 62.8674 297.624 66.0674 293.524 72.4674C289.424 78.8674 287.424 90.1674 287.424 106.267V188.067C287.424 203.967 289.424 215.067 293.524 221.067C297.624 227.167 304.524 230.167 314.124 230.167Z" fill="#1E193B" stroke="#1E193B" stroke-width="2" stroke-miterlimit="10" stroke-linecap="round" stroke-linejoin="round"/>
<path d="M434.324 272.367L418.124 256.167L434.324 20.6673L593.624 4.46729L609.824 20.6673V65.9673H495.024V115.667L579.224 99.4673L595.424 115.667V160.967H495.024V227.067L593.624 210.867L609.824 227.067V272.367H434.324Z" fill="#1E193B" stroke="#1E193B" stroke-width="2" stroke-miterlimit="10" stroke-linecap="round" stroke-linejoin="round"/>
<path d="M1.62402 256.167V4.46729H92.524C118.724 4.46729 139.324 10.1673 154.324 21.5673C169.324 32.9673 176.824 50.6673 176.824 74.5673V111.967C176.824 135.267 169.524 152.167 154.824 162.767C140.124 173.367 119.524 178.667 92.824 178.667H62.324V256.067H1.62402V256.167ZM62.324 134.167H89.024C98.024 134.167 104.824 132.367 109.424 128.667C114.024 124.967 116.324 117.567 116.324 106.467V79.0673C116.324 67.7673 114.024 60.0673 109.424 55.9673C104.824 51.8673 98.024 49.8673 89.024 49.8673H62.324V134.167Z" fill="white" stroke="#1E193B" stroke-width="2" stroke-miterlimit="10" stroke-linecap="round" stroke-linejoin="round"/>
<path d="M297.923 259.367C269.423 259.367 247.723 252.167 232.823 237.667C217.923 223.167 210.523 203.167 210.523 177.567V84.4672C210.523 58.6672 218.023 38.3672 233.023 23.5672C248.023 8.76719 269.723 1.36719 298.223 1.36719C326.523 1.36719 348.123 8.76719 363.023 23.5672C377.923 38.3672 385.323 58.6672 385.323 84.4672V177.567C385.323 203.167 377.923 223.167 363.023 237.667C348.223 252.067 326.423 259.367 297.923 259.367ZM297.923 214.067C307.823 214.067 314.723 211.067 318.723 204.967C322.723 198.867 324.723 187.867 324.723 171.967V90.0672C324.723 73.9672 322.723 62.6672 318.723 56.2672C314.723 49.8672 307.823 46.6672 297.923 46.6672C288.323 46.6672 281.423 49.8672 277.323 56.2672C273.223 62.6672 271.223 73.9672 271.223 90.0672V171.867C271.223 187.767 273.223 198.867 277.323 204.867C281.423 210.967 288.323 214.067 297.923 214.067Z" fill="white" stroke="#1E193B" stroke-width="2" stroke-miterlimit="10" stroke-linecap="round" stroke-linejoin="round"/>
<path d="M418.124 256.167V4.46729H593.624V49.7673H478.824V99.4673H579.224V144.767H478.824V210.867H593.624V256.167H418.124V256.167Z" fill="white" stroke="#1E193B" stroke-width="2" stroke-miterlimit="10" stroke-linecap="round" stroke-linejoin="round"/>
<path d="M82.0739 577.367L65.8738 561.167L82.0739 370.967H18.8738L2.67383 354.767L18.8738 325.667L190.474 309.467L206.674 325.667V370.967H143.174V577.367H82.0739Z" fill="#1E193B" stroke="#1E193B" stroke-width="2" stroke-miterlimit="10" stroke-linecap="round" stroke-linejoin="round"/>
<path d="M293.474 577.367H232.774L216.574 561.167L232.774 325.667H329.374C347.274 325.667 354.174 317.867 365.574 323.767C370.374 326.267 382.174 339.967 385.874 343.467C398.174 355.367 404.274 372.467 404.274 394.867V417.167C404.274 434.167 400.974 448.167 394.474 459.167C387.974 470.167 378.474 477.967 365.874 482.567L413.374 577.267H350.174L333.974 561.067L306.074 488.367H293.474V577.367ZM293.474 443.067H319.274C329.374 443.067 336.374 441.267 340.474 437.567C344.574 433.867 346.574 426.667 346.574 415.967V398.067C346.574 387.567 344.574 380.467 340.474 376.667C336.374 372.867 329.274 370.967 319.274 370.967H293.474V443.067Z" fill="#1E193B" stroke="#1E193B" stroke-width="2" stroke-miterlimit="10" stroke-linecap="round" stroke-linejoin="round"/>
<path d="M559.574 577.367H498.574L482.374 561.167L498.574 482.967L432.174 325.667L476.074 309.467L492.274 325.667L528.774 427.567L565.874 325.667L609.474 309.467L625.674 325.667L559.574 482.967V577.367Z" fill="#1E193B" stroke="#1E193B" stroke-width="2" stroke-miterlimit="10" stroke-linecap="round" stroke-linejoin="round"/>
<path d="M65.8738 561.167V354.767H2.67383V309.467H190.474V354.767H126.974V561.167H65.8738Z" fill="white" stroke="#1E193B" stroke-width="2" stroke-miterlimit="10" stroke-linecap="round" stroke-linejoin="round"/>
<path d="M277.274 561.167H216.574V309.467H313.174C338.574 309.467 357.374 315.367 369.674 327.267C381.974 339.167 388.074 356.267 388.074 378.667V400.967C388.074 417.967 384.774 431.967 378.274 442.967C371.774 453.967 362.274 461.767 349.674 466.367L397.174 561.067H333.974L289.974 472.067H277.374V561.167H277.274ZM277.274 426.867H303.074C313.174 426.867 320.174 425.067 324.274 421.367C328.374 417.667 330.374 410.467 330.374 399.767V381.867C330.374 371.367 328.374 364.267 324.274 360.467C320.174 356.667 313.074 354.767 303.074 354.767H277.274V426.867Z" fill="white" stroke="#1E193B" stroke-width="2" stroke-miterlimit="10" stroke-linecap="round" stroke-linejoin="round"/>
<path d="M543.474 561.167H482.474V466.767L415.974 309.467H476.074L512.574 411.367L549.674 309.467H609.474L543.374 466.767V561.167H543.474Z" fill="white" stroke="#1E193B" stroke-width="2" stroke-miterlimit="10" stroke-linecap="round" stroke-linejoin="round"/>
<path d="M638.788 577.367L625.674 564.253L732.296 322.581L758.198 309.467L771.312 322.581L677.804 577.367H638.788Z" fill="#1E193B" stroke="#1E193B" stroke-width="2" stroke-miterlimit="10" stroke-linecap="round" stroke-linejoin="round"/>
<path d="M625.674 564.253L719.182 309.467H758.198L664.69 564.253H625.674Z" fill="white" stroke="#1E193B" stroke-width="2" stroke-miterlimit="10" stroke-linecap="round" stroke-linejoin="round"/>
</svg>
