<svg width="1298" height="611" viewBox="0 0 1298 611" fill="none" xmlns="http://www.w3.org/2000/svg">
<g clip-path="url(#clip0_425_47)">
<mask id="mask0_425_47" style="mask-type:luminance" maskUnits="userSpaceOnUse" x="0" y="0" width="1247" height="611">
<path d="M1246.7 0H0.699219V610.5H1246.7V0Z" fill="white"/>
</mask>
<g mask="url(#mask0_425_47)">
<path d="M19.7996 272L3.59961 255.8L19.7996 20.2998H110.7C136.9 20.2998 157.5 25.9998 172.5 37.3998C187.5 48.7998 195 66.4998 195 90.3998V127.8C195 151.1 187.7 168 173 178.6C158.3 189.2 137.7 194.5 111 194.5H80.4996V272H19.7996ZM80.4996 149.9H107.2C116.2 149.9 123 148.1 127.6 144.4C132.2 140.7 134.5 133.3 134.5 122.2V94.8998C134.5 83.5998 132.2 75.8998 127.6 71.7998C123 67.6998 116.2 65.6998 107.2 65.6998H80.4996V149.9Z" fill="#1E193B" stroke="#1E193B" stroke-width="2" stroke-miterlimit="10" stroke-linecap="round" stroke-linejoin="round"/>
<path d="M316.099 275.1C287.599 275.1 265.899 267.9 250.999 253.4C236.099 239 228.699 218.9 228.699 193.4V100.3C228.699 74.4997 236.199 54.1997 251.199 39.3997C266.199 24.5997 287.999 17.1997 316.499 17.1997C336.799 17.1997 348.599 12.6997 362.099 20.2997C367.399 23.2997 377.099 35.1997 381.299 39.2997C396.199 54.0997 403.599 74.3997 403.599 100.2V193.3C403.599 218.9 396.199 238.9 381.299 253.4C366.299 267.9 344.599 275.1 316.099 275.1ZM316.099 229.8C325.999 229.8 332.899 226.8 336.899 220.7C340.899 214.6 342.899 203.6 342.899 187.7V105.9C342.899 89.7997 340.899 78.4997 336.899 72.0997C332.899 65.6997 325.999 62.4997 316.099 62.4997C306.499 62.4997 299.599 65.6997 295.499 72.0997C291.399 78.4997 289.399 89.7997 289.399 105.9V187.7C289.399 203.6 291.399 214.7 295.499 220.7C299.599 226.8 306.499 229.8 316.099 229.8Z" fill="#1E193B" stroke="#1E193B" stroke-width="2" stroke-miterlimit="10" stroke-linecap="round" stroke-linejoin="round"/>
<path d="M436.3 272L420.1 255.8L436.3 20.2996L595.6 4.09961L611.8 20.2996V65.5996H497V115.3L581.2 99.0996L597.4 115.3V160.6H497V226.7L595.6 210.5L611.8 226.7V272H436.3Z" fill="#1E193B" stroke="#1E193B" stroke-width="2" stroke-miterlimit="10" stroke-linecap="round" stroke-linejoin="round"/>
<path d="M702.099 272L685.899 255.8L702.099 65.5996H638.899L622.699 49.3996L638.899 20.2996L810.499 4.09961L826.699 20.2996V65.5996H763.199V272H702.099Z" fill="#1E193B" stroke="#1E193B" stroke-width="2" stroke-miterlimit="10" stroke-linecap="round" stroke-linejoin="round"/>
<path d="M913.5 272H852.8L836.6 255.8L852.8 20.2998H949.4C967.3 20.2998 974.2 12.4998 985.6 18.3998C990.4 20.8998 1002.2 34.5998 1005.9 38.0998C1018.2 49.9998 1024.3 67.0998 1024.3 89.4998V111.8C1024.3 128.8 1021 142.8 1014.5 153.8C1008 164.8 998.5 172.6 985.9 177.2L1033.4 271.9H970.2L954 255.7L926.1 183H913.5V272ZM913.5 137.7H939.3C949.4 137.7 956.4 135.9 960.5 132.2C964.6 128.5 966.6 121.3 966.6 110.6V92.6998C966.6 82.1998 964.6 75.0998 960.5 71.2998C956.4 67.4998 949.3 65.5998 939.3 65.5998H913.5V137.7Z" fill="#1E193B" stroke="#1E193B" stroke-width="2" stroke-miterlimit="10" stroke-linecap="round" stroke-linejoin="round"/>
<path d="M1179.6 272H1118.6L1102.4 255.8L1118.6 177.6L1052.2 20.2996L1096.1 4.09961L1112.3 20.2996L1148.8 122.2L1185.9 20.2996L1229.5 4.09961L1245.7 20.2996L1179.6 177.6V272Z" fill="#1E193B" stroke="#1E193B" stroke-width="2" stroke-miterlimit="10" stroke-linecap="round" stroke-linejoin="round"/>
<path d="M103.399 609.5C85.7992 609.5 69.9992 607.2 56.0992 602.7C42.1992 598.2 29.3992 592.4 17.8992 585.2L1.69922 569.1L30.0992 540C41.5992 547.1 53.1992 553 64.8992 557.5C76.4992 562 89.6992 564.3 104.399 564.3C115.699 564.3 123.799 561.8 128.599 556.9C133.399 552 135.799 545.6 135.799 537.9C135.799 528 132.599 521.2 126.199 517.3C119.799 513.4 108.799 509.2 93.2992 504.6C67.7992 497.3 49.6992 488 39.0992 476.6L18.8992 455.6C18.8992 455.6 23.1992 444.6 23.1992 429.3C23.1992 407.3 30.2992 388.9 44.5992 374.1C58.8992 359.3 80.3992 351.9 109.099 351.9C122.899 351.9 136.699 354.3 150.499 359C159.999 362.3 160.999 354.5 168.099 358.1L184.299 374.3L175.199 417.4C163.899 411.1 153.099 406.2 142.999 402.8C132.799 399.3 122.399 397.6 111.699 397.6C102.299 397.6 95.2992 399.7 90.7992 403.9C86.2992 408.1 83.9992 414.3 83.9992 422.5C83.9992 430.7 86.7992 437 92.4992 441.5C98.1992 446 109.499 450.7 126.499 455.5C145.699 461.2 153.799 460.2 164.599 468.3C164.599 468.3 178.899 482.5 180.799 484.5C191.699 496 196.699 512.5 196.699 533.3C196.699 557.2 188.499 575.9 172.199 589.5C155.699 602.7 132.799 609.5 103.399 609.5Z" fill="#1E193B" stroke="#1E193B" stroke-width="2" stroke-miterlimit="10" stroke-linecap="round" stroke-linejoin="round"/>
<path d="M242.499 606.4L226.299 590.2L242.499 354.7L286.999 338.5L303.199 354.7V561L387.999 544.8L404.199 561V606.3H242.499V606.4Z" fill="#1E193B" stroke="#1E193B" stroke-width="2" stroke-miterlimit="10" stroke-linecap="round" stroke-linejoin="round"/>
<path d="M566.8 606.4L550.6 590.2L555.5 548.2H492.6L479.7 606.4H425.3L409.1 590.2L486.9 354.7L545.9 338.5L562.1 354.7L623.8 606.4H566.8ZM546.4 502.9L525.9 399L502.9 502.8H546.4V502.9Z" fill="#1E193B" stroke="#1E193B" stroke-width="2" stroke-miterlimit="10" stroke-linecap="round" stroke-linejoin="round"/>
<path d="M728.2 609.5C710.6 609.5 694.8 607.2 680.9 602.7C667 598.2 654.2 592.4 642.7 585.2L626.5 569L654.9 539.9C666.4 547 678 552.9 689.7 557.4C701.3 561.9 714.5 564.2 729.2 564.2C740.5 564.2 748.6 561.7 753.4 556.8C758.2 551.9 760.6 545.5 760.6 537.8C760.6 527.9 757.4 521.1 751 517.2C744.6 513.3 733.6 509.1 718.1 504.5C692.5 497.4 674.4 488.1 663.8 476.7L646.2 458.9C643.2 450.6 647.9 440.1 647.9 429.3C647.9 407.3 655 388.9 669.3 374.1C683.6 359.3 705.1 351.9 733.8 351.9C747.6 351.9 761.4 354.3 775.2 359C781.1 361 790 358.9 792.3 358.2C792.6 358.1 793 358.2 793.3 358.5L809.1 374.3L800 417.4C788.7 411.1 777.9 406.2 767.8 402.8C757.6 399.3 747.2 397.6 736.5 397.6C727.1 397.6 720.1 399.7 715.6 403.9C711.1 408.1 708.8 414.3 708.8 422.5C708.8 430.7 711.6 437 717.3 441.5C723 446 734.3 450.7 751.3 455.5C768.3 460.5 776.6 458.9 787 465.8C787 465.8 802 480.5 805.6 484.5C816.2 496.2 821.5 512.5 821.5 533.3C821.5 557.2 813.3 575.9 797 589.5C780.4 602.7 757.6 609.5 728.2 609.5Z" fill="#1E193B" stroke="#1E193B" stroke-width="2" stroke-miterlimit="10" stroke-linecap="round" stroke-linejoin="round"/>
<path d="M852.8 606.4L836.6 590.2L852.8 354.7L897.3 338.5L913.5 354.7V444H968.2V354.7L1012.7 338.5L1028.9 354.7V606.4H968.2L952 590.2L968.2 489.4H913.5V606.4H852.8Z" fill="#1E193B" stroke="#1E193B" stroke-width="2" stroke-miterlimit="10" stroke-linecap="round" stroke-linejoin="round"/>
<path d="M3.59961 255.8V4.09961H94.4996C120.7 4.09961 141.3 9.79961 156.3 21.1996C171.3 32.5996 178.8 50.2996 178.8 74.1996V111.6C178.8 134.9 171.5 151.8 156.8 162.4C142.1 173 121.5 178.3 94.7996 178.3H64.2996V255.7H3.59961V255.8ZM64.2996 133.8H90.9996C99.9996 133.8 106.8 132 111.4 128.3C116 124.6 118.3 117.2 118.3 106.1V78.6996C118.3 67.3996 116 59.6996 111.4 55.5996C106.8 51.4996 99.9996 49.4996 90.9996 49.4996H64.2996V133.8Z" fill="white" stroke="#1E193B" stroke-width="2" stroke-miterlimit="10" stroke-linecap="round" stroke-linejoin="round"/>
<path d="M299.9 259C271.4 259 249.7 251.8 234.8 237.3C219.9 222.8 212.5 202.8 212.5 177.2V84.1C212.5 58.3 220 38 235 23.2C250 8.4 271.7 1 300.2 1C328.5 1 350.1 8.4 365 23.2C379.9 38 387.3 58.3 387.3 84.1V177.2C387.3 202.8 379.9 222.8 365 237.3C350.2 251.7 328.4 259 299.9 259ZM299.9 213.7C309.8 213.7 316.7 210.7 320.7 204.6C324.7 198.5 326.7 187.5 326.7 171.6V89.7C326.7 73.6 324.7 62.3 320.7 55.9C316.7 49.5 309.8 46.3 299.9 46.3C290.3 46.3 283.4 49.5 279.3 55.9C275.2 62.3 273.2 73.6 273.2 89.7V171.5C273.2 187.4 275.2 198.5 279.3 204.5C283.4 210.6 290.3 213.7 299.9 213.7Z" fill="white" stroke="#1E193B" stroke-width="2" stroke-miterlimit="10" stroke-linecap="round" stroke-linejoin="round"/>
<path d="M420.1 255.8V4.09961H595.6V49.3996H480.8V99.0996H581.2V144.4H480.8V210.5H595.6V255.8H420.1Z" fill="white" stroke="#1E193B" stroke-width="2" stroke-miterlimit="10" stroke-linecap="round" stroke-linejoin="round"/>
<path d="M685.899 255.8V49.3996H622.699V4.09961H810.499V49.3996H746.999V255.8H685.899Z" fill="white" stroke="#1E193B" stroke-width="2" stroke-miterlimit="10" stroke-linecap="round" stroke-linejoin="round"/>
<path d="M897.3 255.8H836.6V4.09961H933.2C958.6 4.09961 977.4 9.99961 989.7 21.8996C1002 33.7996 1008.1 50.8996 1008.1 73.2996V95.5996C1008.1 112.6 1004.8 126.6 998.3 137.6C991.8 148.6 982.3 156.4 969.7 161L1017.2 255.7H954L910 166.7H897.4V255.8H897.3ZM897.3 121.5H923.1C933.2 121.5 940.2 119.7 944.3 116C948.4 112.3 950.4 105.1 950.4 94.3996V76.4996C950.4 65.9996 948.4 58.8996 944.3 55.0996C940.2 51.2996 933.1 49.3996 923.1 49.3996H897.3V121.5Z" fill="white" stroke="#1E193B" stroke-width="2" stroke-miterlimit="10" stroke-linecap="round" stroke-linejoin="round"/>
<path d="M1163.5 255.8H1102.5V161.4L1036 4.09961H1096.1L1132.6 106L1169.7 4.09961H1229.5L1163.4 161.4L1163.5 255.8Z" fill="white" stroke="#1E193B" stroke-width="2" stroke-miterlimit="10" stroke-linecap="round" stroke-linejoin="round"/>
<path d="M87.2992 593.3C69.6992 593.3 53.8992 591 39.9992 586.5C25.9992 582 13.1992 576.2 1.69922 569.1L13.9992 523.8C25.4992 530.9 37.0992 536.8 48.7992 541.3C60.3992 545.8 73.5992 548.1 88.2992 548.1C99.5992 548.1 107.699 545.6 112.499 540.7C117.299 535.8 119.699 529.4 119.699 521.7C119.699 511.8 116.499 505 110.099 501.1C103.699 497.2 92.6992 493 77.1992 488.4C51.5992 481.3 33.4992 472 22.8992 460.6C12.2992 449 6.99922 433.2 6.99922 413.1C6.99922 391.1 14.0992 372.7 28.3992 357.9C42.6992 343.1 64.1992 335.7 92.8992 335.7C106.699 335.7 120.499 338.1 134.299 342.8C147.999 347.5 159.299 352.6 168.099 358.1L158.999 401.2C147.699 394.9 136.899 390 126.799 386.6C116.599 383.1 106.199 381.4 95.4992 381.4C86.0992 381.4 79.0992 383.5 74.5992 387.7C70.0992 391.9 67.7992 398.1 67.7992 406.3C67.7992 414.5 70.5992 420.8 76.2992 425.3C81.9992 429.8 93.2992 434.5 110.299 439.3C135.899 446.8 153.999 456.5 164.599 468.2C175.199 479.9 180.499 496.2 180.499 517C180.499 540.9 172.299 559.6 155.999 573.2C139.499 586.6 116.599 593.3 87.2992 593.3Z" fill="white" stroke="#1E193B" stroke-width="2" stroke-miterlimit="10" stroke-linecap="round" stroke-linejoin="round"/>
<path d="M226.299 590.2V338.5H286.999V544.9H387.999V590.2H226.299Z" fill="white" stroke="#1E193B" stroke-width="2" stroke-miterlimit="10" stroke-linecap="round" stroke-linejoin="round"/>
<path d="M550.6 590.2L539.3 532H476.4L463.5 590.2H409.1L470.7 338.5H545.9L607.6 590.2H550.6ZM530.2 486.7L509.8 382.9L486.8 486.7H530.2Z" fill="white" stroke="#1E193B" stroke-width="2" stroke-miterlimit="10" stroke-linecap="round" stroke-linejoin="round"/>
<path d="M712 593.3C694.4 593.3 678.6 591 664.7 586.5C650.8 582 638 576.2 626.5 569L638.8 523.7C650.3 530.8 661.9 536.7 673.6 541.2C685.2 545.7 698.4 548 713.1 548C724.4 548 732.5 545.5 737.3 540.6C742.1 535.7 744.5 529.3 744.5 521.6C744.5 511.7 741.3 504.9 734.9 501C728.5 497.1 717.5 492.9 702 488.3C676.4 481.2 658.3 471.9 647.7 460.5C637.1 449.1 631.8 433.3 631.8 413.2C631.8 391.2 638.9 372.8 653.2 358C667.5 343.2 689 335.8 717.7 335.8C731.5 335.8 745.3 338.2 759.1 342.9C772.8 347.6 784.1 352.7 792.9 358.2L783.8 401.3C772.5 395 761.7 390.1 751.6 386.7C741.4 383.2 731 381.5 720.3 381.5C710.9 381.5 703.9 383.6 699.4 387.8C694.9 392 692.6 398.2 692.6 406.4C692.6 414.6 695.4 420.9 701.1 425.4C706.8 429.9 718.1 434.6 735.1 439.4C760.7 446.9 778.8 456.6 789.4 468.3C800 480 805.3 496.3 805.3 517.1C805.3 541 797.1 559.7 780.8 573.3C764.2 586.6 741.4 593.3 712 593.3Z" fill="white" stroke="#1E193B" stroke-width="2" stroke-miterlimit="10" stroke-linecap="round" stroke-linejoin="round"/>
<path d="M836.6 590.2V338.5H897.3V427.8H952V338.5H1012.7V590.2H952V473.2H897.3V590.2H836.6Z" fill="white" stroke="#1E193B" stroke-width="2" stroke-miterlimit="10" stroke-linecap="round" stroke-linejoin="round"/>
</g>
<path d="M1060.7 536.3C1080.4 536.3 1096.3 520.3 1096.3 500.4V481.2" stroke="#1E193B" stroke-width="2" stroke-miterlimit="10" stroke-linecap="round" stroke-linejoin="round"/>
<path d="M1101.8 486.7L1096.3 481.2L1090.8 486.7" stroke="#1E193B" stroke-width="2" stroke-miterlimit="10" stroke-linecap="round" stroke-linejoin="round"/>
<path d="M1066.75 389.562L1064.64 381.315L1062.5 389.562H1066.75ZM1068.54 396.5L1067.21 391.307H1062.04L1060.71 396.5H1058.75L1063.57 379.045H1065.82L1070.62 396.5H1068.54ZM1077.67 394.995C1078.52 394.995 1079.12 394.776 1079.48 394.34C1079.86 393.889 1080.05 393.147 1080.05 392.115V387.664C1080.05 386.747 1079.91 386.085 1079.62 385.678C1079.34 385.271 1078.87 385.067 1078.22 385.067C1077.64 385.067 1077.13 385.227 1076.69 385.547C1076.27 385.867 1075.87 386.391 1075.49 387.118V394.1C1075.81 394.391 1076.15 394.616 1076.5 394.776C1076.84 394.922 1077.24 394.995 1077.67 394.995ZM1077.8 396.74C1077.44 396.74 1077.06 396.682 1076.65 396.565C1076.24 396.464 1075.86 396.311 1075.49 396.107V400.864H1073.51V383.409H1075.49V385.111H1075.97C1076.19 384.5 1076.55 384.027 1077.06 383.693C1077.57 383.358 1078.18 383.191 1078.9 383.191C1079.88 383.191 1080.66 383.591 1081.21 384.391C1081.76 385.191 1082.04 386.311 1082.04 387.751V392.158C1082.04 393.598 1081.66 394.725 1080.9 395.54C1080.16 396.34 1079.13 396.74 1077.8 396.74ZM1085.98 396.5V383.409H1087.96V385.111H1088.44C1088.63 384.442 1088.97 383.955 1089.47 383.649C1089.98 383.344 1090.51 383.191 1091.08 383.191C1091.84 383.191 1092.43 383.467 1092.87 384.02C1093.32 384.573 1093.55 385.358 1093.55 386.376V388.776H1091.67V386.616C1091.67 386.151 1091.56 385.78 1091.34 385.504C1091.12 385.213 1090.82 385.067 1090.43 385.067C1090 385.067 1089.55 385.256 1089.07 385.635C1088.61 385.998 1088.24 386.456 1087.96 387.009V396.5H1085.98ZM1098.27 396.5V383.409H1100.25V396.5H1098.27ZM1099.27 380.944C1098.82 380.944 1098.45 380.864 1098.16 380.704C1097.87 380.529 1097.72 380.216 1097.72 379.765V379.635C1097.72 379.169 1097.87 378.849 1098.16 378.675C1098.45 378.5 1098.82 378.413 1099.27 378.413C1099.72 378.413 1100.09 378.5 1100.38 378.675C1100.67 378.849 1100.82 379.169 1100.82 379.635V379.765C1100.82 380.216 1100.67 380.529 1100.38 380.704C1100.09 380.864 1099.72 380.944 1099.27 380.944ZM1110.09 396.587C1108.94 396.587 1108.05 396.195 1107.41 395.409C1106.78 394.624 1106.47 393.511 1106.47 392.071V379.045H1108.43V392.093C1108.43 392.98 1108.58 393.649 1108.89 394.1C1109.2 394.536 1109.65 394.755 1110.24 394.755C1110.42 394.755 1110.61 394.725 1110.83 394.667C1111.06 394.595 1111.28 394.507 1111.46 394.405L1111.81 396.129C1111.58 396.26 1111.31 396.369 1111.01 396.456C1110.72 396.544 1110.41 396.587 1110.09 396.587ZM1124.95 396.5V392.769C1124.95 391.344 1125.19 390.245 1125.67 389.475C1126.17 388.704 1126.96 388.173 1128.05 387.882L1131.26 387.009C1131.87 386.849 1132.3 386.573 1132.57 386.18C1132.84 385.773 1132.98 385.198 1132.98 384.456V383.475C1132.98 382.456 1132.75 381.729 1132.28 381.293C1131.83 380.842 1131.08 380.616 1130.04 380.616C1128.99 380.616 1128.26 380.893 1127.85 381.445C1127.45 381.984 1127.19 383.009 1127.09 384.522L1125.13 384.304C1125.21 382.34 1125.63 380.936 1126.37 380.093C1127.13 379.249 1128.34 378.827 1130.01 378.827C1131.63 378.827 1132.85 379.198 1133.68 379.94C1134.52 380.682 1134.94 381.773 1134.94 383.213V384.74C1134.94 385.918 1134.7 386.842 1134.22 387.511C1133.74 388.165 1132.98 388.631 1131.93 388.907L1128.7 389.78C1128.08 389.94 1127.63 390.253 1127.35 390.718C1127.08 391.184 1126.94 391.853 1126.94 392.725V394.755H1135.12V396.5H1124.95ZM1144.12 396.718C1142.39 396.718 1141.11 396.34 1140.28 395.584C1139.45 394.813 1139.04 393.627 1139.04 392.027V391.547C1139.04 390.311 1139.25 389.373 1139.67 388.733C1140.09 388.093 1140.75 387.722 1141.63 387.62V386.987C1140.85 386.9 1140.27 386.587 1139.91 386.049C1139.55 385.511 1139.37 384.718 1139.37 383.671V382.973C1139.37 381.547 1139.75 380.5 1140.52 379.831C1141.29 379.162 1142.49 378.827 1144.12 378.827C1145.75 378.827 1146.95 379.162 1147.72 379.831C1148.49 380.5 1148.88 381.547 1148.88 382.973V383.671C1148.88 384.718 1148.69 385.511 1148.31 386.049C1147.95 386.587 1147.37 386.9 1146.59 386.987V387.62C1147.49 387.722 1148.15 388.093 1148.57 388.733C1148.99 389.373 1149.21 390.311 1149.21 391.547V392.027C1149.21 393.627 1148.79 394.813 1147.96 395.584C1147.13 396.34 1145.85 396.718 1144.12 396.718ZM1144.12 386.442C1145.15 386.442 1145.87 386.245 1146.28 385.853C1146.69 385.46 1146.89 384.769 1146.89 383.78V383.169C1146.89 382.18 1146.69 381.496 1146.28 381.118C1145.87 380.725 1145.15 380.529 1144.12 380.529C1143.09 380.529 1142.37 380.725 1141.96 381.118C1141.55 381.496 1141.35 382.18 1141.35 383.169V383.78C1141.35 384.769 1141.55 385.46 1141.96 385.853C1142.37 386.245 1143.09 386.442 1144.12 386.442ZM1144.12 395.016C1145.27 395.016 1146.07 394.784 1146.52 394.318C1146.99 393.838 1147.22 393.009 1147.22 391.831V391.438C1147.22 390.245 1146.99 389.416 1146.52 388.951C1146.07 388.471 1145.27 388.231 1144.12 388.231C1142.97 388.231 1142.17 388.471 1141.7 388.951C1141.25 389.416 1141.02 390.245 1141.02 391.438V391.831C1141.02 393.009 1141.25 393.838 1141.7 394.318C1142.17 394.784 1142.97 395.016 1144.12 395.016ZM1158.23 396.696C1157.12 396.696 1156.27 396.347 1155.65 395.649C1155.06 394.951 1154.76 393.962 1154.76 392.682V385.198H1152.8V383.409H1154.76V379.045H1156.75V383.409H1160.28V385.198H1156.75V392.791C1156.75 393.504 1156.9 394.035 1157.2 394.384C1157.51 394.718 1157.91 394.885 1158.4 394.885C1158.64 394.885 1158.9 394.849 1159.19 394.776C1159.48 394.704 1159.78 394.595 1160.08 394.449L1160.41 396.195C1160.09 396.384 1159.74 396.515 1159.36 396.587C1158.99 396.66 1158.61 396.696 1158.23 396.696ZM1163.95 396.5V379.045H1165.94V385.111H1166.42C1166.71 384.529 1167.12 384.064 1167.66 383.715C1168.2 383.365 1168.76 383.191 1169.34 383.191C1170.3 383.191 1171.06 383.555 1171.63 384.282C1172.2 385.009 1172.48 385.976 1172.48 387.184V396.5H1170.5V387.62C1170.5 386.791 1170.34 386.158 1170.04 385.722C1169.75 385.285 1169.31 385.067 1168.73 385.067C1168.19 385.067 1167.68 385.235 1167.2 385.569C1166.72 385.889 1166.3 386.362 1165.94 386.987V396.5H1163.95ZM1177.97 401.038L1179.39 392.485H1182.92L1179.5 401.038H1177.97ZM1198.66 396.5V392.769C1198.66 391.344 1198.9 390.245 1199.38 389.475C1199.88 388.704 1200.67 388.173 1201.76 387.882L1204.97 387.009C1205.58 386.849 1206.02 386.573 1206.28 386.18C1206.55 385.773 1206.69 385.198 1206.69 384.456V383.475C1206.69 382.456 1206.46 381.729 1205.99 381.293C1205.54 380.842 1204.79 380.616 1203.75 380.616C1202.7 380.616 1201.97 380.893 1201.56 381.445C1201.16 381.984 1200.9 383.009 1200.8 384.522L1198.84 384.304C1198.92 382.34 1199.34 380.936 1200.08 380.093C1200.84 379.249 1202.05 378.827 1203.72 378.827C1205.34 378.827 1206.56 379.198 1207.39 379.94C1208.23 380.682 1208.66 381.773 1208.66 383.213V384.74C1208.66 385.918 1208.42 386.842 1207.94 387.511C1207.46 388.165 1206.69 388.631 1205.64 388.907L1202.42 389.78C1201.79 389.94 1201.34 390.253 1201.06 390.718C1200.79 391.184 1200.65 391.853 1200.65 392.725V394.755H1208.83V396.5H1198.66ZM1217.83 396.718C1216.13 396.718 1214.84 396.085 1213.95 394.82C1213.06 393.555 1212.62 391.715 1212.62 389.3V386.333C1212.62 383.875 1213.06 382.013 1213.95 380.747C1214.85 379.467 1216.15 378.827 1217.85 378.827C1219.54 378.827 1220.83 379.467 1221.72 380.747C1222.6 382.013 1223.05 383.875 1223.05 386.333V389.3C1223.05 391.715 1222.6 393.555 1221.72 394.82C1220.83 396.085 1219.53 396.718 1217.83 396.718ZM1217.83 394.929C1218.97 394.929 1219.79 394.478 1220.3 393.576C1220.81 392.66 1221.06 391.169 1221.06 389.104V386.529C1221.06 384.435 1220.81 382.929 1220.3 382.013C1219.79 381.082 1218.97 380.616 1217.83 380.616C1216.7 380.616 1215.88 381.082 1215.37 382.013C1214.86 382.929 1214.6 384.435 1214.6 386.529V389.104C1214.6 391.169 1214.86 392.66 1215.37 393.576C1215.88 394.478 1216.7 394.929 1217.83 394.929ZM1217.83 389.431C1217.48 389.431 1217.2 389.336 1216.98 389.147C1216.76 388.944 1216.65 388.573 1216.65 388.035V387.533C1216.65 386.995 1216.76 386.631 1216.98 386.442C1217.2 386.238 1217.48 386.136 1217.83 386.136C1218.18 386.136 1218.46 386.238 1218.66 386.442C1218.88 386.631 1218.99 386.995 1218.99 387.533V388.035C1218.99 388.573 1218.88 388.944 1218.66 389.147C1218.44 389.336 1218.17 389.431 1217.83 389.431ZM1226.83 396.5V392.769C1226.83 391.344 1227.07 390.245 1227.55 389.475C1228.05 388.704 1228.84 388.173 1229.93 387.882L1233.14 387.009C1233.75 386.849 1234.19 386.573 1234.45 386.18C1234.73 385.773 1234.86 385.198 1234.86 384.456V383.475C1234.86 382.456 1234.63 381.729 1234.17 381.293C1233.71 380.842 1232.97 380.616 1231.92 380.616C1230.87 380.616 1230.14 380.893 1229.74 381.445C1229.33 381.984 1229.07 383.009 1228.97 384.522L1227.01 384.304C1227.1 382.34 1227.51 380.936 1228.25 380.093C1229.01 379.249 1230.22 378.827 1231.9 378.827C1233.51 378.827 1234.73 379.198 1235.56 379.94C1236.41 380.682 1236.83 381.773 1236.83 383.213V384.74C1236.83 385.918 1236.59 386.842 1236.11 387.511C1235.63 388.165 1234.86 388.631 1233.82 388.907L1230.59 389.78C1229.96 389.94 1229.51 390.253 1229.23 390.718C1228.96 391.184 1228.82 391.853 1228.82 392.725V394.755H1237V396.5H1226.83ZM1245.87 396.718C1244.19 396.718 1242.93 396.325 1242.1 395.54C1241.28 394.755 1240.84 393.511 1240.77 391.809L1242.73 391.591C1242.85 392.958 1243.12 393.875 1243.54 394.34C1243.96 394.791 1244.74 395.016 1245.87 395.016C1247.08 395.016 1247.92 394.784 1248.38 394.318C1248.86 393.838 1249.1 392.995 1249.1 391.787V391.198C1249.1 390.02 1248.88 389.205 1248.43 388.755C1247.98 388.304 1247.17 388.078 1246 388.078H1244.13V386.311H1246C1247.01 386.311 1247.72 386.158 1248.14 385.853C1248.56 385.533 1248.78 384.871 1248.78 383.867V383.169C1248.78 382.195 1248.52 381.511 1248.01 381.118C1247.52 380.725 1246.79 380.529 1245.83 380.529C1244.87 380.529 1244.19 380.776 1243.78 381.271C1243.37 381.751 1243.13 382.536 1243.06 383.627L1241.1 383.409C1241.17 381.809 1241.58 380.645 1242.34 379.918C1243.1 379.191 1244.26 378.827 1245.83 378.827C1247.49 378.827 1248.72 379.191 1249.54 379.918C1250.35 380.645 1250.76 381.751 1250.76 383.235V383.976C1250.76 384.835 1250.53 385.518 1250.06 386.027C1249.61 386.522 1249 386.798 1248.23 386.856V387.489C1249.13 387.591 1249.83 387.998 1250.32 388.711C1250.83 389.424 1251.09 390.238 1251.09 391.155V391.765C1251.09 393.438 1250.66 394.682 1249.8 395.496C1248.94 396.311 1247.63 396.718 1245.87 396.718ZM1059.77 428.5V411.045H1061.76V426.755H1067.6V428.5H1059.77ZM1074.37 426.951C1074.93 426.951 1075.45 426.827 1075.95 426.58C1076.45 426.318 1076.87 425.853 1077.19 425.184V422.871H1074.42C1073.84 422.871 1073.37 423.024 1073.02 423.329C1072.69 423.62 1072.52 424.136 1072.52 424.878C1072.52 425.533 1072.67 426.042 1072.96 426.405C1073.26 426.769 1073.73 426.951 1074.37 426.951ZM1074.05 428.718C1073 428.718 1072.17 428.391 1071.56 427.736C1070.95 427.067 1070.64 426.158 1070.64 425.009C1070.64 423.875 1070.96 422.98 1071.58 422.325C1072.22 421.656 1073.07 421.322 1074.13 421.322H1077.19V419.14C1077.19 418.5 1077.01 417.969 1076.64 417.547C1076.28 417.111 1075.74 416.893 1075.03 416.893C1074.26 416.893 1073.7 417.075 1073.35 417.438C1073 417.787 1072.73 418.442 1072.54 419.402L1070.86 418.878C1071.07 417.642 1071.51 416.718 1072.19 416.107C1072.89 415.496 1073.84 415.191 1075.05 415.191C1076.26 415.191 1077.24 415.489 1078 416.085C1078.77 416.682 1079.15 417.605 1079.15 418.856V425.402C1079.15 426.056 1079.3 426.485 1079.59 426.689C1079.89 426.893 1080.4 426.907 1081.12 426.733V428.587C1080.16 428.733 1079.42 428.645 1078.91 428.325C1078.42 427.991 1078.13 427.409 1078.04 426.58H1077.67C1077.39 427.205 1076.92 427.722 1076.25 428.129C1075.58 428.522 1074.85 428.718 1074.05 428.718ZM1100.09 428.718C1098.33 428.718 1097.01 428.238 1096.12 427.278C1095.25 426.304 1094.81 424.856 1094.81 422.936V416.696C1094.81 414.747 1095.25 413.285 1096.14 412.311C1097.03 411.322 1098.35 410.827 1100.11 410.827C1101.76 410.827 1103.01 411.322 1103.89 412.311C1104.77 413.3 1105.25 414.755 1105.33 416.675L1103.36 416.893C1103.26 415.351 1102.96 414.245 1102.45 413.576C1101.95 412.907 1101.17 412.573 1100.09 412.573C1098.91 412.573 1098.07 412.893 1097.56 413.533C1097.05 414.173 1096.8 415.227 1096.8 416.696V422.936C1096.8 424.376 1097.05 425.409 1097.56 426.035C1098.07 426.66 1098.91 426.973 1100.09 426.973C1101.17 426.973 1101.95 426.645 1102.45 425.991C1102.96 425.336 1103.26 424.253 1103.36 422.74L1105.33 422.958C1105.25 424.864 1104.77 426.304 1103.89 427.278C1103 428.238 1101.73 428.718 1100.09 428.718ZM1112.67 426.951C1113.22 426.951 1113.75 426.827 1114.24 426.58C1114.75 426.318 1115.17 425.853 1115.49 425.184V422.871H1112.72C1112.13 422.871 1111.67 423.024 1111.32 423.329C1110.98 423.62 1110.82 424.136 1110.82 424.878C1110.82 425.533 1110.96 426.042 1111.25 426.405C1111.56 426.769 1112.03 426.951 1112.67 426.951ZM1112.34 428.718C1111.3 428.718 1110.47 428.391 1109.86 427.736C1109.25 427.067 1108.94 426.158 1108.94 425.009C1108.94 423.875 1109.25 422.98 1109.88 422.325C1110.52 421.656 1111.37 421.322 1112.43 421.322H1115.49V419.14C1115.49 418.5 1115.3 417.969 1114.94 417.547C1114.58 417.111 1114.04 416.893 1113.33 416.893C1112.56 416.893 1112 417.075 1111.65 417.438C1111.3 417.787 1111.03 418.442 1110.84 419.402L1109.16 418.878C1109.36 417.642 1109.81 416.718 1110.49 416.107C1111.19 415.496 1112.14 415.191 1113.35 415.191C1114.56 415.191 1115.54 415.489 1116.29 416.085C1117.06 416.682 1117.45 417.605 1117.45 418.856V425.402C1117.45 426.056 1117.6 426.485 1117.89 426.689C1118.19 426.893 1118.7 426.907 1119.41 426.733V428.587C1118.45 428.733 1117.72 428.645 1117.21 428.325C1116.72 427.991 1116.42 427.409 1116.34 426.58H1115.97C1115.69 427.205 1115.22 427.722 1114.55 428.129C1113.88 428.522 1113.14 428.718 1112.34 428.718ZM1127.35 428.74C1126.5 428.74 1125.66 428.602 1124.82 428.325C1123.99 428.049 1123.28 427.656 1122.7 427.147L1123.42 425.555C1123.96 425.962 1124.58 426.296 1125.27 426.558C1125.99 426.82 1126.68 426.951 1127.37 426.951C1128.11 426.951 1128.67 426.798 1129.05 426.493C1129.43 426.187 1129.62 425.744 1129.62 425.162C1129.62 424.449 1129.42 423.955 1129.03 423.678C1128.63 423.402 1127.92 423.125 1126.89 422.849C1125.67 422.529 1124.71 422.1 1124.03 421.562C1123.36 421.024 1123.03 420.122 1123.03 418.856C1123.03 417.765 1123.38 416.885 1124.1 416.216C1124.81 415.533 1125.75 415.191 1126.91 415.191C1127.67 415.191 1128.43 415.344 1129.2 415.649C1129.97 415.94 1130.63 416.333 1131.19 416.827L1130.49 418.42C1129.99 418.042 1129.43 417.707 1128.81 417.416C1128.18 417.111 1127.56 416.958 1126.93 416.958C1126.31 416.958 1125.83 417.118 1125.49 417.438C1125.16 417.744 1124.99 418.187 1124.99 418.769C1124.99 419.482 1125.19 419.984 1125.6 420.275C1126.02 420.551 1126.76 420.835 1127.83 421.125C1129.09 421.46 1130.03 421.918 1130.64 422.5C1131.27 423.067 1131.58 423.925 1131.58 425.075C1131.58 426.165 1131.19 427.053 1130.4 427.736C1129.63 428.405 1128.61 428.74 1127.35 428.74ZM1139.23 426.951C1139.78 426.951 1140.3 426.827 1140.8 426.58C1141.31 426.318 1141.72 425.853 1142.04 425.184V422.871H1139.27C1138.69 422.871 1138.22 423.024 1137.87 423.329C1137.54 423.62 1137.37 424.136 1137.37 424.878C1137.37 425.533 1137.52 426.042 1137.81 426.405C1138.11 426.769 1138.59 426.951 1139.23 426.951ZM1138.9 428.718C1137.85 428.718 1137.02 428.391 1136.41 427.736C1135.8 427.067 1135.5 426.158 1135.5 425.009C1135.5 423.875 1135.81 422.98 1136.43 422.325C1137.07 421.656 1137.92 421.322 1138.99 421.322H1142.04V419.14C1142.04 418.5 1141.86 417.969 1141.5 417.547C1141.13 417.111 1140.59 416.893 1139.88 416.893C1139.11 416.893 1138.55 417.075 1138.2 417.438C1137.85 417.787 1137.58 418.442 1137.39 419.402L1135.71 418.878C1135.92 417.642 1136.36 416.718 1137.04 416.107C1137.74 415.496 1138.7 415.191 1139.9 415.191C1141.11 415.191 1142.09 415.489 1142.85 416.085C1143.62 416.682 1144 417.605 1144 418.856V425.402C1144 426.056 1144.15 426.485 1144.44 426.689C1144.75 426.893 1145.26 426.907 1145.97 426.733V428.587C1145.01 428.733 1144.27 428.645 1143.76 428.325C1143.27 427.991 1142.98 427.409 1142.89 426.58H1142.52C1142.24 427.205 1141.77 427.722 1141.1 428.129C1140.43 428.522 1139.7 428.718 1138.9 428.718ZM1159.66 428.5V411.045H1168.46V412.791H1161.65V418.093H1167.63V419.86H1161.65V426.755H1168.46V428.5H1159.66ZM1172.13 428.5V415.409H1174.12V417.111H1174.6C1174.84 416.544 1175.24 416.085 1175.78 415.736C1176.33 415.373 1176.91 415.191 1177.52 415.191C1178.44 415.191 1179.19 415.569 1179.77 416.325C1180.36 417.067 1180.66 418.027 1180.66 419.205V428.5H1178.68V419.62C1178.68 418.82 1178.52 418.195 1178.22 417.744C1177.91 417.293 1177.48 417.067 1176.91 417.067C1176.37 417.067 1175.86 417.235 1175.38 417.569C1174.9 417.904 1174.48 418.376 1174.12 418.987V428.5H1172.13ZM1189.05 428.718C1187.54 428.718 1186.42 428.325 1185.69 427.54C1184.96 426.755 1184.6 425.649 1184.6 424.224V419.773C1184.6 418.231 1185 417.082 1185.8 416.325C1186.61 415.569 1187.7 415.191 1189.05 415.191C1190.4 415.191 1191.42 415.547 1192.11 416.26C1192.8 416.973 1193.2 418.093 1193.31 419.62L1191.39 419.707C1191.34 418.747 1191.13 418.056 1190.75 417.635C1190.39 417.198 1189.82 416.98 1189.05 416.98C1188.18 416.98 1187.55 417.205 1187.15 417.656C1186.77 418.093 1186.59 418.798 1186.59 419.773V424.245C1186.59 425.191 1186.78 425.875 1187.17 426.296C1187.57 426.718 1188.2 426.929 1189.07 426.929C1189.83 426.929 1190.39 426.747 1190.75 426.384C1191.13 426.02 1191.34 425.438 1191.39 424.638L1193.31 424.725C1193.23 426.122 1192.85 427.14 1192.17 427.78C1191.49 428.405 1190.45 428.718 1189.05 428.718ZM1205.67 425.664C1205.35 426.74 1204.82 427.518 1204.09 427.998C1203.38 428.478 1202.47 428.718 1201.37 428.718C1200.01 428.718 1198.96 428.325 1198.2 427.54C1197.45 426.74 1197.07 425.635 1197.07 424.224V419.773C1197.07 418.333 1197.45 417.213 1198.2 416.413C1198.96 415.598 1200.01 415.191 1201.35 415.191C1202.68 415.191 1203.72 415.613 1204.47 416.456C1205.22 417.3 1205.6 418.464 1205.6 419.947V422.325H1199.05V424.245C1199.05 425.235 1199.24 425.94 1199.62 426.362C1200.01 426.784 1200.61 426.995 1201.41 426.995C1202.15 426.995 1202.7 426.849 1203.05 426.558C1203.41 426.253 1203.68 425.765 1203.85 425.096L1205.67 425.664ZM1199.05 419.773V420.776H1203.61V419.991C1203.61 418.944 1203.43 418.173 1203.05 417.678C1202.68 417.169 1202.11 416.915 1201.32 416.915C1200.55 416.915 1199.98 417.155 1199.6 417.635C1199.24 418.1 1199.05 418.813 1199.05 419.773ZM1209.54 428.5V415.409H1211.52V417.111H1212C1212.25 416.544 1212.64 416.085 1213.18 415.736C1213.73 415.373 1214.32 415.191 1214.93 415.191C1215.84 415.191 1216.59 415.569 1217.17 416.325C1217.77 417.067 1218.07 418.027 1218.07 419.205V428.5H1216.08V419.62C1216.08 418.82 1215.93 418.195 1215.63 417.744C1215.32 417.293 1214.88 417.067 1214.32 417.067C1213.78 417.067 1213.27 417.235 1212.79 417.569C1212.31 417.904 1211.89 418.376 1211.52 418.987V428.5H1209.54ZM1225.8 426.842C1226.37 426.842 1226.88 426.675 1227.33 426.34C1227.78 426.005 1228.19 425.489 1228.55 424.791V417.787C1228.23 417.496 1227.89 417.278 1227.53 417.133C1227.16 416.987 1226.78 416.915 1226.37 416.915C1225.57 416.915 1224.97 417.155 1224.58 417.635C1224.19 418.1 1223.99 418.82 1223.99 419.795V424.224C1223.99 425.111 1224.14 425.773 1224.43 426.209C1224.72 426.631 1225.18 426.842 1225.8 426.842ZM1228.07 426.798C1227.85 427.409 1227.49 427.882 1226.98 428.216C1226.47 428.551 1225.86 428.718 1225.15 428.718C1224.14 428.718 1223.37 428.318 1222.81 427.518C1222.28 426.718 1222.01 425.598 1222.01 424.158V419.751C1222.01 418.296 1222.37 417.169 1223.1 416.369C1223.84 415.569 1224.89 415.169 1226.24 415.169C1226.6 415.169 1226.99 415.227 1227.4 415.344C1227.8 415.445 1228.19 415.598 1228.55 415.802V411.045H1230.54V428.5H1228.55V426.798H1228.07ZM1235.94 428.5V415.409H1237.92V428.5H1235.94ZM1236.94 412.944C1236.49 412.944 1236.12 412.864 1235.83 412.704C1235.54 412.529 1235.39 412.216 1235.39 411.765V411.635C1235.39 411.169 1235.54 410.849 1235.83 410.675C1236.12 410.5 1236.49 410.413 1236.94 410.413C1237.39 410.413 1237.76 410.5 1238.05 410.675C1238.34 410.849 1238.49 411.169 1238.49 411.635V411.765C1238.49 412.216 1238.34 412.529 1238.05 412.704C1237.76 412.864 1237.39 412.944 1236.94 412.944ZM1247.11 426.842C1247.67 426.842 1248.18 426.675 1248.63 426.34C1249.09 426.005 1249.49 425.489 1249.86 424.791V417.787C1249.54 417.496 1249.19 417.278 1248.83 417.133C1248.47 416.987 1248.08 416.915 1247.67 416.915C1246.87 416.915 1246.28 417.155 1245.89 417.635C1245.49 418.1 1245.3 418.82 1245.3 419.795V424.224C1245.3 425.111 1245.44 425.773 1245.73 426.209C1246.02 426.631 1246.48 426.842 1247.11 426.842ZM1249.38 426.798C1249.16 427.409 1248.79 427.882 1248.29 428.216C1247.78 428.551 1247.17 428.718 1246.45 428.718C1245.45 428.718 1244.67 428.318 1244.12 427.518C1243.58 426.718 1243.31 425.598 1243.31 424.158V419.751C1243.31 418.296 1243.67 417.169 1244.4 416.369C1245.14 415.569 1246.19 415.169 1247.54 415.169C1247.91 415.169 1248.29 415.227 1248.7 415.344C1249.11 415.445 1249.49 415.598 1249.86 415.802V411.045H1251.84V428.5H1249.86V426.798H1249.38ZM1259.55 426.951C1260.11 426.951 1260.63 426.827 1261.13 426.58C1261.63 426.318 1262.05 425.853 1262.37 425.184V422.871H1259.6C1259.02 422.871 1258.55 423.024 1258.2 423.329C1257.87 423.62 1257.7 424.136 1257.7 424.878C1257.7 425.533 1257.85 426.042 1258.14 426.405C1258.44 426.769 1258.91 426.951 1259.55 426.951ZM1259.23 428.718C1258.18 428.718 1257.35 428.391 1256.74 427.736C1256.13 427.067 1255.82 426.158 1255.82 425.009C1255.82 423.875 1256.14 422.98 1256.76 422.325C1257.4 421.656 1258.25 421.322 1259.31 421.322H1262.37V419.14C1262.37 418.5 1262.19 417.969 1261.82 417.547C1261.46 417.111 1260.92 416.893 1260.21 416.893C1259.44 416.893 1258.88 417.075 1258.53 417.438C1258.18 417.787 1257.91 418.442 1257.72 419.402L1256.04 418.878C1256.25 417.642 1256.69 416.718 1257.37 416.107C1258.07 415.496 1259.02 415.191 1260.23 415.191C1261.44 415.191 1262.42 415.489 1263.18 416.085C1263.95 416.682 1264.33 417.605 1264.33 418.856V425.402C1264.33 426.056 1264.48 426.485 1264.77 426.689C1265.07 426.893 1265.58 426.907 1266.3 426.733V428.587C1265.34 428.733 1264.6 428.645 1264.09 428.325C1263.6 427.991 1263.31 427.409 1263.22 426.58H1262.85C1262.57 427.205 1262.1 427.722 1261.43 428.129C1260.76 428.522 1260.03 428.718 1259.23 428.718ZM1064.57 456.136L1061.58 445.664V460.5H1059.77V443.045H1062.59L1065.73 454.151L1068.87 443.045H1071.58V460.5H1069.76V445.533L1066.78 456.136H1064.57ZM1079.27 458.951C1079.83 458.951 1080.35 458.827 1080.84 458.58C1081.35 458.318 1081.77 457.853 1082.09 457.184V454.871H1079.32C1078.74 454.871 1078.27 455.024 1077.92 455.329C1077.59 455.62 1077.42 456.136 1077.42 456.878C1077.42 457.533 1077.56 458.042 1077.86 458.405C1078.16 458.769 1078.63 458.951 1079.27 458.951ZM1078.95 460.718C1077.9 460.718 1077.07 460.391 1076.46 459.736C1075.85 459.067 1075.54 458.158 1075.54 457.009C1075.54 455.875 1075.86 454.98 1076.48 454.325C1077.12 453.656 1077.97 453.322 1079.03 453.322H1082.09V451.14C1082.09 450.5 1081.91 449.969 1081.54 449.547C1081.18 449.111 1080.64 448.893 1079.93 448.893C1079.16 448.893 1078.6 449.075 1078.25 449.438C1077.9 449.787 1077.63 450.442 1077.44 451.402L1075.76 450.878C1075.96 449.642 1076.41 448.718 1077.09 448.107C1077.79 447.496 1078.74 447.191 1079.95 447.191C1081.16 447.191 1082.14 447.489 1082.9 448.085C1083.67 448.682 1084.05 449.605 1084.05 450.856V457.402C1084.05 458.056 1084.2 458.485 1084.49 458.689C1084.79 458.893 1085.3 458.907 1086.02 458.733V460.587C1085.06 460.733 1084.32 460.645 1083.81 460.325C1083.32 459.991 1083.03 459.409 1082.94 458.58H1082.57C1082.29 459.205 1081.82 459.722 1081.15 460.129C1080.48 460.522 1079.75 460.718 1078.95 460.718ZM1093.38 458.842C1093.95 458.842 1094.46 458.675 1094.91 458.34C1095.36 458.005 1095.77 457.489 1096.13 456.791V449.787C1095.81 449.496 1095.47 449.278 1095.1 449.133C1094.74 448.987 1094.36 448.915 1093.95 448.915C1093.15 448.915 1092.55 449.155 1092.16 449.635C1091.77 450.1 1091.57 450.82 1091.57 451.795V456.224C1091.57 457.111 1091.72 457.773 1092.01 458.209C1092.3 458.631 1092.76 458.842 1093.38 458.842ZM1095.65 458.798C1095.43 459.409 1095.07 459.882 1094.56 460.216C1094.05 460.551 1093.44 460.718 1092.73 460.718C1091.72 460.718 1090.94 460.318 1090.39 459.518C1089.85 458.718 1089.58 457.598 1089.58 456.158V451.751C1089.58 450.296 1089.95 449.169 1090.68 448.369C1091.42 447.569 1092.46 447.169 1093.82 447.169C1094.18 447.169 1094.57 447.227 1094.97 447.344C1095.38 447.445 1095.77 447.598 1096.13 447.802V443.045H1098.12V460.5H1096.13V458.798H1095.65ZM1102.05 460.5V447.409H1104.04V449.111H1104.52C1104.71 448.442 1105.05 447.955 1105.54 447.649C1106.05 447.344 1106.59 447.191 1107.16 447.191C1107.92 447.191 1108.51 447.467 1108.95 448.02C1109.4 448.573 1109.62 449.358 1109.62 450.376V452.776H1107.75V450.616C1107.75 450.151 1107.64 449.78 1107.42 449.504C1107.2 449.213 1106.9 449.067 1106.5 449.067C1106.08 449.067 1105.63 449.256 1105.15 449.635C1104.69 449.998 1104.32 450.456 1104.04 451.009V460.5H1102.05ZM1114.34 460.5V447.409H1116.33V460.5H1114.34ZM1115.35 444.944C1114.9 444.944 1114.53 444.864 1114.23 444.704C1113.94 444.529 1113.8 444.216 1113.8 443.765V443.635C1113.8 443.169 1113.94 442.849 1114.23 442.675C1114.53 442.5 1114.9 442.413 1115.35 442.413C1115.8 442.413 1116.17 442.5 1116.46 442.675C1116.75 442.849 1116.9 443.169 1116.9 443.635V443.765C1116.9 444.216 1116.75 444.529 1116.46 444.704C1116.17 444.864 1115.8 444.944 1115.35 444.944ZM1125.51 458.842C1126.08 458.842 1126.59 458.675 1127.04 458.34C1127.49 458.005 1127.9 457.489 1128.26 456.791V449.787C1127.94 449.496 1127.6 449.278 1127.24 449.133C1126.87 448.987 1126.49 448.915 1126.08 448.915C1125.28 448.915 1124.68 449.155 1124.29 449.635C1123.9 450.1 1123.7 450.82 1123.7 451.795V456.224C1123.7 457.111 1123.85 457.773 1124.14 458.209C1124.43 458.631 1124.89 458.842 1125.51 458.842ZM1127.78 458.798C1127.56 459.409 1127.2 459.882 1126.69 460.216C1126.18 460.551 1125.57 460.718 1124.86 460.718C1123.86 460.718 1123.08 460.318 1122.52 459.518C1121.99 458.718 1121.72 457.598 1121.72 456.158V451.751C1121.72 450.296 1122.08 449.169 1122.81 448.369C1123.55 447.569 1124.6 447.169 1125.95 447.169C1126.31 447.169 1126.7 447.227 1127.11 447.344C1127.51 447.445 1127.9 447.598 1128.26 447.802V443.045H1130.25V460.5H1128.26V458.798H1127.78Z" fill="#1E193B"/>
</g>
<defs>
<clipPath id="clip0_425_47">
<rect width="1298" height="611" fill="white"/>
</clipPath>
</defs>
</svg>
