<?xml version="1.0" encoding="utf-8"?>
<!-- Generator: Adobe Illustrator 21.0.0, SVG Export Plug-In . SVG Version: 6.00 Build 0)  -->
<svg version="1.1" id="Layer_1" xmlns="http://www.w3.org/2000/svg" xmlns:xlink="http://www.w3.org/1999/xlink" x="0px" y="0px"
	 viewBox="0 0 1298 611" enable-background="new 0 0 1298 611" xml:space="preserve">
<g>
	<defs>
		<rect id="SVGID_1_" x="0.7" width="1246" height="610.5"/>
	</defs>
	<clipPath id="SVGID_2_">
		<use xlink:href="#SVGID_1_"  overflow="visible"/>
	</clipPath>
	<g clip-path="url(#SVGID_2_)">
		
			<path fill="#1E193B" stroke="#1E193B" stroke-width="2" stroke-linecap="round" stroke-linejoin="round" stroke-miterlimit="10" d="
			M19.8,272L3.6,255.8L19.8,20.3h90.9c26.2,0,46.8,5.7,61.8,17.1s22.5,29.1,22.5,53v37.4c0,23.3-7.3,40.2-22,50.8
			c-14.7,10.6-35.3,15.9-62,15.9H80.5V272H19.8z M80.5,149.9h26.7c9,0,15.8-1.8,20.4-5.5c4.6-3.7,6.9-11.1,6.9-22.2V94.9
			c0-11.3-2.3-19-6.9-23.1s-11.4-6.1-20.4-6.1H80.5V149.9z"/>
		
			<path fill="#1E193B" stroke="#1E193B" stroke-width="2" stroke-linecap="round" stroke-linejoin="round" stroke-miterlimit="10" d="
			M316.1,275.1c-28.5,0-50.2-7.2-65.1-21.7c-14.9-14.4-22.3-34.5-22.3-60v-93.1c0-25.8,7.5-46.1,22.5-60.9s36.8-22.2,65.3-22.2
			c20.3,0,32.1-4.5,45.6,3.1c5.3,3,15,14.9,19.2,19c14.9,14.8,22.3,35.1,22.3,60.9v93.1c0,25.6-7.4,45.6-22.3,60.1
			C366.3,267.9,344.6,275.1,316.1,275.1z M316.1,229.8c9.9,0,16.8-3,20.8-9.1c4-6.1,6-17.1,6-33v-81.8c0-16.1-2-27.4-6-33.8
			s-10.9-9.6-20.8-9.6c-9.6,0-16.5,3.2-20.6,9.6c-4.1,6.4-6.1,17.7-6.1,33.8v81.8c0,15.9,2,27,6.1,33
			C299.6,226.8,306.5,229.8,316.1,229.8z"/>
		
			<path fill="#1E193B" stroke="#1E193B" stroke-width="2" stroke-linecap="round" stroke-linejoin="round" stroke-miterlimit="10" d="
			M436.3,272l-16.2-16.2l16.2-235.5L595.6,4.1l16.2,16.2v45.3H497v49.7l84.2-16.2l16.2,16.2v45.3H497v66.1l98.6-16.2l16.2,16.2V272
			H436.3z"/>
		
			<path fill="#1E193B" stroke="#1E193B" stroke-width="2" stroke-linecap="round" stroke-linejoin="round" stroke-miterlimit="10" d="
			M702.1,272l-16.2-16.2l16.2-190.2h-63.2l-16.2-16.2l16.2-29.1L810.5,4.1l16.2,16.2v45.3h-63.5V272H702.1z"/>
		
			<path fill="#1E193B" stroke="#1E193B" stroke-width="2" stroke-linecap="round" stroke-linejoin="round" stroke-miterlimit="10" d="
			M913.5,272h-60.7l-16.2-16.2l16.2-235.5h96.6c17.9,0,24.8-7.8,36.2-1.9c4.8,2.5,16.6,16.2,20.3,19.7c12.3,11.9,18.4,29,18.4,51.4
			v22.3c0,17-3.3,31-9.8,42s-16,18.8-28.6,23.4l47.5,94.7h-63.2L954,255.7L926.1,183h-12.6V272z M913.5,137.7h25.8
			c10.1,0,17.1-1.8,21.2-5.5c4.1-3.7,6.1-10.9,6.1-21.6V92.7c0-10.5-2-17.6-6.1-21.4c-4.1-3.8-11.2-5.7-21.2-5.7h-25.8V137.7z"/>
		
			<path fill="#1E193B" stroke="#1E193B" stroke-width="2" stroke-linecap="round" stroke-linejoin="round" stroke-miterlimit="10" d="
			M1179.6,272h-61l-16.2-16.2l16.2-78.2l-66.4-157.3l43.9-16.2l16.2,16.2l36.5,101.9l37.1-101.9l43.6-16.2l16.2,16.2l-66.1,157.3
			V272z"/>
		
			<path fill="#1E193B" stroke="#1E193B" stroke-width="2" stroke-linecap="round" stroke-linejoin="round" stroke-miterlimit="10" d="
			M103.4,609.5c-17.6,0-33.4-2.3-47.3-6.8s-26.7-10.3-38.2-17.5L1.7,569.1L30.1,540c11.5,7.1,23.1,13,34.8,17.5
			c11.6,4.5,24.8,6.8,39.5,6.8c11.3,0,19.4-2.5,24.2-7.4c4.8-4.9,7.2-11.3,7.2-19c0-9.9-3.2-16.7-9.6-20.6
			c-6.4-3.9-17.4-8.1-32.9-12.7c-25.5-7.3-43.6-16.6-54.2-28l-20.2-21c0,0,4.3-11,4.3-26.3c0-22,7.1-40.4,21.4-55.2
			c14.3-14.8,35.8-22.2,64.5-22.2c13.8,0,27.6,2.4,41.4,7.1c9.5,3.3,10.5-4.5,17.6-0.9l16.2,16.2l-9.1,43.1
			c-11.3-6.3-22.1-11.2-32.2-14.6c-10.2-3.5-20.6-5.2-31.3-5.2c-9.4,0-16.4,2.1-20.9,6.3c-4.5,4.2-6.8,10.4-6.8,18.6
			s2.8,14.5,8.5,19c5.7,4.5,17,9.2,34,14c19.2,5.7,27.3,4.7,38.1,12.8c0,0,14.3,14.2,16.2,16.2c10.9,11.5,15.9,28,15.9,48.8
			c0,23.9-8.2,42.6-24.5,56.2C155.7,602.7,132.8,609.5,103.4,609.5z"/>
		
			<path fill="#1E193B" stroke="#1E193B" stroke-width="2" stroke-linecap="round" stroke-linejoin="round" stroke-miterlimit="10" d="
			M242.5,606.4l-16.2-16.2l16.2-235.5l44.5-16.2l16.2,16.2V561l84.8-16.2l16.2,16.2v45.3H242.5V606.4z"/>
		
			<path fill="#1E193B" stroke="#1E193B" stroke-width="2" stroke-linecap="round" stroke-linejoin="round" stroke-miterlimit="10" d="
			M566.8,606.4l-16.2-16.2l4.9-42h-62.9l-12.9,58.2h-54.4l-16.2-16.2l77.8-235.5l59-16.2l16.2,16.2l61.7,251.7H566.8L566.8,606.4z
			 M546.4,502.9L525.9,399l-23,103.8h43.5V502.9z"/>
		
			<path fill="#1E193B" stroke="#1E193B" stroke-width="2" stroke-linecap="round" stroke-linejoin="round" stroke-miterlimit="10" d="
			M728.2,609.5c-17.6,0-33.4-2.3-47.3-6.8c-13.9-4.5-26.7-10.3-38.2-17.5L626.5,569l28.4-29.1c11.5,7.1,23.1,13,34.8,17.5
			c11.6,4.5,24.8,6.8,39.5,6.8c11.3,0,19.4-2.5,24.2-7.4c4.8-4.9,7.2-11.3,7.2-19c0-9.9-3.2-16.7-9.6-20.6
			c-6.4-3.9-17.4-8.1-32.9-12.7c-25.6-7.1-43.7-16.4-54.3-27.8l-17.6-17.8c-3-8.3,1.7-18.8,1.7-29.6c0-22,7.1-40.4,21.4-55.2
			c14.3-14.8,35.8-22.2,64.5-22.2c13.8,0,27.6,2.4,41.4,7.1c5.9,2,14.8-0.1,17.1-0.8c0.3-0.1,0.7,0,1,0.3l15.8,15.8l-9.1,43.1
			c-11.3-6.3-22.1-11.2-32.2-14.6c-10.2-3.5-20.6-5.2-31.3-5.2c-9.4,0-16.4,2.1-20.9,6.3c-4.5,4.2-6.8,10.4-6.8,18.6
			s2.8,14.5,8.5,19s17,9.2,34,14c17,5,25.3,3.4,35.7,10.3c0,0,15,14.7,18.6,18.7c10.6,11.7,15.9,28,15.9,48.8
			c0,23.9-8.2,42.6-24.5,56.2C780.4,602.7,757.6,609.5,728.2,609.5z"/>
		
			<path fill="#1E193B" stroke="#1E193B" stroke-width="2" stroke-linecap="round" stroke-linejoin="round" stroke-miterlimit="10" d="
			M852.8,606.4l-16.2-16.2l16.2-235.5l44.5-16.2l16.2,16.2V444h54.7v-89.3l44.5-16.2l16.2,16.2v251.7h-60.7L952,590.2l16.2-100.8
			h-54.7v117H852.8L852.8,606.4z"/>
		
			<path fill="#FFFFFF" stroke="#1E193B" stroke-width="2" stroke-linecap="round" stroke-linejoin="round" stroke-miterlimit="10" d="
			M3.6,255.8V4.1h90.9c26.2,0,46.8,5.7,61.8,17.1s22.5,29.1,22.5,53v37.4c0,23.3-7.3,40.2-22,50.8c-14.7,10.6-35.3,15.9-62,15.9
			H64.3v77.4H3.6V255.8z M64.3,133.8H91c9,0,15.8-1.8,20.4-5.5c4.6-3.7,6.9-11.1,6.9-22.2V78.7c0-11.3-2.3-19-6.9-23.1
			c-4.6-4.1-11.4-6.1-20.4-6.1H64.3V133.8z"/>
		
			<path fill="#FFFFFF" stroke="#1E193B" stroke-width="2" stroke-linecap="round" stroke-linejoin="round" stroke-miterlimit="10" d="
			M299.9,259c-28.5,0-50.2-7.2-65.1-21.7c-14.9-14.5-22.3-34.5-22.3-60.1V84.1c0-25.8,7.5-46.1,22.5-60.9S271.7,1,300.2,1
			c28.3,0,49.9,7.4,64.8,22.2c14.9,14.8,22.3,35.1,22.3,60.9v93.1c0,25.6-7.4,45.6-22.3,60.1C350.2,251.7,328.4,259,299.9,259z
			 M299.9,213.7c9.9,0,16.8-3,20.8-9.1c4-6.1,6-17.1,6-33V89.7c0-16.1-2-27.4-6-33.8s-10.9-9.6-20.8-9.6c-9.6,0-16.5,3.2-20.6,9.6
			s-6.1,17.7-6.1,33.8v81.8c0,15.9,2,27,6.1,33C283.4,210.6,290.3,213.7,299.9,213.7z"/>
		
			<path fill="#FFFFFF" stroke="#1E193B" stroke-width="2" stroke-linecap="round" stroke-linejoin="round" stroke-miterlimit="10" d="
			M420.1,255.8V4.1h175.5v45.3H480.8v49.7h100.4v45.3H480.8v66.1h114.8v45.3H420.1L420.1,255.8z"/>
		
			<path fill="#FFFFFF" stroke="#1E193B" stroke-width="2" stroke-linecap="round" stroke-linejoin="round" stroke-miterlimit="10" d="
			M685.9,255.8V49.4h-63.2V4.1h187.8v45.3H747v206.4H685.9z"/>
		
			<path fill="#FFFFFF" stroke="#1E193B" stroke-width="2" stroke-linecap="round" stroke-linejoin="round" stroke-miterlimit="10" d="
			M897.3,255.8h-60.7V4.1h96.6c25.4,0,44.2,5.9,56.5,17.8c12.3,11.9,18.4,29,18.4,51.4v22.3c0,17-3.3,31-9.8,42
			c-6.5,11-16,18.8-28.6,23.4l47.5,94.7H954l-44-89h-12.6v89.1H897.3z M897.3,121.5h25.8c10.1,0,17.1-1.8,21.2-5.5
			c4.1-3.7,6.1-10.9,6.1-21.6V76.5c0-10.5-2-17.6-6.1-21.4c-4.1-3.8-11.2-5.7-21.2-5.7h-25.8V121.5z"/>
		
			<path fill="#FFFFFF" stroke="#1E193B" stroke-width="2" stroke-linecap="round" stroke-linejoin="round" stroke-miterlimit="10" d="
			M1163.5,255.8h-61v-94.4L1036,4.1h60.1l36.5,101.9l37.1-101.9h59.8l-66.1,157.3L1163.5,255.8L1163.5,255.8z"/>
		
			<path fill="#FFFFFF" stroke="#1E193B" stroke-width="2" stroke-linecap="round" stroke-linejoin="round" stroke-miterlimit="10" d="
			M87.3,593.3c-17.6,0-33.4-2.3-47.3-6.8c-14-4.5-26.8-10.3-38.3-17.4L14,523.8c11.5,7.1,23.1,13,34.8,17.5
			c11.6,4.5,24.8,6.8,39.5,6.8c11.3,0,19.4-2.5,24.2-7.4c4.8-4.9,7.2-11.3,7.2-19c0-9.9-3.2-16.7-9.6-20.6s-17.4-8.1-32.9-12.7
			c-25.6-7.1-43.7-16.4-54.3-27.8C12.3,449,7,433.2,7,413.1c0-22,7.1-40.4,21.4-55.2c14.3-14.8,35.8-22.2,64.5-22.2
			c13.8,0,27.6,2.4,41.4,7.1c13.7,4.7,25,9.8,33.8,15.3l-9.1,43.1c-11.3-6.3-22.1-11.2-32.2-14.6c-10.2-3.5-20.6-5.2-31.3-5.2
			c-9.4,0-16.4,2.1-20.9,6.3c-4.5,4.2-6.8,10.4-6.8,18.6c0,8.2,2.8,14.5,8.5,19c5.7,4.5,17,9.2,34,14c25.6,7.5,43.7,17.2,54.3,28.9
			c10.6,11.7,15.9,28,15.9,48.8c0,23.9-8.2,42.6-24.5,56.2C139.5,586.6,116.6,593.3,87.3,593.3z"/>
		
			<path fill="#FFFFFF" stroke="#1E193B" stroke-width="2" stroke-linecap="round" stroke-linejoin="round" stroke-miterlimit="10" d="
			M226.3,590.2V338.5H287v206.4h101v45.3H226.3L226.3,590.2z"/>
		
			<path fill="#FFFFFF" stroke="#1E193B" stroke-width="2" stroke-linecap="round" stroke-linejoin="round" stroke-miterlimit="10" d="
			M550.6,590.2L539.3,532h-62.9l-12.9,58.2h-54.4l61.6-251.7h75.2l61.7,251.7H550.6z M530.2,486.7l-20.4-103.8l-23,103.8H530.2z"/>
		
			<path fill="#FFFFFF" stroke="#1E193B" stroke-width="2" stroke-linecap="round" stroke-linejoin="round" stroke-miterlimit="10" d="
			M712,593.3c-17.6,0-33.4-2.3-47.3-6.8c-13.9-4.5-26.7-10.3-38.2-17.5l12.3-45.3c11.5,7.1,23.1,13,34.8,17.5
			c11.6,4.5,24.8,6.8,39.5,6.8c11.3,0,19.4-2.5,24.2-7.4c4.8-4.9,7.2-11.3,7.2-19c0-9.9-3.2-16.7-9.6-20.6
			c-6.4-3.9-17.4-8.1-32.9-12.7c-25.6-7.1-43.7-16.4-54.3-27.8c-10.6-11.4-15.9-27.2-15.9-47.3c0-22,7.1-40.4,21.4-55.2
			c14.3-14.8,35.8-22.2,64.5-22.2c13.8,0,27.6,2.4,41.4,7.1c13.7,4.7,25,9.8,33.8,15.3l-9.1,43.1c-11.3-6.3-22.1-11.2-32.2-14.6
			c-10.2-3.5-20.6-5.2-31.3-5.2c-9.4,0-16.4,2.1-20.9,6.3c-4.5,4.2-6.8,10.4-6.8,18.6c0,8.2,2.8,14.5,8.5,19s17,9.2,34,14
			c25.6,7.5,43.7,17.2,54.3,28.9c10.6,11.7,15.9,28,15.9,48.8c0,23.9-8.2,42.6-24.5,56.2C764.2,586.6,741.4,593.3,712,593.3z"/>
		
			<path fill="#FFFFFF" stroke="#1E193B" stroke-width="2" stroke-linecap="round" stroke-linejoin="round" stroke-miterlimit="10" d="
			M836.6,590.2V338.5h60.7v89.3H952v-89.3h60.7v251.7H952v-117h-54.7v117H836.6z"/>
	</g>
</g>
<path fill="none" stroke="#1E193B" stroke-width="2" stroke-linecap="round" stroke-linejoin="round" stroke-miterlimit="10" d="
	M1060.7,536.3c19.7,0,35.6-16,35.6-35.9v-19.2"/>
<path fill="none" stroke="#1E193B" stroke-width="2" stroke-linecap="round" stroke-linejoin="round" stroke-miterlimit="10" d="
	M1101.8,486.7l-5.5-5.5l-5.5,5.5"/>
<g>
	<path fill="#1E193B" d="M1068.9,396.6l-1.3-5.2h-5.2l-1.3,5.2h-2l4.8-17.5h2.2l4.8,17.5H1068.9z M1067.1,389.6l-2.1-8.2l-2.1,8.2
		H1067.1z"/>
	<path fill="#1E193B" d="M1078.2,396.8c-0.4,0-0.7-0.1-1.2-0.2c-0.4-0.1-0.8-0.3-1.2-0.5v4.8h-2v-17.5h2v1.7h0.5
		c0.2-0.6,0.6-1.1,1.1-1.4c0.5-0.3,1.1-0.5,1.8-0.5c1,0,1.8,0.4,2.3,1.2s0.8,1.9,0.8,3.4v4.4c0,1.4-0.4,2.6-1.1,3.4
		S1079.5,396.8,1078.2,396.8z M1078.1,395c0.8,0,1.5-0.2,1.8-0.7c0.4-0.4,0.6-1.2,0.6-2.2v-4.5c0-0.9-0.1-1.6-0.4-2
		c-0.3-0.4-0.8-0.6-1.4-0.6c-0.6,0-1.1,0.2-1.5,0.5c-0.4,0.3-0.8,0.8-1.2,1.6v7c0.3,0.3,0.7,0.5,1,0.7
		C1077.2,395,1077.6,395,1078.1,395z"/>
	<path fill="#1E193B" d="M1086.4,396.6v-13.1h2v1.7h0.5c0.2-0.7,0.5-1.2,1-1.5c0.5-0.3,1-0.5,1.6-0.5c0.8,0,1.4,0.3,1.8,0.8
		c0.4,0.6,0.7,1.3,0.7,2.4v2.4h-1.9v-2.2c0-0.5-0.1-0.8-0.3-1.1c-0.2-0.3-0.5-0.4-0.9-0.4c-0.4,0-0.9,0.2-1.3,0.6s-0.8,0.8-1.1,1.4
		v9.5H1086.4z"/>
	<path fill="#1E193B" d="M1099.6,381c-0.5,0-0.8-0.1-1.1-0.3s-0.4-0.5-0.4-0.9v-0.1c0-0.5,0.1-0.8,0.4-1s0.7-0.3,1.1-0.3
		c0.5,0,0.8,0.1,1.1,0.3s0.4,0.5,0.4,1v0.1c0,0.5-0.1,0.8-0.4,0.9S1100.1,381,1099.6,381z M1098.6,396.6v-13.1h2v13.1H1098.6z"/>
	<path fill="#1E193B" d="M1110.5,396.6c-1.1,0-2-0.4-2.7-1.2s-0.9-1.9-0.9-3.3v-13h2v13c0,0.9,0.2,1.6,0.5,2
		c0.3,0.4,0.8,0.7,1.4,0.7c0.2,0,0.4,0,0.6-0.1s0.4-0.1,0.6-0.3l0.3,1.7c-0.2,0.1-0.5,0.2-0.8,0.3
		C1111.1,396.6,1110.8,396.6,1110.5,396.6z"/>
	<path fill="#1E193B" d="M1125.3,396.6v-3.7c0-1.4,0.2-2.5,0.7-3.3c0.5-0.8,1.3-1.3,2.4-1.6l3.2-0.9c0.6-0.2,1-0.4,1.3-0.8
		c0.3-0.4,0.4-1,0.4-1.7v-1c0-1-0.2-1.7-0.7-2.2s-1.2-0.7-2.3-0.7c-1,0-1.8,0.3-2.2,0.8c-0.4,0.5-0.7,1.6-0.8,3.1l-2-0.2
		c0.1-2,0.5-3.4,1.3-4.2c0.7-0.8,2-1.3,3.6-1.3c1.6,0,2.8,0.4,3.7,1.1c0.8,0.7,1.3,1.8,1.3,3.3v1.5c0,1.2-0.2,2.1-0.7,2.8
		c-0.5,0.7-1.2,1.1-2.3,1.4l-3.2,0.9c-0.6,0.2-1.1,0.5-1.4,0.9s-0.4,1.1-0.4,2v2h8.2v1.7H1125.3z"/>
	<path fill="#1E193B" d="M1144.5,396.8c-1.8,0-3.1-0.4-3.9-1.2c-0.8-0.8-1.3-2-1.3-3.8l2-0.2c0.1,1.3,0.4,2.2,0.8,2.7
		s1.3,0.7,2.5,0.7c1.1,0,1.9-0.2,2.4-0.7s0.7-1.2,0.7-2.3v-1.1c0-1.1-0.2-1.9-0.6-2.4c-0.4-0.5-1.1-0.7-2.1-0.7h-5.1v-8.7h9.2v1.8
		h-7.2v5h3.4c1.5,0,2.6,0.4,3.3,1.2s1.1,2,1.1,3.6v1.4c0,1.5-0.4,2.7-1.3,3.5S1146.2,396.8,1144.5,396.8z"/>
	<path fill="#1E193B" d="M1158.6,396.8c-1.1,0-2-0.3-2.6-1c-0.6-0.7-0.9-1.7-0.9-3v-7.5h-2v-1.8h2v-4.4h2v4.4h3.5v1.8h-3.5v7.6
		c0,0.7,0.2,1.2,0.5,1.6c0.3,0.3,0.7,0.5,1.2,0.5c0.2,0,0.5,0,0.8-0.1c0.3-0.1,0.6-0.2,0.9-0.3l0.3,1.7c-0.3,0.2-0.7,0.3-1,0.4
		C1159.4,396.7,1159,396.8,1158.6,396.8z"/>
	<path fill="#1E193B" d="M1164.3,396.6v-17.5h2v6.1h0.5c0.3-0.6,0.7-1,1.2-1.4c0.5-0.3,1.1-0.5,1.7-0.5c1,0,1.7,0.4,2.3,1.1
		s0.9,1.7,0.9,2.9v9.3h-2v-8.9c0-0.8-0.1-1.5-0.4-1.9c-0.3-0.4-0.7-0.7-1.3-0.7c-0.5,0-1,0.2-1.5,0.5c-0.5,0.3-0.9,0.8-1.3,1.4v9.5
		H1164.3z"/>
	<path fill="#1E193B" d="M1178.3,401.1l1.4-8.6h3.5l-3.4,8.6H1178.3z"/>
	<path fill="#1E193B" d="M1199,396.6v-3.7c0-1.4,0.2-2.5,0.7-3.3c0.5-0.8,1.3-1.3,2.4-1.6l3.2-0.9c0.6-0.2,1-0.4,1.3-0.8
		c0.3-0.4,0.4-1,0.4-1.7v-1c0-1-0.2-1.7-0.7-2.2s-1.2-0.7-2.3-0.7c-1,0-1.8,0.3-2.2,0.8c-0.4,0.5-0.7,1.6-0.8,3.1l-2-0.2
		c0.1-2,0.5-3.4,1.3-4.2c0.7-0.8,2-1.3,3.6-1.3c1.6,0,2.8,0.4,3.7,1.1c0.8,0.7,1.3,1.8,1.3,3.3v1.5c0,1.2-0.2,2.1-0.7,2.8
		c-0.5,0.7-1.2,1.1-2.3,1.4l-3.2,0.9c-0.6,0.2-1.1,0.5-1.4,0.9s-0.4,1.1-0.4,2v2h8.2v1.7H1199z"/>
	<path fill="#1E193B" d="M1218.2,396.8c-1.7,0-3-0.6-3.9-1.9c-0.9-1.3-1.3-3.1-1.3-5.5v-3c0-2.5,0.4-4.3,1.3-5.6
		c0.9-1.3,2.2-1.9,3.9-1.9c1.7,0,3,0.6,3.9,1.9c0.9,1.3,1.3,3.1,1.3,5.6v3c0,2.4-0.4,4.3-1.3,5.5
		C1221.2,396.1,1219.9,396.8,1218.2,396.8z M1218.2,395c1.1,0,2-0.5,2.5-1.4c0.5-0.9,0.8-2.4,0.8-4.5v-2.6c0-2.1-0.3-3.6-0.8-4.5
		c-0.5-0.9-1.3-1.4-2.5-1.4c-1.1,0-2,0.5-2.5,1.4c-0.5,0.9-0.8,2.4-0.8,4.5v2.6c0,2.1,0.3,3.6,0.8,4.5
		C1216.2,394.5,1217.1,395,1218.2,395z M1218.2,389.5c-0.3,0-0.6-0.1-0.9-0.3s-0.3-0.6-0.3-1.1v-0.5c0-0.5,0.1-0.9,0.3-1.1
		c0.2-0.2,0.5-0.3,0.9-0.3c0.3,0,0.6,0.1,0.8,0.3c0.2,0.2,0.3,0.6,0.3,1.1v0.5c0,0.5-0.1,0.9-0.3,1.1
		C1218.8,389.4,1218.5,389.5,1218.2,389.5z"/>
	<path fill="#1E193B" d="M1227.2,396.6v-3.7c0-1.4,0.2-2.5,0.7-3.3c0.5-0.8,1.3-1.3,2.4-1.6l3.2-0.9c0.6-0.2,1-0.4,1.3-0.8
		c0.3-0.4,0.4-1,0.4-1.7v-1c0-1-0.2-1.7-0.7-2.2s-1.2-0.7-2.3-0.7c-1,0-1.8,0.3-2.2,0.8c-0.4,0.5-0.7,1.6-0.8,3.1l-2-0.2
		c0.1-2,0.5-3.4,1.3-4.2c0.7-0.8,2-1.3,3.6-1.3c1.6,0,2.8,0.4,3.7,1.1c0.8,0.7,1.3,1.8,1.3,3.3v1.5c0,1.2-0.2,2.1-0.7,2.8
		c-0.5,0.7-1.2,1.1-2.3,1.4l-3.2,0.9c-0.6,0.2-1.1,0.5-1.4,0.9s-0.4,1.1-0.4,2v2h8.2v1.7H1227.2z"/>
	<path fill="#1E193B" d="M1246.4,396.8c-1.7,0-3-0.6-3.9-1.9c-0.9-1.3-1.3-3.1-1.3-5.5v-3c0-2.5,0.4-4.3,1.3-5.6
		c0.9-1.3,2.2-1.9,3.9-1.9c1.7,0,3,0.6,3.9,1.9c0.9,1.3,1.3,3.1,1.3,5.6v3c0,2.4-0.4,4.3-1.3,5.5
		C1249.4,396.1,1248.1,396.8,1246.4,396.8z M1246.4,395c1.1,0,2-0.5,2.5-1.4c0.5-0.9,0.8-2.4,0.8-4.5v-2.6c0-2.1-0.3-3.6-0.8-4.5
		c-0.5-0.9-1.3-1.4-2.5-1.4c-1.1,0-2,0.5-2.5,1.4c-0.5,0.9-0.8,2.4-0.8,4.5v2.6c0,2.1,0.3,3.6,0.8,4.5
		C1244.4,394.5,1245.3,395,1246.4,395z M1246.4,389.5c-0.3,0-0.6-0.1-0.9-0.3s-0.3-0.6-0.3-1.1v-0.5c0-0.5,0.1-0.9,0.3-1.1
		c0.2-0.2,0.5-0.3,0.9-0.3c0.3,0,0.6,0.1,0.8,0.3c0.2,0.2,0.3,0.6,0.3,1.1v0.5c0,0.5-0.1,0.9-0.3,1.1
		C1247,389.4,1246.7,389.5,1246.4,389.5z"/>
	<path fill="#1E193B" d="M1060.2,428.6v-17.5h2v15.7h5.8v1.7H1060.2z"/>
	<path fill="#1E193B" d="M1074.4,428.8c-1,0-1.9-0.3-2.5-1c-0.6-0.7-0.9-1.6-0.9-2.7c0-1.1,0.3-2,0.9-2.7c0.6-0.7,1.5-1,2.5-1h3.1
		v-2.2c0-0.6-0.2-1.2-0.5-1.6c-0.4-0.4-0.9-0.6-1.6-0.6c-0.8,0-1.3,0.2-1.7,0.5c-0.3,0.4-0.6,1-0.8,2l-1.7-0.5
		c0.2-1.2,0.7-2.2,1.3-2.8c0.7-0.6,1.6-0.9,2.8-0.9c1.2,0,2.2,0.3,3,0.9c0.8,0.6,1.1,1.5,1.1,2.8v6.6c0,0.7,0.1,1.1,0.4,1.3
		c0.3,0.2,0.8,0.2,1.5,0v1.8c-1,0.1-1.7,0.1-2.2-0.3s-0.8-0.9-0.9-1.7h-0.4c-0.3,0.6-0.8,1.1-1.4,1.5
		C1076,428.6,1075.2,428.8,1074.4,428.8z M1074.7,427c0.6,0,1.1-0.1,1.6-0.4s0.9-0.7,1.2-1.4v-2.3h-2.8c-0.6,0-1,0.2-1.4,0.5
		s-0.5,0.8-0.5,1.6c0,0.7,0.1,1.2,0.4,1.5C1073.6,426.8,1074.1,427,1074.7,427z"/>
	<path fill="#1E193B" d="M1100.5,428.8c-1.8,0-3.1-0.5-4-1.5c-0.9-1-1.3-2.4-1.3-4.3v-6.2c0-1.9,0.4-3.4,1.3-4.4
		c0.9-1,2.2-1.5,4-1.5c1.6,0,2.9,0.5,3.8,1.5s1.4,2.4,1.4,4.4l-2,0.2c-0.1-1.5-0.4-2.6-0.9-3.3c-0.5-0.7-1.3-1-2.4-1
		c-1.2,0-2,0.3-2.5,1c-0.5,0.6-0.8,1.7-0.8,3.2v6.2c0,1.4,0.3,2.5,0.8,3.1c0.5,0.6,1.4,0.9,2.5,0.9c1.1,0,1.9-0.3,2.4-1
		c0.5-0.7,0.8-1.7,0.9-3.3l2,0.2c-0.1,1.9-0.6,3.3-1.4,4.3C1103.4,428.3,1102.1,428.8,1100.5,428.8z"/>
	<path fill="#1E193B" d="M1112.7,428.8c-1,0-1.9-0.3-2.5-1c-0.6-0.7-0.9-1.6-0.9-2.7c0-1.1,0.3-2,0.9-2.7c0.6-0.7,1.5-1,2.5-1h3.1
		v-2.2c0-0.6-0.2-1.2-0.5-1.6c-0.4-0.4-0.9-0.6-1.6-0.6c-0.8,0-1.3,0.2-1.7,0.5c-0.3,0.4-0.6,1-0.8,2l-1.7-0.5
		c0.2-1.2,0.7-2.2,1.3-2.8c0.7-0.6,1.6-0.9,2.8-0.9c1.2,0,2.2,0.3,3,0.9c0.8,0.6,1.1,1.5,1.1,2.8v6.6c0,0.7,0.1,1.1,0.4,1.3
		c0.3,0.2,0.8,0.2,1.5,0v1.8c-1,0.1-1.7,0.1-2.2-0.3s-0.8-0.9-0.9-1.7h-0.4c-0.3,0.6-0.8,1.1-1.4,1.5
		C1114.3,428.6,1113.5,428.8,1112.7,428.8z M1113.1,427c0.6,0,1.1-0.1,1.6-0.4s0.9-0.7,1.2-1.4v-2.3h-2.8c-0.6,0-1,0.2-1.4,0.5
		s-0.5,0.8-0.5,1.6c0,0.7,0.1,1.2,0.4,1.5C1112,426.8,1112.4,427,1113.1,427z"/>
	<path fill="#1E193B" d="M1127.7,428.8c-0.8,0-1.7-0.1-2.5-0.4c-0.8-0.3-1.5-0.7-2.1-1.2l0.7-1.6c0.5,0.4,1.2,0.7,1.9,1
		c0.7,0.3,1.4,0.4,2.1,0.4c0.7,0,1.3-0.2,1.7-0.5c0.4-0.3,0.6-0.7,0.6-1.3c0-0.7-0.2-1.2-0.6-1.5c-0.4-0.3-1.1-0.6-2.1-0.8
		c-1.2-0.3-2.2-0.7-2.8-1.3c-0.7-0.5-1-1.4-1-2.7c0-1.1,0.4-2,1.1-2.7c0.7-0.7,1.7-1,2.8-1c0.8,0,1.5,0.1,2.3,0.5
		c0.8,0.3,1.4,0.7,2,1.2l-0.7,1.6c-0.5-0.4-1.1-0.7-1.7-1c-0.6-0.3-1.3-0.4-1.9-0.4c-0.6,0-1.1,0.2-1.4,0.5
		c-0.3,0.3-0.5,0.8-0.5,1.3c0,0.7,0.2,1.2,0.6,1.5c0.4,0.3,1.2,0.6,2.2,0.9c1.3,0.3,2.2,0.8,2.8,1.4c0.6,0.6,0.9,1.4,0.9,2.6
		c0,1.1-0.4,2-1.2,2.7C1130,428.5,1129,428.8,1127.7,428.8z"/>
	<path fill="#1E193B" d="M1139.3,428.8c-1,0-1.9-0.3-2.5-1c-0.6-0.7-0.9-1.6-0.9-2.7c0-1.1,0.3-2,0.9-2.7c0.6-0.7,1.5-1,2.5-1h3.1
		v-2.2c0-0.6-0.2-1.2-0.5-1.6c-0.4-0.4-0.9-0.6-1.6-0.6c-0.8,0-1.3,0.2-1.7,0.5c-0.3,0.4-0.6,1-0.8,2l-1.7-0.5
		c0.2-1.2,0.7-2.2,1.3-2.8c0.7-0.6,1.6-0.9,2.8-0.9c1.2,0,2.2,0.3,3,0.9c0.8,0.6,1.1,1.5,1.1,2.8v6.6c0,0.7,0.1,1.1,0.4,1.3
		c0.3,0.2,0.8,0.2,1.5,0v1.8c-1,0.1-1.7,0.1-2.2-0.3s-0.8-0.9-0.9-1.7h-0.4c-0.3,0.6-0.8,1.1-1.4,1.5
		C1140.8,428.6,1140.1,428.8,1139.3,428.8z M1139.6,427c0.6,0,1.1-0.1,1.6-0.4s0.9-0.7,1.2-1.4v-2.3h-2.8c-0.6,0-1,0.2-1.4,0.5
		s-0.5,0.8-0.5,1.6c0,0.7,0.1,1.2,0.4,1.5C1138.5,426.8,1139,427,1139.6,427z"/>
	<path fill="#1E193B" d="M1160.1,428.6v-17.5h8.8v1.7h-6.8v5.3h6v1.8h-6v6.9h6.8v1.7H1160.1z"/>
	<path fill="#1E193B" d="M1172.5,428.6v-13.1h2v1.7h0.5c0.2-0.6,0.6-1,1.2-1.4s1.1-0.5,1.7-0.5c0.9,0,1.7,0.4,2.3,1.1
		c0.6,0.8,0.9,1.7,0.9,2.9v9.3h-2v-8.9c0-0.8-0.2-1.4-0.5-1.9s-0.7-0.7-1.3-0.7c-0.5,0-1,0.2-1.5,0.5c-0.5,0.3-0.9,0.8-1.3,1.4v9.5
		H1172.5z"/>
	<path fill="#1E193B" d="M1189.4,428.8c-1.5,0-2.6-0.4-3.4-1.2c-0.7-0.8-1.1-1.9-1.1-3.3v-4.5c0-1.5,0.4-2.7,1.2-3.4
		c0.8-0.8,1.9-1.1,3.2-1.1c1.4,0,2.4,0.4,3.1,1.1c0.7,0.7,1.1,1.8,1.2,3.4l-1.9,0.1c0-1-0.3-1.7-0.6-2.1c-0.4-0.4-0.9-0.6-1.7-0.6
		c-0.9,0-1.5,0.2-1.9,0.7c-0.4,0.4-0.6,1.2-0.6,2.1v4.5c0,0.9,0.2,1.6,0.6,2.1s1,0.6,1.9,0.6c0.8,0,1.3-0.2,1.7-0.5
		c0.4-0.4,0.6-0.9,0.6-1.7l1.9,0.1c-0.1,1.4-0.5,2.4-1.1,3S1190.8,428.8,1189.4,428.8z"/>
	<path fill="#1E193B" d="M1206,425.7c-0.3,1.1-0.8,1.9-1.6,2.3c-0.7,0.5-1.6,0.7-2.7,0.7c-1.4,0-2.4-0.4-3.2-1.2
		c-0.8-0.8-1.1-1.9-1.1-3.3v-4.5c0-1.4,0.4-2.6,1.1-3.4c0.8-0.8,1.8-1.2,3.1-1.2c1.3,0,2.4,0.4,3.1,1.3s1.1,2,1.1,3.5v2.4h-6.5v1.9
		c0,1,0.2,1.7,0.6,2.1c0.4,0.4,1,0.6,1.8,0.6c0.7,0,1.3-0.1,1.6-0.4c0.4-0.3,0.6-0.8,0.8-1.5L1206,425.7z M1199.4,419.8v1h4.6V420
		c0-1-0.2-1.8-0.6-2.3c-0.4-0.5-0.9-0.7-1.7-0.7c-0.8,0-1.3,0.2-1.7,0.7C1199.6,418.2,1199.4,418.9,1199.4,419.8z"/>
	<path fill="#1E193B" d="M1209.9,428.6v-13.1h2v1.7h0.5c0.2-0.6,0.6-1,1.2-1.4s1.1-0.5,1.7-0.5c0.9,0,1.7,0.4,2.3,1.1
		c0.6,0.8,0.9,1.7,0.9,2.9v9.3h-2v-8.9c0-0.8-0.2-1.4-0.5-1.9s-0.7-0.7-1.3-0.7c-0.5,0-1,0.2-1.5,0.5c-0.5,0.3-0.9,0.8-1.3,1.4v9.5
		H1209.9z"/>
	<path fill="#1E193B" d="M1228.4,426.9c-0.2,0.6-0.6,1.1-1.1,1.4c-0.5,0.3-1.1,0.5-1.8,0.5c-1,0-1.8-0.4-2.3-1.2
		c-0.5-0.8-0.8-1.9-0.8-3.4v-4.4c0-1.5,0.4-2.6,1.1-3.4c0.7-0.8,1.8-1.2,3.1-1.2c0.4,0,0.7,0.1,1.2,0.2s0.8,0.3,1.2,0.5v-4.8h2v17.5
		h-2v-1.7H1228.4z M1226.1,426.9c0.6,0,1.1-0.2,1.5-0.5c0.5-0.3,0.9-0.9,1.2-1.5v-7c-0.3-0.3-0.7-0.5-1-0.7s-0.7-0.2-1.2-0.2
		c-0.8,0-1.4,0.2-1.8,0.7s-0.6,1.2-0.6,2.2v4.4c0,0.9,0.1,1.5,0.4,2C1225.1,426.7,1225.5,426.9,1226.1,426.9z"/>
	<path fill="#1E193B" d="M1237.3,413c-0.5,0-0.8-0.1-1.1-0.3s-0.4-0.5-0.4-0.9v-0.1c0-0.5,0.1-0.8,0.4-1s0.7-0.3,1.1-0.3
		c0.5,0,0.8,0.1,1.1,0.3s0.4,0.5,0.4,1v0.1c0,0.5-0.1,0.8-0.4,0.9S1237.7,413,1237.3,413z M1236.3,428.6v-13.1h2v13.1H1236.3z"/>
	<path fill="#1E193B" d="M1249.7,426.9c-0.2,0.6-0.6,1.1-1.1,1.4c-0.5,0.3-1.1,0.5-1.8,0.5c-1,0-1.8-0.4-2.3-1.2
		c-0.5-0.8-0.8-1.9-0.8-3.4v-4.4c0-1.5,0.4-2.6,1.1-3.4c0.7-0.8,1.8-1.2,3.1-1.2c0.4,0,0.7,0.1,1.2,0.2s0.8,0.3,1.2,0.5v-4.8h2v17.5
		h-2v-1.7H1249.7z M1247.4,426.9c0.6,0,1.1-0.2,1.5-0.5c0.5-0.3,0.9-0.9,1.2-1.5v-7c-0.3-0.3-0.7-0.5-1-0.7s-0.7-0.2-1.2-0.2
		c-0.8,0-1.4,0.2-1.8,0.7s-0.6,1.2-0.6,2.2v4.4c0,0.9,0.1,1.5,0.4,2C1246.4,426.7,1246.8,426.9,1247.4,426.9z"/>
	<path fill="#1E193B" d="M1259.5,428.8c-1,0-1.9-0.3-2.5-1c-0.6-0.7-0.9-1.6-0.9-2.7c0-1.1,0.3-2,0.9-2.7c0.6-0.7,1.5-1,2.5-1h3.1
		v-2.2c0-0.6-0.2-1.2-0.5-1.6c-0.4-0.4-0.9-0.6-1.6-0.6c-0.8,0-1.3,0.2-1.7,0.5c-0.3,0.4-0.6,1-0.8,2l-1.7-0.5
		c0.2-1.2,0.7-2.2,1.3-2.8c0.7-0.6,1.6-0.9,2.8-0.9c1.2,0,2.2,0.3,3,0.9c0.8,0.6,1.1,1.5,1.1,2.8v6.6c0,0.7,0.1,1.1,0.4,1.3
		c0.3,0.2,0.8,0.2,1.5,0v1.8c-1,0.1-1.7,0.1-2.2-0.3s-0.8-0.9-0.9-1.7h-0.4c-0.3,0.6-0.8,1.1-1.4,1.5
		C1261.1,428.6,1260.3,428.8,1259.5,428.8z M1259.9,427c0.6,0,1.1-0.1,1.6-0.4s0.9-0.7,1.2-1.4v-2.3h-2.8c-0.6,0-1,0.2-1.4,0.5
		s-0.5,0.8-0.5,1.6c0,0.7,0.1,1.2,0.4,1.5C1258.8,426.8,1259.2,427,1259.9,427z"/>
	<path fill="#1E193B" d="M1065,456.2l-3-10.5v14.8h-1.8v-17.5h2.8l3.1,11.1l3.1-11.1h2.7v17.5h-1.8v-15l-3,10.6H1065z"/>
	<path fill="#1E193B" d="M1079.3,460.8c-1,0-1.9-0.3-2.5-1c-0.6-0.7-0.9-1.6-0.9-2.7c0-1.1,0.3-2,0.9-2.7c0.6-0.7,1.5-1,2.5-1h3.1
		v-2.2c0-0.6-0.2-1.2-0.5-1.6c-0.4-0.4-0.9-0.6-1.6-0.6c-0.8,0-1.3,0.2-1.7,0.5c-0.3,0.4-0.6,1-0.8,2l-1.7-0.5
		c0.2-1.2,0.7-2.2,1.3-2.8c0.7-0.6,1.6-0.9,2.8-0.9c1.2,0,2.2,0.3,3,0.9c0.8,0.6,1.1,1.5,1.1,2.8v6.6c0,0.7,0.1,1.1,0.4,1.3
		c0.3,0.2,0.8,0.2,1.5,0v1.8c-1,0.1-1.7,0.1-2.2-0.3s-0.8-0.9-0.9-1.7h-0.4c-0.3,0.6-0.8,1.1-1.4,1.5
		C1080.9,460.6,1080.1,460.8,1079.3,460.8z M1079.7,459c0.6,0,1.1-0.1,1.6-0.4s0.9-0.7,1.2-1.4v-2.3h-2.8c-0.6,0-1,0.2-1.4,0.5
		s-0.5,0.8-0.5,1.6c0,0.7,0.1,1.2,0.4,1.5C1078.5,458.8,1079,459,1079.7,459z"/>
	<path fill="#1E193B" d="M1096,458.9c-0.2,0.6-0.6,1.1-1.1,1.4c-0.5,0.3-1.1,0.5-1.8,0.5c-1,0-1.8-0.4-2.3-1.2
		c-0.5-0.8-0.8-1.9-0.8-3.4v-4.4c0-1.5,0.4-2.6,1.1-3.4c0.7-0.8,1.8-1.2,3.1-1.2c0.4,0,0.7,0.1,1.2,0.2s0.8,0.3,1.2,0.5v-4.8h2v17.5
		h-2v-1.7H1096z M1093.8,458.9c0.6,0,1.1-0.2,1.5-0.5c0.5-0.3,0.9-0.9,1.2-1.5v-7c-0.3-0.3-0.7-0.5-1-0.7s-0.7-0.2-1.2-0.2
		c-0.8,0-1.4,0.2-1.8,0.7s-0.6,1.2-0.6,2.2v4.4c0,0.9,0.1,1.5,0.4,2C1092.7,458.7,1093.1,458.9,1093.8,458.9z"/>
	<path fill="#1E193B" d="M1102.4,460.6v-13.1h2v1.7h0.5c0.2-0.7,0.5-1.2,1-1.5c0.5-0.3,1-0.5,1.6-0.5c0.8,0,1.4,0.3,1.8,0.8
		c0.4,0.6,0.7,1.3,0.7,2.4v2.4h-1.9v-2.2c0-0.5-0.1-0.8-0.3-1.1c-0.2-0.3-0.5-0.4-0.9-0.4c-0.4,0-0.9,0.2-1.3,0.6s-0.8,0.8-1.1,1.4
		v9.5H1102.4z"/>
	<path fill="#1E193B" d="M1115.7,445c-0.5,0-0.8-0.1-1.1-0.3s-0.4-0.5-0.4-0.9v-0.1c0-0.5,0.1-0.8,0.4-1s0.7-0.3,1.1-0.3
		c0.5,0,0.8,0.1,1.1,0.3s0.4,0.5,0.4,1v0.1c0,0.5-0.1,0.8-0.4,0.9S1116.2,445,1115.7,445z M1114.7,460.6v-13.1h2v13.1H1114.7z"/>
	<path fill="#1E193B" d="M1128.2,458.9c-0.2,0.6-0.6,1.1-1.1,1.4c-0.5,0.3-1.1,0.5-1.8,0.5c-1,0-1.8-0.4-2.3-1.2
		c-0.5-0.8-0.8-1.9-0.8-3.4v-4.4c0-1.5,0.4-2.6,1.1-3.4c0.7-0.8,1.8-1.2,3.1-1.2c0.4,0,0.7,0.1,1.2,0.2s0.8,0.3,1.2,0.5v-4.8h2v17.5
		h-2v-1.7H1128.2z M1125.9,458.9c0.6,0,1.1-0.2,1.5-0.5c0.5-0.3,0.9-0.9,1.2-1.5v-7c-0.3-0.3-0.7-0.5-1-0.7s-0.7-0.2-1.2-0.2
		c-0.8,0-1.4,0.2-1.8,0.7s-0.6,1.2-0.6,2.2v4.4c0,0.9,0.1,1.5,0.4,2C1124.8,458.7,1125.3,458.9,1125.9,458.9z"/>
</g>
</svg>
